<svg xmlns="http://www.w3.org/2000/svg" width="295.557" height="292.36" viewBox="0 0 295.557 292.36">
    <defs>
        <style>
            .prefix__cls-2{fill:#878787}.prefix__cls-3{fill:#dfc822}.prefix__cls-4{fill:#fff}.prefix__cls-5{fill:#ebd619}.prefix__cls-8{fill:#1d1d1b}.prefix__cls-9{fill:#eff0f2}.prefix__cls-10{fill:none}.prefix__cls-13{fill:#f5bc8e}.prefix__cls-14{fill:#f4bc8f}.prefix__cls-15{fill:#f7b58e}
        </style>
    </defs>
    <g id="prefix___1" data-name="1" transform="translate(-824 -1878.978)">
        <ellipse id="prefix__Ellipse_192" cx="147.778" cy="30.524" data-name="Ellipse 192" rx="147.778" ry="30.524" transform="translate(824 2110.291)" style="opacity:.5;fill:#c6c6c6"/>
        <g id="prefix__Illustrations" transform="translate(689.14 1635.212)">
            <g id="prefix__Group_533" data-name="Group 533" transform="translate(160.2 243.767)">
                <path id="prefix__Path_2760" d="M244.162 247.77l2.586 205.106H412.01l-8.774-205.449z" class="prefix__cls-2" data-name="Path 2760" transform="translate(-169.317 -247.427)"/>
                <path id="prefix__Path_2761" d="M329.88 413.1l-.13 4.333h57.577l1.025-3.827z" class="prefix__cls-3" data-name="Path 2761" transform="translate(-174.24 -256.956)"/>
                <g id="prefix__Group_517" data-name="Group 517" transform="translate(158.983 83.065)">
                    <g id="prefix__Group_515" data-name="Group 515">
                        <path id="prefix__Path_2762" d="M399.158 340.556h-63.807a1.856 1.856 0 0 1-1.828-2.5 3.505 3.505 0 0 1 3.167-2.5h63.81a1.856 1.856 0 0 1 1.828 2.5 3.506 3.506 0 0 1-3.17 2.5z" class="prefix__cls-4" data-name="Path 2762" transform="translate(-333.435 -335.561)"/>
                        <path id="prefix__Path_2763" d="M373.347 335.561h-36.658a3.507 3.507 0 0 0-3.167 2.5 1.856 1.856 0 0 0 1.828 2.5h33.277z" class="prefix__cls-3" data-name="Path 2763" transform="translate(-333.435 -335.561)"/>
                    </g>
                    <g id="prefix__Group_516" data-name="Group 516" transform="translate(1.571 9.529)">
                        <path id="prefix__Path_2764" d="M400.825 350.666h-63.807a1.856 1.856 0 0 1-1.828-2.5 3.506 3.506 0 0 1 3.167-2.5h63.807a1.856 1.856 0 0 1 1.828 2.5 3.507 3.507 0 0 1-3.167 2.5z" class="prefix__cls-4" data-name="Path 2764" transform="translate(-335.102 -345.672)"/>
                        <path id="prefix__Path_2765" d="M384.43 345.672h-46.074a3.506 3.506 0 0 0-3.167 2.5 1.856 1.856 0 0 0 1.828 2.5h42.935z" class="prefix__cls-3" data-name="Path 2765" transform="translate(-335.102 -345.672)"/>
                    </g>
                </g>
                <path id="prefix__Path_2766" d="M332.613 423.7l-.01 3.884h69.383l-.612-3.884z" class="prefix__cls-5" data-name="Path 2766" transform="translate(-174.404 -257.565)"/>
                <path id="prefix__Path_2767" d="M329.978 363.651l-.968 32.863h65.007l-1.374-32.863z" data-name="Path 2767" transform="translate(-174.197 -254.112)" style="fill:#1d1d1b;opacity:.5"/>
                <path id="prefix__Path_2768" d="M264.382 319.759l-2.47-51.473h104.017l-.391 44.124z" class="prefix__cls-3" data-name="Path 2768" transform="translate(-170.338 -248.627)"/>
                <path id="prefix__Path_2769" d="M164.749 280.589l2.586 205.106h169.386l-9.8-205.449z" data-name="Path 2769" transform="translate(-164.749 -249.314)" style="fill:#c6c6c6"/>
                <path id="prefix__Path_2770" d="M164.749 280.589l.157 12.456h162.621l-.611-12.8z" class="prefix__cls-8" data-name="Path 2770" transform="translate(-164.749 -249.314)"/>
                <path id="prefix__Path_2771" d="M311.161 282.391l.762 8.7 19.268-.725.075-7.976z" class="prefix__cls-9" data-name="Path 2771" transform="translate(-173.171 -249.438)"/>
                <path id="prefix__Path_2772" d="M301.562 287.395a4.041 4.041 0 0 1-3.661 2.888 2.141 2.141 0 0 1-2.114-2.888 4.039 4.039 0 0 1 3.662-2.888 2.141 2.141 0 0 1 2.113 2.888z" class="prefix__cls-9" data-name="Path 2772" transform="translate(-172.28 -249.56)"/>
                <path id="prefix__Path_2773" d="M289.527 287.395a4.04 4.04 0 0 1-3.662 2.888 2.141 2.141 0 0 1-2.114-2.888 4.039 4.039 0 0 1 3.661-2.888 2.141 2.141 0 0 1 2.115 2.888z" class="prefix__cls-5" data-name="Path 2773" transform="translate(-171.588 -249.56)"/>
                <path id="prefix__Path_2774" d="M171.279 283.485l-1.806 6.739h51.036l1.547-5.776z" class="prefix__cls-9" data-name="Path 2774" transform="translate(-165.021 -249.501)"/>
                <path id="prefix__Line_1" d="M0 0L0 0" class="prefix__cls-10" data-name="Line 1" transform="translate(9.969 34.054)"/>
                <path id="prefix__Line_2" d="M0 0L1.031 0" class="prefix__cls-10" data-name="Line 2" transform="translate(8.182 40.723)"/>
                <g id="prefix__Group_518" data-name="Group 518" transform="translate(7.175 34.847)">
                    <path id="prefix__Path_2775" d="M173.677 289.245h-1.315l1.3-4.844h1.315z" data-name="Path 2775" transform="translate(-172.362 -284.401)" style="fill:#053c5e"/>
                </g>
                <path id="prefix__Path_2776" d="M244.065 247.77l.1 12.456H404.07l-.543-12.8z" class="prefix__cls-8" data-name="Path 2776" transform="translate(-169.311 -247.427)"/>
                <path id="prefix__Path_2777" d="M388.025 249.572l.71 8.7 18.95-.725.109-7.976z" class="prefix__cls-9" data-name="Path 2777" transform="translate(-177.592 -247.55)"/>
                <path id="prefix__Path_2778" d="M378.563 254.576a4.008 4.008 0 0 1-3.613 2.888 2.125 2.125 0 0 1-2.066-2.888 4.009 4.009 0 0 1 3.613-2.888 2.125 2.125 0 0 1 2.066 2.888z" class="prefix__cls-9" data-name="Path 2778" transform="translate(-176.715 -247.672)"/>
                <path id="prefix__Path_3346" d="M3.277 0c1.81 0 3.277 1.12 3.277 2.5S5.087 5 3.277 5 0 3.884 0 2.5 1.467 0 3.277 0z" class="prefix__cls-3" data-name="Path 3346" transform="rotate(-42.936 101.164 -229.97)"/>
                <path id="prefix__Path_2779" d="M250.471 250.666l-1.806 6.739h50.185l1.547-5.776z" class="prefix__cls-9" data-name="Path 2779" transform="translate(-169.576 -247.613)"/>
                <g id="prefix__Group_519" data-name="Group 519" transform="translate(81.772 3.916)">
                    <path id="prefix__Path_2780" d="M252.8 256.427h-1.293l1.3-4.845h1.293z" data-name="Path 2780" transform="translate(-251.511 -251.582)" style="fill:#01888b"/>
                </g>
                <path id="prefix__Path_2781" d="M185.832 300.921l-.484 55.676h91.578l-1.11-55.676z" class="prefix__cls-2" data-name="Path 2781" transform="translate(-165.934 -250.504)"/>
                <path id="prefix__Path_2782" d="M184.779 368.214l-.13 4.333h57.576l1.025-3.827z" class="prefix__cls-4" data-name="Path 2782" transform="translate(-165.894 -254.374)"/>
                <path id="prefix__Path_2783" d="M186.46 473.527l-.13 4.333h57.576l1.025-3.827z" class="prefix__cls-4" data-name="Path 2783" transform="translate(-165.991 -260.431)"/>
                <path id="prefix__Path_2784" d="M185.09 379.332l.174 3.3h87.661l.782-2.918z" class="prefix__cls-4" data-name="Path 2784" transform="translate(-165.919 -255.014)"/>
                <path id="prefix__Path_2785" d="M185.716 389.239l-.01 3.884h69.384l-.612-3.884z" class="prefix__cls-4" data-name="Path 2785" transform="translate(-165.955 -255.583)"/>
                <path id="prefix__Path_2786" d="M185.8 307.942l90.17-.775-.125-6.246h-89.988z" class="prefix__cls-4" data-name="Path 2786" transform="translate(-165.96 -250.504)"/>
                <path id="prefix__Path_2787" d="M262.406 399.924l1.9 22.167h62.945l-2.177-22.167z" class="prefix__cls-4" data-name="Path 2787" transform="translate(-170.366 -256.198)"/>
                <path id="prefix__Path_2788" d="M265.207 431.648h63.225l-.32 3.608h-62.84z" class="prefix__cls-4" data-name="Path 2788" transform="translate(-170.527 -258.023)"/>
                <path id="prefix__Path_2789" d="M266.437 439.307h63.225l-.32 3.608H266.5z" class="prefix__cls-4" data-name="Path 2789" transform="translate(-170.598 -258.463)"/>
                <path id="prefix__Path_2790" d="M268.761 446.965h63.225l-.32 3.608h-62.84z" class="prefix__cls-4" data-name="Path 2790" transform="translate(-170.732 -258.904)"/>
                <g id="prefix__Group_520" data-name="Group 520" transform="translate(58.268 71.132)">
                    <path id="prefix__Path_2791" d="M229.408 325.379c-2.915 2.032-3.228 10.785-2.5 11.876s9.456 1.784 12.809-1.039 4.644-10.592 3.337-12.456-10.73-.413-13.646 1.619z" class="prefix__cls-3" data-name="Path 2791" transform="translate(-226.574 -322.9)"/>
                    <path id="prefix__Path_2792" d="M234.465 329.117l-.405 3.619 3.318-2.484z" class="prefix__cls-4" data-name="Path 2792" transform="translate(-227.004 -323.257)"/>
                </g>
                <g id="prefix__Group_521" data-name="Group 521" transform="translate(185.79 118.317)">
                    <path id="prefix__Path_2793" d="M364.712 375.444c-2.915 2.032-3.228 10.785-2.5 11.876s9.456 1.784 12.809-1.039 4.644-10.592 3.337-12.456-10.731-.413-13.646 1.619z" class="prefix__cls-3" data-name="Path 2793" transform="translate(-361.878 -372.964)"/>
                    <path id="prefix__Path_2794" d="M369.769 379.182l-.405 3.619 3.319-2.484z" class="prefix__cls-4" data-name="Path 2794" transform="translate(-362.308 -373.322)"/>
                </g>
                <path id="prefix__Path_2795" d="M186.147 401.922l.233 49.152h63.446l-2.4-49.152z" class="prefix__cls-2" data-name="Path 2795" transform="translate(-165.98 -256.313)"/>
                <g id="prefix__Group_530" data-name="Group 530" transform="translate(31.302 154.367)">
                    <g id="prefix__Group_522" data-name="Group 522" transform="translate(38.238 27.772)">
                        <path id="prefix__Path_2796" d="M241.232 443.632h-2.664l-.034-1.182h1.6l-.052-1.769h1.063z" class="prefix__cls-4" data-name="Path 2796" transform="translate(-238.533 -440.682)"/>
                    </g>
                    <g id="prefix__Group_523" data-name="Group 523" transform="translate(7.14 29.51)">
                        <path id="prefix__Path_2797" d="M232.862 443.738h-3.83l-.03-1.19h3.828zm-7.684 0H221.3l-.026-1.2h3.876zm-7.778 0h-3.924l-.022-1.2h3.923zm-7.873 0h-3.973l-.017-1.212h3.971z" class="prefix__cls-4" data-name="Path 2797" transform="translate(-205.537 -442.526)"/>
                    </g>
                    <g id="prefix__Group_524" data-name="Group 524" transform="translate(.301 27.68)">
                        <path id="prefix__Path_2798" d="M201.14 443.626h-2.826l-.033-3.042h1.13l.021 1.823h1.693z" class="prefix__cls-4" data-name="Path 2798" transform="translate(-198.281 -440.584)"/>
                    </g>
                    <g id="prefix__Group_525" data-name="Group 525" transform="translate(.086 7.86)">
                        <path id="prefix__Path_2799" d="M199.341 434.391l-1.128-.007-.054-4.967 1.124.011zm-.113-9.9l-1.123-.015-.054-4.92 1.12.019z" class="prefix__cls-4" data-name="Path 2799" transform="translate(-198.052 -419.554)"/>
                    </g>
                    <g id="prefix__Group_526" data-name="Group 526">
                        <path id="prefix__Path_2800" d="M199.111 414.2l-1.117-.024-.032-2.962 2.786.065.014 1.181-1.671-.038z" class="prefix__cls-4" data-name="Path 2800" transform="translate(-197.961 -411.215)"/>
                    </g>
                    <g id="prefix__Group_527" data-name="Group 527" transform="translate(6.725 .158)">
                        <path id="prefix__Path_2801" d="M232.059 413.168l-3.781-.085-.029-1.157 3.779.089zm-7.585-.168l-3.826-.087-.025-1.164 3.824.09zm-7.675-.173l-3.872-.088-.021-1.171 3.87.091zm-7.767-.175l-3.919-.089-.017-1.178 3.917.092z" class="prefix__cls-4" data-name="Path 2801" transform="translate(-205.097 -411.382)"/>
                    </g>
                    <g id="prefix__Group_528" data-name="Group 528" transform="translate(37.412 .878)">
                        <path id="prefix__Path_2802" d="M240.372 415.081l-1.052-.022-.051-1.726-1.579-.036-.033-1.151 2.629.062z" class="prefix__cls-4" data-name="Path 2802" transform="translate(-237.656 -412.147)"/>
                    </g>
                    <g id="prefix__Group_529" data-name="Group 529" transform="translate(39.216 8.543)">
                        <path id="prefix__Path_2803" d="M241.057 434.674l-1.057-.006-.142-4.818 1.058.01zm-.289-9.607l-1.056-.014-.141-4.775 1.054.019z" class="prefix__cls-4" data-name="Path 2803" transform="translate(-239.571 -420.279)"/>
                    </g>
                </g>
                <path id="prefix__Path_2804" d="M185.795 462.826l.5 6.186h64.814l-.124-6.186z" class="prefix__cls-4" data-name="Path 2804" transform="translate(-165.96 -259.816)"/>
                <g id="prefix__Group_532" data-name="Group 532" transform="translate(179.697 44.549)">
                    <path id="prefix__Path_2805" d="M356.11 294.695l-.7 31.055 32.3-.015-1.26-31.04z" class="prefix__cls-8" data-name="Path 2805" transform="translate(-355.413 -294.695)"/>
                    <g id="prefix__Group_531" data-name="Group 531" transform="translate(3.293 2.207)">
                        <path id="prefix__Path_2806" d="M383.462 327.042c.013-.337.024-.676.014-1.019-.248-7.757-5.959-13.743-12.63-13.586-6.531.156-11.818 6.167-11.938 13.626 0 .33.01.655.027.979z" class="prefix__cls-4" data-name="Path 2806" transform="translate(-358.907 -297.922)"/>
                        <path id="prefix__Path_2807" d="M377.995 303.752a6.7 6.7 0 0 0-6.945-6.709 7.194 7.194 0 0 0-6.689 7.2 6.716 6.716 0 0 0 6.8 6.916 7.174 7.174 0 0 0 6.834-7.407z" class="prefix__cls-4" data-name="Path 2807" transform="translate(-359.221 -297.036)"/>
                    </g>
                </g>
                <path id="prefix__Path_2808" d="M373.145 452.994h-17.7l-.414-17.7h17.7z" class="prefix__cls-5" data-name="Path 2808" transform="translate(-175.694 -258.232)"/>
                <path id="prefix__Path_2809" d="M402.4 452.994h-17.7l-.414-17.7h17.7z" class="prefix__cls-4" data-name="Path 2809" transform="translate(-177.376 -258.232)"/>
            </g>
            <g id="prefix__Group_545" data-name="Group 545" transform="translate(173.674 272.84)">
                <path id="prefix__Path_2810" d="M342.9 425.677l-8.326-5.231 25.978-11.583-10.752-24.488c-4.973-10.444-17.815-18.911-30.081-18.918h-53.483c-12.267.008-25.11 8.475-30.082 18.918L225.4 408.863l25.978 11.583-8.325 5.231-4.613 39.793 54.537-.855 54.537.855z" class="prefix__cls-2" data-name="Path 2810" transform="translate(-181.712 -283.289)"/>
                <path id="prefix__Path_2811" d="M366.5 411.512l5.363 17.716c3.912 12.925-.263 26.8-10.817 35.951l-24.334 19.007-7.823-21.272 13.459-12.552a13.681 13.681 0 0 0 3.337-15.7l-5.158-11.562z" class="prefix__cls-13" data-name="Path 2811" transform="translate(-187.664 -285.938)"/>
                <g id="prefix__Group_537" data-name="Group 537" transform="translate(.296 225.286)">
                    <path id="prefix__Path_2812" d="M254.5 531.741l-21.672 2.942-4.168-4.583 2.117-8.306 20.829-3z" class="prefix__cls-14" data-name="Path 2812" transform="translate(-182.195 -517.394)"/>
                    <g id="prefix__Group_536" data-name="Group 536">
                        <path id="prefix__Path_2813" d="M230.686 521.411l-22.419-2.711s-9.061-2.376-16.934-.926v20.2a53.8 53.8 0 0 0 12.076-.013l27.276-3.363-.31-.469a11.343 11.343 0 0 1 .311-12.718z" class="prefix__cls-8" data-name="Path 2813" transform="translate(-180.048 -517.309)"/>
                        <path id="prefix__Path_2814" d="M179.741 526.673c1.5-5.75 6.31-8.156 11.513-8.981v20.379c-6.754-.76-13.6-3.419-11.513-11.398z" class="prefix__cls-2" data-name="Path 2814" transform="translate(-179.359 -517.331)"/>
                        <g id="prefix__Group_534" data-name="Group 534" transform="translate(37.396 5.589)">
                            <path id="prefix__Line_3" d="M0 0L0 8.757" class="prefix__cls-15" data-name="Line 3" transform="translate(1.121)"/>
                            <path id="prefix__Rectangle_149" d="M0 0H2.242V8.757H0z" class="prefix__cls-4" data-name="Rectangle 149"/>
                        </g>
                        <g id="prefix__Group_535" data-name="Group 535" transform="translate(31.861 5.589)">
                            <path id="prefix__Line_4" d="M0 0L0 8.757" class="prefix__cls-15" data-name="Line 4" transform="translate(1.121)"/>
                            <path id="prefix__Rectangle_150" d="M0 0H2.242V8.757H0z" class="prefix__cls-4" data-name="Rectangle 150"/>
                        </g>
                    </g>
                </g>
                <path id="prefix__Path_2815" d="M225.27 411.512l-5.363 17.716c-3.912 12.925.263 26.8 10.817 35.951l24.334 19.007 7.823-21.272-13.46-12.552a13.682 13.682 0 0 1-3.336-15.7l5.163-11.571z" class="prefix__cls-14" data-name="Path 2815" transform="translate(-181.312 -285.938)"/>
                <g id="prefix__Group_541" data-name="Group 541" transform="translate(152.255 225.284)">
                    <path id="prefix__Path_2816" d="M340.592 533.367l22.036 1.317 4.172-4.584-2.117-8.306-20.829-3z" class="prefix__cls-15" data-name="Path 2816" transform="translate(-340.592 -517.392)"/>
                    <g id="prefix__Group_540" data-name="Group 540" transform="translate(22.036)">
                        <path id="prefix__Path_2817" d="M402.327 517.612c-7.62-1.091-15.935 1.091-15.935 1.091l-22.419 2.707a11.342 11.342 0 0 1 .309 12.719l-.309.469 27.275 3.363a54.9 54.9 0 0 0 11.078.128z" class="prefix__cls-8" data-name="Path 2817" transform="translate(-363.973 -517.307)"/>
                        <path id="prefix__Path_2818" d="M416.592 526.673c-1.5-5.75-6.31-8.156-11.513-8.981v20.379c6.753-.76 13.6-3.419 11.513-11.398z" class="prefix__cls-2" data-name="Path 2818" transform="translate(-366.337 -517.329)"/>
                        <g id="prefix__Group_538" data-name="Group 538" transform="translate(10.999 5.592)">
                            <path id="prefix__Line_5" d="M0 0L0 8.757" class="prefix__cls-15" data-name="Line 5" transform="translate(1.121)"/>
                            <path id="prefix__Rectangle_151" d="M0 0H2.242V8.757H0z" class="prefix__cls-4" data-name="Rectangle 151"/>
                        </g>
                        <g id="prefix__Group_539" data-name="Group 539" transform="translate(16.534 5.592)">
                            <path id="prefix__Line_6" d="M0 0L0 8.757" class="prefix__cls-15" data-name="Line 6" transform="translate(1.121)"/>
                            <path id="prefix__Rectangle_152" d="M0 0H2.242V8.757H0z" class="prefix__cls-4" data-name="Rectangle 152"/>
                        </g>
                    </g>
                </g>
                <g id="prefix__Group_542" data-name="Group 542" transform="translate(60.643 147.988)">
                    <path id="prefix__Rectangle_153" d="M0 0H101.165V60.545H0z" data-name="Rectangle 153" style="fill:#353535"/>
                    <path id="prefix__Rectangle_154" d="M0 0H101.165V5.045H0z" data-name="Rectangle 154" transform="translate(0 58.023)" style="fill:#cab7cc"/>
                    <path id="prefix__Path_2819" d="M292.764 461.257a4.047 4.047 0 1 0 4.047-4.047 4.047 4.047 0 0 0-4.047 4.047z" class="prefix__cls-4" data-name="Path 2819" transform="translate(-246.229 -436.555)"/>
                </g>
                <path id="prefix__Path_2820" d="M406.907 480.188c17.963 31.992-162.936 51.627-162.936 51.627l-3.071-14.249s143.858-76.827 166.007-37.378z" class="prefix__cls-8" data-name="Path 2820" transform="translate(-182.603 -289.24)"/>
                <path id="prefix__Path_2821" d="M179.965 480.187C164.706 513.554 344.4 533.562 344.4 533.562l1.334-16.03S198 440.739 179.965 480.187z" class="prefix__cls-2" data-name="Path 2821" transform="translate(-179.045 -289.24)"/>
                <g id="prefix__Group_544" data-name="Group 544" transform="translate(70.286)">
                    <path id="prefix__Path_2822" d="M305.69 364.116c-1.666-5.044-4.685-20-4.685-20l-19.25 3.76V364.2s6.388 4.531 11.762 4.575c5.872.05 12.383-4.091 12.173-4.659z" class="prefix__cls-13" data-name="Path 2822" transform="translate(-255.239 -282.062)"/>
                    <g id="prefix__Group_543" data-name="Group 543" transform="translate(9.846 14.171)">
                        <path id="prefix__Path_2823" d="M304.686 314.7l-3.628-21.385-36.991 4.38 2.242 24.636s2.859 30.488 22.55 26.861c21.299-3.929 16.775-34.769 15.827-34.492z" class="prefix__cls-13" data-name="Path 2823" transform="translate(-264.068 -293.31)"/>
                    </g>
                    <path id="prefix__Path_2824" d="M312.724 310.906a14.658 14.658 0 0 1 1.573-8.9c6.389-10.455-3.282-13.5-6.654-14.4-3.728-1-4.916-6.8-9.924-8.656-7.647-2.829-11.954 4.017-16.1 4.544s-8.247-3.9-13.059.678-2.753 8.851-3.975 11.321-6.243-1.669-9.891 6.063c-2.775 5.881.29 9.331 4.048 11.311a16.421 16.421 0 0 0 14.14.34 63.81 63.81 0 0 0 14.837-9.014c1.439-1.172 12.728-1.949 13.666-.347 3.182 5.435 3.441 23.512 3.441 23.512l3.293-4.611a11.709 11.709 0 0 0 4.605-11.841z" class="prefix__cls-8" data-name="Path 2824" transform="translate(-253.621 -278.275)"/>
                    <path id="prefix__Path_2825" d="M303.428 318.607c-.992 2.581-.4 5.208 1.32 5.871s3.923-.893 4.914-3.472.4-5.208-1.32-5.871-3.922.892-4.914 3.472z" class="prefix__cls-13" data-name="Path 2825" transform="translate(-256.458 -280.386)"/>
                    <ellipse id="prefix__Ellipse_146" cx="1.155" cy="1.112" data-name="Ellipse 146" rx="1.155" ry="1.112" transform="rotate(-12.187 207.465 -138.911)"/>
                    <ellipse id="prefix__Ellipse_147" cx="1.155" cy="1.112" data-name="Ellipse 147" rx="1.155" ry="1.112" transform="rotate(-12.187 213.323 -84.047)"/>
                    <path id="prefix__Path_2826" d="M293.2 332.693c.374 1.729-2.273 3.81-5.944 4.6s-6.933.026-7.314-1.74" data-name="Path 2826" transform="translate(-255.135 -281.405)" style="fill:#eb9d68"/>
                </g>
            </g>
        </g>
    </g>
</svg>
