<svg xmlns="http://www.w3.org/2000/svg" width="728.325" height="407.462" viewBox="0 0 728.325 407.462">
    <defs>
        <style>
            .cls-1{fill:#ccc;opacity:.1}
        </style>
    </defs>
    <path id="Cloud" d="M585.888 504.538a95.071 95.071 0 0 0-39.589 8.578c.035-.829.06-1.66.06-2.5a66.45 66.45 0 0 0-96.518-59.268A42.184 42.184 0 0 0 384.1 399.7a99.417 99.417 0 1 0-190.372 55 55.458 55.458 0 0 0-88.193 51.618 78.487 78.487 0 0 0-2.481-.934 29.333 29.333 0 0 0-10.777-2.955A77.344 77.344 0 0 0 .009 574.556a39.4 39.4 0 0 0-7.808-.779 39.115 39.115 0 0 0-13.709 2.468 38.689 38.689 0 0 0-25.5 36.37v.367A39.21 39.21 0 0 0-7.8 652.2a39.224 39.224 0 0 0 10.433-1.414 54.577 54.577 0 0 0 98.974 12.514 48.265 48.265 0 0 0 69.109-14 24.92 24.92 0 0 0 36.961 4.471 54.577 54.577 0 0 0 74.528 35.918 54.558 54.558 0 0 0 90.339 9.877 83.3 83.3 0 0 0 133.745-12.944 24.928 24.928 0 0 0 30.011-5.112 95.433 95.433 0 1 0 49.592-176.972z" class="cls-1" transform="translate(47.009 -319.92)"/>
</svg>
