<svg xmlns="http://www.w3.org/2000/svg" width="500.838" height="310.446" viewBox="0 0 500.838 310.446">
    <defs>
        <style>
            .prefix__cls-2{fill:#dfc822}.prefix__cls-3{fill:#f7b58e}.prefix__cls-4{fill:#e8b18b}.prefix__cls-5{fill:#f5bc8e}.prefix__cls-6{fill:#1d1d1b}.prefix__cls-7{fill:#878787}.prefix__cls-10{fill:#efefef}.prefix__cls-11{fill:#dbdbdb}.prefix__cls-12{fill:#eb9d68}
        </style>
    </defs>
    <g id="prefix__Group_676" data-name="Group 676" transform="translate(-88.061 -363.521)">
        <path id="prefix__Path_3097" d="M150.938 568.2s-105.008.109-43.62 17.015 81.644 7.9 66.81 23.06 79.356-4.618 161.793-.884 48.2 7.044 139.222 2.714 88.719-12.679 71.619-16.177-3.828-16.942 19.513-18.329 66.209-25.52-102.616-16.075-312.721 8.676-312.721 8.676z" data-name="Path 3097" transform="translate(0 59.897)" style="fill:#c6c6c6;opacity:.5"/>
        <g id="prefix__Group_675" data-name="Group 675" transform="translate(136.107 363.521)">
            <g id="prefix__Group_631" data-name="Group 631" transform="translate(308.792 23.939)">
                <path id="prefix__Path_3098" d="M402.617 381.808l21.43 24.593 31.713 2.261-15.969 28.384 6.851 30.456-31.132-6.013-27.646 15.524-3.1-31.063-24.106-21.9 29.382-12.147z" class="prefix__cls-2" data-name="Path 3098" transform="translate(-360.655 -381.808)"/>
            </g>
            <g id="prefix__Group_638" data-name="Group 638" transform="translate(349.15 104.553)">
                <g id="prefix__Group_633" data-name="Group 633" transform="translate(29.414)">
                    <path id="prefix__Path_3100" d="M414.978 451l-.392 28 7.6-2.023-4.289-27.3z" class="prefix__cls-3" data-name="Path 3100" transform="translate(-413.759 -441.447)"/>
                    <g id="prefix__Group_632" data-name="Group 632">
                        <path id="prefix__Path_3101" d="M419.256 446.058a4.066 4.066 0 0 1-.183 2.9l-.988 3.671-.7.352-2.227.8c.347-.7.14.056.14.056l-.809-5.659s-2.38-3.326 2.86-4.743a1.248 1.248 0 0 1 1.36.444 3.189 3.189 0 0 1 .547 2.179z" class="prefix__cls-3" data-name="Path 3101" transform="translate(-413.954 -443.391)"/>
                    </g>
                    <path id="prefix__Path_3102" d="M418.813 494.979a164.429 164.429 0 0 1-4.227-22.021l7.331-3.729 3.308 9.673z" class="prefix__cls-3" data-name="Path 3102" transform="translate(-413.759 -435.406)"/>
                </g>
                <path id="prefix__Path_3103" d="M433.5 589.081l-3.188.554c-.658-3.953-10.571-22.694-11.376-32.426a219.978 219.978 0 0 0-3.406-22.836l10.661-3.171s2.7 0-.266 22.023c6.663 8.749 8.45 28.603 7.575 35.856z" class="prefix__cls-4" data-name="Path 3103" transform="translate(-384.054 -416.254)"/>
                <path id="prefix__Path_3104" d="M427.125 525.082s-2.5 15.065-5.988 31.178c3.638 9.729-1.906 36.88-2.008 36.783-.418-.393-2.333 1.966-2.333 1.966s-4.044-23.961-4.938-34.766-1.117-23.981-1.117-23.981z" class="prefix__cls-5" data-name="Path 3104" transform="translate(-385.533 -418.145)"/>
                <path id="prefix__Path_3105" d="M420.6 575.839a3.554 3.554 0 0 1 1.238 2.927c-.277 1.64-.672 5.482-.672 5.482H419.6l.048-3.583c-.005-.234-3.346 3.583-3.913 3.583h-8.256s-.548-2.418 4.3-3.194 8.821-5.215 8.821-5.215z" class="prefix__cls-6" data-name="Path 3105" transform="translate(-386.546 -402.458)"/>
                <g id="prefix__Group_634" data-name="Group 634" transform="translate(37.426 169.353)">
                    <path id="prefix__Path_3106" d="M427.208 574.059l.22 3.418a3.2 3.2 0 0 1-.563 2.024 12.847 12.847 0 0 1-2.483 2.58c2.394.77 4.571-1.915 5.713-3.7a4.259 4.259 0 0 0 .619-2.931l-.4-2.69z" class="prefix__cls-4" data-name="Path 3106" transform="translate(-418.744 -572.762)"/>
                    <path id="prefix__Path_3107" d="M432.089 575.189s2.106.188 2.456 1.791 1.344 4.842 1.344 4.842l-1.148.915-1.619-3.214s-3.482 4.694-4.036 4.926h-9.012s0-2.983 5.638-3.118c5.199-.124 6.377-6.142 6.377-6.142z" class="prefix__cls-6" data-name="Path 3107" transform="translate(-420.075 -572.012)"/>
                </g>
                <g id="prefix__Group_636" data-name="Group 636" transform="translate(0 3.261)">
                    <path id="prefix__Path_3108" d="M394.3 454l10.008 26.152 6.309-4.694-14.1-23.764z" class="prefix__cls-3" data-name="Path 3108" transform="translate(-390.613 -444.087)"/>
                    <g id="prefix__Group_635" data-name="Group 635">
                        <path id="prefix__Path_3109" d="M396.415 447.885a4.067 4.067 0 0 1 .906 2.762l.441 3.775-.516.585-1.77 1.571c.062-.781.151 0 .151 0l-2.847-4.956s-3.444-2.207.9-5.465a1.249 1.249 0 0 1 1.427-.092 3.191 3.191 0 0 1 1.308 1.82z" class="prefix__cls-3" data-name="Path 3109" transform="translate(-391.484 -445.882)"/>
                    </g>
                </g>
                <path id="prefix__Path_3110" d="M415.8 480.118h6.45l-2.575-7.58-5.043 3.1z" class="prefix__cls-3" data-name="Path 3110" transform="translate(-384.33 -434.383)"/>
                <path id="prefix__Path_3111" d="M411.156 489.453c.033-.19.076-.349.114-.526a97.5 97.5 0 0 1-9.32-14.037l5.429-6.179 9.851 11.717 3.62.014a7.253 7.253 0 0 1 9.162 1.178c1.56 1.609 2.6 5.973 1.558 10.588-2.875 12.719-.626 19.447-.626 19.447l-16.641 6.2s-.378-11.06-.639-18.818v-.026a8.647 8.647 0 0 0-1.35-4.245 7.582 7.582 0 0 1-1.158-5.313z" class="prefix__cls-7" data-name="Path 3111" transform="translate(-388.25 -435.566)"/>
                <g id="prefix__Group_637" data-name="Group 637" transform="translate(25.413 24.529)">
                    <path id="prefix__Path_3112" d="M414.692 462.129l10.576 3.7-1.042 7.895c-.016.113-.044.219-.065.33-.2.037-.407.073-.609.123l-.1.029c-.031.008-.064.012-.1.02a7.237 7.237 0 0 0-4.944 4.95 12.5 12.5 0 0 1-4.579-.059 4.587 4.587 0 0 1-2.4-1.037c-2.229-4.867 3.263-15.951 3.263-15.951z" class="prefix__cls-3" data-name="Path 3112" transform="translate(-410.897 -462.129)"/>
                </g>
                <path id="prefix__Path_3113" d="M414.51 469.465c2.847 1.393 2.176 16.067 2.668 26.061a11.358 11.358 0 0 0 9.616 10.623c3.77.6 7.908.712 10.406-.709-1.651-1.351-10.548-14.443-7.7-31.777.374-2.282.422-8.634-3.422-12.082-4.268-3.83-13.075 1.166-13.075 1.166s-2.403 4.807 1.507 6.718z" class="prefix__cls-6" data-name="Path 3113" transform="translate(-385.06 -438.217)"/>
                <path id="prefix__Path_3114" d="M411.649 501.222s-2.215 11.276-2.215 17.984c0 3.686.9 26.9.9 26.9s15.811 1.144 18.88 1.144c.762-19.024 5.1-19.61 5.1-28.482 0-3.857-1.977-8.216-3.5-10.993a16.074 16.074 0 0 1-2.193-6.168l-.1-.36z" class="prefix__cls-6" data-name="Path 3114" transform="translate(-385.937 -425.518)"/>
                <circle id="prefix__Ellipse_171" cx=".333" cy=".333" r=".333" data-name="Ellipse 171" transform="translate(27.106 32.921)"/>
            </g>
            <g id="prefix__Group_650" data-name="Group 650" transform="translate(93.186 83.457)">
                <g id="prefix__Group_639" data-name="Group 639" transform="translate(7.752 192.185)">
                    <path id="prefix__Path_3116" d="M207.74 577.25s1.372 1.9 7.836 3.544c1.423.363 2.957.61 2.957 2.957h-6.38l-6.524-1.127v1.127h-3.523s-.982-5.761 1.076-6.5z" class="prefix__cls-6" data-name="Path 3116" transform="translate(-201.872 -573.111)"/>
                    <path id="prefix__Path_3117" d="M207.766 574.088l-.335 4.139a3.985 3.985 0 0 1-4.316.145l-.242-.145v-4.139z" class="prefix__cls-4" data-name="Path 3117" transform="translate(-201.563 -574.088)"/>
                </g>
                <g id="prefix__Group_640" data-name="Group 640" transform="translate(30.762 192.185)">
                    <path id="prefix__Path_3118" d="M225.319 577.25s1.372 1.9 7.835 3.544c1.423.363 2.957.61 2.957 2.957h-6.379l-6.524-1.127v1.127h-3.524s-.98-5.761 1.077-6.5z" class="prefix__cls-7" data-name="Path 3118" transform="translate(-219.45 -573.111)"/>
                    <path id="prefix__Path_3119" d="M225.344 574.088l-.335 4.139a3.985 3.985 0 0 1-4.316.145l-.242-.145v-4.139z" class="prefix__cls-4" data-name="Path 3119" transform="translate(-219.14 -574.088)"/>
                </g>
                <g id="prefix__Group_641" data-name="Group 641" transform="translate(8.564 99.122)">
                    <path id="prefix__Path_3120" d="M234.463 503.836c3.218 41.185-5.2 93.34-5.2 93.34h-6.552s-2-92.137-12.716-94.181c16.379.005 17.449.841 24.468.841z" class="prefix__cls-7" data-name="Path 3120" transform="translate(-200.174 -502.996)"/>
                    <path id="prefix__Path_3121" d="M228.511 503.638c2.516 33.684-19.594 93.34-19.594 93.34h-6.425a583.734 583.734 0 0 0 4.265-64.337c.029-7.092 1.433-21.648.72-28.163 6.756 0 14.899-.84 21.034-.84z" class="prefix__cls-6" data-name="Path 3121" transform="translate(-202.492 -502.798)"/>
                </g>
                <g id="prefix__Group_649" data-name="Group 649">
                    <g id="prefix__Group_643" data-name="Group 643" transform="translate(31.788 4.552)">
                        <g id="prefix__Group_642" data-name="Group 642" transform="translate(22.457)">
                            <path id="prefix__Path_3122" d="M243.093 439.449l2.724-4.22a1.266 1.266 0 0 0 .064-1.238l-.465-.937a1.27 1.27 0 0 0-.725-.635L240 430.82a1.267 1.267 0 0 0-1.481.526l-.329.522a1.271 1.271 0 0 0-.166.931l1.272 6.107z" class="prefix__cls-3" data-name="Path 3122" transform="translate(-237.199 -430.753)"/>
                            <path id="prefix__Path_3123" d="M239.49 438.432l-1.975-3.979a1.213 1.213 0 0 1 .808-1.717l1.879-.443c.5-.119 2.385 1.926 2.385 1.926s-1.072 1.74-2.6-.312a1.908 1.908 0 0 1-.856.457 5.44 5.44 0 0 1 3.1 4.461z" data-name="Path 3123" transform="translate(-237.388 -430.278)" style="fill:#f39f85"/>
                        </g>
                        <path id="prefix__Path_3124" d="M249.371 437.555s-1.373 25.99-3.532 35.94-13.56 25.911-13.56 25.911l-12.046-14.274s11.378-10.708 15.829-19.738 8.045-29 8.045-29z" class="prefix__cls-10" data-name="Path 3124" transform="translate(-220.233 -429.01)"/>
                    </g>
                    <g id="prefix__Group_644" data-name="Group 644">
                        <path id="prefix__Path_3125" d="M198.319 435.54l-2.242-4.5a1.266 1.266 0 0 1 .075-1.238l.565-.88a1.268 1.268 0 0 1 .791-.551l4.836-1.071a1.265 1.265 0 0 1 1.412.686l.268.556a1.258 1.258 0 0 1 .063.943l-1.939 5.929z" class="prefix__cls-3" data-name="Path 3125" transform="translate(-195.95 -427.275)"/>
                        <path id="prefix__Path_3126" d="M201.338 434.958l2.4-3.736a1.212 1.212 0 0 0-.613-1.8l-1.818-.648c-.484-.173-2.584 1.651-2.584 1.651s.874 1.847 2.623-.021a1.909 1.909 0 0 0 .8.547 5.443 5.443 0 0 0-3.576 4.091z" class="prefix__cls-3" data-name="Path 3126" transform="translate(-195.139 -426.814)"/>
                    </g>
                    <path id="prefix__Path_3127" d="M233.105 480.844c10.1 6.687 5.493 46.975 5.493 46.975l-30.013-.317 3.343-32.95s-8.468-16.438-11.143-28.948-4.012-32.239-4.012-32.239h5.684s6.353 25.72 10.365 32.239a177.4 177.4 0 0 0 10.978 15.073z" class="prefix__cls-10" data-name="Path 3127" transform="translate(-195.695 -425.393)"/>
                    <g id="prefix__Group_645" data-name="Group 645" transform="translate(40.158 58.644)">
                        <path id="prefix__Path_3128" d="M229.321 513.686H230c.744-8.418 2.235-31.79-3.009-41.612-.118.247-.238.492-.365.734 4.831 9.792 3.394 32.716 2.695 40.878z" class="prefix__cls-11" data-name="Path 3128" transform="translate(-226.627 -472.074)"/>
                    </g>
                    <g id="prefix__Group_648" data-name="Group 648" transform="translate(22.733 29.84)">
                        <g id="prefix__Group_646" data-name="Group 646" transform="translate(7.914 19.24)">
                            <path id="prefix__Path_3129" d="M219.361 470.52l1.348-5.752 6.607.738.492 6.835a1.514 1.514 0 0 1-.137.136 18.785 18.785 0 0 0-8.31-1.957z" class="prefix__cls-5" data-name="Path 3129" transform="translate(-219.361 -464.768)"/>
                        </g>
                        <g id="prefix__Group_647" data-name="Group 647">
                            <path id="prefix__Path_3130" d="M217.624 456.3l1.734 9.047a1.42 1.42 0 0 1 1.515 1.611 1.735 1.735 0 0 1 .246.651 10.548 10.548 0 0 0 8.381.758c5.612-1.907.58-12.567.58-12.567z" class="prefix__cls-5" data-name="Path 3130" transform="translate(-211.984 -448.298)"/>
                            <path id="prefix__Path_3131" d="M217.012 465.323A5.635 5.635 0 0 0 215.2 463c-3.657-2.369-1.025-4.836-.082-5.645 1.043-.9.529-2.943 1.85-4.311 2.019-2.088 4.457-.555 5.87-1.026s2.045-2.525 4.3-1.8 2.25 2.417 3.024 3.02 1.745-1.5 4.11.42c3.6 2.919-2.339 5.21-2.339 5.21a11.247 11.247 0 0 1-7.854.733 1.472 1.472 0 0 0-1.663.662c-.859 1.6.188 9.2.188 9.2l-1.655-1.028s-3.314-.079-3.937-3.112z" class="prefix__cls-6" data-name="Path 3131" transform="translate(-213.316 -450.07)"/>
                            <path id="prefix__Path_3132" d="M218.905 462.425a1.413 1.413 0 1 0 .511-1.932 1.415 1.415 0 0 0-.511 1.932z" class="prefix__cls-5" data-name="Path 3132" transform="translate(-211.647 -446.908)"/>
                            <circle id="prefix__Ellipse_172" cx=".343" cy=".343" r=".343" data-name="Ellipse 172" transform="rotate(-9.283 84.73 -96.666)"/>
                            <circle id="prefix__Ellipse_173" cx=".343" cy=".343" r=".343" data-name="Ellipse 173" transform="rotate(-9.283 86.47 -75.256)"/>
                            <path id="prefix__Path_3133" d="M227.851 461.785c.089.538-.725 1.132-1.825 1.312s-2.058-.113-2.148-.662" class="prefix__cls-12" data-name="Path 3133" transform="translate(-210.051 -446.449)"/>
                        </g>
                    </g>
                    <path id="prefix__Path_3134" d="M228.1 469.23l.136 3.131-10.22-2.038 2.142-3.413z" class="prefix__cls-10" data-name="Path 3134" transform="translate(-189.132 -415.026)"/>
                </g>
            </g>
            <g id="prefix__Group_660" data-name="Group 660" transform="translate(168.543 102.124)">
                <path id="prefix__Path_3135" d="M269.544 482.2l15.828-6.653c3.381-1.422 7.324-3.866 8.807-7.221l7.943-17.971 2.748.48s-1.49 19.087-7.579 26.8-18.064 11.906-18.064 11.906z" class="prefix__cls-3" data-name="Path 3135" transform="translate(-248.563 -438.809)"/>
                <path id="prefix__Path_3136" d="M258.572 478.673s4.761-8.943 11-10.508c5.342 0 6.594.782 6.594.782s6.849 8.492 9.235 13.982a7.861 7.861 0 0 1-.035 6.431c-4.207 9.067-3.672 26.524-3.672 26.524h-21.02s3.676-26.129 2.972-31.292a6.634 6.634 0 0 0-5.074-5.919z" class="prefix__cls-7" data-name="Path 3136" transform="translate(-251.954 -433.306)"/>
                <g id="prefix__Group_652" data-name="Group 652" transform="translate(39.635 174.364)">
                    <g id="prefix__Group_651" data-name="Group 651" transform="translate(1.141)">
                        <path id="prefix__Path_3137" d="M288.9 574.735l1.24 3.227a4.145 4.145 0 0 0 1.689 2.144 16.688 16.688 0 0 0 4.27 1.851c-2.486 2.122-6.44-.007-8.7-1.574a5.534 5.534 0 0 1-2.212-3.2l-.517-2.444z" class="prefix__cls-3" data-name="Path 3137" transform="translate(-284.666 -574.735)"/>
                    </g>
                    <path id="prefix__Path_3138" d="M285.205 576.017s-1.682 1.322-1.373 3.006.745 5.629.745 5.629h1.723l-.054-3.678c.005-.241 3.707 3.678 4.334 3.678h9.146s.607-2.482-4.764-3.279-9.757-5.356-9.757-5.356z" class="prefix__cls-7" data-name="Path 3138" transform="translate(-283.794 -574.339)"/>
                </g>
                <path id="prefix__Path_3139" d="M279.594 504.618l15.8 91.995-5.111.1s-11.211-19.335-12.861-35.363c-.272-2.651-.4-5.346-2.128-7.373-13.2-15.457-9.442-39.874-9.442-39.874l7.138-9.491z" class="prefix__cls-7" data-name="Path 3139" transform="translate(-249.856 -422.04)"/>
                <g id="prefix__Group_654" data-name="Group 654" transform="translate(0 174.364)">
                    <g id="prefix__Group_653" data-name="Group 653" transform="translate(1.141)">
                        <path id="prefix__Path_3140" d="M258.622 574.735l1.24 3.227a4.145 4.145 0 0 0 1.689 2.144 16.71 16.71 0 0 0 4.27 1.851c-2.485 2.122-6.44-.007-8.7-1.574a5.527 5.527 0 0 1-2.211-3.2l-.518-2.444z" class="prefix__cls-3" data-name="Path 3140" transform="translate(-254.388 -574.735)"/>
                    </g>
                    <path id="prefix__Path_3141" d="M254.927 576.017s-1.681 1.322-1.373 3.006.745 5.629.745 5.629h1.728l-.054-3.678c.005-.241 3.707 3.678 4.334 3.678h9.146s.607-2.482-4.764-3.279-9.762-5.356-9.762-5.356z" class="prefix__cls-6" data-name="Path 3141" transform="translate(-253.516 -574.339)"/>
                </g>
                <g id="prefix__Group_656" data-name="Group 656" transform="translate(12.242 11.746)">
                    <path id="prefix__Path_3142" d="M274.06 466.778l.014 10.237-6.145-6.7.662-9.529z" class="prefix__cls-3" data-name="Path 3142" transform="translate(-261.304 -447.332)"/>
                    <path id="prefix__Path_3143" d="M276.647 455c-4.256.577-6.374 6.035-6.374 6.035l.048 16.147-7.38-6.38a57.555 57.555 0 0 1 1.284-15.224c1.58-5 7.95-6.315 12.422-3.876 2.176 1.186 3.468 3.513 4.236 5.825a18.409 18.409 0 0 1 .437 9.64l-2.532 11.849-3.151-3.123a12.886 12.886 0 0 1-.014-5.935c1.622-5.95 3.877-15.349 1.024-14.958z" class="prefix__cls-6" data-name="Path 3143" transform="translate(-262.868 -450.509)"/>
                    <path id="prefix__Path_3144" d="M267.636 458.791a1.5 1.5 0 0 1 1.995.2 1.3 1.3 0 0 1 .267 1.868 1.506 1.506 0 0 1-1.995-.2 1.3 1.3 0 0 1-.267-1.868z" class="prefix__cls-3" data-name="Path 3144" transform="translate(-261.485 -448.041)"/>
                    <g id="prefix__Group_655" data-name="Group 655" transform="translate(7.283 3.314)">
                        <path id="prefix__Path_3145" d="M275.68 469.31a3.324 3.324 0 0 0 1.987-.517c2.377-3.788-.331-14-.331-14l-3.8-1.753-4.826 3.3-.275 6.842a5.746 5.746 0 0 0 2.155 4.72 9.219 9.219 0 0 0 5.09 1.408z" class="prefix__cls-3" data-name="Path 3145" transform="translate(-268.431 -453.04)"/>
                    </g>
                    <path id="prefix__Path_3146" d="M276.182 453.928c.91 3.051-7.178 6.594-7.178 6.594l-2.032-3.809 3.712-4.552 4.693.75a2.7 2.7 0 0 1 .805 1.017z" class="prefix__cls-6" data-name="Path 3146" transform="translate(-261.599 -449.998)"/>
                    <path id="prefix__Path_3147" d="M274.052 454.152c.17 1.2 2.047 2.664 2.047 2.664l.177-1.439-.428-1.012-.965-.535s-1-.883-.831.322z" class="prefix__cls-6" data-name="Path 3147" transform="translate(-259.418 -449.579)"/>
                    <path id="prefix__Path_3148" d="M275.742 462.4c-.128 1.5-2.284.805-3.694.291" class="prefix__cls-12" data-name="Path 3148" transform="translate(-260.031 -446.834)"/>
                    <ellipse id="prefix__Ellipse_174" cx=".43" cy=".394" data-name="Ellipse 174" rx=".43" ry=".394" transform="rotate(-1.13 583.486 -559.888)"/>
                    <ellipse id="prefix__Ellipse_175" cx=".405" cy=".394" data-name="Ellipse 175" rx=".405" ry=".394" transform="rotate(-1.13 571.347 -737.89)"/>
                </g>
                <path id="prefix__Path_3149" d="M263.387 504.618s-14.854 6.388-7.081 46.484a15.123 15.123 0 0 1-.509 7.094c-3.292 11.185-1.428 38.521-1.428 38.521h5.131s17.188-71.343 18.3-92.1z" class="prefix__cls-6" data-name="Path 3149" transform="translate(-253.415 -422.04)"/>
                <g id="prefix__Group_657" data-name="Group 657" transform="translate(51.474)">
                    <path id="prefix__Path_3150" d="M294.584 450.5a5.955 5.955 0 0 0 .47-3.449c-.149-1.961-1.735-5.926.437-5.481 1.376 1.673 3.208 3.477 3.208 3.477.725 1.092.524 3.271.124 4.613l-1.753 4s-2.115.67-2.21.719l-.5-.766a9.518 9.518 0 0 0 .224-3.113z" class="prefix__cls-3" data-name="Path 3150" transform="translate(-292.369 -441.536)"/>
                    <path id="prefix__Path_3151" d="M295.851 448.456a1.533 1.533 0 0 0 .212-.255c.153.238.318.465.491.686.2 1.007.428 2.007.637 3.011-.635.042-1.525.1-1.587.117l-2.767-6.294s.652-.656 1.648.414a6.514 6.514 0 0 1 1.366 2.321z" class="prefix__cls-3" data-name="Path 3151" transform="translate(-292.838 -440.304)"/>
                </g>
                <g id="prefix__Group_658" data-name="Group 658" transform="translate(7.316 35.715)">
                    <path id="prefix__Path_3152" d="M266.936 468.819l-.344.522c.085.056 8.422 5.66 8.422 14.811v37.292h-15.272l.486-28.717q-.31.247-.634.478l-.49 28.864h16.536v-37.917c.001-9.484-8.617-15.275-8.704-15.333z" class="prefix__cls-6" data-name="Path 3152" transform="translate(-259.105 -468.819)"/>
                </g>
                <path id="prefix__Path_3153" d="M259.942 476.192s-10.458 27.057-3.3 29.52 20.221-16.993 20.221-16.993l-2.517-1.964-11.924 10.177s2.685-3.792 4.014-12.2-6.494-8.54-6.494-8.54z" class="prefix__cls-3" data-name="Path 3153" transform="translate(-253.324 -430.825)"/>
                <path id="prefix__Path_3154" d="M269.327 486.535l.774-5.633s1.947-2.135 3.419-2.519a1.112 1.112 0 0 1 1.176.449c.613.867 2 2.9 2.033 3.557a1.062 1.062 0 0 1-.394.842l-1.8 1.562-2.368 3.26z" class="prefix__cls-3" data-name="Path 3154" transform="translate(-248.63 -430.158)"/>
                <g id="prefix__Group_659" data-name="Group 659" transform="translate(5.712 81.523)">
                    <rect id="prefix__Rectangle_162" width="19.95" height="14.886" class="prefix__cls-10" data-name="Rectangle 162" rx="5.686"/>
                    <path id="prefix__Path_3155" d="M277.83 510.945v-4.535a2.605 2.605 0 0 0-2.6-2.6h-14.753a2.605 2.605 0 0 0-2.6 2.6v4.535z" class="prefix__cls-2" data-name="Path 3155" transform="translate(-257.88 -503.812)"/>
                    <path id="prefix__Path_3156" d="M272 518.7c-1.245 0-2.263-.534-2.263-1.778V505.59c0-1.244 1.018-1.778 2.263-1.778a2.249 2.249 0 0 1 2.262 1.778v10.845A2.011 2.011 0 0 1 272 518.7z" class="prefix__cls-6" data-name="Path 3156" transform="translate(-254.216 -503.812)"/>
                    <path id="prefix__Path_3157" d="M263.872 512.272a.689.689 0 0 1-.687-.686v-3.461a.689.689 0 0 1 .687-.686.688.688 0 0 1 .686.686v3.461a.688.688 0 0 1-.686.686z" class="prefix__cls-6" data-name="Path 3157" transform="translate(-256.24 -502.691)"/>
                </g>
            </g>
            <g id="prefix__Group_663" data-name="Group 663" transform="translate(0 108.458)">
                <g id="prefix__Group_661" data-name="Group 661" transform="translate(0 120.659)">
                    <path id="prefix__Path_3158" d="M126.86 574.326s-1.837.971-1.834 2.636-.262 5.511-.262 5.511l1.652.3.586-3.528c.046-.229 2.964 3.726 4.95 5.711l7.3.141s1.012-2.267-3.986-3.96-8.406-6.811-8.406-6.811z" class="prefix__cls-6" data-name="Path 3158" transform="translate(-124.764 -527.49)"/>
                    <path id="prefix__Path_3159" d="M132.3 556.223a31.6 31.6 0 0 1 .429-4.459 27.435 27.435 0 0 1 3.648-9.166c1.791-.664 3.5-1.492 5.334-2.216a47.98 47.98 0 0 1 6.469-1.835q-.135.369-.275.74c-10.7 28.226-16.679 41.044-17.612 44.077a3.514 3.514 0 0 0-.223 1.406c.154 1.465.835 4.6 5.124 7.577-4.553 1.134-8.832-6.963-8.832-6.963s5.713-19.448 5.938-29.161z" class="prefix__cls-4" data-name="Path 3159" transform="translate(-124.269 -538.547)"/>
                </g>
                <path id="prefix__Path_3160" d="M149.622 465.864l-.485 7.67-7.49-1.549.9-10.426z" class="prefix__cls-5" data-name="Path 3160" transform="translate(-119.546 -441.681)"/>
                <path id="prefix__Path_3161" d="M151.332 469.461a4.413 4.413 0 0 0 2.639-.687c3.157-5.031-.439-18.594-.439-18.594l-11.457 2.055-.365 9.087a7.632 7.632 0 0 0 2.863 6.269 12.245 12.245 0 0 0 6.759 1.87z" class="prefix__cls-5" data-name="Path 3161" transform="translate(-119.529 -445.198)"/>
                <path id="prefix__Path_3162" d="M143.738 576.369a3.339 3.339 0 0 0-1.288 2.82c.289 1.579.7 5.278.7 5.278h1.622l-.05-3.451c0-.225 3.476 3.451 4.063 3.451h8.578s.571-2.328-4.466-3.075-9.159-5.023-9.159-5.023z" class="prefix__cls-6" data-name="Path 3162" transform="translate(-119.309 -406.199)"/>
                <g id="prefix__Group_662" data-name="Group 662" transform="translate(18.344 118.945)">
                    <path id="prefix__Path_3163" d="M140.513 559.324a31.57 31.57 0 0 1-1.144-4.33c-.686-4.27-.745-10.255-.334-12.19 1.45-1.244 3.349-.288 4.813-1.6a47.964 47.964 0 0 1 5.433-3.965v.791c-.247 30.183-1.412 44.28-1.236 47.449.027.484 1.457 6.722 6.513 8.03-3.877 2.643-9.692-5.045-9.692-5.045s-1.198-19.95-4.353-29.14z" class="prefix__cls-5" data-name="Path 3163" transform="translate(-138.777 -537.238)"/>
                </g>
                <path id="prefix__Path_3164" d="M152.442 470.854l7.2 11.758a9.208 9.208 0 0 1 .66 5.992l-4.571 20.065a17.578 17.578 0 0 0-.436 3.546l-1.093 52.6h-22.98a162.9 162.9 0 0 0 4.372-23.787c1.458-13.4-2.808-19.234-1.619-25.1a28.88 28.88 0 0 1 5.655-11.452 11.133 11.133 0 0 0 2.381-6.7c.245-9.949-10.175-37.416-.23-30.732s10.661 3.81 10.661 3.81z" class="prefix__cls-7" data-name="Path 3164" transform="translate(-122.768 -440.306)"/>
                <path id="prefix__Path_3165" d="M149.379 492.438l.541 1.93a10.853 10.853 0 0 0 1.549 2.913c2.533 4.224 11.065 14.571 11.065 14.571l6.9 3.91s-.141 1-1.706.711a7.079 7.079 0 0 1-2.7-1.138s-.287 1.135 1.138 3.414c1.063 1.7 4.474 4.6 2.132 5.12a39.467 39.467 0 0 1-4.751-2.629 4.6 4.6 0 0 1-2.305-3.248l-.623-3.652-14.647-11.972a11.083 11.083 0 0 1-3.5-5.09l-.048-.147z" class="prefix__cls-5" data-name="Path 3165" transform="translate(-119.309 -432.138)"/>
                <path id="prefix__Path_3166" d="M179.009 484.336a6.467 6.467 0 0 0 3.575-1.253c1.825-1.115 4.881-4.614 5.526-2.291-.939 2.161-1.779 4.829-1.779 4.829-.7 1.244-2.91 2.129-4.406 2.406l-4.739.28s-1.7-1.716-1.789-1.784l.495-.86a10.346 10.346 0 0 0 3.117-1.327z" class="prefix__cls-5" data-name="Path 3166" transform="translate(-109.116 -435.978)"/>
                <path id="prefix__Path_3167" d="M148.064 456.756a11.671 11.671 0 0 0 6.184 1.43 7.849 7.849 0 0 0 6.054-3.99c.805-1.732.98-3.532-1.69-5.546a4.168 4.168 0 0 0-5.083.374 1.922 1.922 0 0 1-2.546.069 11.768 11.768 0 0 0-7.755-2.719c-3.985 0-3.875 3.864-3.269 6.671a4.034 4.034 0 0 1-1.786 4.3c-2.365 1.465-5.378 3.852-4.758 6.242a14.162 14.162 0 0 0 2.65 4.969 3.53 3.53 0 0 1 .033 4.305c-1.469 1.94-3.191 4.757-2.682 6.8a23.994 23.994 0 0 0 3.08 6.2 3.84 3.84 0 0 1 0 4.159 5.107 5.107 0 0 0-.808 3.867 8.906 8.906 0 0 0 1.457 3.113 2.5 2.5 0 0 0 4.281-.328c2.61-5.269 7.179-16.05 5.583-24.275-.8-4.123-1.89-11.4-1.89-11.4s-1.179-5.997 2.945-4.241z" class="prefix__cls-6" data-name="Path 3167" transform="translate(-122.118 -446.374)"/>
                <path id="prefix__Path_3168" d="M149.133 489.94l8.771 4.545a4.8 4.8 0 0 0 3.551.348l24.123-7.619v-3.046l-23.51 2.855-7.354-3.91z" class="prefix__cls-5" data-name="Path 3168" transform="translate(-117.233 -435.02)"/>
                <path id="prefix__Path_3169" d="M141.279 456.039a2 2 0 0 1 2.65.259 1.722 1.722 0 0 1 .353 2.481 2 2 0 0 1-2.65-.259 1.722 1.722 0 0 1-.353-2.481z" class="prefix__cls-5" data-name="Path 3169" transform="translate(-119.78 -443.509)"/>
                <path id="prefix__Path_3170" d="M147.735 491.207l2.43-15 10.417 11.971-2.856 9.315-9.927-5.134c.301-1.145.001 0-.064-1.152z" class="prefix__cls-7" data-name="Path 3170" transform="translate(-117.665 -437.154)"/>
                <path id="prefix__Path_3171" d="M179.9 484.608a1.867 1.867 0 0 0 .352.079c-.154.266-.292.539-.42.814-.877.69-1.732 1.409-2.6 2.109-.355-.593-.854-1.426-.9-1.479l4.727-5.8s.957.308.415 1.8a7.086 7.086 0 0 1-1.574 2.477z" class="prefix__cls-5" data-name="Path 3171" transform="translate(-108.826 -435.879)"/>
                <circle id="prefix__Ellipse_176" cx=".343" cy=".343" r=".343" data-name="Ellipse 176" transform="translate(29.651 15.114)"/>
                <circle id="prefix__Ellipse_177" cx=".343" cy=".343" r=".343" data-name="Ellipse 177" transform="translate(33.127 15.114)"/>
                <path id="prefix__Path_3172" d="M151.5 461.266c0 .558-.9 1-2.012 1s-2.013-.456-2.013-1" class="prefix__cls-12" data-name="Path 3172" transform="translate(-117.746 -441.772)"/>
            </g>
            <g id="prefix__Group_664" data-name="Group 664" transform="translate(31.846 139.386)">
                <path id="prefix__Path_3173" d="M203.418 470l11.182 30.645 28.789 13.49-25.095 20.765-4.534 30.887L186.859 549l-31.376 4.569 8.25-30.108-14.642-29.091 31.784-.794z" class="prefix__cls-2" data-name="Path 3173" transform="translate(-149.092 -470)"/>
            </g>
            <g id="prefix__Group_665" data-name="Group 665" transform="translate(83.129)">
                <path id="prefix__Path_3175" d="M239.534 363.521l14.528 29.206 30.115 10.193-22.617 23.435-1.059 31.2-28.601-13.678-30.67 8.043 4.838-30.84-17.8-27.276 31.5-4.337z" class="prefix__cls-2" data-name="Path 3175" transform="translate(-188.267 -363.521)"/>
            </g>
            <g id="prefix__Group_666" data-name="Group 666" transform="translate(196.571 50.895)">
                <path id="prefix__Path_3177" d="M314.937 402.4l6.2 22.423 19.7 11.232-19.021 13.329-4.985 21.7-18.171-13.466-22.565 1.459 7.582-20.932-8.749-21.516 22.64 1.248z" class="prefix__cls-2" data-name="Path 3177" transform="translate(-274.928 -402.401)"/>
            </g>
            <g id="prefix__Group_673" data-name="Group 673" transform="translate(248.707 113.296)">
                <g id="prefix__Group_667" data-name="Group 667" transform="translate(35.404 165.152)">
                    <path id="prefix__Path_3179" d="M352.048 578.876s-2.371 2.2-7.774 3.575c-1.19.3-2.473-.1-2.473 1.86h6.558l5.455-.943v.943h2.945s.821-4.817-.9-5.435z" class="prefix__cls-6" data-name="Path 3179" transform="translate(-341.801 -575.415)"/>
                    <path id="prefix__Path_3180" d="M349.962 576.232l-.333 3.461a3.333 3.333 0 0 0 3.609.12l.2-.12.611-3.461z" class="prefix__cls-3" data-name="Path 3180" transform="translate(-339.382 -576.232)"/>
                </g>
                <g id="prefix__Group_668" data-name="Group 668" transform="translate(59.157 165.152)">
                    <path id="prefix__Path_3181" d="M370.193 578.876s-2.371 2.2-7.774 3.575c-1.19.3-2.473-.1-2.473 1.86h6.554l5.453-.943v.943h2.947s.821-4.817-.9-5.435z" class="prefix__cls-6" data-name="Path 3181" transform="translate(-359.946 -575.415)"/>
                    <path id="prefix__Path_3182" d="M368.105 576.232l-.331 3.461a3.333 3.333 0 0 0 3.609.12l.2-.12.613-3.461z" class="prefix__cls-3" data-name="Path 3182" transform="translate(-357.527 -576.232)"/>
                </g>
                <g id="prefix__Group_669" data-name="Group 669" transform="translate(0 33.545)">
                    <path id="prefix__Path_3183" d="M325.264 479.124c-.365.1-1.645.338-4.1-.526-2.2-.776-6.252-3.816-6.412-1.191 1.491 2.092 2.992 4.748 2.992 4.748 1.026 1.168 3.586 1.61 5.245 1.567l5.118-.775s1.419-2.216 1.5-2.309l-.724-.805a11.337 11.337 0 0 1-3.619-.709z" class="prefix__cls-3" data-name="Path 3183" transform="translate(-314.755 -475.49)"/>
                    <path id="prefix__Path_3184" d="M322.507 479.993a1.967 1.967 0 0 1-.359.164c.226.249.435.509.634.774 1.093.537 2.168 1.11 3.253 1.66.243-.714.586-1.715.623-1.782L320.3 475.7s-.953.544-.035 2.016a7.731 7.731 0 0 0 2.242 2.277z" class="prefix__cls-3" data-name="Path 3184" transform="translate(-313.175 -475.695)"/>
                </g>
                <g id="prefix__Group_671" data-name="Group 671" transform="translate(52.222)">
                    <path id="prefix__Path_3185" d="M360.65 464.949l-.688 6.774 7.259.287-1.455-10.5z" class="prefix__cls-3" data-name="Path 3185" transform="translate(-353.006 -446.535)"/>
                    <g id="prefix__Group_670" data-name="Group 670" transform="translate(2.381 4.461)">
                        <path id="prefix__Path_3186" d="M359.5 468.668a3.64 3.64 0 0 1-2.034-.482c-2.432-3.537.338-13.072.338-13.072l3.888-1.636 4.939 3.08.281 6.389a5.185 5.185 0 0 1-2.206 4.408 10.113 10.113 0 0 1-5.206 1.313z" class="prefix__cls-3" data-name="Path 3186" transform="translate(-356.467 -453.478)"/>
                    </g>
                    <path id="prefix__Path_3187" d="M366.415 461.232c-.271-1.073-.13-3.55-1.223-3.371-.8.131-3.529.243-4.448.243-2.191 0-6.1-.857-6.1-4.192 0-1.666 1.617-3.1 2.64-3.532a4.444 4.444 0 0 1 3.169-.039c2.413.843 5.612 2.7 6.887 2.447 2.147-.431 4.288.829 4.258 2.652a18.223 18.223 0 0 1-2.007 6.74 10.236 10.236 0 0 1-2.187 2.863z" class="prefix__cls-6" data-name="Path 3187" transform="translate(-354.648 -450.07)"/>
                    <path id="prefix__Path_3188" d="M365.951 458.846a1.648 1.648 0 0 0-2.041.183c-.639.531-.762 1.312-.274 1.744a1.65 1.65 0 0 0 2.042-.183c.64-.532.761-1.312.273-1.744z" class="prefix__cls-3" data-name="Path 3188" transform="translate(-351.962 -447.443)"/>
                    <circle id="prefix__Ellipse_178" cx=".333" cy=".333" r=".333" data-name="Ellipse 178" transform="translate(4.124 10.381)"/>
                    <circle id="prefix__Ellipse_179" cx=".333" cy=".333" r=".333" data-name="Ellipse 179" transform="translate(7.503 10.381)"/>
                    <path id="prefix__Path_3189" d="M361.768 461.253c0 .541-.873.973-1.957.973s-1.956-.442-1.956-.973" class="prefix__cls-12" data-name="Path 3189" transform="translate(-353.657 -446.614)"/>
                </g>
                <path id="prefix__Path_3190" d="M364.962 472.374c-13.678 10.633-40.2 7.822-40.2 7.822l-1.227 6.954s33.657 9.945 37.855 1.988 17.251-27.398 3.572-16.764z" class="prefix__cls-10" data-name="Path 3190" transform="translate(-312.043 -444.137)"/>
                <path id="prefix__Path_3191" d="M366.274 467.81c-.249 0-.493 0-.734.013-8 .293-14.257 11.339-14.257 19.349v28.968h30.895v-33.153a15.023 15.023 0 0 0-12.559-14.93 21.984 21.984 0 0 0-3.345-.247z" class="prefix__cls-10" data-name="Path 3191" transform="translate(-303.466 -444.587)"/>
                <path id="prefix__Path_3192" d="M358.191 502.077l-6.837.786c-2.8.107-5.037-3.872-5.789-6.917a.629.629 0 0 1 .766-.755c2.4.588 8.58 2.144 10.216 2.96z" class="prefix__cls-3" data-name="Path 3192" transform="translate(-305.239 -436.131)"/>
                <path id="prefix__Path_3193" d="M379.639 473.877s15.582 20.811 5.794 30.905-31.812 5.812-31.812 5.812v-6.424s20.8.051 22.023-7.01-4.946-14.708-4.946-14.708" class="prefix__cls-10" data-name="Path 3193" transform="translate(-302.744 -442.712)"/>
                <g id="prefix__Group_672" data-name="Group 672" transform="translate(50.57 39.548)">
                    <path id="prefix__Path_3194" d="M381.528 505.478c-9.86 5.68-25.385 3.254-27.531 2.883V502.5c2.7-.022 20.835-.425 22.02-7.263 1.233-7.116-4.753-14.636-5.01-14.953l-.475.385c.06.075 6.069 7.619 4.883 14.464-1.16 6.693-21.309 6.756-21.717 6.756h-.312v6.982l.247.049a62.829 62.829 0 0 0 10.582.882c5.489 0 12.11-.758 17.312-3.633z" class="prefix__cls-11" data-name="Path 3194" transform="translate(-353.386 -480.281)"/>
                </g>
                <path id="prefix__Path_3195" d="M352.265 504.73c-3.532 17.135-4.075 35.577-4.155 51.057a409.346 409.346 0 0 0 1.918 43.154h5.1l10.645-71.272s1.161 10.6 2.732 28.573c1.233 14.1 1.814 26.026 5.128 42.7h5.114s4.415-51.464 4.415-94.211z" class="prefix__cls-6" data-name="Path 3195" transform="translate(-304.449 -433.177)"/>
                <path id="prefix__Path_3196" d="M360.405 466.412h6.454l1.027 2.376h-8.312z" class="prefix__cls-10" data-name="Path 3196" transform="translate(-300.904 -445.019)"/>
            </g>
            <g id="prefix__Group_674" data-name="Group 674" transform="translate(212.885 135.917)">
                <path id="prefix__Path_3197" d="M316.119 467.35l27.366 17.75 31.112-6.547-7.548 31.681 14.962 27.4-31.585 2.779-22.312 22.528-11.525-29.012L287.39 519.5l24.91-19.754z" class="prefix__cls-2" data-name="Path 3197" transform="translate(-287.39 -467.35)"/>
            </g>
        </g>
    </g>
</svg>
