<svg xmlns="http://www.w3.org/2000/svg" width="616.658" height="367.821" viewBox="0 0 616.658 367.821">
    <defs>
        <clipPath id="prefix__clip-path">
            <rect id="prefix__Rectangle_120" width="128.295" height="283.287" class="prefix__cls-1" data-name="Rectangle 120" rx="15.091"/>
        </clipPath>
        <clipPath id="prefix__clip-path-2">
            <path id="prefix__Rectangle_84" d="M0 0H133V133H0z" data-name="Rectangle 84" transform="translate(.152 .048)"/>
        </clipPath>
        <style>
            .prefix__cls-1{fill:#eaeaea}.prefix__cls-2{fill:#1d1d1b}.prefix__cls-4{fill:#dfc822}.prefix__cls-7{fill:#c6c6c6}.prefix__cls-6{fill:#f7b58e}.prefix__cls-8{fill:#878787}.prefix__cls-9{fill:#f5bc8e}.prefix__cls-10,.prefix__cls-19{fill:#eb9d68}.prefix__cls-14{fill:#efefef}.prefix__cls-18{fill:#fff}.prefix__cls-19{stroke:#eb9d68;stroke-miterlimit:10;stroke-width:.42px}.prefix__cls-24{fill:#f4bc8f}.prefix__cls-27{clip-path:url(#prefix__clip-path-2)}.prefix__cls-28{fill:#616161}
        </style>
    </defs>
    <g id="prefix__Illustrations" transform="translate(-534.294 -210.097)">
        <g id="prefix__screen_1" data-name="screen 1" transform="translate(708.837 210.097)">
            <rect id="prefix__Rectangle_118" width="145.11" height="298.249" class="prefix__cls-2" data-name="Rectangle 118" rx="26.418"/>
            <g id="prefix__Group_352" data-name="Group 352" transform="translate(8.408 7.481)">
                <rect id="prefix__Rectangle_119" width="128.295" height="283.287" class="prefix__cls-1" data-name="Rectangle 119" rx="15.091"/>
                <g id="prefix__Group_351" data-name="Group 351">
                    <path id="prefix__Path_2483" d="M681.73 301.035l177.17 65.276L908.022 213.3l-177.173-65.274z" class="prefix__cls-4" data-name="Path 2483" transform="translate(-719.525 -215.538)"/>
                </g>
            </g>
            <rect id="prefix__Rectangle_121" width="71.881" height="16.811" class="prefix__cls-2" data-name="Rectangle 121" rx="7.207" transform="translate(36.615 .305)"/>
        </g>
        <path id="prefix__Path_2506" d="M601.5 516.171s-112.245.116-46.626 18.187 87.271 8.447 71.414 24.65 84.825-4.936 172.943-.944 51.522 7.53 148.817 2.9 94.834-13.554 76.556-17.292-4.092-18.11 20.857-19.593 70.778-27.279-109.682-17.179-334.279 9.271-334.279 9.271z" data-name="Path 2506" transform="translate(0 -3.476)" style="opacity:.5;fill:#c6c6c6"/>
        <g id="prefix__Group_436" data-name="Group 436" transform="translate(739.881 334.643)">
            <g id="prefix__Group_385" data-name="Group 385" transform="translate(0 38.886)">
                <g id="prefix__Group_368" data-name="Group 368" transform="translate(39.18 7.948)">
                    <path id="prefix__Path_2507" d="M788.019 397.011a4.369 4.369 0 0 1 .188 3.115l-.568 4.042-.7.467-2.579 1.065a2.786 2.786 0 0 0 0-1.619l-1.135-4.181s-1.765-7.055 3.025-6.753c-.025-5.748 1.577-4.8 1.577-4.8l.11 4.969z" class="prefix__cls-6" data-name="Path 2507" transform="translate(-782.907 -383.153)"/>
                    <path id="prefix__Path_2508" d="M799.953 411.227s-3.348 12.781-6.2 13.01-5.827-20.247-5.827-20.247l-3.884.47s-1.509 29.444 7.2 29.98 9.862-5.976 9.862-5.976z" class="prefix__cls-7" data-name="Path 2508" transform="translate(-782.923 -383.396)"/>
                    <path id="prefix__Path_2509" d="M800.569 446.171h22.791v-34.615c-6.512-9.936-14.627-7.229-14.627-7.229s-7.378.133-8.528 6.9c0 4.899.364 34.944.364 34.944z" class="prefix__cls-8" data-name="Path 2509" transform="translate(-783.175 -383.396)"/>
                    <g id="prefix__Group_363" data-name="Group 363" transform="translate(22.557 16.333)">
                        <path id="prefix__Path_2510" d="M811.484 399.662l.338 4.893-.161.154a4.245 4.245 0 0 1-5.765.081l-.077-3.682z" class="prefix__cls-9" data-name="Path 2510" transform="translate(-805.819 -399.662)"/>
                    </g>
                    <g id="prefix__Group_364" data-name="Group 364" transform="translate(15.353)">
                        <path id="prefix__Path_2511" d="M813.205 389.277l-.413 8.09a1.249 1.249 0 0 0-1.122 1.588 1.515 1.515 0 0 0-.136.6 9.279 9.279 0 0 1-7.208 1.679c-5.119-.98-2.03-10.876-2.03-10.876z" class="prefix__cls-9" data-name="Path 2511" transform="translate(-798.546 -383.169)"/>
                        <circle id="prefix__Ellipse_130" cx=".258" cy=".258" r=".258" data-name="Ellipse 130" transform="translate(7.902 11.252)"/>
                        <circle id="prefix__Ellipse_131" cx=".258" cy=".258" r=".258" data-name="Ellipse 131" transform="translate(5.288 11.252)"/>
                        <path id="prefix__Path_2512" d="M806.946 397.849c0 .41-.676.752-1.514.752s-1.513-.334-1.513-.752" class="prefix__cls-10" data-name="Path 2512" transform="translate(-798.585 -383.301)"/>
                        <path id="prefix__Path_2513" d="M815.734 395.258a4.956 4.956 0 0 1 1.3-2.241c2.9-2.508.305-4.336-.613-4.927-1.017-.654-.818-2.5-2.134-3.53-2.011-1.573-3.949.057-5.237-.181s-2.088-1.951-3.96-1.044-1.667 2.378-2.266 3-1.7-1.094-3.53.864c-2.777 2.978 2.67 4.253 2.67 4.253a9.891 9.891 0 0 0 6.93-.315 1.3 1.3 0 0 1 1.527.374c.942 1.289.954 8.037.954 8.037l1.316-1.095s2.868-.479 3.043-3.195z" class="prefix__cls-2" data-name="Path 2513" transform="translate(-798.502 -383.073)"/>
                        <path id="prefix__Path_2514" d="M812.848 396.094a1.242 1.242 0 1 1-.679-1.62 1.243 1.243 0 0 1 .679 1.62z" class="prefix__cls-9" data-name="Path 2514" transform="translate(-798.687 -383.248)"/>
                    </g>
                    <g id="prefix__Group_365" data-name="Group 365" transform="translate(12.45 124.165)">
                        <path id="prefix__Path_2515" d="M805.662 513.127s-1.285 1.778-7.339 3.32c-1.333.34-2.771.571-2.771 2.771h5.976l6.112-1.057v1.057h3.3s.92-5.4-1.008-6.09z" class="prefix__cls-2" data-name="Path 2515" transform="translate(-795.553 -509.25)"/>
                        <path id="prefix__Path_2516" d="M805.5 509.189l.313 3.877a3.734 3.734 0 0 0 4.043.136l.228-.136v-3.877z" class="prefix__cls-9" data-name="Path 2516" transform="translate(-795.707 -509.189)"/>
                    </g>
                    <g id="prefix__Group_366" data-name="Group 366" transform="translate(29.428 124.165)">
                        <path id="prefix__Path_2517" d="M822.908 513.127s-1.285 1.778-7.34 3.32c-1.333.34-2.771.571-2.771 2.771h5.977l6.111-1.057v1.057h3.3s.92-5.4-1.008-6.09z" class="prefix__cls-2" data-name="Path 2517" transform="translate(-812.798 -509.25)"/>
                        <path id="prefix__Path_2518" d="M822.748 509.189l.314 3.877a3.734 3.734 0 0 0 4.044.136l.226-.136v-3.877z" class="prefix__cls-9" data-name="Path 2518" transform="translate(-812.952 -509.189)"/>
                    </g>
                    <path id="prefix__Path_2519" d="M823.356 411.675s6.832 15.765-1.884 23.82-20.548 6.683-20.548 6.683v-4.542s10.695-.9 14.122-8.053-1.37-13.337-1.37-13.337" class="prefix__cls-7" data-name="Path 2519" transform="translate(-783.186 -383.515)"/>
                    <path id="prefix__Path_2520" d="M801.482 441.925l-5.456.114c-2.215-.123-3.689-3.431-4.057-5.89a.5.5 0 0 1 .661-.54 69.419 69.419 0 0 1 7.846 3.093z" class="prefix__cls-6" data-name="Path 2520" transform="translate(-783.047 -383.885)"/>
                    <path id="prefix__Path_2521" d="M800.539 446.834c-6.8 19.192 3.827 61.69 3.827 61.69h6.055s-2.856-60.262 5.026-61.69z" class="prefix__cls-2" data-name="Path 2521" transform="translate(-783.145 -384.059)"/>
                    <path id="prefix__Path_2522" d="M816.253 425.019a12.3 12.3 0 0 1-1.217 4.77c-3.427 7.15-14.679 8.1-14.679 8.1v4.586s12.389 1.283 21.105-6.771c3.16-2.92 4.271-6.853 4.411-10.682z" class="prefix__cls-7" data-name="Path 2522" transform="translate(-783.177 -383.722)"/>
                    <g id="prefix__Group_367" data-name="Group 367" transform="translate(30.484 32.348)">
                        <path id="prefix__Path_2523" d="M816.41 425.57c.238-.108.479-.212.716-.325a14.641 14.641 0 0 0-2.718-9.317l-.538.425a13.833 13.833 0 0 1 2.54 9.217z" data-name="Path 2523" transform="translate(-813.87 -415.929)" style="fill:#8e8e8e"/>
                    </g>
                    <path id="prefix__Path_2524" d="M787.033 397.7s1.257-.378 1.454-2.672 1.281-1.584 1.281-1.584-.564 9.044-2.007 9.385-.728-5.129-.728-5.129z" class="prefix__cls-6" data-name="Path 2524" transform="translate(-782.968 -383.232)"/>
                    <path id="prefix__Path_2525" d="M807.38 446.834c-1.85 23.533 13.176 61.69 13.176 61.69h7.2s-4.891-24.4-4.991-47.3a122.267 122.267 0 0 1 .707-14.393z" class="prefix__cls-2" data-name="Path 2525" transform="translate(-783.283 -384.059)"/>
                </g>
                <g id="prefix__Group_381" data-name="Group 381" transform="translate(54.366)">
                    <g id="prefix__Group_369" data-name="Group 369" transform="translate(27.611 134.072)">
                        <path id="prefix__Path_2526" d="M835.072 514.162s-2.011 1.866-6.6 3.034c-1.009.257-2.1-.087-2.1 1.579h5.566l4.629-.8v.8h2.5s.7-4.089-.764-4.614z" class="prefix__cls-2" data-name="Path 2526" transform="translate(-826.376 -511.225)"/>
                        <path id="prefix__Path_2527" d="M835.491 511.179l-.282 2.937a2.829 2.829 0 0 0 3.063.1l.172-.1 1.039-2.937z" class="prefix__cls-8" data-name="Path 2527" transform="translate(-826.513 -511.179)"/>
                    </g>
                    <g id="prefix__Group_370" data-name="Group 370" transform="translate(49.858 134.072)">
                        <path id="prefix__Path_2528" d="M857.669 514.162s-2.012 1.866-6.6 3.034c-1.009.257-2.1-.087-2.1 1.579h5.566l4.629-.8v.8h2.5s.7-4.089-.764-4.614z" data-name="Path 2528" transform="translate(-848.972 -511.225)" style="fill:#4e4d4d"/>
                        <path id="prefix__Path_2529" d="M858.087 511.179l-.281 2.937a2.828 2.828 0 0 0 3.063.1l.171-.1 1.039-2.937z" class="prefix__cls-9" data-name="Path 2529" transform="translate(-849.109 -511.179)"/>
                    </g>
                    <path id="prefix__Path_2530" d="M844.079 436.509h-6.4l-2.25 74.217h4.327l12.712-60.4z" class="prefix__cls-2" data-name="Path 2530" transform="translate(-798.905 -375.952)"/>
                    <path id="prefix__Path_2531" d="M842.105 436.509l14.968 74.217h4.763l-1.953-74.217z" class="prefix__cls-8" data-name="Path 2531" transform="translate(-799.008 -375.952)"/>
                    <g id="prefix__Group_376" data-name="Group 376" transform="translate(49.975 72.791)">
                        <g id="prefix__Group_371" data-name="Group 371" transform="translate(6.121)">
                            <path id="prefix__Path_2532" d="M855.313 453.02l1.435-.1a2.529 2.529 0 0 1 .667-1.749 3.605 3.605 0 0 1 2.653-.853 4.042 4.042 0 0 1 2.864.845 1.72 1.72 0 0 1 .524 1.208l1.437.082a3.041 3.041 0 0 0-.893-2.216 5.3 5.3 0 0 0-3.932-1.3 4.964 4.964 0 0 0-3.719 1.305 3.863 3.863 0 0 0-1.036 2.778z" class="prefix__cls-2" data-name="Path 2532" transform="translate(-855.309 -448.935)"/>
                        </g>
                        <g id="prefix__Group_374" data-name="Group 374" transform="translate(0 2.794)">
                            <path id="prefix__Rectangle_122" d="M0 0H21.432V13.79H0z" class="prefix__cls-4" data-name="Rectangle 122" transform="rotate(180 10.716 8.374)"/>
                            <g id="prefix__Group_373" data-name="Group 373">
                                <g id="prefix__Group_372" data-name="Group 372">
                                    <path id="prefix__Path_2533" d="M859.024 464.147c0 .841.4.936.894.936s.894-.1.894-.936v-2.926a55.6 55.6 0 0 0 9.711-1.739v10.877c0 .972-.376 1.759-.946 1.759h-19.539c-.57 0-.947-.788-.947-1.759v-10.842a64.24 64.24 0 0 0 9.933 1.682z" class="prefix__cls-7" data-name="Path 2533" transform="translate(-849.091 -451.892)"/>
                                    <path id="prefix__Path_2534" d="M853.412 460.449a41.254 41.254 0 0 0 3.325 5.618 60.992 60.992 0 0 0 5.135 6.052h-11.834c-.57 0-.947-.788-.947-1.759v-10.842c2.009.467 3.177.729 4.321.931z" class="prefix__cls-7" data-name="Path 2534" transform="translate(-849.091 -451.893)"/>
                                    <path id="prefix__Path_2535" d="M850.038 451.773h19.539c.57 0 .946.788.946 1.759v5.276a33.2 33.2 0 0 1-9.711 1.65v-.714c0-.841-.4-.936-.894-.936s-.894.1-.894.936v.712a34.257 34.257 0 0 1-9.933-1.648v-5.276c0-.971.377-1.759.947-1.759z" class="prefix__cls-2" data-name="Path 2535" transform="translate(-849.091 -451.773)"/>
                                </g>
                            </g>
                        </g>
                        <g id="prefix__Group_375" data-name="Group 375" transform="translate(9.653 11.87)">
                            <path id="prefix__Path_2536" d="M858.9 462.915v-.906a.388.388 0 0 1 .388-.387h1.551a.387.387 0 0 1 .387.387v.906a.387.387 0 0 1-.387.388h-1.551a.388.388 0 0 1-.388-.388zm.388-1.182a.278.278 0 0 0-.278.277v.906a.278.278 0 0 0 .278.278h1.551a.277.277 0 0 0 .277-.278v-.906a.277.277 0 0 0-.277-.277z" class="prefix__cls-2" data-name="Path 2536" transform="translate(-858.896 -461.002)"/>
                            <path id="prefix__Path_2537" d="M859.976 462.35a.1.1 0 0 0 .1.093.1.1 0 0 0 .1-.093v-1.265a.1.1 0 0 0-.1-.093.1.1 0 0 0-.1.093z" class="prefix__cls-2" data-name="Path 2537" transform="translate(-858.913 -460.992)"/>
                        </g>
                    </g>
                    <g id="prefix__Group_377" data-name="Group 377" transform="translate(0 48.16)">
                        <path id="prefix__Path_2538" d="M806.3 425.291a5.645 5.645 0 0 1-3.024.876c-1.781.149-5.574-.627-4.851 1.132 1.705.92 3.6 2.205 3.6 2.205 1.087.456 3.013-.017 4.157-.539l3.323-2.029s.286-1.868.315-1.953l-.762-.31a9.15 9.15 0 0 1-2.758.618z" class="prefix__cls-9" data-name="Path 2538" transform="translate(-798.331 -423.929)"/>
                        <path id="prefix__Path_2539" d="M805.756 426.063a1.406 1.406 0 0 1-.2.214c.237.1.465.2.688.316.932.026 1.865.079 2.8.114-.058-.538-.137-1.293-.133-1.347l-6.06-1.443s-.49.638.617 1.325a6.2 6.2 0 0 0 2.288.821z" class="prefix__cls-9" data-name="Path 2539" transform="translate(-798.399 -423.917)"/>
                    </g>
                    <path id="prefix__Path_2540" d="M859.105 445.268l-2.014 4.428a8.632 8.632 0 0 0 1.324 3.383.949.949 0 0 0 1.055.214 11.93 11.93 0 0 0 3.1-1.645.911.911 0 0 0 .1-.79l-.587-1.95-.083-4.547z" class="prefix__cls-9" data-name="Path 2540" transform="translate(-799.24 -376.073)"/>
                    <g id="prefix__Group_379" data-name="Group 379" transform="translate(42.381)">
                        <path id="prefix__Path_2541" d="M847.09 391.145l-.067 5.934 5.286-.284.334-9.2z" class="prefix__cls-9" data-name="Path 2541" transform="translate(-841.465 -375.195)"/>
                        <g id="prefix__Group_378" data-name="Group 378" transform="translate(2.086 3.192)">
                            <path id="prefix__Path_2542" d="M846.154 391.549a3.187 3.187 0 0 1-1.781-.423c-2.132-3.1.3-11.45.3-11.45l3.4-1.433 4.327 2.7.246 5.6a4.543 4.543 0 0 1-1.932 3.86 8.86 8.86 0 0 1-4.56 1.146z" class="prefix__cls-9" data-name="Path 2542" transform="translate(-843.497 -378.242)"/>
                        </g>
                        <path id="prefix__Path_2543" d="M851.167 384.063c-.237-.941.406-3.11-.551-2.954-.7.114-3.092.213-3.9.213-1.919 0-5.34-.75-5.34-3.671a2.656 2.656 0 0 1 1.794-2.574c.881-.367 1.875.688 2.775 1a23.911 23.911 0 0 0 7.592 1.106 2.582 2.582 0 0 1 2.692 1.8c.215 1.693-.918 4.274-1.757 5.9a8.994 8.994 0 0 1-1.917 2.508z" data-name="Path 2543" transform="translate(-841.378 -375)" style="fill:#333"/>
                        <path id="prefix__Path_2544" d="M853.789 384.415a1.445 1.445 0 0 0-1.788.159c-.56.467-.668 1.15-.239 1.528a1.445 1.445 0 0 0 1.788-.16c.56-.465.666-1.149.239-1.527z" class="prefix__cls-9" data-name="Path 2544" transform="translate(-841.535 -375.142)"/>
                    </g>
                    <path id="prefix__Path_2545" d="M846.515 387.782c-1.092.576-2.465.869-3.052.185" class="prefix__cls-10" data-name="Path 2545" transform="translate(-799.029 -375.198)"/>
                    <ellipse id="prefix__Ellipse_132" cx=".355" cy=".325" data-name="Ellipse 132" rx=".355" ry=".325" transform="translate(45.786 8.643)"/>
                    <path id="prefix__Path_2546" d="M849.244 395.337a15.223 15.223 0 0 1 6.2 1.271 14.922 14.922 0 0 1 8.358 10.326c1.682 7.143 4.5 24.089-1.963 38.942a32.133 32.133 0 0 1-4.327 0l-.692-35.018.489 25.014h-20.045v-16.131s-.519 3.644-5.366 7.008-23.019 1.127-23.019 1.127v-3.791s15.924-3.347 18.52-5.316 8.2-16.164 8.2-16.164a12.808 12.808 0 0 1 8.769-6.806 24.127 24.127 0 0 1 4.876-.462z" class="prefix__cls-14" data-name="Path 2546" transform="translate(-798.494 -375.315)"/>
                    <g id="prefix__Group_380" data-name="Group 380" transform="translate(58.069 36.577)">
                        <path id="prefix__Path_2547" d="M857.784 436.271l-.472-24.1.519-.015.477 24.119z" data-name="Path 2547" transform="translate(-857.312 -412.152)" style="fill:#afd8c8"/>
                    </g>
                    <path id="prefix__Path_2548" d="M852.4 393.62l.326 1.949-6.076-.011.4-1.938z" class="prefix__cls-14" data-name="Path 2548" transform="translate(-799.079 -375.288)"/>
                </g>
                <g id="prefix__Group_384" data-name="Group 384" transform="translate(0 9.911)">
                    <g id="prefix__Group_382" data-name="Group 382" transform="translate(0 90.488)">
                        <path id="prefix__Path_2549" d="M744.683 512.654a2.6 2.6 0 0 0-1.375 1.977c0 1.248-.2 4.134-.2 4.134l1.239.225.44-2.646c.035-.172 2.223 2.794 3.713 4.284l5.477.105s.758-1.7-2.99-2.97-6.304-5.109-6.304-5.109z" class="prefix__cls-2" data-name="Path 2549" transform="translate(-743.111 -477.529)"/>
                        <path id="prefix__Path_2550" d="M749.159 490.234a23.766 23.766 0 0 1 .322-3.344 20.6 20.6 0 0 1 2.736-6.874c1.344-.5 2.629-1.119 4-1.663a36.1 36.1 0 0 1 4.852-1.376c-.067.185-.137.369-.207.555-8.022 21.167-12.507 30.78-13.207 33.056a2.624 2.624 0 0 0-.167 1.055c.116 1.1.627 3.447 3.844 5.682-3.415.851-6.624-5.222-6.624-5.222s4.282-14.585 4.451-21.869z" data-name="Path 2550" transform="translate(-743.136 -476.977)" style="fill:#e8b18b"/>
                    </g>
                    <path id="prefix__Path_2551" d="M765.927 403.437l-.364 5.752-5.617-1.162.675-7.819z" class="prefix__cls-9" data-name="Path 2551" transform="translate(-743.372 -385.301)"/>
                    <path id="prefix__Path_2552" d="M767.223 403.322a3.3 3.3 0 0 0 1.979-.515c2.368-3.773-.329-13.944-.329-13.944l-8.592 1.541-.274 6.816a5.723 5.723 0 0 0 2.147 4.7 9.183 9.183 0 0 0 5.069 1.402z" class="prefix__cls-9" data-name="Path 2552" transform="translate(-743.372 -385.126)"/>
                    <path id="prefix__Path_2553" d="M761.7 514.692a2.5 2.5 0 0 0-.965 2.114c.217 1.184.523 3.959.523 3.959h1.216l-.037-2.587c0-.169 2.607 2.587 3.048 2.587h6.433s.428-1.746-3.349-2.306-6.869-3.767-6.869-3.767z" class="prefix__cls-2" data-name="Path 2553" transform="translate(-743.383 -387.072)"/>
                    <g id="prefix__Group_383" data-name="Group 383" transform="translate(13.758 89.203)">
                        <path id="prefix__Path_2554" d="M758.386 492.236a23.6 23.6 0 0 1-.857-3.247 35.42 35.42 0 0 1-.25-9.142c1.087-.933 2.511-.216 3.609-1.2a36.173 36.173 0 0 1 4.074-2.974v.593c-.185 22.636-1.059 33.208-.927 35.585.02.363 1.093 5.041 4.884 6.022-2.907 1.982-7.27-3.783-7.27-3.783s-.897-14.963-3.263-21.854z" class="prefix__cls-9" data-name="Path 2554" transform="translate(-757.085 -475.672)"/>
                    </g>
                    <path id="prefix__Path_2555" d="M765.464 408.279l5.4 8.818a6.9 6.9 0 0 1 .494 4.493l-3.428 15.048a13.219 13.219 0 0 0-.327 2.659l-.819 39.45H749.55a122.164 122.164 0 0 0 3.279-17.839c1.094-10.052-2.106-14.425-1.215-18.824a21.651 21.651 0 0 1 4.241-8.588 8.344 8.344 0 0 0 1.786-5.026c.183-7.462-7.631-28.062-.172-23.049s7.995 2.858 7.995 2.858z" class="prefix__cls-8" data-name="Path 2555" transform="translate(-743.211 -385.37)"/>
                    <path id="prefix__Path_2556" d="M765.935 431l.4 1.446a8.12 8.12 0 0 0 1.162 2.185c1.9 3.168 8.3 10.927 8.3 10.927l5.173 2.933s-.106.747-1.28.534a5.32 5.32 0 0 1-2.026-.854s-.215.851.854 2.56c.8 1.277 3.355 3.453 1.6 3.84a29.576 29.576 0 0 1-3.563-1.971 3.445 3.445 0 0 1-1.729-2.436l-.468-2.739-10.984-8.979a8.31 8.31 0 0 1-2.628-3.816l-.036-.11z" class="prefix__cls-9" data-name="Path 2556" transform="translate(-743.383 -385.778)"/>
                    <path id="prefix__Path_2557" d="M796.308 421.852a4.852 4.852 0 0 0 2.681-.939c1.369-.837 3.66-3.461 4.144-1.718-.7 1.621-1.334 3.622-1.334 3.622-.524.931-2.182 1.595-3.305 1.8l-3.553.211s-1.272-1.287-1.343-1.337l.372-.646a7.747 7.747 0 0 0 2.338-.993z" class="prefix__cls-9" data-name="Path 2557" transform="translate(-743.892 -385.586)"/>
                    <path id="prefix__Path_2558" d="M762.7 392.854a8.754 8.754 0 0 0 4.637 1.072 5.889 5.889 0 0 0 4.541-2.992c.6-1.3.735-2.649-1.268-4.16a3.128 3.128 0 0 0-3.812.28 1.44 1.44 0 0 1-1.909.052 8.828 8.828 0 0 0-5.816-2.039c-2.988 0-2.905 2.9-2.451 5a3.026 3.026 0 0 1-1.339 3.222c-1.774 1.1-4.033 2.889-3.568 4.68a10.621 10.621 0 0 0 1.985 3.731 2.647 2.647 0 0 1 .026 3.229c-1.1 1.454-2.393 3.567-2.011 5.1a17.918 17.918 0 0 0 2.31 4.646 2.879 2.879 0 0 1 0 3.119 3.841 3.841 0 0 0-.605 2.9 6.694 6.694 0 0 0 1.09 2.346 1.873 1.873 0 0 0 3.21-.247c1.957-3.95 5.383-12.037 4.187-18.2-.6-3.092-1.418-8.55-1.418-8.55s-.881-4.506 2.211-3.189z" class="prefix__cls-2" data-name="Path 2558" transform="translate(-743.243 -385.067)"/>
                    <path id="prefix__Path_2559" d="M767.41 426.822l6.579 3.408a3.6 3.6 0 0 0 2.662.261l18.092-5.714v-2.283l-17.632 2.14-5.511-2.934z" class="prefix__cls-9" data-name="Path 2559" transform="translate(-743.487 -385.634)"/>
                    <path id="prefix__Path_2560" d="M759.482 394.607a1.5 1.5 0 0 1 1.987.195 1.291 1.291 0 0 1 .266 1.86 1.5 1.5 0 0 1-1.987-.194 1.292 1.292 0 0 1-.266-1.861z" class="prefix__cls-9" data-name="Path 2560" transform="translate(-743.36 -385.21)"/>
                    <path id="prefix__Path_2561" d="M766.017 426.065l1.822-11.25 7.811 8.979-2.141 6.985-7.444-3.851c.223-.858 0 .001-.048-.863z" class="prefix__cls-8" data-name="Path 2561" transform="translate(-743.465 -385.527)"/>
                    <path id="prefix__Path_2562" d="M797.21 422.136a1.311 1.311 0 0 0 .264.059c-.115.2-.219.4-.315.61-.658.518-1.3 1.057-1.95 1.582-.266-.445-.64-1.07-.675-1.109l3.545-4.348s.718.229.311 1.351a5.316 5.316 0 0 1-1.18 1.855z" class="prefix__cls-9" data-name="Path 2562" transform="translate(-743.906 -385.591)"/>
                </g>
                <circle id="prefix__Ellipse_133" cx=".258" cy=".258" r=".258" data-name="Ellipse 133" transform="translate(22.023 20.839)"/>
                <circle id="prefix__Ellipse_134" cx=".258" cy=".258" r=".258" data-name="Ellipse 134" transform="translate(24.637 20.839)"/>
                <path id="prefix__Path_2563" d="M768.565 399.513c0 .419-.675.753-1.513.753s-1.514-.343-1.514-.753" class="prefix__cls-10" data-name="Path 2563" transform="translate(-743.458 -375.379)"/>
            </g>
            <g id="prefix__Group_392" data-name="Group 392" transform="translate(161.819)">
                <g id="prefix__Group_386" data-name="Group 386" transform="translate(36.742 195.5)">
                    <path id="prefix__Path_2564" d="M959.449 539.1s-3.391 3.144-11.12 5.113c-1.7.434-3.536-.146-3.536 2.662h9.381l7.8-1.349v1.349h4.214s1.174-6.892-1.288-7.775z" class="prefix__cls-2" data-name="Path 2564" transform="translate(-944.792 -534.153)"/>
                    <path id="prefix__Path_2565" d="M960.508 534.075l-.829 4.95a4.766 4.766 0 0 0 5.162.172l.289-.172 1.224-4.95z" class="prefix__cls-9" data-name="Path 2565" transform="translate(-945.022 -534.075)"/>
                </g>
                <path id="prefix__Path_2566" d="M971.339 414.822s5.138 21.737-6.293 50.954a28.068 28.068 0 0 0-1.208 16.427c5.429 23.9 2.772 50.647 2.772 50.647l-7.182-.061-26.889-103.973z" class="prefix__cls-2" data-name="Path 2566" transform="translate(-907.86 -336.73)"/>
                <g id="prefix__Group_388" data-name="Group 388" transform="translate(19.079)">
                    <path id="prefix__Path_2567" d="M938.818 357.848l2.944 8.561 7.249-4.843-4.39-10.129z" class="prefix__cls-9" data-name="Path 2567" transform="translate(-927.036 -335.75)"/>
                    <g id="prefix__Group_387" data-name="Group 387" transform="translate(3.587 3.161)">
                        <path id="prefix__Path_2568" d="M935.978 358.952a4.806 4.806 0 0 1-2.751-.177c-3.946-4.06-2.457-17.071-2.457-17.071l4.691-2.99 7.1 2.91 1.782 8.245a6.835 6.835 0 0 1-1.89 6.219 13.351 13.351 0 0 1-6.475 2.864z" class="prefix__cls-9" data-name="Path 2568" transform="translate(-930.494 -338.714)"/>
                    </g>
                    <path id="prefix__Path_2569" d="M941.135 344.275a2.817 2.817 0 0 0-3.485-1.537 22.5 22.5 0 0 1-3.417.908c-2.848.485-6.576-.027-7.314-4.361s4.84-3.756 4.84-3.756 7.453-.207 12.234 2.247c2.286 1.174 3.486 6.577 2.653 9.209a13.491 13.491 0 0 1-2.21 4.207z" class="prefix__cls-2" data-name="Path 2569" transform="translate(-926.851 -335.503)"/>
                    <path id="prefix__Path_2570" d="M945.482 346.443a2.176 2.176 0 0 0-2.614.689c-.713.834-.7 1.875.032 2.328a2.175 2.175 0 0 0 2.614-.69c.712-.833.698-1.87-.032-2.327z" class="prefix__cls-9" data-name="Path 2570" transform="translate(-927.091 -335.669)"/>
                </g>
                <path id="prefix__Path_2571" d="M937.128 352.866c-1.486 1.06-3.438 1.763-4.433.877" class="prefix__cls-10" data-name="Path 2571" transform="translate(-907.862 -335.771)"/>
                <ellipse id="prefix__Ellipse_135" cx=".525" cy=".48" data-name="Ellipse 135" rx=".525" ry=".48" transform="rotate(-14.76 62.996 -101.178)"/>
                <ellipse id="prefix__Ellipse_136" cx=".494" cy=".48" data-name="Ellipse 136" rx=".494" ry=".48" transform="rotate(-14.698 60.903 -85.274)"/>
                <path id="prefix__Path_2572" d="M944.177 360.788c-22.38 8.443-12.992 60.685-12.992 60.685l40.571.9s5.161-65.073-27.579-61.585z" class="prefix__cls-2" data-name="Path 2572" transform="translate(-907.809 -335.892)"/>
                <path id="prefix__Path_2573" d="M964.706 383.61s-9.495 33.2-18.191 33.408-30.557-32.278-30.557-32.278l5.287-3.266 18.1 15.711c3.208-9.836 7.8-23.438 7.8-23.438z" data-name="Path 2573" transform="translate(-907.604 -336.095)" style="stroke:transparent;fill:#1d1d1b"/>
                <g id="prefix__Group_389" data-name="Group 389" transform="translate(13.115 39.456)">
                    <path id="prefix__Path_2574" d="M920.793 381.828l18.82 16.069.182-.56c2.386-7.315 5.566-16.807 7.016-21.12-.2-.147-.385-.3-.584-.444l.6.411.023-.068c-.22-.176-.433-.356-.644-.536-1.347 4.005-4.527 13.486-6.967 20.954L921.32 381.5z" class="prefix__cls-8" data-name="Path 2574" transform="translate(-920.793 -375.579)"/>
                    <path id="prefix__Path_2575" d="M962.7 389.188c-3.1 9.363-9.916 27.533-16.117 27.678-5.953.121-18.191-16.026-25.079-25.458-.256.333-.259.25-.521.567 6.8 9.3 18.54 24.813 25 25.638a4.154 4.154 0 0 0 .618.033c6.729-.157 13.689-18.626 16.837-28.166q-.371-.138-.738-.292z" class="prefix__cls-8" data-name="Path 2575" transform="translate(-920.796 -375.79)"/>
                </g>
                <path id="prefix__Path_2576" d="M939.863 360.971l7.587-2.917 2.635 2.819-10.856 2.966z" class="prefix__cls-2" data-name="Path 2576" transform="translate(-907.963 -335.852)"/>
                <g id="prefix__Group_390" data-name="Group 390" transform="translate(10.208 195.5)">
                    <path id="prefix__Path_2577" d="M932.5 539.1s-3.391 3.144-11.12 5.113c-1.7.434-3.536-.146-3.536 2.662h9.381l7.8-1.349v1.349h4.214s1.174-6.892-1.288-7.775z" class="prefix__cls-8" data-name="Path 2577" transform="translate(-917.841 -534.153)"/>
                    <path id="prefix__Path_2578" d="M933.557 534.075l-.829 4.95a4.766 4.766 0 0 0 5.162.172l.289-.172 1.224-4.95z" class="prefix__cls-9" data-name="Path 2578" transform="translate(-918.071 -534.075)"/>
                </g>
                <path id="prefix__Path_2579" d="M972.194 420.554s0 22.336-17.847 48.14a28.068 28.068 0 0 0-4.956 15.708c-.215 24.507-8.59 48.213-8.59 48.213h-7.341L931.216 422.4z" class="prefix__cls-8" data-name="Path 2579" transform="translate(-907.84 -336.819)"/>
                <g id="prefix__Group_391" data-name="Group 391" transform="translate(0 26.152)">
                    <path id="prefix__Rectangle_123" d="M0 0H1.564V19.938H0z" class="prefix__cls-4" data-name="Rectangle 123" transform="rotate(-29.115 1.465 .38)"/>
                </g>
                <path id="prefix__Path_2580" d="M916.431 384.3l-2.872-2.334a13.994 13.994 0 0 1-3.39-9.187l.127-4.853c1 .511 1.61 2.232 2.106 3.235l3.616 6.017 4.611 4.528z" class="prefix__cls-6" data-name="Path 2580" transform="translate(-907.514 -336.005)"/>
                <path id="prefix__Path_2581" d="M915.624 379.4c.6-.524 3.243 2.379 3.4 1.185 0 0-.645-5.076-1.748-6.378s-1.7-4.552-1.7-4.552-1.155 0-1.092 1.821c.031.907.7 2.2.778 3.549.075 1.375-.432 2.806.362 4.375z" class="prefix__cls-6" data-name="Path 2581" transform="translate(-907.581 -336.031)"/>
            </g>
            <g id="prefix__Group_405" data-name="Group 405" transform="translate(114.242 9.008)">
                <path id="prefix__Path_2602" d="M893.994 383.971l8.971 16.9-9.885-.476-.694-16.965z" class="prefix__cls-9" data-name="Path 2602" transform="translate(-859.662 -345.253)"/>
                <path id="prefix__Path_2603" d="M879.661 376.373l8.287-.012 3.434 53.563h-14.851z" class="prefix__cls-18" data-name="Path 2603" transform="translate(-859.417 -345.143)"/>
                <g id="prefix__Group_400" data-name="Group 400" transform="translate(3.311 186.42)">
                    <path id="prefix__Path_2604" d="M864.23 536.08s-2.048 1.61-1.673 3.662.907 6.858.907 6.858h2.106l-.065-4.483c.006-.293 4.517 4.483 5.28 4.483h11.144s.74-3.023-5.8-4-11.899-6.52-11.899-6.52z" class="prefix__cls-4" data-name="Path 2604" transform="translate(-862.511 -534.034)"/>
                    <g id="prefix__Group_399" data-name="Group 399" transform="translate(1.39)">
                        <path id="prefix__Path_2605" d="M869.082 534l1.51 3.932a5.049 5.049 0 0 0 2.058 2.612 19.8 19.8 0 0 0 5.2 2.362c-3.027 2.586-7.847-.114-10.6-2.023a6.749 6.749 0 0 1-2.694-3.9l-.633-2.983z" class="prefix__cls-9" data-name="Path 2605" transform="translate(-863.923 -534.002)"/>
                    </g>
                </g>
                <g id="prefix__Group_402" data-name="Group 402" transform="translate(24.54 186.42)">
                    <path id="prefix__Path_2606" d="M885.792 536.08s-2.048 1.61-1.673 3.662.907 6.858.907 6.858h2.106l-.065-4.483c.007-.293 4.517 4.483 5.281 4.483h11.143s.74-3.023-5.8-4-11.899-6.52-11.899-6.52z" class="prefix__cls-4" data-name="Path 2606" transform="translate(-884.073 -534.034)"/>
                    <g id="prefix__Group_401" data-name="Group 401" transform="translate(1.391)">
                        <path id="prefix__Path_2607" d="M890.644 534l1.51 3.932a5.049 5.049 0 0 0 2.058 2.612 19.794 19.794 0 0 0 5.2 2.362c-3.029 2.586-7.848-.114-10.6-2.023a6.749 6.749 0 0 1-2.694-3.9l-.632-2.983z" class="prefix__cls-9" data-name="Path 2607" transform="translate(-885.486 -534.002)"/>
                    </g>
                </g>
                <path id="prefix__Path_2608" d="M873.253 430.766s-1.392 8.006 6.614 47.355c-6.481 20.507 3.9 54.82 3.9 54.82h7.565l5.151-102.175z" class="prefix__cls-2" data-name="Path 2608" transform="translate(-859.365 -345.985)"/>
                <path id="prefix__Path_2609" d="M887.2 376.374l2.688 64.988 8.906-3.812a95.62 95.62 0 0 1-3.632-29.148c-1.362-12.256 5.591-5.8-2.928-29.4-3.169-2.64-5.034-2.628-5.034-2.628z" class="prefix__cls-4" data-name="Path 2609" transform="translate(-859.582 -345.144)"/>
                <path id="prefix__Path_2610" d="M888.227 369.41l-1.044 5.48a3.487 3.487 0 0 1-5.277 2.3l-3.655-2.291 6.526-14.751z" class="prefix__cls-9" data-name="Path 2610" transform="translate(-859.443 -344.893)"/>
                <path id="prefix__Path_2611" d="M865.781 430.766s-9.912 8.006-1.906 47.355c-6.481 20.507-.762 54.82-.762 54.82h6.787L889 430.766z" class="prefix__cls-8" data-name="Path 2611" transform="translate(-859.173 -345.985)"/>
                <path id="prefix__Path_2612" d="M879.392 370.78s-8.367 4.7-10.967 8.9c-2.478 4-3.336 13.109-3.575 21.217-.327 11.132-5.7 40.379-5.7 40.379h22.427l.559-63.668z" class="prefix__cls-4" data-name="Path 2612" transform="translate(-859.148 -345.057)"/>
                <path id="prefix__Path_2613" d="M896.172 352.735c-5.073-1.287-9.952 3.914-9.952 3.914L882.4 377.2l-5.869-9.046s-.335-12.291 5.338-20.429c4.062-4.93 11.86-3.515 15.8 1.279 1.917 2.331 2.318 5.55 2.132 8.512-.249 3.976-1.376 26.8-1.376 26.8l-11.62-8.608a54.089 54.089 0 0 1 1.39-6.541c1.92-7.26 11.384-15.567 7.977-16.432z" class="prefix__cls-2" data-name="Path 2613" transform="translate(-859.417 -344.653)"/>
                <path id="prefix__Path_2614" d="M884.818 356.517a1.833 1.833 0 0 1 2.165 1.129 1.58 1.58 0 0 1-.549 2.232 1.834 1.834 0 0 1-2.166-1.129 1.579 1.579 0 0 1 .55-2.232z" class="prefix__cls-9" data-name="Path 2614" transform="translate(-859.533 -344.835)"/>
                <g id="prefix__Group_403" data-name="Group 403" transform="translate(24.716 6.121)">
                    <path id="prefix__Path_2615" d="M890.264 370.231a4.046 4.046 0 0 0 2.481.321c4.412-3.2 6.006-15.97 6.006-15.97l-3.494-3.712-6.957 1.53-3.428 7.607a7 7 0 0 0 .285 6.316 11.24 11.24 0 0 0 5.107 3.908z" class="prefix__cls-9" data-name="Path 2615" transform="translate(-884.252 -350.87)"/>
                </g>
                <path id="prefix__Path_2616" d="M897.479 352.521c-.362 3.863-11.114 4.18-11.114 4.18l-.56-5.231 6.269-3.451 4.962 2.986a3.3 3.3 0 0 1 .443 1.516z" class="prefix__cls-2" data-name="Path 2616" transform="translate(-859.56 -344.705)"/>
                <path id="prefix__Path_2617" d="M897.423 353.343c-.357 1.438 1.1 3.944 1.1 3.944l.855-1.546-.023-1.338-.845-1.044s-.731-1.453-1.087-.016z" class="prefix__cls-2" data-name="Path 2617" transform="translate(-859.739 -344.777)"/>
                <path id="prefix__Path_2618" d="M870.789 379.819c-10.853 1.267-5.726 29.263-3.395 40.759a4.865 4.865 0 0 0 6.219 3.687c9.443-2.978 23.238-15.345 23.238-15.345l-2.187-2.754-18.326 4.28s7.033-32.095-5.549-30.627z" class="prefix__cls-9" data-name="Path 2618" transform="translate(-859.225 -345.196)"/>
                <path id="prefix__Path_2619" d="M892.891 399.89l-3.544 21.935a1.045 1.045 0 0 0 1.032 1.211h14.031a1.044 1.044 0 0 0 1.032-.881l3.481-21.934a1.045 1.045 0 0 0-1.033-1.208h-13.968a1.044 1.044 0 0 0-1.031.877z" class="prefix__cls-2" data-name="Path 2619" transform="translate(-859.615 -345.494)"/>
                <g id="prefix__Group_404" data-name="Group 404" transform="translate(43.902 57.116)">
                    <path id="prefix__Path_2620" d="M908.686 409.659a9.589 9.589 0 0 0-.245-2.849c-.335-2.075-.246-5.325-2.366-3.706a10.669 10.669 0 0 0-2.235 5.184c-.408 1.473.5 3.522 1.337 4.632l1.457 3.174a9.177 9.177 0 0 0 2.052-6.435z" class="prefix__cls-19" data-name="Path 2620" transform="translate(-903.739 -402.667)"/>
                </g>
                <path id="prefix__Path_2621" d="M899.44 407.652a1.071 1.071 0 1 0 1.07-1.071 1.071 1.071 0 0 0-1.07 1.071z" class="prefix__cls-4" data-name="Path 2621" transform="translate(-859.771 -345.611)"/>
                <path id="prefix__Path_2622" d="M894.011 366.211c-.65 1.717-2.948.185-4.433-.887" class="prefix__cls-10" data-name="Path 2622" transform="translate(-859.619 -344.973)"/>
                <ellipse id="prefix__Ellipse_137" cx=".48" cy=".525" data-name="Ellipse 137" rx=".48" ry=".525" transform="rotate(-75.29 25.315 -11.689)"/>
                <ellipse id="prefix__Ellipse_138" cx=".48" cy=".494" data-name="Ellipse 138" rx=".48" ry=".494" transform="rotate(-75.302 27.96 -13.989)"/>
            </g>
        </g>
        <path id="prefix__Path_2682" d="M1160.609 581.94c-.059 1.211-1.26.414-2.087.128" class="prefix__cls-10" data-name="Path 2682" transform="translate(-9.657 -4.673)"/>
        <circle id="prefix__Ellipse_139" cx=".217" cy=".217" r=".217" data-name="Ellipse 139" transform="translate(1150.027 573.457)"/>
        <g id="prefix__Group_442" data-name="Group 442" transform="translate(689.104 355.395)">
            <g id="prefix__Group_440" data-name="Group 440">
                <path id="prefix__Path_2683" d="M709.222 401.943l-12.67 33.942 2.661 1.033s9.9-15.24 19.81-32.746c9.303-16.434-9.801-2.229-9.801-2.229z" class="prefix__cls-6" data-name="Path 2683" transform="translate(-691.614 -357.195)"/>
                <path id="prefix__Path_2684" d="M709.421 401.8s6.464-15.051 15.223-15.051-.81 1.116 10.34 0c7.623-.762 14.372 12.47 14.372 12.47l-8.528 4.574-.916 20.53h-20.528l-1.17-19.819z" class="prefix__cls-4" data-name="Path 2684" transform="translate(-691.813 -357.047)"/>
                <path id="prefix__Path_2685" d="M724.883 380.543v6.093l.05.037a7.25 7.25 0 0 0 8.295.235l.415-.273-1.357-7.015z" class="prefix__cls-9" data-name="Path 2685" transform="translate(-692.052 -356.938)"/>
                <path id="prefix__Path_2686" d="M720.676 367.49s-.509 13.72 7.368 13.72 7.876-14.99 7.876-14.99l-6.86-6.861z" class="prefix__cls-9" data-name="Path 2686" transform="translate(-691.987 -356.624)"/>
                <ellipse id="prefix__Ellipse_140" cx=".342" cy=".383" data-name="Ellipse 140" rx=".342" ry=".383" transform="translate(32.747 12.375)"/>
                <path id="prefix__Path_2687" d="M729.885 363.127s-2.876 4.774-6.112 6.807a4.342 4.342 0 0 0-1.971 4.615c.5 2.28 3.2 4.227 2.849 6.373-.573 3.492 1.158 7.016 3.125 9.958 5.993 8.959.327 23.573-8.061 23.573-9.449 0-8.221-11.1-7.522-13.091a5.69 5.69 0 0 0-1.528-6.131c-1.245-1.107-2.377-2.553-2.377-4.154 0-1.921 1.7-5.175 3.271-7.762a34.557 34.557 0 0 0 3.712-11.158c1.656-15.572 12.64-15.614 13.139-15.572 5.427.452 10.313 5.092 10.4 10.536.107 6.334 2.06 19.3 3.777 21.668-5.612 2.454-12.933-1.524-10.839-10.419.41-1.741 3.813-6.583 3.662-8.128-.598-6.129-5.525-7.115-5.525-7.115z" class="prefix__cls-2" data-name="Path 2687" transform="translate(-691.795 -356.581)"/>
                <g id="prefix__Group_437" data-name="Group 437" transform="translate(49.571 170.028)">
                    <path id="prefix__Path_2688" d="M746.7 529.281l1.411 3.669a4.712 4.712 0 0 0 1.921 2.439 18.931 18.931 0 0 0 4.856 2.1c-2.827 2.413-7.325-.008-9.9-1.79a6.293 6.293 0 0 1-2.515-3.643l-.589-2.78z" class="prefix__cls-9" data-name="Path 2688" transform="translate(-741.886 -529.281)"/>
                </g>
                <path id="prefix__Path_2689" d="M742.172 531.22s-1.912 1.5-1.561 3.417.847 6.4.847 6.4h1.965l-.06-4.184c.006-.273 4.215 4.184 4.928 4.184h10.4s.691-2.822-5.417-3.729-11.102-6.088-11.102-6.088z" class="prefix__cls-2" data-name="Path 2689" transform="translate(-692.295 -359.283)"/>
                <path id="prefix__Path_2690" d="M731.008 366.815a20.044 20.044 0 0 1-3.243 1.762 16.751 16.751 0 0 1-3.689 3.908 19.1 19.1 0 0 1 .916 6.464c-.019.475-.063.938-.121 1.4a5.5 5.5 0 0 0 3.226.982c5.4 0 7.095-7.034 7.63-11.466a15.3 15.3 0 0 1-4.719-3.05z" class="prefix__cls-9" data-name="Path 2690" transform="translate(-692.04 -356.74)"/>
                <path id="prefix__Path_2691" d="M730.551 374.394c0 .764-1.123 1.386-2.511 1.386s-2.51-.617-2.51-1.386" class="prefix__cls-10" data-name="Path 2691" transform="translate(-692.062 -356.857)"/>
                <ellipse id="prefix__Ellipse_141" cx=".419" cy=".383" data-name="Ellipse 141" rx=".419" ry=".383" transform="translate(38.426 12.375)"/>
                <path id="prefix__Path_2692" d="M734.13 372.67a1.79 1.79 0 0 1 .238-2.374 1.543 1.543 0 0 1 2.223-.312 1.791 1.791 0 0 1-.238 2.374 1.543 1.543 0 0 1-2.223.312z" class="prefix__cls-9" data-name="Path 2692" transform="translate(-692.19 -356.783)"/>
                <path id="prefix__Path_2693" d="M744.724 480.81c7.585-39.256-4.717-55.9-4.717-55.9h-20.591s-11.063 16.008-4.718 55.9c0 0-3.8 18.295-1.52 46.857h4.814l5.873-42.029 5.846-37.927 5.846 37.927 5.874 42.029h4.813c2.281-28.567-1.52-46.857-1.52-46.857z" class="prefix__cls-2" data-name="Path 2693" transform="translate(-691.86 -357.638)"/>
                <path id="prefix__Path_2694" d="M749.744 399.412s10.275 19.514 5.954 22.309-21.225-7.46-21.225-7.46l.9-2.794 9.373.345-3.529-7.826z" class="prefix__cls-9" data-name="Path 2694" transform="translate(-692.201 -357.244)"/>
                <path id="prefix__Path_2695" d="M712.964 531.752l-1.129 6.112a7.209 7.209 0 0 0 .9 5.032c.843 1.4 1.968 2.827 3.041 2.827 1.2 0 2.552-1.544 3.483-2.859a4.632 4.632 0 0 0 .74-3.68l-1.765-7.963z" class="prefix__cls-2" data-name="Path 2695" transform="translate(-691.848 -359.283)"/>
                <g id="prefix__Group_438" data-name="Group 438" transform="translate(43.644 54.251)" style="opacity:.3">
                    <path id="prefix__Path_2696" d="M755.224 416.087c-6.89-4.359-19.18-3.579-19.309-3.571l-.049-.761c.544-.034 12.666-.805 19.765 3.688z" class="prefix__cls-19" data-name="Path 2696" transform="translate(-735.866 -411.684)"/>
                </g>
                <g id="prefix__Group_439" data-name="Group 439" transform="translate(0 77.259)">
                    <path id="prefix__Path_2697" d="M698.23 439.312a6.4 6.4 0 0 0-2.21 3.023c-.862 1.932-1.393 6.494-3.22 4.961-.445-2.286-1.255-4.931-1.255-4.931-.127-1.4 1.179-3.363 2.244-4.427l3.7-2.883s2.343.449 2.457.451l.284.406a14.151 14.151 0 0 0-2 3.4z" class="prefix__cls-6" data-name="Path 2697" transform="translate(-691.536 -435.054)"/>
                    <path id="prefix__Path_2698" d="M697.138 439.682a1.753 1.753 0 0 0-.331.133c-.024-.3-.064-.6-.113-.9.328-1.053.621-2.118.938-3.175.621.286 1.494.684 1.561.7l-.6 7.371s-.952.286-1.347-1.236a7 7 0 0 1-.108-2.893z" class="prefix__cls-6" data-name="Path 2698" transform="translate(-691.616 -435.065)"/>
                </g>
                <path id="prefix__Path_2699" d="M713.178 529.281l-.664 8.039a2.281 2.281 0 0 0 1.221 2.238 4.8 4.8 0 0 0 4.1.031 2.267 2.267 0 0 0 1.212-2.352l-1.055-7.955z" class="prefix__cls-9" data-name="Path 2699" transform="translate(-691.861 -359.253)"/>
            </g>
            <path id="prefix__Path_2700" d="M731.621 410.392l-.916-12.487a1.015 1.015 0 0 0-1.012-.941h-5.9a1.017 1.017 0 0 0-1.013 1.095l.97 12.486a1.015 1.015 0 0 0 1.012.937h5.847a1.015 1.015 0 0 0 1.012-1.09z" class="prefix__cls-18" data-name="Path 2700" transform="translate(-692.02 -357.206)"/>
            <g id="prefix__Group_441" data-name="Group 441" transform="translate(32.635 46.977)">
                <path id="prefix__Path_2701" d="M733.544 410.055a6.782 6.782 0 0 1-3.5-1.848c-1.714-1.435-4.333-5.524-5.358-3.221.637 2.379 1.093 5.267 1.093 5.267.53 1.392 2.679 2.648 4.184 3.167l4.855 1.022s2.019-1.513 2.127-1.567l-.38-.967a10.824 10.824 0 0 1-3.021-1.853z" class="prefix__cls-6" data-name="Path 2701" transform="translate(-724.684 -404.296)"/>
                <path id="prefix__Path_2702" d="M732.362 410.277a1.834 1.834 0 0 1-.377.027c.119.3.22.6.309.908.8.849 1.573 1.724 2.364 2.581.458-.559 1.1-1.343 1.158-1.39l-3.991-6.724s-1.037.169-.708 1.8a7.4 7.4 0 0 0 1.245 2.798z" class="prefix__cls-6" data-name="Path 2702" transform="translate(-724.783 -404.318)"/>
            </g>
            <path id="prefix__Path_2703" d="M725.793 401.306a.934.934 0 1 0 .934-.934.935.935 0 0 0-.934.934z" class="prefix__cls-2" data-name="Path 2703" transform="translate(-692.066 -357.259)"/>
            <path id="prefix__Path_2704" d="M697.491 424.3s3.478-2.4 4.77-1.829.275 2.99.275 2.99z" data-name="Path 2704" transform="translate(-691.628 -357.599)" style="fill:#f39f85"/>
        </g>
        <g id="prefix__Group_449" data-name="Group 449" transform="translate(655.477 343.997)">
            <g id="prefix__Group_444" data-name="Group 444" transform="translate(20.546)">
                <path id="prefix__Path_2705" d="M688.066 365.115l-1.64 7.779-8.176-2.258 5.347-11.164z" class="prefix__cls-6" data-name="Path 2705" transform="translate(-678.249 -345.228)"/>
                <g id="prefix__Group_443" data-name="Group 443" transform="translate(5.29 4.379)">
                    <path id="prefix__Path_2706" d="M690.19 367.129a4.251 4.251 0 0 0 2.433.185c3.963-3.071 4.267-14.662 4.267-14.662l-3.743-3.2-6.589 1.673-2.582 7.008a6.055 6.055 0 0 0 .888 5.686 11.817 11.817 0 0 0 5.326 3.31z" class="prefix__cls-6" data-name="Path 2706" transform="translate(-683.622 -349.452)"/>
                </g>
                <path id="prefix__Path_2707" d="M686.111 355.36c.683-1.1 1.4-3.9 2.558-3.316.84.428 3.84 1.524 4.862 1.851 2.438.778 7.087 1.211 8.27-2.5.593-1.855-.7-4.028-1.683-4.867a5.182 5.182 0 0 0-3.51-1.17c-2.983.081-7.2 1.014-8.531.276-2.235-1.242-5.064-.6-5.679 1.437a21.307 21.307 0 0 0-.161 8.211 11.983 11.983 0 0 0 1.417 3.962z" class="prefix__cls-2" data-name="Path 2707" transform="translate(-678.306 -345.004)"/>
                <path id="prefix__Path_2708" d="M683.57 354.992a1.926 1.926 0 0 1 2.206.928c.522.818.381 1.73-.316 2.036a1.925 1.925 0 0 1-2.205-.927c-.522-.819-.381-1.729.315-2.037z" class="prefix__cls-6" data-name="Path 2708" transform="translate(-678.322 -345.157)"/>
                <circle id="prefix__Ellipse_142" cx=".336" cy=".336" r=".336" data-name="Ellipse 142" transform="rotate(-75.287 15.82 -2.779)"/>
                <circle id="prefix__Ellipse_143" cx=".336" cy=".336" r=".336" data-name="Ellipse 143" transform="rotate(-75.287 13.611 -1.074)"/>
                <path id="prefix__Path_2709" d="M693.113 362.075c-.186.71-1.509.994-2.958.614s-2.466-1.264-2.275-1.988" class="prefix__cls-10" data-name="Path 2709" transform="translate(-678.398 -345.247)"/>
            </g>
            <path id="prefix__Path_2710" d="M681.559 369.054c-15.22-.852-16.509 12.687-17.786 27.4a277.537 277.537 0 0 0-.334 35.311h35.419s-.008-15.687-.378-31.374c-.359-15.218-.826-30.437-16.921-31.337z" class="prefix__cls-2" data-name="Path 2710" transform="translate(-657.468 -345.376)"/>
            <path id="prefix__Path_2711" d="M702.984 416.451c6.209-2.194 2.419-23.555 2.419-23.555l-3.67-.034s-4.959 25.783 1.251 23.589z" class="prefix__cls-19" data-name="Path 2711" transform="translate(-658.038 -345.745)"/>
            <path id="prefix__Path_2712" d="M706.229 392.585l-4.336 2.6s-18.3-29.6-9.251-21.8a53.016 53.016 0 0 1 13.587 19.2z" class="prefix__cls-8" data-name="Path 2712" transform="translate(-657.887 -345.423)"/>
            <g id="prefix__Group_445" data-name="Group 445" transform="translate(19.263 180.408)">
                <path id="prefix__Path_2713" d="M684.5 533.5s.019 4.241 8.537 6.786c1.747.523 1.179 1.04 1.507 1.774h-9.8l-3.839-4.315-1.193 1.026-2.768-2.719s1.293-3.935 3.4-3.97z" class="prefix__cls-2" data-name="Path 2713" transform="translate(-676.946 -528.306)"/>
                <path id="prefix__Path_2714" d="M686.151 529.768l-1.593 3.672a3.84 3.84 0 0 1-3.982-1.21l-.176-.208 1.287-3.776z" class="prefix__cls-6" data-name="Path 2714" transform="translate(-676.999 -528.247)"/>
            </g>
            <path id="prefix__Path_2715" d="M658.4 396.439s5.81-27.022 19.541-26.4-5.968 28.339-5.968 28.339z" class="prefix__cls-8" data-name="Path 2715" transform="translate(-657.397 -345.392)"/>
            <path id="prefix__Path_2716" d="M702.757 416.6c8.607-6.952-8.3-43.28-8.3-43.28l-4.1.412s.317 48.175 12.4 42.868z" class="prefix__cls-9" data-name="Path 2716" transform="translate(-657.891 -345.443)"/>
            <path id="prefix__Path_2717" d="M688.066 370.35l-.52-2.662-7.032-1.4-2.264 2.812z" class="prefix__cls-2" data-name="Path 2717" transform="translate(-657.704 -345.334)"/>
            <path id="prefix__Path_2718" d="M694.421 373.15l.521-6.927s-3.455-5.3-6.724-3.877c-.6 1.45.444 4.378.444 4.378l1.663 6.838z" class="prefix__cls-6" data-name="Path 2718" transform="translate(-657.855 -345.269)"/>
            <path id="prefix__Path_2719" d="M699.085 432.75s4.935 30.952 3.775 45.269-16.849 51.723-16.849 51.723l-6.83-1.987s-.518-25.024 6.188-41.452a15.286 15.286 0 0 0 0-11.276 189.318 189.318 0 0 1-7.655-23.74l.523-18.538z" class="prefix__cls-2" data-name="Path 2719" transform="translate(-657.695 -346.362)"/>
            <g id="prefix__Group_446" data-name="Group 446" transform="translate(29.846 16.503)">
                <path id="prefix__Path_2720" d="M693.85 372.856l.119-.012.481-6.535c-.449-.668-3.33-4.737-6-3.717-.352 1.132.224 3.264.5 4.049l.019.079a4.065 4.065 0 0 0-.713-.119c-.23-.727-.893-3.06-.355-4.387l.05-.123.12-.054c3.405-1.508 6.839 3.775 6.982 4l.06.094-.539 7.315-.4.04a4.59 4.59 0 0 0-.324-.63z" class="prefix__cls-19" data-name="Path 2720" transform="translate(-687.696 -361.766)"/>
            </g>
            <g id="prefix__Group_447" data-name="Group 447" transform="translate(7.194 183.38)">
                <path id="prefix__Path_2721" d="M671.016 535.8s3.058 2.836 10.027 4.612c1.535.391 3.189-.132 3.189 2.4h-8.458l-7.036-1.217v1.217h-3.8s-1.058-6.214 1.161-7.012z" class="prefix__cls-2" data-name="Path 2721" transform="translate(-664.688 -531.336)"/>
                <path id="prefix__Path_2722" d="M670.291 531.266l.747 4.463a4.3 4.3 0 0 1-4.655.156l-.261-.156.379-4.463z" class="prefix__cls-6" data-name="Path 2722" transform="translate(-664.71 -531.266)"/>
            </g>
            <path id="prefix__Path_2723" d="M688.42 432.75l-16.432 98.316h-6.576s-5.663-26.485-1.289-47.873a32.274 32.274 0 0 0 .291-11.278c-4.165-27.616-.988-39.166-.988-39.166z" class="prefix__cls-8" data-name="Path 2723" transform="translate(-657.456 -346.362)"/>
            <g id="prefix__Group_448" data-name="Group 448" transform="translate(37.902 63.679)">
                <path id="prefix__Path_2724" d="M736.979 409.684h-30.5a.769.769 0 0 0-.692.434l-9.834 20.252a.77.77 0 0 0 .692 1.107h30.5a.768.768 0 0 0 .692-.434l9.829-20.252a.77.77 0 0 0-.687-1.107z" data-name="Path 2724" transform="translate(-695.878 -409.684)" style="fill:#010202"/>
                <path id="prefix__Path_2725" d="M718.549 417.731a1.292 1.292 0 1 0 1.293-1.292 1.292 1.292 0 0 0-1.293 1.292z" data-name="Path 2725" transform="translate(-696.229 -409.789)" style="fill:#ededed"/>
            </g>
            <path id="prefix__Path_2726" d="M671.958 398.8l-1.655 11.22 27.123 13.52-2.959 2.938s-30.454-5.482-34.758-9.506-1.324-20.114-1.324-20.114z" class="prefix__cls-9" data-name="Path 2726" transform="translate(-657.381 -345.806)"/>
            <path id="prefix__Path_2727" d="M693.369 426.315l6.389 4.1c2.571 1.18 4.847-.666 6.7-3.271a2.4 2.4 0 0 0-2.006-3.8c-2.3.033-5.085.5-6.469.6z" class="prefix__cls-9" data-name="Path 2727" transform="translate(-657.938 -346.216)"/>
        </g>
        <g id="prefix__Group_458" data-name="Group 458" transform="translate(618.914 351.793)">
            <g id="prefix__Group_452" data-name="Group 452" transform="translate(20.584 5.776)">
                <g id="prefix__Group_451" data-name="Group 451">
                    <path id="prefix__Path_2728" d="M649.76 376.441l-3.276 7.319-5.333-4.8 3.762-10.662z" class="prefix__cls-24" data-name="Path 2728" transform="translate(-641.151 -358.937)"/>
                    <g id="prefix__Group_450" data-name="Group 450" transform="translate(3.632)">
                        <path id="prefix__Path_2729" d="M651.712 376.758a3.638 3.638 0 0 0 2.241-.206c3.242-3.672 2.13-14.49 2.13-14.49l-3.8-3.272-5.8 2.709-1.513 5.945c-.4 1.961.15 5.4 1.492 6.889a10.091 10.091 0 0 0 5.25 2.425z" class="prefix__cls-24" data-name="Path 2729" transform="translate(-644.841 -358.79)"/>
                    </g>
                </g>
            </g>
            <path id="prefix__Path_2730" d="M655.84 372.037c-.734 1.586-2.31.461-3.6-.219" class="prefix__cls-10" data-name="Path 2730" transform="translate(-620.739 -353.215)"/>
            <ellipse id="prefix__Ellipse_144" cx=".419" cy=".383" data-name="Ellipse 144" rx=".419" ry=".383" transform="translate(33.331 13.295)"/>
            <path id="prefix__Path_2731" d="M652.634 416.148a8.391 8.391 0 0 0 3.933 2.8c2.623.9 22.15-3.2 22.15-3.2l3.921.412a9.966 9.966 0 0 0 6.211-.322l5.743-2.22-33.69-.7-12.9-16.015z" class="prefix__cls-24" data-name="Path 2731" transform="translate(-620.674 -353.603)"/>
            <path id="prefix__Path_2732" d="M640.961 379.123s-7.785 9.969-9.6 16.525-2.474 24.626-2.474 24.626h16.381s4.7-8.525 8.355-16.26a8.844 8.844 0 0 0 .1-7.349c-2.674-6.057-6.689-14.388-6.689-14.388z" class="prefix__cls-4" data-name="Path 2732" transform="translate(-620.378 -353.328)"/>
            <g id="prefix__Group_454" data-name="Group 454" transform="translate(23.269 176.018)">
                <g id="prefix__Group_453" data-name="Group 453" transform="translate(1.195)">
                    <path id="prefix__Path_2733" d="M649.528 531.707l1.3 3.381a4.341 4.341 0 0 0 1.769 2.246 16.968 16.968 0 0 0 4.474 2.031c-2.6 2.223-6.747-.1-9.118-1.74a5.807 5.807 0 0 1-2.317-3.356l-.542-2.562z" class="prefix__cls-24" data-name="Path 2733" transform="translate(-645.093 -531.707)"/>
                </g>
                <path id="prefix__Path_2734" d="M645.357 533.493s-1.761 1.045-1.438 2.376.78 4.448.78 4.448h1.811l-.055-2.907c0-.19 3.883 2.907 4.54 2.907h9.581s.637-1.961-4.99-2.591a22.879 22.879 0 0 1-10.229-4.233z" data-name="Path 2734" transform="translate(-643.879 -531.735)" style="fill:#e0c81b"/>
            </g>
            <g id="prefix__Group_456" data-name="Group 456" transform="translate(4.644 176.018)">
                <g id="prefix__Group_455" data-name="Group 455" transform="translate(1.195)">
                    <path id="prefix__Path_2735" d="M630.61 531.707l1.3 3.381a4.341 4.341 0 0 0 1.769 2.246 16.969 16.969 0 0 0 4.474 2.031c-2.6 2.223-6.747-.1-9.118-1.74a5.8 5.8 0 0 1-2.317-3.356l-.543-2.562z" class="prefix__cls-24" data-name="Path 2735" transform="translate(-626.175 -531.707)"/>
                </g>
                <path id="prefix__Path_2736" d="M626.439 533.493s-1.761 1.385-1.438 3.15.78 5.9.78 5.9h1.81l-.055-3.854c0-.252 3.883 3.854 4.54 3.854h9.581s.637-2.6-4.99-3.435-10.228-5.615-10.228-5.615z" data-name="Path 2736" transform="translate(-624.961 -531.735)" style="fill:#ebd619"/>
            </g>
            <path id="prefix__Path_2737" d="M645.339 421.208s8.128 12.184 1.172 60.753c1.093 18.357 3.133 48.57 3.133 48.57h-4.614s-12.79-32.18-8.5-48.209c1.02-15.877-2.914-61.4-2.914-61.4z" class="prefix__cls-2" data-name="Path 2737" transform="translate(-620.451 -353.975)"/>
            <path id="prefix__Path_2738" d="M628.751 420.921s-8.507 6.843-8.507 17c0 7.973 3.842 24.485 6.045 35.293.8 3.924-.009 7.978-1.113 11.827-4.5 15.677.969 45.485.969 45.485h4.589s.252-15.332 6.529-49.7c7.21-39.476 7.869-59.909 7.869-59.909z" class="prefix__cls-8" data-name="Path 2738" transform="translate(-620.244 -353.975)"/>
            <g id="prefix__Group_457" data-name="Group 457" transform="translate(48.08 36.454)">
                <path id="prefix__Path_2739" d="M695.841 413.518H669.08v-1.967h25.573l11.361-21.6 1.74.915z" class="prefix__cls-18" data-name="Path 2739" transform="translate(-669.08 -389.95)"/>
            </g>
            <path id="prefix__Path_2740" d="M633.617 397.587s8.547 19.9 12.655 19.9 26.849-9.726 26.849-9.726l-.6-3.4-23.221 3.934a101.828 101.828 0 0 1-3.486-11.775 6.479 6.479 0 0 0-5.008-5c-5.494-1.038-7.189 6.067-7.189 6.067z" class="prefix__cls-24" data-name="Path 2740" transform="translate(-620.451 -353.518)"/>
            <path id="prefix__Path_2741" d="M644.794 365.426s2.534 1.533 10.292-3.442c1.188.31-.708-10.872-10.747-7.587-7.027 2.3-6.69 9.1-6.365 12.865.35 4.065-1.766 6.748-4.561 9.721-2.344 2.494-2.309 7.08-3.87 9.547-1.922 3.037-3.959 2.86-5.483 5.94-1.6 3.224-1.813 7.166.322 10.061 1.214 1.645 4.044 5.612 8.523 4.2 2.514-.794 3.191-5.182 3.3-8.879a11.2 11.2 0 0 1 4.269-8.4c2.416-1.923 5.053-4.557 5.759-7.307 1.385-5.394-1.439-16.719-1.439-16.719z" class="prefix__cls-2" data-name="Path 2741" transform="translate(-620.284 -352.936)"/>
            <path id="prefix__Path_2742" d="M644.207 365.826a1.648 1.648 0 0 1 2.122.565 1.421 1.421 0 0 1-.043 2.067 1.647 1.647 0 0 1-2.122-.566 1.42 1.42 0 0 1 .043-2.066z" class="prefix__cls-24" data-name="Path 2742" transform="translate(-620.608 -353.119)"/>
            <path id="prefix__Path_2743" d="M685.834 406.281a1.115 1.115 0 0 0-.664-1.15l-4.367-1.9a4.784 4.784 0 0 0-3.414-.153l-4.329 1.437-.586.023-.466 4.029c.865-.318 1.372-.515 1.372-.515l2.74-1s5.976 5.065 8.111.466c.64 4.556 1.938 4.05 1.938 4.05z" class="prefix__cls-24" data-name="Path 2743" transform="translate(-621.045 -353.695)"/>
            <path id="prefix__Path_2744" d="M641.224 361.5c.859 3.112 5.284 4.606 9.881 3.336s7.093-4.722 6.768-7.934c-.426-4.22-5.283-4.607-9.881-3.337s-7.628 4.819-6.768 7.935z" data-name="Path 2744" transform="translate(-620.566 -352.923)"/>
        </g>
        <g id="prefix__Logo" transform="translate(714.964 210.671)">
            <g id="prefix__Group_94" class="prefix__cls-27" data-name="Group 94">
                <path id="prefix__Path_1903" d="M304.6 364.965c0-.616.166-.765.765-.765h.233c.616 0 .765.166.765.765v11.229c0 .749.316 1.065 1.065 1.065h5.124c.566 0 .7.133.7.7v.25c0 .566-.133.7-.7.7h-5.506c-1.713 0-2.445-.749-2.445-2.445z" data-name="Path 1903" transform="translate(-253.863 -303.385)"/>
            </g>
            <g id="prefix__Group_95" class="prefix__cls-27" data-name="Group 95">
                <path id="prefix__Path_1904" d="M371.663 376.111c0 .749.316 1.065 1.065 1.065h6.022c.566 0 .7.133.7.7v.25c0 .566-.133.7-.7.7h-6.4c-1.713 0-2.445-.749-2.445-2.446v-9.832c0-1.7.732-2.445 2.445-2.445h6.4c.566 0 .7.133.7.7v.25c0 .566-.133.7-.7.7h-6.022c-.749 0-1.065.316-1.065 1.065v3.51h6.172c.566 0 .7.133.7.7v.25c0 .566-.133.7-.7.7h-6.172z" data-name="Path 1904" transform="translate(-308.3 -303.302)"/>
            </g>
            <g id="prefix__Group_96" class="prefix__cls-27" data-name="Group 96">
                <path id="prefix__Path_1905" d="M449.316 377.074c.166.582.05.749-.566.749h-.233c-.616 0-.815-.166-.982-.749l-1.065-3.81h-6.77l-1.048 3.81c-.166.582-.366.749-.982.749h-.25c-.616 0-.732-.166-.566-.749l3.028-10.846c.7-2.5 1.248-3.327 3.194-3.327 1.93 0 2.5.832 3.177 3.327zm-9.166-5.407h5.906l-1.564-5.639c-.333-1.248-.632-1.547-1.381-1.547-.765 0-1.065.3-1.4 1.547z" data-name="Path 1905" transform="translate(-364.06 -302.302)"/>
            </g>
            <g id="prefix__Group_97" class="prefix__cls-27" data-name="Group 97">
                <path id="prefix__Path_1906" d="M532.289 364.2c3.71 0 4.908 1.763 4.908 4.658s-1.214 4.658-4.908 4.658h-4.026v4.625c0 .616-.166.765-.765.765h-.233c-.615 0-.765-.166-.765-.765v-11.5c0-1.7.732-2.445 2.445-2.445zm-2.961 1.647c-.749 0-1.065.316-1.065 1.065v4.974h4.026c2.512 0 3.144-1 3.144-3.028 0-2-.649-3.011-3.144-3.011z" data-name="Path 1906" transform="translate(-438.848 -303.385)"/>
            </g>
            <g id="prefix__Group_98" class="prefix__cls-27" data-name="Group 98">
                <path id="prefix__Path_1907" d="M611.589 364.2c3.71 0 4.907 1.763 4.907 4.658s-1.214 4.658-4.907 4.658h-4.026v4.625c0 .616-.166.765-.765.765h-.233c-.615 0-.765-.166-.765-.765v-11.5c0-1.7.732-2.445 2.445-2.445zm-2.961 1.647c-.749 0-1.065.316-1.065 1.065v4.974h4.026c2.512 0 3.144-1 3.144-3.028 0-2-.649-3.011-3.144-3.011z" data-name="Path 1907" transform="translate(-504.956 -303.385)"/>
            </g>
            <g id="prefix__Group_99" class="prefix__cls-27" data-name="Group 99">
                <path id="prefix__Path_1908" d="M303.1 470.945V468h1.314a.75.75 0 0 1 .832.749.692.692 0 0 1-.516.682.739.739 0 0 1 .582.732.774.774 0 0 1-.848.8H303.1zm1.763-2.146a.472.472 0 0 0-.516-.482h-.882v.948h.882a.46.46 0 0 0 .516-.466m.05 1.314a.507.507 0 0 0-.549-.516h-.915v1.015h.915a.487.487 0 0 0 .549-.5" class="prefix__cls-28" data-name="Path 1908" transform="translate(-252.613 -389.918)"/>
            </g>
            <g id="prefix__Group_100" class="prefix__cls-27" data-name="Group 100">
                <path id="prefix__Path_1909" d="M331.564 470.861v-1.248L330.4 467.9h.433l.915 1.381.915-1.381h.432l-1.148 1.714v1.248z" class="prefix__cls-28" data-name="Path 1909" transform="translate(-275.371 -389.834)"/>
            </g>
            <g id="prefix__Group_101" class="prefix__cls-27" data-name="Group 101">
                <path id="prefix__Path_1910" d="M381.3 470.279l.216-.283a1.242 1.242 0 0 0 .932.433c.532 0 .7-.283.7-.516 0-.765-1.747-.333-1.747-1.4 0-.482.432-.815 1.015-.815a1.376 1.376 0 0 1 1.048.416l-.216.266a1.1 1.1 0 0 0-.848-.349c-.349 0-.6.183-.6.466 0 .665 1.747.283 1.747 1.381 0 .433-.3.865-1.081.865a1.542 1.542 0 0 1-1.165-.466" class="prefix__cls-28" data-name="Path 1910" transform="translate(-317.803 -389.668)"/>
            </g>
            <g id="prefix__Group_102" class="prefix__cls-27" data-name="Group 102">
                <path id="prefix__Path_1911" d="M413.3 470.861V469.5h-1.73v1.364h-.37V467.9h.366v1.281h1.73V467.9h.366v2.961z" class="prefix__cls-28" data-name="Path 1911" transform="translate(-342.729 -389.834)"/>
            </g>
            <g id="prefix__Group_103" class="prefix__cls-27" data-name="Group 103">
                <path id="prefix__Path_1912" d="M444.012 470.945l-.266-.665h-1.464l-.266.665h-.416l1.2-2.945h.449l1.181 2.945zm-1-2.578l-.632 1.6h1.248z" class="prefix__cls-28" data-name="Path 1912" transform="translate(-368.072 -389.918)"/>
            </g>
            <g id="prefix__Group_104" class="prefix__cls-27" data-name="Group 104">
                <path id="prefix__Path_1913" d="M475.914 470.945l-.749-1.164h-.6v1.164h-.365V468h1.181a.87.87 0 0 1 .932.882.833.833 0 0 1-.765.865l.8 1.2zm.017-2.063a.56.56 0 0 0-.6-.566h-.782v1.131h.782a.551.551 0 0 0 .6-.566" class="prefix__cls-28" data-name="Path 1913" transform="translate(-395.249 -389.918)"/>
            </g>
            <g id="prefix__Group_105" class="prefix__cls-27" data-name="Group 105">
                <path id="prefix__Path_1914" d="M503.7 470.861V467.9h1.93v.333h-1.564v.948h1.53v.333h-1.53v1.015h1.564v.333z" class="prefix__cls-28" data-name="Path 1914" transform="translate(-419.841 -389.834)"/>
            </g>
            <g id="prefix__Group_106" class="prefix__cls-27" data-name="Group 106">
                <path id="prefix__Path_1915" d="M533.88 470.861l-1.115-1.331-.3.333v1h-.365V467.9h.366v1.53l1.3-1.53h.466L533 469.3l1.348 1.564z" class="prefix__cls-28" data-name="Path 1915" transform="translate(-443.517 -389.834)"/>
            </g>
            <g id="prefix__Group_107" class="prefix__cls-27" data-name="Group 107">
                <path id="prefix__Path_1916" d="M563.4 470.861V469.5h-1.73v1.364h-.37V467.9h.366v1.281h1.73V467.9h.366v2.961z" class="prefix__cls-28" data-name="Path 1916" transform="translate(-467.859 -389.834)"/>
            </g>
            <g id="prefix__Group_108" class="prefix__cls-27" data-name="Group 108">
                <path id="prefix__Path_1917" d="M594.112 470.945l-.266-.665h-1.464l-.266.665h-.416l1.2-2.945h.449l1.181 2.945zm-1-2.578l-.632 1.6h1.248z" class="prefix__cls-28" data-name="Path 1917" transform="translate(-493.202 -389.918)"/>
            </g>
            <g id="prefix__Group_109" class="prefix__cls-27" data-name="Group 109">
                <path id="prefix__Path_1918" d="M626.4 470.861l-1.73-2.362v2.362h-.37V467.9h.383l1.7 2.312V467.9h.366v2.961z" class="prefix__cls-28" data-name="Path 1918" transform="translate(-520.379 -389.834)"/>
            </g>
            <g id="prefix__Group_110" class="prefix__cls-27" data-name="Group 110">
                <path id="prefix__Path_1919" d="M305.18 319.617a1.348 1.348 0 1 1 0 2.695h-.932v.965c0 .283-.067.366-.366.366h-.116c-.283 0-.366-.067-.366-.366v-2.928c0-.516.216-.749.749-.749h1.031zm-.732.765c-.133 0-.183.05-.183.183v.965h.932c.4 0 .532-.2.532-.566 0-.383-.133-.582-.532-.582z" data-name="Path 1919" transform="translate(-252.863 -266.205)"/>
            </g>
            <g id="prefix__Group_111" class="prefix__cls-27" data-name="Group 111">
                <path id="prefix__Path_1920" d="M335.912 322.212l.815 1.214c.166.233.116.3-.166.3h-.233a.573.573 0 0 1-.566-.3l-.749-1.148h-.566v1.1c0 .283-.067.366-.366.366h-.116c-.283 0-.366-.067-.366-.366v-2.928c0-.516.216-.749.749-.749h1.015c.981 0 1.364.516 1.364 1.281a1.087 1.087 0 0 1-.815 1.231m-1.281-1.747c-.133 0-.183.05-.183.183v.832h.932c.4 0 .532-.2.532-.516 0-.333-.133-.516-.532-.516h-.749z" data-name="Path 1920" transform="translate(-278.039 -266.288)"/>
            </g>
            <g id="prefix__Group_112" class="prefix__cls-27" data-name="Group 112">
                <path id="prefix__Path_1921" d="M364 321.912v-.865c0-.948.349-1.647 1.713-1.647s1.713.7 1.713 1.647v.865c0 .948-.349 1.647-1.713 1.647s-1.713-.7-1.713-1.647m2.578-.865c0-.566-.133-.865-.865-.865-.749 0-.865.3-.865.865v.865c0 .566.133.865.865.865.749 0 .865-.3.865-.865z" data-name="Path 1921" transform="translate(-303.381 -266.038)"/>
            </g>
            <g id="prefix__Group_113" class="prefix__cls-27" data-name="Group 113">
                <path id="prefix__Path_1922" d="M394.506 322.628a2.593 2.593 0 0 1-.8 2.113c-.2.183-.333.166-.482-.067l-.033-.05c-.166-.233-.116-.316.067-.532a1.96 1.96 0 0 0 .433-1.4v-2.628c0-.283.066-.366.366-.366h.116c.283 0 .366.067.366.366v2.562z" data-name="Path 1922" transform="translate(-327.633 -266.288)"/>
            </g>
            <g id="prefix__Group_114" class="prefix__cls-27" data-name="Group 114">
                <path id="prefix__Path_1923" d="M415.332 322.678c0 .133.05.183.183.183h1.5c.283 0 .366.066.366.366v.05c0 .283-.067.366-.366.366h-1.763c-.516 0-.749-.216-.749-.749v-2.545c0-.516.216-.749.749-.749h1.78c.283 0 .366.066.366.366v.05c0 .283-.067.366-.366.366h-1.5c-.133 0-.183.05-.183.183v.616h1.451c.283 0 .366.066.366.366v.05c0 .283-.066.366-.366.366h-1.447v.715z" data-name="Path 1923" transform="translate(-345.48 -266.205)"/>
            </g>
            <g id="prefix__Group_115" class="prefix__cls-27" data-name="Group 115">
                <path id="prefix__Path_1924" d="M443.748 322c0 .433.166.782.932.782a2.111 2.111 0 0 0 .665-.1c.283-.067.349 0 .349.283v.05c0 .283-.067.349-.333.449a1.892 1.892 0 0 1-.715.1c-1.131 0-1.747-.433-1.747-1.547v-1c0-.982.566-1.614 1.763-1.614a2.067 2.067 0 0 1 .7.1c.266.1.349.166.349.449V320c0 .283-.083.366-.366.283a2.107 2.107 0 0 0-.682-.1c-.649 0-.9.266-.9.848V322z" data-name="Path 1924" transform="translate(-369.156 -266.038)"/>
            </g>
            <g id="prefix__Group_116" class="prefix__cls-27" data-name="Group 116">
                <path id="prefix__Path_1925" d="M468.917 319.966c0-.283.067-.366.366-.366h2.5c.283 0 .366.067.366.366v.05c0 .283-.067.366-.366.366h-.832v2.895c0 .283-.067.366-.366.366h-.116c-.283 0-.366-.067-.366-.366v-2.895h-.832c-.283 0-.366-.067-.366-.366v-.05z" data-name="Path 1925" transform="translate(-390.831 -266.205)"/>
            </g>
            <g id="prefix__Group_117" class="prefix__cls-27" data-name="Group 117">
                <path id="prefix__Path_1926" d="M198.34 351.329a.292.292 0 0 0 .233.033.3.3 0 0 0 .2-.15 2.436 2.436 0 0 1 .15-.216c.017-.017.033-.033.033-.05.033-.05.067-.1.133-.1q.075 0 .15.15a.944.944 0 0 0 .832.482.966.966 0 0 0 .965-.965v-.05c0-.067 0-.15.067-.183a.182.182 0 0 1 .183.017c.067.033.15.067.216.1a.326.326 0 0 0 .25.017.3.3 0 0 0 .183-.166.323.323 0 0 0-.133-.433 2.7 2.7 0 0 0-2-.266 2.791 2.791 0 0 0-1.564 1.331.318.318 0 0 0 .1.449m1.747-1.248a.433.433 0 0 1 .433.449.444.444 0 0 1-.433.449.433.433 0 0 1-.433-.449.424.424 0 0 1 .433-.449" data-name="Path 1926" transform="translate(-165.153 -291.097)"/>
            </g>
            <g id="prefix__Group_118" class="prefix__cls-27" data-name="Group 118">
                <path id="prefix__Path_1927" d="M233.118 327.746a2.068 2.068 0 0 0-.6-1.447 2 2 0 0 0-1.431-.6 1.82 1.82 0 0 0-.882.216.329.329 0 0 0-.15.433.3.3 0 0 0 .183.166.326.326 0 0 0 .25-.017 1.3 1.3 0 0 1 .616-.15 1.443 1.443 0 0 1 .982.4 1.37 1.37 0 0 1 .4.982.316.316 0 0 0 .316.316.3.3 0 0 0 .316-.3" data-name="Path 1927" transform="translate(-191.697 -271.29)"/>
            </g>
            <g id="prefix__Group_119" class="prefix__cls-27" data-name="Group 119">
                <path id="prefix__Path_1928" d="M226.243 357.2a.317.317 0 0 0-.033.449.268.268 0 0 0 .216.1.311.311 0 0 0 .233-.083 1.33 1.33 0 0 0 .216-.216 3.848 3.848 0 0 0 1.015-2.179.333.333 0 0 0-.283-.366h-.033a.32.32 0 0 0-.2.066.284.284 0 0 0-.116.216 3.124 3.124 0 0 1-.848 1.813.489.489 0 0 1-.166.2" data-name="Path 1928" transform="translate(-188.449 -295.633)"/>
            </g>
            <g id="prefix__Group_120" class="prefix__cls-27" data-name="Group 120">
                <path id="prefix__Path_1929" d="M236.079 362.06a.268.268 0 0 0 .116-.067c.1-.083.2-.183.3-.283a4.466 4.466 0 0 0 1.214-2.961.38.38 0 0 0-.05-.183.389.389 0 0 0-.266-.166.316.316 0 0 0-.216.083.3.3 0 0 0-.1.233 3.827 3.827 0 0 1-1.031 2.545 3.085 3.085 0 0 1-.233.233.357.357 0 0 0-.083.416.277.277 0 0 0 .349.15" data-name="Path 1929" transform="translate(-196.422 -298.55)"/>
            </g>
            <g id="prefix__Group_121" class="prefix__cls-27" data-name="Group 121">
                <path id="prefix__Path_1930" d="M153.581 329.461a.326.326 0 0 0 .333-.283c.266-2.4-.1-4.259-1.081-5.54-.266-.316-.233-.433.017-.7l.466-.532a.316.316 0 0 0-.017-.449l-2.03-2c-.25-.2-.166-.383-.067-.582l.017-.033a3.5 3.5 0 0 0 .366-1.88 3.9 3.9 0 0 0-4.009-3.477 3.827 3.827 0 0 0-2.229.848.7.7 0 0 1-.848.166 2.37 2.37 0 0 1-.266-.083 9.622 9.622 0 0 0-2.978-.333 10.516 10.516 0 0 0-3.826 1.065 4.46 4.46 0 0 1-1.214.349 1.507 1.507 0 0 1-.682-.05c-.183-.067-.366-.15-.566-.233a1.912 1.912 0 0 0-1.7-.25 1.443 1.443 0 0 0-.749 1.231 5.224 5.224 0 0 0 .8 3.111c.183.3.383.6.616.915.116.233.133.349-.1.582l-1.63 1.664a.308.308 0 0 0-.05.416l.033.033c.532.815.848 1.314 1.031 1.6.133.166.183.266.017.549-.083.133-.166.266-.25.416-.133.25-.266.3-.566.266a4.63 4.63 0 0 0-.832 0h-.067a8.354 8.354 0 0 0-1.447.083.323.323 0 0 0-.283.366.348.348 0 0 0 .116.216.3.3 0 0 0 .233.067 13.077 13.077 0 0 1 1.381-.083c.216 0 .433 0 .649.017a.246.246 0 0 1 .116.017.325.325 0 0 1 .233.066c.05.05.05.133.033.316a2.5 2.5 0 0 0-.033.333v.166a.407.407 0 0 1-.1.3.385.385 0 0 1-.283.083c-.15 0-.3.017-.433.017-.4.033-.8.067-1.2.133a.309.309 0 0 0-.266.366.3.3 0 0 0 .133.216.382.382 0 0 0 .233.067c.383-.05.765-.1 1.131-.116.183-.017.366-.017.549-.017h.116c.2 0 .266.017.433.316a1.562 1.562 0 0 0 .2.3 2.667 2.667 0 0 0 .965.782 4.326 4.326 0 0 1 .815.532c.932.832.749 2.1.6 3.111a4.025 4.025 0 0 0 .333 2.978 2.728 2.728 0 0 0 .7.682c.349.233.333.333.25.582-.017.033-.017.05-.033.083a5.372 5.372 0 0 1-.965 1.73 5.459 5.459 0 0 1-2.129 1.6.317.317 0 0 0-.166.416.361.361 0 0 0 .166.183.324.324 0 0 0 .25 0 6.108 6.108 0 0 0 2.379-1.78 6.467 6.467 0 0 0 1.065-1.9.81.81 0 0 1 .05-.116c.067-.2.133-.316.566-.233a9.475 9.475 0 0 0 1.131.183 19.519 19.519 0 0 0 2.579.1 10.163 10.163 0 0 0 2.1-.233 3.139 3.139 0 0 0 2.5-2.1 9.876 9.876 0 0 0 .4-3.51c0-.216.033-.316.1-.383a.386.386 0 0 1 .316-.017l1.7.566h.033a.539.539 0 0 0 .715-.383l.682-2.4c.116-.366.15-.383.482-.416h.05l.915-.033c.216 0 .333 0 .416.067.067.067.083.183.083.383a6.939 6.939 0 0 1-1.281 4.608 7.515 7.515 0 0 1-2.678 2.379.327.327 0 0 0-.133.433.3.3 0 0 0 .183.166.326.326 0 0 0 .25-.017 8.191 8.191 0 0 0 2.911-2.579c.133-.2.266-.416.4-.632.067-.133.15-.183.233-.166.05.017.133.067.133.316a6.959 6.959 0 0 1-1.281 4.625 7.517 7.517 0 0 1-2.678 2.379.327.327 0 0 0-.133.433.3.3 0 0 0 .183.166.327.327 0 0 0 .25-.017 8.191 8.191 0 0 0 2.911-2.579 5.025 5.025 0 0 0 .349-.549c.1-.15.183-.233.25-.233h.033c.083.017.116.133.116.383v2.878a.316.316 0 0 0 .316.316.343.343 0 0 0 .333-.316v-11.967c.017-.366.033-.466.433-.5zm-19.6-9.782c-.2-.316-.166-.366.05-.566l.033-.033a2.073 2.073 0 0 1 .965-.5 1.841 1.841 0 0 1 1.813.682 1.659 1.659 0 0 1 .216 1.481c-.066.166-.116.25-.2.266h-.017c-.066 0-.133-.067-.233-.166l-.017-.017a1.8 1.8 0 0 0-.665-.516 1.815 1.815 0 0 0-1.3-.116.363.363 0 0 1-.449-.2c-.067-.116-.133-.216-.2-.316m1.63 1.381a.383.383 0 1 1-.383-.383.376.376 0 0 1 .383.383m-.349 8.9a2.161 2.161 0 0 1-.848-.183 2.078 2.078 0 0 1-1.231-2.1 3.5 3.5 0 0 1 .7-1.863.666.666 0 0 0 .083-.832c-.25-.383-.632-.965-.915-1.4-.116-.2-.216-.366.017-.532l1.281-1.3c.133-.133.2-.1.316 0a.9.9 0 0 0 .6.233.868.868 0 0 0 .782-.482l.017-.017c.033-.05.067-.116.133-.116a.108.108 0 0 1 .1.083c.017.033.05.083.067.116a.28.28 0 0 1-.05.366l-.083.1-.15.2a5.67 5.67 0 0 0-1.364 2.795c-.1.832.433 1.53 1.614 2.1a4.174 4.174 0 0 0 .865.233.289.289 0 0 1 .266.366 2.465 2.465 0 0 1-.5 1.464 2.417 2.417 0 0 1-1.7.765m14.756-1.065a.32.32 0 0 0-.3.233l-.017.05-.649 2.279a.424.424 0 0 0-.033.116c-.116.349-.166.449-.6.316l-1.464-.482c-.25-.05-.383-.2-.449-.516l-.067-.516a.348.348 0 0 0-.116-.216.3.3 0 0 0-.233-.067.335.335 0 0 0-.283.366l.033.25a17.071 17.071 0 0 1 .133 2.645 7.966 7.966 0 0 1-.349 2.445 2.543 2.543 0 0 1-2.03 1.68 10.214 10.214 0 0 1-1.963.216h-.416a18.014 18.014 0 0 1-2.079-.116c-1.481-.15-2.362-.516-2.795-1.131a3.706 3.706 0 0 1-.233-2.512 5.255 5.255 0 0 0-.116-2.745c-.183-.482-.133-.6.25-.765a6.179 6.179 0 0 1 1.015-.266 4.885 4.885 0 0 1 2.379.449 3.764 3.764 0 0 0 2.246.166 3.508 3.508 0 0 0 2.6-2.179c.067-.2.216-.2.383-.216a12.532 12.532 0 0 1 2.362.15.3.3 0 0 0 .233-.066.37.37 0 0 0 .133-.216.312.312 0 0 0-.266-.366 13.586 13.586 0 0 0-2.329-.15.3.3 0 0 1-.233-.067.237.237 0 0 1-.033-.216 3.6 3.6 0 0 0-.017-.6c-.017-.266.067-.3.216-.333h.033a13.257 13.257 0 0 1 3.144-.017.3.3 0 0 0 .233-.067.284.284 0 0 0 .116-.216.333.333 0 0 0-.283-.366 13.8 13.8 0 0 0-5.823.566.313.313 0 0 0-.033.582.326.326 0 0 0 .25.017c.383-.116.782-.233 1.181-.316.116-.017.216-.033.283.033a.271.271 0 0 1 .083.183 3.4 3.4 0 0 1 0 .582c-.033.233-.116.283-.316.316-.532.067-1.065.15-1.58.266a.335.335 0 0 0-.25.383.3.3 0 0 0 .15.2.234.234 0 0 0 .233.033c.383-.083.782-.166 1.165-.216.1-.017.183 0 .216.05.05.067.017.2-.1.366a3 3 0 0 1-1.015.915 3.393 3.393 0 0 1-3.676-.383 2.244 2.244 0 0 1-.749-1.331 1.5 1.5 0 0 1-.033-.482v-.008c.017-.233.033-.3.266-.349a4.4 4.4 0 0 0 1.481-.632 2.588 2.588 0 0 0 .715-.765c.067-.1.25-.432.166-.649a.321.321 0 0 0-.2-.15.413.413 0 0 0-.15-.017h-4.625a.4.4 0 0 1-.316-.116.477.477 0 0 1 0-.449 5.662 5.662 0 0 1 .882-1.63c.15-.183.3-.366.433-.549.2-.25.416-.5.616-.8a2.378 2.378 0 0 0 0-2.712 2.509 2.509 0 0 0-2.445-.932 2.68 2.68 0 0 0-1.031.433c-.2.166-.316.216-.416.183s-.133-.15-.183-.316h-.033a4.726 4.726 0 0 1-.133-1.414.833.833 0 0 1 .4-.732c.283-.15.848.1 1.331.333a2.84 2.84 0 0 0 .449.183 1.975 1.975 0 0 0 .948.083 4.884 4.884 0 0 0 .932-.216c.266-.1.549-.216.8-.316.183-.083.383-.166.566-.233a8.917 8.917 0 0 1 2.728-.632 9.724 9.724 0 0 1 3.444.5l.05.017c.25.083.383.116.7-.166a3.2 3.2 0 0 1 5.456 1.93 2.967 2.967 0 0 1-.616 2.03.33.33 0 0 0 .033.433l1.946 1.913c.166.166.3.3.033.632l-.5.582a.317.317 0 0 0 .033.449c1.1 1.015 1.58 2.628 1.464 4.774-.017.5-.183.516-.5.516z" data-name="Path 1930" transform="translate(-108.134 -261.526)"/>
            </g>
            <g id="prefix__Group_122" class="prefix__cls-27" data-name="Group 122">
                <path id="prefix__Path_1931" d="M198.785 335.032a.322.322 0 0 0-.116-.432 3.929 3.929 0 0 0-1.73-.5h-.133a3.818 3.818 0 0 0-1.614.366 4.618 4.618 0 0 0-.848.549.317.317 0 0 0-.033.449.348.348 0 0 0 .216.116.311.311 0 0 0 .233-.083 3.93 3.93 0 0 1 .7-.466 3.169 3.169 0 0 1 1.464-.3 3.1 3.1 0 0 1 1.431.416.323.323 0 0 0 .25.033.335.335 0 0 0 .183-.15" data-name="Path 1931" transform="translate(-161.855 -278.293)"/>
            </g>
            <text id="prefix__Discount_Broking_Platform" data-name="Discount Broking Platform" transform="translate(2.152 85.048)" style="font-size:9px;font-family:Poppins-SemiBold,Poppins SemiBold;font-weight:600;fill:#1d1d1b">
                <tspan x="25.832" y="9">Discount Broking</tspan><tspan x="44.687" y="20">Platform</tspan>
            </text>
        </g>
    </g>
</svg>
