<svg xmlns="http://www.w3.org/2000/svg" width="119.611" height="118.317" viewBox="0 0 119.611 118.317">
    <defs>
        <style>
            .prefix__cls-2{fill:#878787}.prefix__cls-3{fill:#dfc822}.prefix__cls-4{fill:#fff}.prefix__cls-5{fill:#ebd619}.prefix__cls-8{fill:#1d1d1b}.prefix__cls-9{fill:#eff0f2}.prefix__cls-10{fill:none}.prefix__cls-13{fill:#f5bc8e}.prefix__cls-14{fill:#f4bc8f}.prefix__cls-15{fill:#f7b58e}
        </style>
    </defs>
    <g id="prefix___1" data-name="1" transform="translate(-824 -1878.978)">
        <ellipse id="prefix__Ellipse_192" cx="59.805" cy="12.353" data-name="Ellipse 192" rx="59.805" ry="12.353" transform="translate(824 1972.59)" style="opacity:.5;fill:#c6c6c6"/>
        <g id="prefix__Illustrations" transform="translate(834.255 1878.978)">
            <g id="prefix__Group_533" data-name="Group 533">
                <path id="prefix__Path_2760" d="M244.162 247.566l1.047 83.006h66.881l-3.551-83.145z" class="prefix__cls-2" data-name="Path 2760" transform="translate(-213.873 -247.427)"/>
                <path id="prefix__Path_2761" d="M329.8 413.1l-.053 1.753h23.3l.415-1.549z" class="prefix__cls-3" data-name="Path 2761" transform="translate(-266.816 -349.912)"/>
                <g id="prefix__Group_517" data-name="Group 517" transform="translate(64.34 33.616)">
                    <g id="prefix__Group_515" data-name="Group 515">
                        <path id="prefix__Path_2762" d="M360.033 337.583H334.21a.751.751 0 0 1-.74-1.011 1.419 1.419 0 0 1 1.282-1.01h25.823a.751.751 0 0 1 .74 1.01 1.419 1.419 0 0 1-1.282 1.011z" class="prefix__cls-4" data-name="Path 2762" transform="translate(-333.435 -335.562)"/>
                        <path id="prefix__Path_2763" d="M349.587 335.561h-14.835a1.419 1.419 0 0 0-1.281 1.011.751.751 0 0 0 .74 1.011h13.467z" class="prefix__cls-3" data-name="Path 2763" transform="translate(-333.435 -335.561)"/>
                    </g>
                    <g id="prefix__Group_516" data-name="Group 516" transform="translate(.636 3.857)">
                        <path id="prefix__Path_2764" d="M361.7 347.693h-25.823a.751.751 0 0 1-.74-1.01 1.419 1.419 0 0 1 1.282-1.011h25.823a.751.751 0 0 1 .74 1.011 1.419 1.419 0 0 1-1.282 1.01z" class="prefix__cls-4" data-name="Path 2764" transform="translate(-335.102 -345.672)"/>
                        <path id="prefix__Path_2765" d="M355.065 345.672h-18.646a1.419 1.419 0 0 0-1.282 1.011.751.751 0 0 0 .74 1.01h17.376z" class="prefix__cls-3" data-name="Path 2765" transform="translate(-335.102 -345.672)"/>
                    </g>
                </g>
                <path id="prefix__Path_2766" d="M332.607 423.7v1.572h28.079l-.248-1.572z" class="prefix__cls-5" data-name="Path 2766" transform="translate(-268.58 -356.464)"/>
                <path id="prefix__Path_2767" d="M329.4 363.651l-.392 13.3h26.308l-.556-13.3z" data-name="Path 2767" transform="translate(-266.358 -319.321)" style="fill:#1d1d1b;opacity:.5"/>
                <path id="prefix__Path_2768" d="M262.911 289.116l-1-20.831h42.1l-.158 17.857z" class="prefix__cls-3" data-name="Path 2768" transform="translate(-224.852 -260.329)"/>
                <path id="prefix__Path_2769" d="M164.749 280.384l1.051 83.006h68.55l-3.968-83.145z" data-name="Path 2769" transform="translate(-164.749 -267.728)" style="fill:#c6c6c6"/>
                <path id="prefix__Path_2770" d="M164.749 280.384l.064 5.041h65.812l-.247-5.18z" class="prefix__cls-8" data-name="Path 2770" transform="translate(-164.749 -267.728)"/>
                <path id="prefix__Path_2771" d="M311.161 282.391l.308 3.521 7.8-.294.03-3.228z" class="prefix__cls-9" data-name="Path 2771" transform="translate(-255.317 -269.055)"/>
                <path id="prefix__Path_2772" d="M298.063 285.676a1.635 1.635 0 0 1-1.482 1.169.866.866 0 0 1-.856-1.169 1.634 1.634 0 0 1 1.482-1.169.867.867 0 0 1 .856 1.169z" class="prefix__cls-9" data-name="Path 2772" transform="translate(-245.743 -270.364)"/>
                <path id="prefix__Path_2773" d="M286.028 285.676a1.635 1.635 0 0 1-1.482 1.169.867.867 0 0 1-.856-1.169 1.635 1.635 0 0 1 1.482-1.169.867.867 0 0 1 .856 1.169z" class="prefix__cls-5" data-name="Path 2773" transform="translate(-238.299 -270.364)"/>
                <path id="prefix__Path_2774" d="M170.2 283.485l-.731 2.727h20.654l.626-2.337z" class="prefix__cls-9" data-name="Path 2774" transform="translate(-167.672 -269.731)"/>
                <path id="prefix__Line_1" d="M0 0L0 0" class="prefix__cls-10" data-name="Line 1" transform="translate(4.035 13.782)"/>
                <path id="prefix__Line_2" d="M0 0L0.417 0" class="prefix__cls-10" data-name="Line 2" transform="translate(3.311 16.481)"/>
                <g id="prefix__Group_518" data-name="Group 518" transform="translate(2.904 14.103)">
                    <path id="prefix__Path_2775" d="M172.895 286.361h-.532l.525-1.961h.532z" data-name="Path 2775" transform="translate(-172.362 -284.401)" style="fill:#053c5e"/>
                </g>
                <path id="prefix__Path_2776" d="M244.065 247.566l.04 5.041h64.714l-.22-5.18z" class="prefix__cls-8" data-name="Path 2776" transform="translate(-213.813 -247.427)"/>
                <path id="prefix__Path_2777" d="M388.025 249.572l.287 3.521 7.669-.294.044-3.228z" class="prefix__cls-9" data-name="Path 2777" transform="translate(-302.863 -248.754)"/>
                <path id="prefix__Path_2778" d="M375.12 252.857a1.622 1.622 0 0 1-1.462 1.169.86.86 0 0 1-.836-1.169 1.623 1.623 0 0 1 1.462-1.169.86.86 0 0 1 .836 1.169z" class="prefix__cls-9" data-name="Path 2778" transform="translate(-293.433 -250.063)"/>
                <path id="prefix__Path_3346" d="M1.326 0a1.2 1.2 0 0 1 1.327 1.013 1.2 1.2 0 0 1-1.327 1.012A1.2 1.2 0 0 1 0 1.013 1.2 1.2 0 0 1 1.326 0z" class="prefix__cls-3" data-name="Path 3346" transform="rotate(-42.936 40.94 -93.069)"/>
                <path id="prefix__Path_2779" d="M249.4 250.666l-.731 2.727h20.309l.626-2.337z" class="prefix__cls-9" data-name="Path 2779" transform="translate(-216.658 -249.43)"/>
                <g id="prefix__Group_519" data-name="Group 519" transform="translate(33.093 1.585)">
                    <path id="prefix__Path_2780" d="M252.034 253.543h-.523l.525-1.961h.523z" data-name="Path 2780" transform="translate(-251.511 -251.582)" style="fill:#01888b"/>
                </g>
                <path id="prefix__Path_2781" d="M185.544 300.921l-.2 22.532h37.061l-.449-22.532z" class="prefix__cls-2" data-name="Path 2781" transform="translate(-177.491 -280.517)"/>
                <path id="prefix__Path_2782" d="M184.7 368.214l-.053 1.753h23.3l.415-1.549z" class="prefix__cls-4" data-name="Path 2782" transform="translate(-177.059 -322.143)"/>
                <path id="prefix__Path_2783" d="M186.383 473.527l-.053 1.753h23.3l.415-1.549z" class="prefix__cls-4" data-name="Path 2783" transform="translate(-178.099 -387.288)"/>
                <path id="prefix__Path_2784" d="M185.09 379.332l.07 1.337h35.476l.316-1.181z" class="prefix__cls-4" data-name="Path 2784" transform="translate(-177.332 -329.021)"/>
                <path id="prefix__Path_2785" d="M185.71 389.239v1.572h28.079l-.247-1.572z" class="prefix__cls-4" data-name="Path 2785" transform="translate(-177.713 -335.149)"/>
                <path id="prefix__Path_2786" d="M185.8 303.763l36.492-.314-.05-2.528h-36.421z" class="prefix__cls-4" data-name="Path 2786" transform="translate(-177.769 -280.517)"/>
                <path id="prefix__Path_2787" d="M262.406 399.924l.768 8.971h25.474l-.881-8.971z" class="prefix__cls-4" data-name="Path 2787" transform="translate(-225.158 -341.759)"/>
                <path id="prefix__Path_2788" d="M265.207 431.648h25.587l-.13 1.46h-25.431z" class="prefix__cls-4" data-name="Path 2788" transform="translate(-226.89 -361.383)"/>
                <path id="prefix__Path_2789" d="M266.437 439.307h25.587l-.13 1.46h-25.431z" class="prefix__cls-4" data-name="Path 2789" transform="translate(-227.651 -366.12)"/>
                <path id="prefix__Path_2790" d="M268.761 446.965h25.587l-.13 1.46h-25.431z" class="prefix__cls-4" data-name="Path 2790" transform="translate(-229.089 -370.857)"/>
                <g id="prefix__Group_520" data-name="Group 520" transform="translate(23.581 28.787)">
                    <path id="prefix__Path_2791" d="M227.721 323.9c-1.18.822-1.306 4.365-1.013 4.806s3.827.722 5.184-.42 1.879-4.286 1.351-5.041-4.343-.164-5.522.655z" class="prefix__cls-3" data-name="Path 2791" transform="translate(-226.574 -322.9)"/>
                    <path id="prefix__Path_2792" d="M234.224 329.117l-.164 1.464 1.343-1.005z" class="prefix__cls-4" data-name="Path 2792" transform="translate(-231.205 -326.746)"/>
                </g>
                <g id="prefix__Group_521" data-name="Group 521" transform="translate(75.189 47.883)">
                    <path id="prefix__Path_2793" d="M363.025 373.968c-1.18.822-1.306 4.365-1.013 4.806s3.827.722 5.184-.42 1.879-4.286 1.351-5.041-4.347-.168-5.522.655z" class="prefix__cls-3" data-name="Path 2793" transform="translate(-361.878 -372.964)"/>
                    <path id="prefix__Path_2794" d="M369.527 379.182l-.164 1.464 1.343-1.005z" class="prefix__cls-4" data-name="Path 2794" transform="translate(-366.508 -376.811)"/>
                </g>
                <path id="prefix__Path_2795" d="M186.147 401.922l.094 19.892h25.676l-.972-19.892z" class="prefix__cls-2" data-name="Path 2795" transform="translate(-177.986 -342.995)"/>
                <g id="prefix__Group_530" data-name="Group 530" transform="translate(12.668 62.472)">
                    <g id="prefix__Group_522" data-name="Group 522" transform="translate(15.475 11.239)">
                        <path id="prefix__Path_2796" d="M239.625 441.876h-1.078l-.014-.479h.647l-.021-.716h.43z" class="prefix__cls-4" data-name="Path 2796" transform="translate(-238.533 -440.682)"/>
                    </g>
                    <g id="prefix__Group_523" data-name="Group 523" transform="translate(2.89 11.943)">
                        <path id="prefix__Path_2797" d="M216.6 443.017h-1.55l-.012-.482h1.549zm-3.11 0h-1.569l-.011-.484h1.568zm-3.148 0h-1.588l-.009-.488h1.587zm-3.186 0h-1.608l-.007-.491h1.607z" class="prefix__cls-4" data-name="Path 2797" transform="translate(-205.537 -442.526)"/>
                    </g>
                    <g id="prefix__Group_524" data-name="Group 524" transform="translate(.122 11.202)">
                        <path id="prefix__Path_2798" d="M199.438 441.815h-1.144l-.013-1.231h.457l.008.738h.685z" class="prefix__cls-4" data-name="Path 2798" transform="translate(-198.281 -440.584)"/>
                    </g>
                    <g id="prefix__Group_525" data-name="Group 525" transform="translate(.035 3.181)">
                        <path id="prefix__Path_2799" d="M198.574 425.559h-.457l-.022-2.01h.455zm-.046-4.008l-.454-.006-.022-1.991.453.008z" class="prefix__cls-4" data-name="Path 2799" transform="translate(-198.052 -419.554)"/>
                    </g>
                    <g id="prefix__Group_526" data-name="Group 526">
                        <path id="prefix__Path_2800" d="M198.426 412.423l-.452-.01-.013-1.2 1.127.026.006.478-.676-.015z" class="prefix__cls-4" data-name="Path 2800" transform="translate(-197.961 -411.215)"/>
                    </g>
                    <g id="prefix__Group_527" data-name="Group 527" transform="translate(2.722 .064)">
                        <path id="prefix__Path_2801" d="M216.008 412.1l-1.53-.034-.012-.468 1.529.036zm-3.069-.069l-1.548-.031-.01-.471 1.547.036zm-3.106-.07l-1.567-.035-.008-.474 1.566.037zm-3.143-.071l-1.586-.036-.007-.477 1.585.037z" class="prefix__cls-4" data-name="Path 2801" transform="translate(-205.097 -411.382)"/>
                    </g>
                    <g id="prefix__Group_528" data-name="Group 528" transform="translate(15.141 .355)">
                        <path id="prefix__Path_2802" d="M238.755 413.334l-.426-.009-.021-.7-.639-.014-.013-.466 1.064.025z" class="prefix__cls-4" data-name="Path 2802" transform="translate(-237.656 -412.147)"/>
                    </g>
                    <g id="prefix__Group_529" data-name="Group 529" transform="translate(15.871 3.457)">
                        <path id="prefix__Path_2803" d="M240.173 426.1h-.429l-.058-1.95h.428zm-.117-3.888l-.427-.006-.057-1.932.426.008z" class="prefix__cls-4" data-name="Path 2803" transform="translate(-239.571 -420.279)"/>
                    </g>
                </g>
                <path id="prefix__Path_2804" d="M185.795 462.826l.2 2.5h26.23l-.05-2.5z" class="prefix__cls-4" data-name="Path 2804" transform="translate(-177.768 -380.668)"/>
                <g id="prefix__Group_532" data-name="Group 532" transform="translate(72.723 18.029)">
                    <path id="prefix__Path_2805" d="M355.7 294.695l-.282 12.568 13.071-.006-.51-12.562z" class="prefix__cls-8" data-name="Path 2805" transform="translate(-355.413 -294.695)"/>
                    <g id="prefix__Group_531" data-name="Group 531" transform="translate(1.333 .893)">
                        <path id="prefix__Path_2806" d="M368.844 318.346c.005-.137.01-.274.006-.412-.1-3.139-2.412-5.562-5.111-5.5-2.643.063-4.783 2.5-4.831 5.514 0 .133 0 .265.011.4z" class="prefix__cls-4" data-name="Path 2806" transform="translate(-358.907 -306.561)"/>
                        <path id="prefix__Path_2807" d="M369.879 299.754a2.713 2.713 0 0 0-2.811-2.715 2.911 2.911 0 0 0-2.707 2.913 2.718 2.718 0 0 0 2.75 2.8 2.9 2.9 0 0 0 2.768-2.998z" class="prefix__cls-4" data-name="Path 2807" transform="translate(-362.281 -297.036)"/>
                    </g>
                </g>
                <path id="prefix__Path_2808" d="M362.364 442.459H355.2l-.167-7.162h7.167z" class="prefix__cls-5" data-name="Path 2808" transform="translate(-282.456 -363.639)"/>
                <path id="prefix__Path_2809" d="M391.616 442.459h-7.162l-.167-7.162h7.162z" class="prefix__cls-4" data-name="Path 2809" transform="translate(-300.551 -363.639)"/>
            </g>
            <g id="prefix__Group_545" data-name="Group 545" transform="translate(5.453 11.766)">
                <path id="prefix__Path_2810" d="M272.953 389.828l-3.369-2.117 10.513-4.688-4.352-9.91a14.358 14.358 0 0 0-12.174-7.656h-21.644a14.358 14.358 0 0 0-12.174 7.656l-4.352 9.91 10.513 4.688-3.369 2.117-1.867 16.1 22.071-.346 22.071.346z" class="prefix__cls-2" data-name="Path 2810" transform="translate(-207.72 -332.204)"/>
                <path id="prefix__Path_2811" d="M344.115 411.512l2.17 7.17a13.859 13.859 0 0 1-4.378 14.549l-9.848 7.692-3.166-8.609 5.447-5.08a5.537 5.537 0 0 0 1.351-6.352L333.6 416.2z" class="prefix__cls-13" data-name="Path 2811" transform="translate(-271.739 -360.693)"/>
                <g id="prefix__Group_537" data-name="Group 537" transform="translate(.12 91.173)">
                    <path id="prefix__Path_2812" d="M239.119 524.031l-8.771 1.191-1.688-1.855.857-3.361 8.429-1.216z" class="prefix__cls-14" data-name="Path 2812" transform="translate(-209.856 -518.225)"/>
                    <g id="prefix__Group_536" data-name="Group 536">
                        <path id="prefix__Path_2813" d="M207.259 518.969l-9.073-1.1a18.394 18.394 0 0 0-6.853-.375v8.173a21.77 21.77 0 0 0 4.887-.005l11.039-1.361-.125-.19a4.591 4.591 0 0 1 .125-5.142z" class="prefix__cls-8" data-name="Path 2813" transform="translate(-186.766 -517.309)"/>
                        <path id="prefix__Path_2814" d="M179.514 521.327c.609-2.327 2.554-3.3 4.659-3.635v8.247c-2.732-.307-5.504-1.383-4.659-4.612z" class="prefix__cls-2" data-name="Path 2814" transform="translate(-179.359 -517.546)"/>
                        <g id="prefix__Group_534" data-name="Group 534" transform="translate(15.134 2.262)">
                            <path id="prefix__Line_3" d="M0 0L0 3.544" class="prefix__cls-15" data-name="Line 3" transform="translate(.454)"/>
                            <path id="prefix__Rectangle_149" d="M0 0H0.907V3.544H0z" class="prefix__cls-4" data-name="Rectangle 149"/>
                        </g>
                        <g id="prefix__Group_535" data-name="Group 535" transform="translate(12.894 2.262)">
                            <path id="prefix__Line_4" d="M0 0L0 3.544" class="prefix__cls-15" data-name="Line 4" transform="translate(.454)"/>
                            <path id="prefix__Rectangle_150" d="M0 0H0.907V3.544H0z" class="prefix__cls-4" data-name="Rectangle 150"/>
                        </g>
                    </g>
                </g>
                <path id="prefix__Path_2815" d="M221.217 411.512l-2.17 7.17a13.858 13.858 0 0 0 4.378 14.549l9.848 7.692 3.166-8.609-5.447-5.08a5.537 5.537 0 0 1-1.35-6.352l2.089-4.683z" class="prefix__cls-14" data-name="Path 2815" transform="translate(-203.428 -360.693)"/>
                <g id="prefix__Group_541" data-name="Group 541" transform="translate(61.617 91.172)">
                    <path id="prefix__Path_2816" d="M340.592 524.689l8.918.533 1.688-1.855-.857-3.367-8.429-1.216z" class="prefix__cls-15" data-name="Path 2816" transform="translate(-340.592 -518.224)"/>
                    <g id="prefix__Group_540" data-name="Group 540" transform="translate(8.918)">
                        <path id="prefix__Path_2817" d="M379.495 517.43a18.865 18.865 0 0 0-6.449.442l-9.073 1.1a4.59 4.59 0 0 1 .125 5.147l-.125.19 11.038 1.361a22.221 22.221 0 0 0 4.483.052z" class="prefix__cls-8" data-name="Path 2817" transform="translate(-363.973 -517.307)"/>
                        <path id="prefix__Path_2818" d="M409.739 521.327c-.609-2.327-2.554-3.3-4.659-3.635v8.247c2.732-.307 5.503-1.383 4.659-4.612z" class="prefix__cls-2" data-name="Path 2818" transform="translate(-389.4 -517.545)"/>
                        <g id="prefix__Group_538" data-name="Group 538" transform="translate(4.451 2.263)">
                            <path id="prefix__Line_5" d="M0 0L0 3.544" class="prefix__cls-15" data-name="Line 5" transform="translate(.454)"/>
                            <path id="prefix__Rectangle_151" d="M0 0H0.907V3.544H0z" class="prefix__cls-4" data-name="Rectangle 151"/>
                        </g>
                        <g id="prefix__Group_539" data-name="Group 539" transform="translate(6.691 2.263)">
                            <path id="prefix__Line_6" d="M0 0L0 3.544" class="prefix__cls-15" data-name="Line 6" transform="translate(.454)"/>
                            <path id="prefix__Rectangle_152" d="M0 0H0.907V3.544H0z" class="prefix__cls-4" data-name="Rectangle 152"/>
                        </g>
                    </g>
                </g>
                <g id="prefix__Group_542" data-name="Group 542" transform="translate(24.542 59.89)">
                    <path id="prefix__Rectangle_153" d="M0 0H40.941V24.503H0z" data-name="Rectangle 153" style="fill:#353535"/>
                    <path id="prefix__Rectangle_154" d="M0 0H40.941V2.042H0z" data-name="Rectangle 154" transform="translate(0 23.482)" style="fill:#cab7cc"/>
                    <path id="prefix__Path_2819" d="M292.764 458.848a1.638 1.638 0 1 0 1.638-1.638 1.638 1.638 0 0 0-1.638 1.638z" class="prefix__cls-4" data-name="Path 2819" transform="translate(-273.931 -448.851)"/>
                </g>
                <path id="prefix__Path_2820" d="M308.085 473.481c7.269 12.947-65.94 20.893-65.94 20.893l-1.242-5.767s58.218-31.09 67.182-15.126z" class="prefix__cls-8" data-name="Path 2820" transform="translate(-217.31 -396.206)"/>
                <path id="prefix__Path_2821" d="M179.418 473.479c-6.175 13.5 66.548 21.6 66.548 21.6l.54-6.487s-59.788-31.078-67.088-15.113z" class="prefix__cls-2" data-name="Path 2821" transform="translate(-179.045 -396.203)"/>
                <g id="prefix__Group_544" data-name="Group 544" transform="translate(28.445)">
                    <path id="prefix__Path_2822" d="M291.442 352.21c-.674-2.041-1.9-8.094-1.9-8.094l-7.791 1.521v6.607s2.585 1.833 4.76 1.851c2.38.021 5.014-1.655 4.931-1.885z" class="prefix__cls-13" data-name="Path 2822" transform="translate(-271.024 -319.003)"/>
                    <g id="prefix__Group_543" data-name="Group 543" transform="translate(3.985 5.735)">
                        <path id="prefix__Path_2823" d="M280.506 301.964l-1.468-8.654-14.97 1.772.907 9.97s1.157 12.339 9.126 10.87c8.62-1.587 6.789-14.068 6.405-13.958z" class="prefix__cls-13" data-name="Path 2823" transform="translate(-264.068 -293.31)"/>
                    </g>
                    <path id="prefix__Path_2824" d="M277.54 291.48a5.932 5.932 0 0 1 .637-3.6c2.586-4.231-1.328-5.462-2.693-5.827-1.509-.4-1.99-2.753-4.016-3.5-3.095-1.145-4.838 1.626-6.516 1.839s-3.337-1.579-5.285.275-1.114 3.582-1.608 4.582-2.527-.676-4 2.454c-1.123 2.38.117 3.776 1.638 4.577a6.645 6.645 0 0 0 5.722.138 25.824 25.824 0 0 0 6-3.648c.582-.474 5.151-.789 5.531-.14 1.288 2.2 1.393 9.515 1.393 9.515l1.333-1.866a4.739 4.739 0 0 0 1.864-4.799z" class="prefix__cls-8" data-name="Path 2824" transform="translate(-253.621 -278.275)"/>
                    <path id="prefix__Path_2825" d="M303.141 316.449c-.4 1.044-.162 2.108.534 2.376s1.587-.361 1.989-1.405.162-2.108-.534-2.376-1.587.361-1.989 1.405z" class="prefix__cls-13" data-name="Path 2825" transform="translate(-284.133 -300.981)"/>
                    <ellipse id="prefix__Ellipse_146" cx=".468" cy=".45" data-name="Ellipse 146" rx=".468" ry=".45" transform="rotate(-12.187 83.959 -56.218)"/>
                    <ellipse id="prefix__Ellipse_147" cx=".468" cy=".45" data-name="Ellipse 147" rx=".468" ry=".45" transform="rotate(-12.187 86.33 -34.014)"/>
                    <path id="prefix__Path_2826" d="M285.305 332.693c.151.7-.92 1.542-2.406 1.863s-2.806.01-2.96-.7" data-name="Path 2826" transform="translate(-269.901 -311.937)" style="fill:#eb9d68"/>
                </g>
            </g>
        </g>
    </g>
</svg>
