<svg xmlns="http://www.w3.org/2000/svg" width="218.691" height="235.905" viewBox="0 0 218.691 235.905">
    <defs>
        <style>
            .prefix__cls-2{fill:#4e4d4d}.prefix__cls-3{fill:#fff}.prefix__cls-4{fill:#ebd619}.prefix__cls-5{fill:#999}.prefix__cls-6{fill:#010202}.prefix__cls-8{fill:#efefef}.prefix__cls-9{fill:#f7b58e}.prefix__cls-10{fill:#333}.prefix__cls-11{fill:#3f3f3f}.prefix__cls-13{fill:#eb9d68}.prefix__cls-14{fill:#3a3a3a}
        </style>
    </defs>
    <g id="prefix__Group_712" data-name="Group 712" transform="translate(-161.101 -838.573)" style="opacity:.03">
        <g id="prefix__Group_691" data-name="Group 691" transform="translate(161.101 838.573)">
            <path id="prefix__Rectangle_163" d="M0 0H192.731V228.088H0z" class="prefix__cls-2" data-name="Rectangle 163"/>
            <g id="prefix__Group_689" data-name="Group 689" transform="translate(125.526 39.953)">
                <path id="prefix__Path_3219" d="M305.252 904.105l-2.76 44.865 46.665-.021-.069-44.844z" class="prefix__cls-3" data-name="Path 3219" transform="translate(-302.492 -904.105)"/>
                <g id="prefix__Group_688" data-name="Group 688" transform="translate(4.779 3.188)">
                    <path id="prefix__Path_3220" d="M343.06 951.137c.037-.487.074-.975.077-1.472.079-11.206-7.834-19.854-17.481-19.627-9.442.224-17.42 8.909-18.015 19.685a21.58 21.58 0 00-.016 1.414z" class="prefix__cls-2" data-name="Path 3220" transform="translate(-307.621 -909.068)"/>
                    <path id="prefix__Path_3221" d="M336.605 917.229a9.247 9.247 0 00-9.654-9.691 10.906 10.906 0 00-10.07 10.4 9.266 9.266 0 009.427 9.993 10.87 10.87 0 0010.297-10.702z" class="prefix__cls-2" data-name="Path 3221" transform="translate(-308.254 -907.527)"/>
                </g>
            </g>
            <path id="prefix__Rectangle_164" d="M0 0H70.786V2.898H0z" class="prefix__cls-3" data-name="Rectangle 164" transform="translate(16.491 74.506)"/>
            <path id="prefix__Rectangle_165" d="M0 0H70.786V2.898H0z" class="prefix__cls-3" data-name="Rectangle 165" transform="translate(16.491 83.191)"/>
            <path id="prefix__Rectangle_166" d="M0 0H82.392V2.898H0z" class="prefix__cls-3" data-name="Rectangle 166" transform="translate(15.799 94.047)"/>
            <path id="prefix__Rectangle_167" d="M0 0H62.625V2.898H0z" class="prefix__cls-3" data-name="Rectangle 167" transform="translate(15.799 102.732)"/>
            <path id="prefix__Rectangle_168" d="M0 0H60.173V49.626H0z" class="prefix__cls-4" data-name="Rectangle 168" transform="translate(117.03 150.663)"/>
            <path id="prefix__Rectangle_169" d="M0 0H89.586V23.604H0z" class="prefix__cls-4" data-name="Rectangle 169" transform="translate(14.373 41.335)"/>
            <path id="prefix__Rectangle_170" d="M0 0H89.586V62.38H0z" class="prefix__cls-5" data-name="Rectangle 170" transform="translate(15.41 149.199)"/>
            <path id="prefix__Rectangle_171" d="M0 0H89.586V17.056H0z" class="prefix__cls-3" data-name="Rectangle 171" transform="translate(15.442 117.921)"/>
            <path id="prefix__Rectangle_172" d="M0 0H193.817V20.201H0z" class="prefix__cls-6" data-name="Rectangle 172"/>
            <path id="prefix__Rectangle_173" d="M0 0H64.661V10.945H0z" class="prefix__cls-3" data-name="Rectangle 173" transform="translate(8.406 5.585)"/>
            <path id="prefix__Path_3222" d="M354.036 871.553a5.8 5.8 0 105.8-5.8 5.8 5.8 0 00-5.8 5.8z" class="prefix__cls-4" data-name="Path 3222" transform="translate(-180.493 -861.528)"/>
            <g id="prefix__Group_690" data-name="Group 690" transform="translate(122.837 105.361)">
                <path id="prefix__Rectangle_174" d="M0 0H47.02V2.898H0z" class="prefix__cls-3" data-name="Rectangle 174" transform="translate(.46)"/>
                <path id="prefix__Rectangle_175" d="M0 0H47.02V2.898H0z" class="prefix__cls-3" data-name="Rectangle 175" transform="translate(.46 8.685)"/>
                <path id="prefix__Rectangle_176" d="M0 0H54.729V2.898H0z" class="prefix__cls-3" data-name="Rectangle 176" transform="translate(0 19.541)"/>
                <path id="prefix__Rectangle_177" d="M0 0H41.599V2.898H0z" class="prefix__cls-3" data-name="Rectangle 177" transform="translate(0 28.226)"/>
            </g>
        </g>
        <g id="prefix__Group_695" data-name="Group 695" transform="translate(231.661 926.087)">
            <path id="prefix__Path_3223" d="M260.123 1066.614c-2.778 19.869.263 40.454.263 40.275a9.167 9.167 0 012.214 0s3.069-24.152 3.79-32.214 0-8.6 0-8.6-3.49-19.331-6.267.539z" data-name="Path 3223" transform="translate(-244.547 -962.173)" style="fill:#e8a787"/>
            <path id="prefix__Path_3224" d="M258.716 1011.377l-6.794 4.331-2.867-5.972 8.779-10.061z" class="prefix__cls-8" data-name="Path 3224" transform="translate(-243.869 -958.206)"/>
            <g id="prefix__Group_693" data-name="Group 693" transform="translate(37.075)">
                <path id="prefix__Path_3225" d="M296.916 969.364L288.6 991.1l-5.312-3.953 11.869-20.009z" class="prefix__cls-9" data-name="Path 3225" transform="translate(-283.287 -955.979)"/>
                <g id="prefix__Group_692" data-name="Group 692" transform="translate(11.868)">
                    <path id="prefix__Path_3226" d="M298.271 961.165a3.433 3.433 0 00-1.225 2.119l-1.019 3.033.323.571 1.438 1.655a2.181 2.181 0 01.567-1.135l2.263-2.534s3.712-4.329.248-5.8c2.033-4.022.578-3.918.578-3.918l-1.82 3.446z" class="prefix__cls-9" data-name="Path 3226" transform="translate(-296.027 -955.16)"/>
                    <path id="prefix__Path_3227" d="M298.812 962.168s-.749-.706-.082-2.384-.343-1.56-.343-1.56-2.777 6.541-1.886 7.285 2.311-3.341 2.311-3.341z" class="prefix__cls-9" data-name="Path 3227" transform="translate(-296.047 -955.369)"/>
                </g>
            </g>
            <path id="prefix__Path_3228" d="M271.292 996.945l2.49.194 8.463-9.864 4.57 5.2a138.058 138.058 0 01-10.329 16.112c-.348 1.667-2.167 18.436-2.167 18.436h-14.673s2.337-12.3-1.791-19.152 13.437-10.926 13.437-10.926z" class="prefix__cls-8" data-name="Path 3228" transform="translate(-244.428 -957.357)"/>
            <path id="prefix__Path_3229" d="M267.076 1066.614c-2.778 19.869.263 40.454.263 40.275a9.167 9.167 0 012.214 0s3.069-24.152 3.79-32.214 0-8.6 0-8.6-3.489-19.331-6.267.539z" class="prefix__cls-9" data-name="Path 3229" transform="translate(-245.022 -962.173)"/>
            <g id="prefix__Group_694" data-name="Group 694" transform="translate(18.944 24.242)">
                <path id="prefix__Path_3230" d="M272.277 981.182l-8.453 2.96.834 6.31c.012.089.035.175.052.263.162.029.325.06.486.1.027.006.052.016.078.023s.051.008.076.015a5.788 5.788 0 013.952 3.956 9.961 9.961 0 003.658-.047 3.675 3.675 0 001.922-.828c1.784-3.894-2.605-12.752-2.605-12.752z" class="prefix__cls-9" data-name="Path 3230" transform="translate(-263.824 -981.182)"/>
            </g>
            <path id="prefix__Path_3231" d="M271.978 986.3a5.565 5.565 0 00-.173 4.858 8.165 8.165 0 01.283 6.66 8.877 8.877 0 01-3.1 2.795 4.781 4.781 0 00-2.244 3.617c-.188 2.053-.383 4.572-2.141 5.178-5.1 1.757-6.972 1.587-7.652-2.664a8.635 8.635 0 01.44-4.165 7.451 7.451 0 00-.157-5.583 9.727 9.727 0 01-.963-3.333c0-.963.883-2.318 1.809-3.475a7.143 7.143 0 001.5-5.121 6.569 6.569 0 011.961-5.785c3.486-2.974 11.223 1.706 11.223 1.706a7.463 7.463 0 01-.786 5.312z" class="prefix__cls-10" data-name="Path 3231" transform="translate(-244.363 -956.742)"/>
            <path id="prefix__Path_3232" d="M248.674 1010.476l-3.263 3.378c-2.168 2.244-2.838 5.369-.234 7.086l10.663 8.469-.98 1.835a4.474 4.474 0 00.39 4.824l1.127 1.477 2.495-8.563-7.731-9.653a1.853 1.853 0 01.4-2.88z" class="prefix__cls-9" data-name="Path 3232" transform="translate(-243.488 -958.945)"/>
            <path id="prefix__Path_3233" d="M274.194 1029.945a35.8 35.8 0 012.15 11.224c0 3.1-2.688 26.505-2.688 26.505h-13.97c.946-17.283-4.293-19.4-4.293-26.873 0-5.27 4.127-10.856 4.127-10.856z" class="prefix__cls-6" data-name="Path 3233" transform="translate(-244.303 -960.277)"/>
            <path id="prefix__Path_3234" d="M260.415 1107.716a2.588 2.588 0 00-1 2.185c.224 1.224.541 4.09.541 4.09h1.256l-.039-2.673c0-.175 2.694 2.673 3.15 2.673h6.646s.442-1.8-3.461-2.382-7.093-3.893-7.093-3.893z" class="prefix__cls-6" data-name="Path 3234" transform="translate(-244.576 -965.599)"/>
            <path id="prefix__Path_3235" d="M268.034 1107.716a2.588 2.588 0 00-1 2.185c.224 1.224.541 4.09.541 4.09h1.256l-.038-2.673c0-.175 2.693 2.673 3.149 2.673h6.646s.442-1.8-3.461-2.382-7.093-3.893-7.093-3.893z" class="prefix__cls-11" data-name="Path 3235" transform="translate(-245.098 -965.599)"/>
            <ellipse id="prefix__Ellipse_184" cx=".248" cy=".226" data-name="Ellipse 184" rx=".248" ry=".226" transform="rotate(-32.978 65.795 -32.692)"/>
            <path id="prefix__Path_3237" d="M275.715 991.558c.217.412.011.347-.715.412" class="prefix__cls-13" data-name="Path 3237" transform="translate(-245.645 -957.651)"/>
        </g>
        <g id="prefix__Group_705" data-name="Group 705" transform="translate(186.4 943.934)">
            <g id="prefix__Group_698" data-name="Group 698" transform="translate(23.085 123.009)">
                <path id="prefix__Path_3238" d="M220.66 1109.893l9.877-.011c1.312.137 2.777.51 3.023 1.647a6.625 6.625 0 01.143 1.5c-.349.411-13.446-.055-13.446-.055l-.057-.047a2.077 2.077 0 01.46-3.034z" class="prefix__cls-11" data-name="Path 3238" transform="translate(-219.683 -1106.603)"/>
                <path id="prefix__Path_3239" d="M233.745 1113.261l-13.446-.055.116.523h13.349z" class="prefix__cls-11" data-name="Path 3239" transform="translate(-219.725 -1106.83)"/>
                <g id="prefix__Group_696" data-name="Group 696" transform="translate(4.637 3.279)">
                    <path id="prefix__Path_3240" d="M224.91 1109.882l.889.006-.277 1.211h-.863z" class="prefix__cls-3" data-name="Path 3240" transform="translate(-224.66 -1109.882)"/>
                </g>
                <g id="prefix__Group_697" data-name="Group 697" transform="translate(6.544 3.279)">
                    <path id="prefix__Path_3241" d="M226.957 1109.882l.89.006-.277 1.211h-.863z" class="prefix__cls-3" data-name="Path 3241" transform="translate(-226.707 -1109.882)"/>
                </g>
                <path id="prefix__Path_3242" d="M220 1106.362l.678 3.29a3.2 3.2 0 002.648.063l.15-.066.476-3.286z" class="prefix__cls-9" data-name="Path 3242" transform="translate(-219.705 -1106.362)"/>
            </g>
            <g id="prefix__Group_701" data-name="Group 701" transform="translate(0 123.009)">
                <path id="prefix__Path_3243" d="M195.88 1109.893l9.877-.011c1.312.137 2.777.51 3.023 1.647a6.626 6.626 0 01.143 1.5c-.349.411-13.446-.055-13.446-.055l-.057-.047a2.076 2.076 0 01.46-3.034z" class="prefix__cls-6" data-name="Path 3243" transform="translate(-194.903 -1106.603)"/>
                <path id="prefix__Path_3244" d="M208.964 1113.261l-13.446-.055.116.523h13.349z" class="prefix__cls-6" data-name="Path 3244" transform="translate(-194.945 -1106.83)"/>
                <g id="prefix__Group_699" data-name="Group 699" transform="translate(4.637 3.279)">
                    <path id="prefix__Path_3245" d="M200.13 1109.882l.889.006-.277 1.211h-.863z" class="prefix__cls-3" data-name="Path 3245" transform="translate(-199.88 -1109.882)"/>
                </g>
                <g id="prefix__Group_700" data-name="Group 700" transform="translate(6.544 3.279)">
                    <path id="prefix__Path_3246" d="M202.177 1109.882l.889.006-.277 1.211h-.863z" class="prefix__cls-3" data-name="Path 3246" transform="translate(-201.927 -1109.882)"/>
                </g>
                <path id="prefix__Path_3247" d="M196.381 1106.362l-.429 3.29a3.2 3.2 0 002.648.063l.15-.066 1.582-3.286z" class="prefix__cls-9" data-name="Path 3247" transform="translate(-194.974 -1106.362)"/>
            </g>
            <g id="prefix__Group_702" data-name="Group 702" transform="translate(8.012 12.372)">
                <path id="prefix__Path_3248" d="M211.637 987.6l-8.134 5.3 2.511 6.428c.035.091.083.175.123.264.179-.011.358-.021.538-.021h.174a6.276 6.276 0 015.185 3.142 10.817 10.817 0 003.839-1 3.982 3.982 0 001.809-1.369c.87-4.556-6.045-12.744-6.045-12.744z" class="prefix__cls-9" data-name="Path 3248" transform="translate(-203.503 -987.598)"/>
            </g>
            <path id="prefix__Path_3249" d="M223.266 989.261s1 9.441-1.009 15.452c.932.809 4.349 4.472 5.424-.277s-1.207-16.838-1.207-16.838z" class="prefix__cls-9" data-name="Path 3249" transform="translate(-196.774 -975.226)"/>
            <g id="prefix__Group_704" data-name="Group 704" transform="translate(19.698 .123)">
                <g id="prefix__Group_703" data-name="Group 703" transform="translate(0 13.243)">
                    <path id="prefix__Path_3250" d="M217.961 988.665l-1.914 1.231.683 1.429 2.053-.905z" class="prefix__cls-11" data-name="Path 3250" transform="translate(-216.047 -988.665)"/>
                    <path id="prefix__Path_3251" d="M216.834 990.46c.192.437.2.853.03.931s-.471-.215-.663-.652-.206-.853-.031-.93.472.215.664.651z" class="prefix__cls-11" data-name="Path 3251" transform="translate(-216.047 -988.743)"/>
                </g>
                <path id="prefix__Path_3252" d="M241.171 980.73c0-.019.006-.035.007-.054a19.174 19.174 0 00-1.851-3.321 16.743 16.743 0 01-1.777-2.9l-19.762 12.934 1.28 2.416 22.105-8.169a6.186 6.186 0 01-.002-.906z" class="prefix__cls-11" data-name="Path 3252" transform="translate(-216.166 -974.45)"/>
            </g>
            <path id="prefix__Path_3253" d="M210.255 1003.755l-.711 4.438h6.288l.452-5.439z" class="prefix__cls-9" data-name="Path 3253" transform="translate(-195.905 -976.264)"/>
            <path id="prefix__Path_3254" d="M227.565 1013.25s7.428-2.365 9.755-5.546-1.612-20.587-1.612-20.587l.51-3.133a2.917 2.917 0 00-2.852-3.383l-1.984-.018a1.136 1.136 0 00-1.048 1.6l2.61 5.873s1.958 13.184-.784 14.184a30.886 30.886 0 01-6.976 1.447z" class="prefix__cls-9" data-name="Path 3254" transform="translate(-196.975 -974.746)"/>
            <path id="prefix__Path_3255" d="M212.069 1002.529l-1.91-4.238 1.241-.779a2.338 2.338 0 00.969-2.731l-1.361-3.994s3.871-.473 3.754-4.079c0-1.857-2.555-1.867-2.555-1.867a3.716 3.716 0 01-3.134 1.857c-1.018-.128-3.811.247-5.7 3.536-1.268 2.212-.712 5.678.392 8.279.988 2.331 3.513 3.632 6.015 4.016z" class="prefix__cls-10" data-name="Path 3255" transform="translate(-195.433 -975.038)"/>
            <path id="prefix__Path_3256" d="M204 1042.039a139.806 139.806 0 002.348 18.828 16.82 16.82 0 01-.579 8.658c-4.435 13.176-10.653 32.989-10.653 32.989h5.531s12.532-23.415 15.761-35.031 3.782-15.3 3.782-15.3l-3.843-10.141z" class="prefix__cls-6" data-name="Path 3256" transform="translate(-194.917 -978.952)"/>
            <path id="prefix__Path_3257" d="M209.6 997.112a1.8 1.8 0 001.028 1.973c.795.423 1.624.224 1.852-.443a1.8 1.8 0 00-1.028-1.974c-.792-.422-1.622-.224-1.852.444z" class="prefix__cls-9" data-name="Path 3257" transform="translate(-195.905 -975.832)"/>
            <path id="prefix__Path_3258" d="M222.689 1039.51h-18.035v-23.137a9.818 9.818 0 018.9-9.775l12.542-1.517s1.475 2.257 5.584 7.5a42.34 42.34 0 01-10.654 4.458z" class="prefix__cls-4" data-name="Path 3258" transform="translate(-195.57 -976.423)"/>
            <path id="prefix__Path_3259" d="M204.654 1042.039s2.548 9.219 11.946 19.552a12.084 12.084 0 013.508 9.4l-1.939 31.528h5.61s6.838-26.181 5.363-39.087a59.244 59.244 0 00-6.453-21.388z" class="prefix__cls-11" data-name="Path 3259" transform="translate(-195.57 -978.952)"/>
            <path id="prefix__Path_3260" d="M239.571 978.576c.97 2.012 2.286 3.388 2.939 3.073s.4-2.2-.573-4.214-2.286-3.388-2.939-3.072-.398 2.201.573 4.213z" class="prefix__cls-4" data-name="Path 3260" transform="translate(-197.895 -974.318)"/>
            <path id="prefix__Path_3261" d="M222.5 985.041l.168.08a2.514 2.514 0 001.882.118l.111-.037a3.359 3.359 0 002.139-2.169.623.623 0 00-.722-.8l-1.249.263a1.879 1.879 0 00-1.186.808z" class="prefix__cls-9" data-name="Path 3261" transform="translate(-196.791 -974.859)"/>
            <path id="prefix__Path_3262" d="M217.664 996.565c.181 1.265-1.233 1.2-2.294 1.3" class="prefix__cls-13" data-name="Path 3262" transform="translate(-196.303 -975.84)"/>
            <ellipse id="prefix__Ellipse_185" cx=".248" cy=".226" data-name="Ellipse 185" rx=".248" ry=".226" transform="rotate(-32.978 37.236 -22.11)"/>
        </g>
        <g id="prefix__Group_711" data-name="Group 711" transform="translate(337.83 949.071)">
            <path id="prefix__Path_3263" d="M362.219 993.1a4.072 4.072 0 01.175 2.9l-.529 3.766-.647.435-2.408.995a2.585 2.585 0 000-1.508l-1.057-3.895s-1.644-6.574 2.819-6.293c-.023-5.355 1.469-4.471 1.469-4.471l.1 4.629z" class="prefix__cls-9" data-name="Path 3263" transform="translate(-357.456 -980.184)"/>
            <path id="prefix__Path_3264" d="M373.394 1007.173s-3.121 11.908-5.781 12.122-5.429-18.865-5.429-18.865l-3.618.438s-1.406 27.434 6.711 27.933 9.189-5.568 9.189-5.568z" class="prefix__cls-14" data-name="Path 3264" transform="translate(-357.526 -981.242)"/>
            <path id="prefix__Path_3265" d="M374.829 1039.73h21.234v-32.251c-6.067-9.258-13.628-6.736-13.628-6.736s-6.874.124-7.945 6.43c0 4.563.339 32.557.339 32.557z" class="prefix__cls-5" data-name="Path 3265" transform="translate(-358.622 -981.242)"/>
            <g id="prefix__Group_706" data-name="Group 706" transform="translate(21.018 15.218)">
                <path id="prefix__Path_3266" d="M385.3 996.168l.315 4.559-.15.142a3.955 3.955 0 01-5.371.075l-.071-3.431z" class="prefix__cls-9" data-name="Path 3266" transform="translate(-380.018 -996.168)"/>
            </g>
            <g id="prefix__Group_707" data-name="Group 707" transform="translate(14.305)">
                <path id="prefix__Path_3267" d="M386.664 985.942l-.385 7.536a1.165 1.165 0 00-1.046 1.48 1.406 1.406 0 00-.126.555 8.649 8.649 0 01-6.716 1.564c-4.77-.913-1.891-10.134-1.891-10.134z" class="prefix__cls-9" data-name="Path 3267" transform="translate(-373.006 -980.25)"/>
                <path id="prefix__Path_3268" d="M388.869 991.185a4.614 4.614 0 011.208-2.088c2.7-2.336.284-4.04-.573-4.59-.947-.609-.761-2.328-1.988-3.289-1.874-1.466-3.68.053-4.88-.169s-1.944-1.818-3.689-.974-1.552 2.215-2.112 2.794-1.586-1.019-3.288.8c-2.589 2.776 2.487 3.963 2.487 3.963a9.214 9.214 0 006.457-.293 1.207 1.207 0 011.423.349c.878 1.2.888 7.488.888 7.488l1.227-1.02s2.677-.44 2.84-2.971z" class="prefix__cls-10" data-name="Path 3268" transform="translate(-372.812 -979.832)"/>
                <path id="prefix__Path_3269" d="M386.812 992.564a1.157 1.157 0 11-.633-1.509 1.157 1.157 0 01.633 1.509z" class="prefix__cls-9" data-name="Path 3269" transform="translate(-373.618 -980.594)"/>
                <circle id="prefix__Ellipse_186" cx=".244" cy=".244" r=".244" data-name="Ellipse 186" transform="translate(7.061 10.905)"/>
                <circle id="prefix__Ellipse_187" cx=".244" cy=".244" r=".244" data-name="Ellipse 187" transform="translate(4.587 10.905)"/>
                <path id="prefix__Path_3270" d="M380.648 994.884c0 .389-.639.713-1.433.713s-1.432-.316-1.432-.713" class="prefix__cls-13" data-name="Path 3270" transform="translate(-373.152 -980.862)"/>
            </g>
            <g id="prefix__Group_708" data-name="Group 708" transform="translate(11.601 115.687)">
                <path id="prefix__Path_3271" d="M379.328 1107.9s-1.2 1.656-6.839 3.093c-1.242.317-2.58.533-2.58 2.581h5.568l5.694-.984v.984h3.075s.857-5.029-.939-5.674z" class="prefix__cls-6" data-name="Path 3271" transform="translate(-369.909 -1104.282)"/>
                <path id="prefix__Path_3272" d="M379.706 1104.017l.292 3.613a3.477 3.477 0 003.767.126l.211-.126v-3.613z" class="prefix__cls-9" data-name="Path 3272" transform="translate(-370.579 -1104.017)"/>
            </g>
            <g id="prefix__Group_709" data-name="Group 709" transform="translate(27.42 115.687)">
                <path id="prefix__Path_3273" d="M396.309 1107.9s-1.2 1.656-6.839 3.093c-1.242.317-2.58.533-2.58 2.581h5.568l5.694-.984v.984h3.076s.856-5.029-.94-5.674z" class="prefix__cls-11" data-name="Path 3273" transform="translate(-386.89 -1104.282)"/>
                <path id="prefix__Path_3274" d="M396.687 1104.017l.292 3.613a3.477 3.477 0 003.767.126l.211-.126v-3.613z" class="prefix__cls-9" data-name="Path 3274" transform="translate(-387.56 -1104.017)"/>
            </g>
            <path id="prefix__Path_3275" d="M396.1 1008s6.365 14.689-1.756 22.193-19.146 6.227-19.146 6.227v-4.231s9.965-.842 13.158-7.5-1.277-12.427-1.277-12.427" class="prefix__cls-5" data-name="Path 3275" transform="translate(-358.67 -981.76)"/>
            <path id="prefix__Path_3276" d="M375.243 1037.447l-5.083.107c-2.064-.115-3.437-3.2-3.78-5.488a.466.466 0 01.616-.5 64.769 64.769 0 017.309 2.883z" class="prefix__cls-9" data-name="Path 3276" transform="translate(-358.067 -983.37)"/>
            <path id="prefix__Path_3277" d="M374.7 1042.617c-6.334 17.883 3.565 57.478 3.565 57.478h5.642s-2.661-56.147 4.683-57.478z" class="prefix__cls-6" data-name="Path 3277" transform="translate(-358.491 -984.129)"/>
            <path id="prefix__Path_3278" d="M389.45 1021.137a11.45 11.45 0 01-1.134 4.444c-3.193 6.661-13.677 7.544-13.677 7.544v4.273s11.543 1.2 19.664-6.309a13.754 13.754 0 004.109-9.952z" class="prefix__cls-14" data-name="Path 3278" transform="translate(-358.632 -982.659)"/>
            <g id="prefix__Group_710" data-name="Group 710" transform="translate(28.402 30.14)">
                <path id="prefix__Path_3279" d="M390.311 1021.169l.668-.3a13.639 13.639 0 00-2.533-8.679l-.5.4a12.879 12.879 0 012.365 8.579z" class="prefix__cls-14" data-name="Path 3279" transform="translate(-387.945 -1012.186)"/>
            </g>
            <path id="prefix__Path_3280" d="M361.511 994s1.171-.352 1.354-2.489 1.192-1.476 1.192-1.476-.524 8.426-1.869 8.744-.677-4.779-.677-4.779z" class="prefix__cls-9" data-name="Path 3280" transform="translate(-357.723 -980.524)"/>
            <path id="prefix__Path_3281" d="M381.546 1042.617c-1.724 21.927 12.276 57.478 12.276 57.478h6.705s-4.557-22.732-4.65-44.068a114.194 114.194 0 01.659-13.41z" class="prefix__cls-11" data-name="Path 3281" transform="translate(-359.095 -984.129)"/>
        </g>
    </g>
</svg>
