<svg xmlns="http://www.w3.org/2000/svg" width="295.557" height="287.759" viewBox="0 0 295.557 287.759">
    <defs>
        <style>
            .prefix__cls-4{fill:#c6c6c6}.prefix__cls-2{fill:#878787}.prefix__cls-3{fill:#1d1d1b}.prefix__cls-6{fill:#f4bc8f}.prefix__cls-7{fill:#dfc822}.prefix__cls-8{fill:#f7b58e}.prefix__cls-9{fill:#eb9d68}.prefix__cls-10{fill:#efefef}.prefix__cls-13{fill:#fff}
        </style>
    </defs>
    <g id="prefix___3" data-name="3" transform="translate(-817 -1878.579)">
        <path id="prefix__Path_3347" d="M147.778 0c81.616 0 147.778 13.666 147.778 30.524s-66.162 30.523-147.778 30.523S0 47.382 0 30.524 66.163 0 147.778 0z" data-name="Path 3347" transform="translate(817 2105.291)" style="opacity:.5;fill:#c6c6c6"/>
        <g id="prefix__Illustrations" transform="translate(699.12 1606.788)">
            <g id="prefix__Group_598" data-name="Group 598" transform="translate(125.769 310.924)">
                <path id="prefix__Path_2915" d="M311 549.344c-2.188-5.81-3.071-21.948-3.071-21.948h-50.24c-1.852 13.2-1.026 13.928-2.779 21.018-1.92 7.77-22.147 10.018-23.682 10.426-.016.046-.453.5-.475.54 3.192.77 54.893 3.686 103.114-.459-4.69-.23-20.55-3.43-22.867-9.577z" class="prefix__cls-2" data-name="Path 2915" transform="translate(-138.916 -336.082)"/>
                <path id="prefix__Rectangle_156" d="M7.187 0h264.824a7.188 7.188 0 0 1 7.189 7.188v178.071a7.187 7.187 0 0 1-7.187 7.187H7.187A7.187 7.187 0 0 1 0 185.26V7.187A7.187 7.187 0 0 1 7.187 0z" class="prefix__cls-2" data-name="Rectangle 156"/>
                <path id="prefix__Path_2916" d="M130.567 514.5a1.582 1.582 0 0 0-.021.219v9.433c0 1.817 2.946 3.29 6.58 3.29H403c3.635 0 6.582-1.473 6.582-3.29v-9.433a1.574 1.574 0 0 0-.023-.219z" class="prefix__cls-2" data-name="Path 2916" transform="translate(-130.465 -334.995)"/>
                <g id="prefix__Group_597" data-name="Group 597" transform="translate(90.98 222.584)">
                    <path id="prefix__Path_2917" d="M229.96 562.34s-.682 2.583.929 3.173c39.027 1.981 73.873 2.767 103.087-.491.646-.5 1.025-2.466.205-3.173a713.217 713.217 0 0 1-104.221.491z" class="prefix__cls-3" data-name="Path 2917" transform="translate(-229.816 -561.572)"/>
                    <path id="prefix__Path_2918" d="M230.458 561.546s-1.381 1.025.231 1.613c51.841 3.614 101.834 1.079 103.3.087.646-.5 1.025-.993.205-1.7a665.32 665.32 0 0 1-103.736 0z" class="prefix__cls-3" data-name="Path 2918" transform="translate(-229.824 -561.546)"/>
                </g>
                <path id="prefix__Rectangle_157" d="M0 0H259.735V148.294H0z" class="prefix__cls-4" data-name="Rectangle 157" transform="translate(9.339 14.497)"/>
            </g>
            <g id="prefix__Group_599" data-name="Group 599" transform="translate(149.305 331.293)" style="opacity:.5">
                <path id="prefix__Path_2919" d="M314.26 452.241c-.077.182-7.021 11.213-2.568 11.213 2.459 0 4.97-10.875 2.568-11.213z" class="prefix__cls-2" data-name="Path 2919" transform="translate(-169.152 -350.114)"/>
                <path id="prefix__Path_2920" d="M358.671 440.022c0 8.018 6.816.051 6.816-3.506a2.53 2.53 0 0 1-1.347-1.524c-.069 0-5.469 5.335-5.469 5.03z" class="prefix__cls-2" data-name="Path 2920" transform="translate(-173.24 -348.659)"/>
                <path id="prefix__Path_2921" d="M369.2 441.657c.025.005.029.005 0 0z" class="prefix__cls-2" data-name="Path 2921" transform="translate(-174.128 -349.221)"/>
                <path id="prefix__Path_2922" d="M366.676 445.823c1.241 0-.532-2.4.5-2.4a7.07 7.07 0 0 1 .471 1.723c.322-1.1.82-2.225 1.249-3.5-.076-.012-.388-.068-.762-.145-1.834 1.769-3.902 4.322-1.458 4.322z" class="prefix__cls-2" data-name="Path 2922" transform="translate(-173.821 -349.208)"/>
                <path id="prefix__Path_2923" d="M367.642 440.853c-1.993 0-.467.377.585.593.2-.194.4-.38.592-.551-.366.005-.769-.042-1.177-.042z" class="prefix__cls-2" data-name="Path 2923" transform="translate(-173.914 -349.153)"/>
                <path id="prefix__Path_2924" d="M370.389 439.712a8.882 8.882 0 0 0-1.373 1.087 1.273 1.273 0 0 0 1.373-1.087z" class="prefix__cls-2" data-name="Path 2924" transform="translate(-174.112 -349.057)"/>
                <path id="prefix__Path_2925" d="M362.228 448.465c2.478 0-5.516-3.512-6.108-1.468 1.636.003 4.634 1.468 6.108 1.468z" class="prefix__cls-2" data-name="Path 2925" transform="translate(-173.025 -349.618)"/>
                <path id="prefix__Path_2926" d="M368.125 448.995c.855-.315-2.18-1.469 0 0z" class="prefix__cls-2" data-name="Path 2926" transform="translate(-173.969 -349.778)"/>
                <path id="prefix__Path_2927" d="M365.416 448.566c0 .613 0 .549 0 0z" class="prefix__cls-2" data-name="Path 2927" transform="translate(-173.809 -349.804)"/>
                <path id="prefix__Path_2928" d="M366.885 449.43c0 1.8.008-.162 0 0z" class="prefix__cls-2" data-name="Path 2928" transform="translate(-173.932 -349.876)"/>
                <path id="prefix__Path_2929" d="M364.1 448.537c-.132.835.126 0 0 0z" class="prefix__cls-2" data-name="Path 2929" transform="translate(-173.694 -349.801)"/>
                <path id="prefix__Path_2930" d="M370.372 449.434q2.832-1.088-.1-.424c-1.935 2.32-.257.424.1.424z" class="prefix__cls-2" data-name="Path 2930" transform="translate(-174.141 -349.82)"/>
                <path id="prefix__Path_2931" d="M376.686 442.979c-.8 1.625-1.409-.362-.66 1.44 1 3.61 8.549 3.421 11.954 5.452a32.793 32.793 0 0 0-2.5-3.956c-4.989-2.991-3.28-2.121-7.685-2.121.168 0-3.162-4.381-3.162-1.667.002 1.073 1.593.744 2.053.852z" class="prefix__cls-2" data-name="Path 2931" transform="translate(-174.586 -349.186)"/>
                <path id="prefix__Path_2932" d="M387.521 478.787c.19-1.091-.5-.193 0 0z" class="prefix__cls-2" data-name="Path 2932" transform="translate(-175.657 -352.308)"/>
                <path id="prefix__Path_2933" d="M378.911 474.285a.585.585 0 0 0 .825 0c-.336-.198-.377-.254-.825 0z" class="prefix__cls-2" data-name="Path 2933" transform="translate(-174.947 -351.958)"/>
                <path id="prefix__Path_2934" d="M381.671 450.726c-1.07.682-.084 5.823-1.651 5.823-2.543 0-3.627-4.393-5.612-5.369.689 4.45-10.669 4.286-12.427 9.183-.439 1.221.67 10.028.993 10.255 3.131 2.211 4.965-1.411 7.813-1.382 2.273.023 5.561 2.23 6.049 2.23a5.643 5.643 0 0 0 1.512-1.98c.011.214-.694 2.317-.449 2.317a1 1 0 0 0 .637-.9c2.033 2.423 3.832 6.252 8.111 2.37 0-4.849 2.821-5.38 1.7-10.678-2.681-3.215-6.285-7.615-6.676-11.869z" class="prefix__cls-2" data-name="Path 2934" transform="translate(-173.51 -349.986)"/>
                <path id="prefix__Path_2935" d="M405.434 472.791c.206.978 2.023 6.667 1.629 6.667.871 0 2.171-3.729 2.026-3.729-1.563 0-2.757-1.274-3.655-2.938z" class="prefix__cls-2" data-name="Path 2935" transform="translate(-177.183 -351.847)"/>
                <path id="prefix__Path_2936" d="M368.531 435.362c.587.007 1.424.562 2.06.562.286 0 .067-1 .19-1.2a6.735 6.735 0 0 1 .38.63c.05-.614.429-2.829-.587-2.845-.095.328-2.737 2.846-2.043 2.853z" class="prefix__cls-2" data-name="Path 2936" transform="translate(-174.062 -348.449)"/>
                <path id="prefix__Path_2937" d="M371.414 435.612c0 .035-.005.067-.005.091.038.012.033-.027.005-.091z" class="prefix__cls-2" data-name="Path 2937" transform="translate(-174.314 -348.711)"/>
                <path id="prefix__Path_2938" d="M368.987 429.522c-.737-.69-1.327-3.319-1.327-4.534q-.389.571-.665-.213a19.669 19.669 0 0 0-.407 2.871c-.007.379 1.654 1.454 2.399 1.876z" class="prefix__cls-2" data-name="Path 2938" transform="translate(-173.908 -347.797)"/>
                <path id="prefix__Path_2939" d="M367.633 418.36q-1.4 1.224-.474 2.487a2.129 2.129 0 0 0 .474-2.487z" class="prefix__cls-2" data-name="Path 2939" transform="translate(-173.924 -347.256)"/>
                <path id="prefix__Path_2940" d="M356.431 443.121c-.771-1.885.6 2.051 0 0z" class="prefix__cls-2" data-name="Path 2940" transform="translate(-173.03 -349.3)"/>
                <path id="prefix__Path_2941" d="M351.525 442.779c0 .015 0 .013 0 0z" class="prefix__cls-2" data-name="Path 2941" transform="translate(-172.637 -349.316)"/>
                <path id="prefix__Path_2942" d="M351.513 442.643l.011.125z" class="prefix__cls-2" data-name="Path 2942" transform="translate(-172.636 -349.304)"/>
                <path id="prefix__Path_2943" d="M351.5 442.476l.015.153z" class="prefix__cls-2" data-name="Path 2943" transform="translate(-172.635 -349.29)"/>
                <path id="prefix__Path_2944" d="M351.469 442.172l.026.278z" class="prefix__cls-2" data-name="Path 2944" transform="translate(-172.632 -349.264)"/>
                <path id="prefix__Path_2945" d="M351.468 442.165l-.007-.079z" class="prefix__cls-2" data-name="Path 2945" transform="translate(-172.632 -349.257)"/>
                <path id="prefix__Path_2946" d="M350.454 440.209c.18.477 1 .757 0 0z" class="prefix__cls-2" data-name="Path 2946" transform="translate(-172.547 -349.099)"/>
                <path id="prefix__Path_2947" d="M378.708 406.929a19.953 19.953 0 0 0-3.02 1.48 5.119 5.119 0 0 1 2.455 1.343c-.5 1.172 7.205-7.343 3.585-7.343-.045.163-.006.258.116.283-.998.993-2.35 4.237-3.136 4.237z" class="prefix__cls-2" data-name="Path 2947" transform="translate(-174.675 -345.911)"/>
                <path id="prefix__Path_2948" d="M381.891 400.256c-.5 2.121 1.442 1.381 3.42-.2q-.488-.3-.143-.708-1.449.344-2.334-1.354c-.445.79-.572 2.081-.943 2.262z" class="prefix__cls-2" data-name="Path 2948" transform="translate(-175.191 -345.539)"/>
                <path id="prefix__Path_2949" d="M385.6 399.483c.975-1.733-.492.855 0 0z" class="prefix__cls-2" data-name="Path 2949" transform="translate(-175.502 -345.613)"/>
                <path id="prefix__Path_2951" d="M383.81 388.959c-1.105-4.312-.637 7.546-.755 7.546.9 0 .335-1.116 1.109-.367-.948-2.414.442-3.812-.354-7.179z" class="prefix__cls-2" data-name="Path 2951" transform="translate(-175.296 -344.697)"/>
                <path id="prefix__Path_2952" d="M320.582 364.535l-.036-.091c.037.047.064.077 0-.009-3.342-8.291 7.748-5.3 7.748-9.565 0-1.268-11.175 3.744-11.363 8.477a4.558 4.558 0 0 0 3.651 1.188z" class="prefix__cls-2" data-name="Path 2952" transform="translate(-169.719 -341.885)"/>
                <path id="prefix__Path_2953" d="M289.615 368.77c-.3.133-.081.14 0 0z" class="prefix__cls-2" data-name="Path 2953" transform="translate(-167.403 -343.074)"/>
                <path id="prefix__Path_2954" d="M288.518 386.729c-.015 0-.033-.016-.053-.042a.051.051 0 0 0 .053.042z" class="prefix__cls-2" data-name="Path 2954" transform="translate(-167.319 -344.585)"/>
                <path id="prefix__Path_2955" d="M286.463 383.8v.01c.006-.01.008-.01 0-.01z" class="prefix__cls-2" data-name="Path 2955" transform="translate(-167.15 -344.342)"/>
                <path id="prefix__Path_2956" d="M295.663 407.286c-.054-.1-.211-.321-.442-.638-.092.162-.004.372.442.638z" class="prefix__cls-2" data-name="Path 2956" transform="translate(-167.886 -346.269)"/>
                <path id="prefix__Path_2957" d="M314.65 404.937l-.134-.008c.042.071.084.083.134.008z" class="prefix__cls-2" data-name="Path 2957" transform="translate(-169.516 -346.124)"/>
                <path id="prefix__Path_2958" d="M350.873 427.575l-.005.011z" class="prefix__cls-2" data-name="Path 2958" transform="translate(-172.582 -348.033)"/>
                <path id="prefix__Path_2959" d="M400.43 367.611c-3.926-2.742-7.1-.889-8.226-.907-4.2-.071-9.115-3.815-13-4.18-6.023-.567-7.269.6-12.968-.14 2.3.3-15.98-5.354-16.332-2.451.169-1.568 4.951-1.917 4.325-3.969-2.8-9.162-23.984 8.36-26.262 4.868.023-.174-1.536 6.979-.563 6.979-2 0-.186-7.675-1.96-6.979-1.993.781-4.656 6.151-1.819 6.655-6.8-1.209-7.472 1.962-14.8 1.962-.711 0-.619-2.6-.931-2.385-2.309 1.585-2.234 4.837-5.436 6.059a3.226 3.226 0 0 1-1.651-2.687c.136 0 5.286 1.054 4.573-1.245-1.242-4.005-8.362-1.9-7.45-4.8-1.867-1.144-1.829.643-3.443.451.518-2.126-5.538 2.388-6.13 1.555-.112.132-.727.567-.755.733.117.152.111.262.07.334a7.507 7.507 0 0 1 1.2-.363c-.768 3.873-6.421 6.07-7.051 8.617-.406 1.644-.018 8.193 3.019 2.967.287.492 1.41 4.728 1.763 5.185-.258-.862 8.257-14.565 8.257-11.966 0 2.264-3.555 1.808-2.734 4.777.9 3.248 4.428-.67 5.141 1.666-1.625 1.3-14.262 12.928-12.5 2.893-.271.435-9.9 12.386-9.9 10.3 0 3.555 1.337 1.693.329 4.946.14-.451-7.416 4.335-1.958 5.934 6.085 1.783 2.973-5.027 7.4-5.992 4.913-1.07 6.38 5.2 7.782 5.2 1.78 0-.945-2.43 1.653-1.837.2-1.7-4.059-2.784-4.059-5.169 0-1.205 5.177 5.344 6.773 7.527.2-.358 1.29-.483 1.36-.467a6.01 6.01 0 0 1-1.268-2c0-.822 2.622-.172 3.836-.762a2.41 2.41 0 0 0-.985 1.242c-1.306 3.459 4.262 3.406 6.2 2.514a15.005 15.005 0 0 1-1.1 5.315c-2.522-5.952-15.976 5.686-15.361-5.513-3.117.663-9.189.245-11.577 1.92-4.194 2.944-8.872 14.6-7.1 19.355 2.414 6.468 6.719 4.322 10.538 6.075 5.928 2.72 6.735.6 8.643 8.9 2.259 9.824.977 35.613 13.875 17.6 1.863-2.6 4.031-8.778 5.021-12.659.768-3.006-.663-4.732.657-8.225 1.186-3.135 8.225-6.861 6.418-11.184a5.886 5.886 0 0 1-6.44-1.682l.959-1.216c.777 1.141 1.425 1.9 1.748 1.971 5.333 1.118 11.171-7.312 7.27-11.164-1.6 1.434-2.525 1.831-3.077 1.647l2.8-3.556c3.372 1.689 7.438 4.117 9.593 4.791a.764.764 0 0 1-.9.537c2.636 3.178.668.169 2.5-.026 0 1.526 1.533 11.983 3.35 11.726 1.269 0 3.237-8.059 5.176-9.369 7.109-4.8 2.688 3.151 6.542 3.151 3.405 0 1.677 7.011 3.377 10.111a15.874 15.874 0 0 0-3.163-1.919c.793 1.3 7 9.086 7 8.845a8.222 8.222 0 0 0-2.451-5.663 3.065 3.065 0 0 0 1.083.181.5.5 0 0 1 .472-.139c-.133-.36-2.872-5.521-3.376-8.148-.118.308-.194.547-.277.791.082-.246.158-.484.277-.791-.173-.907-.082-1.514.477-1.514.429 0 5.233 4.425 3.96 2.992 0-7.775 2-6 5.118-10.581 2.047-3.009 4.126-3.187 5.188-7.867.819-3.607-2.472-1.1.895-5.143-.739-1.22-3.3 1.165-3.3-1.271 0 .236 2.312-2.09 2.406-2.09q.974.685 0 1.695c3.237 0 3.4.659 3.4 4.211 2.148-6.161 7.732-10.309 9.839-18.633.635-2.506-4.706.867-2.448-3.123 2.789-4.929 5.391-2.6 9.078-4.1 1.252-.508 8.97-3.457 9.044-3.24.943 2.785-10.4 6.945-4.74 12.282 1.016-1.827 3.089-7.6 4.447-8.583 1.809-1.3 9.6-2.057 10.614-4.617 1.966-4.939 1.418-1.871 6.986-4.092a18.168 18.168 0 0 0-4.941-3.053zm-86.112 26.727c-1.029.98-3.412-.722-2.359 1.58.4.837 2.286 2.55 2.286 3.053-.012.185-.2 2.1-.277 3.512l-.14.169c-2.158.615-2.807-.611-3.428-2.082h.059c-.569-.994-.608-14.238 3.859-6.232zm-17.4 4.466a.96.96 0 0 0 .19-.173c-.353-.626-.516-5.4 1.58-5.4 1.438 0 1.407 4.387 3.488 1.242-2.43 0 .445-1.414 1.185-1.754-.18.8.226 5.893 1.971 5.553-2.565.928-6.358-.524-8.417.528z" class="prefix__cls-2" data-name="Path 2959" transform="translate(-165.46 -341.768)"/>
                <path id="prefix__Path_2960" d="M351.636 430.795l-.028.075.028-.075z" class="prefix__cls-2" data-name="Path 2960" transform="translate(-172.644 -348.305)"/>
                <path id="prefix__Path_2961" d="M296.709 406.138s.004.001 0 0z" class="prefix__cls-2" data-name="Path 2961" transform="translate(-168.014 -346.226)"/>
                <path id="prefix__Path_2962" d="M361.844 359.056c-.1.065-.436.431 0 0z" class="prefix__cls-2" data-name="Path 2962" transform="translate(-173.489 -342.255)"/>
                <path id="prefix__Path_2963" d="M355.693 350.975c0-1.682-4.078-2.062-4.078.848 0 1.139 4.078-.886 4.078-.848z" class="prefix__cls-2" data-name="Path 2963" transform="translate(-172.645 -341.464)"/>
                <path id="prefix__Path_2964" d="M348.659 348.025c-3.248 1.219 1.205 2.357 2.9.736a3.458 3.458 0 0 0-2.453-.847c.755-.458.168-.838.733-1.1-2.362-2.107-1.7-.183-3.893.565a5.086 5.086 0 0 0 2.713.646z" class="prefix__cls-2" data-name="Path 2964" transform="translate(-172.167 -341.142)"/>
                <path id="prefix__Path_2965" d="M312.745 346.912c1.209 0-.477 1.133.776 1.133a6.308 6.308 0 0 0 1.69-.56c-.113.107-.372.387 0 0 .39-.185.7-.39.714-.572-1.025-.406-6.93-.001-3.18-.001z" class="prefix__cls-2" data-name="Path 2965" transform="translate(-169.263 -341.216)"/>
                <path id="prefix__Path_2966" d="M323.558 347.443c-.288-.59.945-1.165-.824-1.13 0 .44-1.366 2.461.824 1.13z" class="prefix__cls-2" data-name="Path 2966" transform="translate(-170.174 -341.18)"/>
                <path id="prefix__Path_2967" d="M320.651 346.707c.466 0-.193-1.248.12-1.761-.749.429-2.068 1.333-1.935 1.252-1.089 1.012 1.75.509 1.815.509z" class="prefix__cls-2" data-name="Path 2967" transform="translate(-169.859 -341.065)"/>
                <path id="prefix__Path_2968" d="M287.232 350.158c1 0 1.376 1.656 3.276 1.045a8.3 8.3 0 0 1-1.862.988 4.005 4.005 0 0 0 1.956.509 2.661 2.661 0 0 1-1.649.2 3.021 3.021 0 0 0 1.839 1.778c.4-.477 1.655-3.758 2.334-3.758 1.524 1.457-.384 2.98 2.9 1.668-.977-1.692-6.48-4.966-5.738-2.49-.454-.211-1.23-.553-1.554-.652-1.319-1.29-1.7.712-1.502.712z" class="prefix__cls-2" data-name="Path 2968" transform="translate(-167.211 -341.408)"/>
                <path id="prefix__Path_2969" d="M293.9 349.661c-.087.012-.178.026-.275.043.216.086.29.053.275-.043z" class="prefix__cls-2" data-name="Path 2969" transform="translate(-167.754 -341.463)"/>
                <path id="prefix__Path_2970" d="M293.781 349.477c2.6-.333.788 1.928 4.324-.89-.852-2.054-6.5-.732-5.776-.085.044-.602 1.382.623 1.452.975z" class="prefix__cls-2" data-name="Path 2970" transform="translate(-167.639 -341.279)"/>
                <path id="prefix__Path_2971" d="M287.387 351.846c-.157-.589-.46-.725-.753-1.146 0-.012.011-.032.022-.069a.138.138 0 0 0-.026.063l-.017-.024c-.353.266.323 1.042.774 1.176z" class="prefix__cls-2" data-name="Path 2971" transform="translate(-167.154 -341.544)"/>
                <path id="prefix__Path_2972" d="M286.592 350.632c.01.017.066.087 0 0z" class="prefix__cls-2" data-name="Path 2972" transform="translate(-167.161 -341.544)"/>
                <path id="prefix__Path_2973" d="M273.775 386.857a3.576 3.576 0 0 0-2.145 3.559c0 2.814 5.341-3.559 2.145-3.559z" class="prefix__cls-2" data-name="Path 2973" transform="translate(-165.899 -344.599)"/>
                <path id="prefix__Path_2974" d="M277.578 383.894s.005.006 0 0z" class="prefix__cls-2" data-name="Path 2974" transform="translate(-166.401 -344.35)"/>
                <path id="prefix__Path_2975" d="M274.75 384.4a3.314 3.314 0 0 1 .794 3.327c0-.038.007-.081.009-.136-.2.119-.1.412-.039.271a11.061 11.061 0 0 0-.315 2.583c0 .017.9.451 1.31.19-.368.4-1.41 1.593-1.453 1.647 7.27-.76 2.809-3.852 2.264-8.475a5.628 5.628 0 0 1-1.566-.947c-.833.549-1.643 1.386-1.004 1.54z" class="prefix__cls-2" data-name="Path 2975" transform="translate(-166.143 -344.263)"/>
                <path id="prefix__Path_2976" d="M268.353 373.743c-2.15-1.851-3.9-1.665-6.32-1.665q.111.474-.472.168c.063.423 3.148 1.1.07 1.1.713.854 4.888 4.273 6.722.397z" class="prefix__cls-2" data-name="Path 2976" transform="translate(-165.05 -343.353)"/>
                <path id="prefix__Path_2977" d="M223.911 423.36c-1.608-.806-5.347-4.654-7-1.3a8.269 8.269 0 0 1 1.17.144v.071-.071c2.055.35 5.804 1.209 5.83 1.156z" class="prefix__cls-2" data-name="Path 2977" transform="translate(-161.284 -347.454)"/>
                <path id="prefix__Path_2979" d="M218.183 422.448c0 .023 0 .025 0 0z" class="prefix__cls-2" data-name="Path 2979" transform="translate(-161.392 -347.601)"/>
                <path id="prefix__Path_2980" d="M228.616 425.091q-1.008-.993-.518-.508c-3.328-2-1.631.422-3.49.422 0 .795 3.122.332 4.008.086z" class="prefix__cls-2" data-name="Path 2980" transform="translate(-161.934 -347.715)"/>
                <path id="prefix__Path_2981" d="M226.136 466.669c-.6 5.321-2.4 11.8-2.24 14.408a42.543 42.543 0 0 0 1.3 5.305 3.922 3.922 0 0 1 1.241-.2c.7 0 1.4 0 2.1.008-.1-3.838 1.955-8.694 1.955-9.946 0-.869 4.481-2.935 4.481-6.411 0 1.853 21.383-22.774 15.279-25.037-4.4-1.482-5.961-2.258-9.172-2.258 1.78 0-7.512-11.61-8.748-10.483-1.808-.317-3.71-.856-5.4-1.073a11.825 11.825 0 0 0-.648 2.409c-1.069 0 .336-2.689-.154-2.689-1.891 0-2.991 2.515-4.041 3.438-.033.042-.215-.046-.5-.238 1.344 1.811-1.906 10.73-1.791 11.562 1.281 9.28 7.57 10.336 6.338 21.205z" class="prefix__cls-2" data-name="Path 2981" transform="translate(-161.528 -348.297)"/>
                <path id="prefix__Path_2982" d="M231.1 400.558l-.011-.01c-.005.005-.003.01.011.01z" class="prefix__cls-2" data-name="Path 2982" transform="translate(-162.48 -345.754)"/>
                <path id="prefix__Path_2983" d="M221.334 433.889c.146.112.277.207.391.285a.752.752 0 0 0-.391-.285z" class="prefix__cls-2" data-name="Path 2983" transform="translate(-161.657 -348.566)"/>
                <path id="prefix__Path_2984" d="M210.347 417.534c-2.913 0-6.122 6.06-7.262-1.243-.866-5.548 3.048-4.019 5.542-5.508q.4-1.07-.377-.9c4.527-1.9 3.981 4.435 6.107 4.435.187 0 2.621-10.745 3.11-12.291-.1-.582.3 1.414.355 1.414-.085 0 1.387-3.08 2.312-3.474-1.037-.9.108-.228 1.7-.709q.077-.415-.259 0c-.761 0 2.76-3.643 4.127-3.643q-2.206.646-.932 1.827c.027-.142 2.842-1.877 2.842-1.915 0-.74-1.888-2.629-1.888-3.531a2.58 2.58 0 0 0-3.441.565 3.117 3.117 0 0 1 3.008-1.864c.082.3 1.579 1.512 1.848.96a10.461 10.461 0 0 0-1.62-.977c1.9-.125 4 .194 4.754-1.494 2.264-5.064-1.387-.745-2.073-2.3 1.808-1.194-.818-5.11-2.994-7.741a10.525 10.525 0 0 1-1.886 2.259c-3.586 0-2.262-7.513-7.185-3.537.254-.205-.65 12.29-1.375 11.59-1.263-1.213-8.228-6.574-8.427-6.907-1.514-2.534 1.107-7 .122-7.677 3.957 1.61 1.914-2.288 1.7-2.792.614.114 6.186-.243 5.577-2.387-1.865-6.569-3.463 1-4.145.248-.51-.563.38-2.524-.889-2.524q-.45.625-.942 1.217c0-.748-1.969-4.913-3.067-4.946-1.734-.05-.229 4.972.9 4.3a12.839 12.839 0 0 1-1.25 1.977c.217-.07-8.914-2.78-8.914-1.326.315.473.731.517 1.243.146-.516.552-1.367 1.689-.629 1.689-4.367 0-6.425-3.232-11.248-4.1-3.228-.578-6.984 1.484-10.751.537v2.969c-.505-2.547-2.236-3.792-7.43-4.3-3.986-.387-5.754-.425-9.725 3.324.207 0 3.354 3.1 3.359 3.119-2.953.892.119-2.427-4.078.592.975 2.362 2.527.968 4.551 1.243-5.027 3.534-1.84 8.535 3.349 7.121-1 .743-5.349 3.93-6.013 5.2 3 1.023 8.546-6.15 9.786-7.884a1.388 1.388 0 0 1-.385.871c3.111-1.3 13.8 4.474 13.8 5.741 0 .048 1.485 3.252 2.707 5.959-.582-.44-1.173-.755-1.5-.564.309.162 1.31.826 1.2 1.274.356.268.678.548.958.76.469 1.056.82 1.878.9 2.147.883 2.889 4.349 21.927 9.409 21.927.365 0-3.923-7.13-3.443-7.882 6.812 8.145 15.814 19.408 24.1 19.408a.863.863 0 0 1 .255.037c-2.164-1.663-7.358-6.835-5.493-10.44zm10.993-22.346a.982.982 0 0 0-.084.129s0-.009.008-.014a1.313 1.313 0 0 0 .077-.115zm-.084.13a.973.973 0 0 0-.062.141.874.874 0 0 1 .063-.141zm-2.956.752c.135-.155.248-.284.292-.328.191-.168-1.692 1.932-.292.328zm-2.979 1.4c5.565-2.11-1.479.658 0 0zm-.023.962a2.8 2.8 0 0 1-.418.255l.039-.027-.067.039a4.531 4.531 0 0 1 .448-.263zm-.472-2.347c0-.456-1.439.492-1.855 1.136-.3-.786-.471-2.038-1.282-2.038-1.561 0-.718 4.1-1.581 4.1-1.911 0 1.469-4.352-.517-2.968a2.256 2.256 0 0 1 1.918-1.413c-2.481-.2-5.248-.27-2.932-2.119-.212 0-1.343-.371-2.252-.628 2.737-.023 8.503 1.108 8.503 3.934zm-9.975-4.24zm-25.251-9.239a2.973 2.973 0 0 0 .481 1.007 1.364 1.364 0 0 1-.481-1.007zm21.15 27.784l-.068-.058c.028.019.051.038.073.058zm-4.173-2.02a1.987 1.987 0 0 1 1.5 1.142 1.987 1.987 0 0 0-1.495-1.142zm3.623 1.73a1.242 1.242 0 0 0-.223-.021 1.193 1.193 0 0 1 .223.021zm.381.151c-.017-.011-.036-.02-.054-.03l.049.029zm-.184-.093c-.026-.01-.054-.017-.082-.026a.857.857 0 0 1 .077.025zm.429.3a2.267 2.267 0 0 1 .45.764 2.642 2.642 0 0 0-.455-.764z" class="prefix__cls-2" data-name="Path 2984" transform="translate(-156.161 -342.645)"/>
                <path id="prefix__Path_2985" d="M156.934 369.392l.012-.01c-.007 0-.012.003-.012.01z" class="prefix__cls-2" data-name="Path 2985" transform="translate(-156.226 -343.126)"/>
                <path id="prefix__Path_2986" d="M216.608 397.78c.221.017.439.036.651.057a2.568 2.568 0 0 0-.651-.057z" class="prefix__cls-2" data-name="Path 2986" transform="translate(-161.259 -345.52)"/>
                <path id="prefix__Path_2987" d="M167.569 381.92c0-.506.482-.895.841-1.333a1.316 1.316 0 0 0-.841 1.333z" class="prefix__cls-2" data-name="Path 2987" transform="translate(-157.123 -344.071)"/>
                <path id="prefix__Path_2988" d="M180.028 384.676c.177-1.486-.838.509 0 0z" class="prefix__cls-2" data-name="Path 2988" transform="translate(-158.145 -344.368)"/>
                <path id="prefix__Path_2989" d="M187.61 363.581c.545 1.092 2.093.312 3.45-.7a4.8 4.8 0 0 0-.032.56c0 2.226 2.144.553 4.245 1.979a7.78 7.78 0 0 0-3.065.705c1.894 3.9 10.222.2 10.256.2.841 0-2.93-6.131-2.428-6.131-1.344 0-2.057 2.79-1.663 3.242-.63-.367-3.339-2.211-5.284-2.333a2.028 2.028 0 0 0 .3-.341c0-1.35-5.124-1.961-6.083-1.5.176 2.324-.706 2.665.304 4.319z" class="prefix__cls-2" data-name="Path 2989" transform="translate(-158.772 -342.259)"/>
                <path id="prefix__Path_2990" d="M192.419 357.42c0 .921 8.253 2.159 8.253-.705a27.759 27.759 0 0 0-2.524-1.979c-.737.708-.622 1.893-.024 1.893-.1.271-4.635-1.029-4.3-.842a3.777 3.777 0 0 0-1.405 1.633zm2.05-1.015c-.079-.01-.215-.037-.364-.066a3.062 3.062 0 0 1 .364.061z" class="prefix__cls-2" data-name="Path 2990" transform="translate(-159.219 -341.891)"/>
                <path id="prefix__Path_2991" d="M189.2 356.117c1.46 0 4.079-.289 4.079-2.2 0-1.104-6.555 2.2-4.079 2.2z" class="prefix__cls-2" data-name="Path 2991" transform="translate(-158.9 -341.802)"/>
                <path id="prefix__Path_2992" d="M196.508 352.176c-.686.581 4.4-.988.66-.988-1.047 0-2.53.988-.66.988z" class="prefix__cls-2" data-name="Path 2992" transform="translate(-159.488 -341.591)"/>
                <path id="prefix__Path_2993" d="M196.893 353.043q1.7-.124.589-.621c-2.49 0-1.291 1.007-.589.621z" class="prefix__cls-2" data-name="Path 2993" transform="translate(-159.519 -341.695)"/>
                <path id="prefix__Path_2994" d="M207.268 362.151c0-3.208-2.922-.677-3.467.057 3.371 4.032 3.499-.049 3.467-.057z" class="prefix__cls-2" data-name="Path 2994" transform="translate(-160.179 -342.382)"/>
                <path id="prefix__Path_2995" d="M204.987 357.717a2.547 2.547 0 0 0 1.7 0c-.129-1.081-.06-3.652-2.241-2.514q1.106.074.826 1.018c-.135 0-.254 0-.357-.011a4.053 4.053 0 0 1 .829.52c-.269.32-.757.481-.757.987z" class="prefix__cls-2" data-name="Path 2995" transform="translate(-160.233 -341.906)"/>
                <path id="prefix__Path_2996" d="M204.19 356.1a1.049 1.049 0 0 0 .7.213 2.747 2.747 0 0 0-.7-.213z" class="prefix__cls-2" data-name="Path 2996" transform="translate(-160.212 -342.005)"/>
                <path id="prefix__Path_2997" d="M204.049 356.025c-.28-.292.164-.766-1.536-.766.499.766.908.66 1.536.766z" class="prefix__cls-2" data-name="Path 2997" transform="translate(-160.07 -341.935)"/>
                <path id="prefix__Path_2998" d="M208.6 368.361q-1.257-2.667-2.123-.536c-1.072.317 1.343 1.098 2.123.536z" class="prefix__cls-2" data-name="Path 2998" transform="translate(-160.382 -342.915)"/>
                <path id="prefix__Path_2999" d="M209.883 359.675c-1.735 0-.824 2.375-.824 3.389.884-.481 5.683-3.389.824-3.389z" class="prefix__cls-2" data-name="Path 2999" transform="translate(-160.602 -342.307)"/>
                <path id="prefix__Path_3000" d="M201.741 358.039c1.534-.214.261-1.348 0 0z" class="prefix__cls-2" data-name="Path 3000" transform="translate(-160.005 -342.114)"/>
                <path id="prefix__Path_3001" d="M205.7 352.466c0-2.518-4.12-1.752-3.962-1.752-.308 1.475 3.962 1.319 3.962 1.752z" class="prefix__cls-2" data-name="Path 3001" transform="translate(-160.004 -341.542)"/>
                <path id="prefix__Path_3002" d="M219.454 357.805c-.543-.028-.223-.2 0-.338-.377-.834-9.38-1.152-11.224-2.167a35.75 35.75 0 0 0 4.858 3.015c1.074.162 6.243 1.214 6.366-.51z" class="prefix__cls-2" data-name="Path 3002" transform="translate(-160.552 -341.938)"/>
                <path id="prefix__Path_3003" d="M207.87 354.889c0 .136.119.261.33.377-.207-.172-.33-.305-.33-.377z" class="prefix__cls-2" data-name="Path 3003" transform="translate(-160.522 -341.903)"/>
                <path id="prefix__Path_3004" d="M210.054 357.885c0-1.955-2-.464-2 .144.535.497 2 1.322 2-.144z" class="prefix__cls-2" data-name="Path 3004" transform="translate(-160.537 -342.074)"/>
                <path id="prefix__Path_3005" d="M208.957 351.862c0-.437-3.721-2.349-1.415.425-.242.102 1.415.997 1.415-.425z" class="prefix__cls-2" data-name="Path 3005" transform="translate(-160.431 -341.56)"/>
                <path id="prefix__Path_3006" d="M211.969 349.457a2.3 2.3 0 0 0-1.791.563c0 2.162 4.033.74 5.242-.245a17.4 17.4 0 0 0-1.235 1.714c.623-1.038 2.081 1.306 2.005 1.215-.315.038-2.477-1.237-2.477-.506 0 .183.1 2.2-.707 2.2.441 0 7.663.784 7.663-.566 0-1.044 1.384-3.674 1.461-4.464 1.7-1.655 4.332-2.033 5.57-2.655a2.306 2.306 0 0 0-.146.82 2.053 2.053 0 0 0 1.77.566c0 2.7-5.12 1.188-5.12 3.106 0 1.687 3.6.883 4.363.934-.3 1.34-3.213.092-3.373 1.411.257.115 5.278 1.148 5.189 1.045 2.228 2.595 5.873 7.669 8.322 8.616-.135 1.053-1.465-.284-2.075 0a3.717 3.717 0 0 0 2.547 1.216c-.977 3.658-2.755 13 4.647 13 .4 0 2.3-7.2 4.078-8.054 1.481-.844 8.008-3.129 10.256-5.283a3.374 3.374 0 0 1-2.594-.932q.924-.28.284-1.074c.145.106 2.829 2.041 2.829 1.074 0-1.506-1.85-2.43-2.359-3.532q1.106-.107 1.605 1.273c1.322 0-.582-1.889-.9-2.068 4.289-.425 1.844-1.852 1.844-4.856 0-1.022 2.122.231 2.122-.847 0-1.3-1.439-1.256-2.24-1.7.843-1.693 5.894-6.481 5.894-6.584 0-3.449-8.186 2.257-8.2 2.26.009-.038 2.684-3.3 1-3.3q-1.422.743-2.773 1.611a11.374 11.374 0 0 1 .885-1.416 44.226 44.226 0 0 1-4.777 0c.966-.008 7.32.339 7.537-1.469-4.824-1.378-12.512-3.092-17.143-.424.823 1.37-2.208.059.872 1.893-1.379-.257-10.841-.917-13.69 1.754a1.727 1.727 0 0 0-.386-.68 6.951 6.951 0 0 0 3.937-1.494c0-4.974-19.142 1.192-19.8 1.358.505 1.22.119-.234 1.884.253-3.762 1.371.379.027-.991 1.185.931 1.424 5.3.376 6.485.17-1.139 1.7-3.369-.16-1.7 1.83-.7-.172-2.948-.452-2.893-.535-.68.142.7.917 1.156 1.388a.792.792 0 0 0-.348.236c-.267.3-1.832-1.752-2.158-2.107a28.272 28.272 0 0 0-3.795-1.83 1.945 1.945 0 0 0 .075.46 3.574 3.574 0 0 0-.664.387.645.645 0 0 0 .967.451c-.048.059-2.462 1.218-.614 1.218-2.437.003 1.074.97 2.46 1.414z" class="prefix__cls-2" data-name="Path 3006" transform="translate(-160.59 -340.707)"/>
                <path id="prefix__Path_3007" d="M213.974 347.947l.02.023c.106.058.119.059-.02-.023z" class="prefix__cls-2" data-name="Path 3007" transform="translate(-161.037 -341.318)"/>
                <path id="prefix__Path_3008" d="M216.367 372.849a1.282 1.282 0 0 0 .051.14c.021-.094.009-.147-.051-.14z" class="prefix__cls-2" data-name="Path 3008" transform="translate(-161.238 -343.418)"/>
                <path id="prefix__Path_3009" d="M218.647 375.066c-.73-.706-2.007-1.249-2.354-2.064-.12.556-1.4 2.593-1.418 2.912q1.166-.488 1.178.564c1.337 0 3.609-.497 2.594-1.412z" class="prefix__cls-2" data-name="Path 3009" transform="translate(-161.113 -343.431)"/>
                <path id="prefix__Path_3010" d="M218.086 377.015c-.31 2.192.486-.03 0 0z" class="prefix__cls-2" data-name="Path 3010" transform="translate(-161.377 -343.769)"/>
                <path id="prefix__Path_3011" d="M216.29 360.592h.071c.061-.155.021-.131-.071 0z" class="prefix__cls-2" data-name="Path 3011" transform="translate(-161.232 -342.375)"/>
                <path id="prefix__Path_3012" d="M232.186 370.912c0-1.083-5.914-6.244-6.414-6.442.566-3.89-10.351-1.573-10.475-1.183-.584-.335.409-2.216.737-2.686-4.769.038-1.769 3.743-2.641 4.151.114.968 4.494 1.892 6.932 2.529-.2.19-.34.437-.167.437a.532.532 0 0 0 .449-.363 3.972 3.972 0 0 1 1.3.476c4.508 5.5-1.037 1.69-1.037 5.4 0-.709 7.077 3.814 7.969 3.814q1.119-1.261-1.485-2.317c.934.041 1.544.991 2.547 1.13.5-1.69-1.7-4.327-2.075-4.577 1.022 0 1.839 1.612 2.828 1.612-.314-.003 1.532-2.143 1.532-1.981z" class="prefix__cls-2" data-name="Path 3012" transform="translate(-160.975 -342.385)"/>
                <path id="prefix__Path_3013" d="M221.44 376.44c.236.225.307.225.544 0-.284-.17-.308-.368-.544 0z" class="prefix__cls-2" data-name="Path 3013" transform="translate(-161.666 -343.703)"/>
                <path id="prefix__Path_3014" d="M217.141 372.69a.464.464 0 0 0 .471.451c-.165-.253-.165-.618-.471-.451z" class="prefix__cls-2" data-name="Path 3014" transform="translate(-161.304 -343.401)"/>
                <path id="prefix__Path_3015" d="M212.428 345.329c-.028.005-.028.006 0 0z" class="prefix__cls-2" data-name="Path 3015" transform="translate(-160.905 -341.097)"/>
                <path id="prefix__Path_3016" d="M215.47 348.5a1.393 1.393 0 0 1 .278-.023.724.724 0 0 0-.278.023z" class="prefix__cls-2" data-name="Path 3016" transform="translate(-161.163 -341.362)"/>
                <path id="prefix__Path_3017" d="M239.28 367.48c1.156-3-.437-.06 0 0z" class="prefix__cls-2" data-name="Path 3017" transform="translate(-163.164 -342.852)"/>
                <path id="prefix__Path_3018" d="M235.6 395.46a17.807 17.807 0 0 1 3.964 1.034 35.368 35.368 0 0 1-1.582-4.762c.005-.17-2.382 2.636-2.382 3.728z" class="prefix__cls-2" data-name="Path 3018" transform="translate(-162.861 -345.01)"/>
                <path id="prefix__Path_3019" d="M239.934 396.933a.624.624 0 0 0 .044.1c.122-.004.087-.041-.044-.1z" class="prefix__cls-2" data-name="Path 3019" transform="translate(-163.226 -345.449)"/>
                <path id="prefix__Path_3020" d="M181.422 388.951c.456.809.826 2.336.826.906 0-.916-.441-1.069-.826-.906z" class="prefix__cls-2" data-name="Path 3020" transform="translate(-158.291 -344.771)"/>
                <path id="prefix__Path_3021" d="M289.89 406.055c-1.973-.481-1.771 1.166 0 0z" class="prefix__cls-2" data-name="Path 3021" transform="translate(-167.321 -346.211)"/>
                <path id="prefix__Path_3022" d="M285.621 402.5c1.19-2.869-1.513-.355 0 0z" class="prefix__cls-2" data-name="Path 3022" transform="translate(-167.039 -345.804)"/>
                <path id="prefix__Path_3023" d="M297.856 409.006c-3.083-1.087-.767.5 0 0z" class="prefix__cls-2" data-name="Path 3023" transform="translate(-167.98 -346.435)"/>
                <path id="prefix__Path_3024" d="M303.946 408.488c-3.1.637-.2 1.214 0 0z" class="prefix__cls-2" data-name="Path 3024" transform="translate(-168.504 -346.424)"/>
                <path id="prefix__Path_3025" d="M331 361c-1.3-1.254-1.218 1.195 0 0z" class="prefix__cls-2" data-name="Path 3025" transform="translate(-170.827 -342.387)"/>
                <path id="prefix__Path_3026" d="M234.977 397.806c-1.491-1.031 0 .364 0 0z" class="prefix__cls-2" data-name="Path 3026" transform="translate(-162.752 -345.49)"/>
            </g>
            <g id="prefix__Group_620" data-name="Group 620" transform="translate(205.808 345.305)">
                <g id="prefix__Group_612" data-name="Group 612" transform="translate(57.182)">
                    <g id="prefix__Group_600" data-name="Group 600" transform="translate(39.63 188.815)">
                        <path id="prefix__Path_3027" d="M335.845 566.733s-2.833 2.627-9.292 4.272c-1.422.363-2.956-.122-2.956 2.224h7.839l6.52-1.127v1.127h3.522s.98-5.759-1.077-6.5z" class="prefix__cls-3" data-name="Path 3027" transform="translate(-323.597 -562.596)"/>
                        <path id="prefix__Path_3028" d="M337.37 562.215l-.4 4.137a3.983 3.983 0 0 0 4.314.144l.242-.144 1.463-4.137z" class="prefix__cls-6" data-name="Path 3028" transform="translate(-324.725 -562.215)"/>
                    </g>
                    <g id="prefix__Group_601" data-name="Group 601" transform="translate(70.961 188.815)">
                        <path id="prefix__Path_3029" d="M370.061 566.733s-2.833 2.627-9.292 4.272c-1.422.363-2.956-.122-2.956 2.224h7.839l6.52-1.127v1.127h3.522s.98-5.759-1.077-6.5z" class="prefix__cls-3" data-name="Path 3029" transform="translate(-357.813 -562.596)"/>
                        <path id="prefix__Path_3030" d="M371.585 562.215l-.4 4.137a3.983 3.983 0 0 0 4.314.144l.242-.144 1.463-4.137z" class="prefix__cls-6" data-name="Path 3030" transform="translate(-358.941 -562.215)"/>
                    </g>
                    <path id="prefix__Path_3031" d="M349.487 449.148h-9.019L337.3 553.669h6.094L361.3 468.6z" class="prefix__cls-3" data-name="Path 3031" transform="translate(-285.122 -363.864)"/>
                    <path id="prefix__Path_3032" d="M347.415 449.148l21.079 104.52h6.706l-2.751-104.52z" class="prefix__cls-3" data-name="Path 3032" transform="translate(-285.975 -363.864)"/>
                    <g id="prefix__Group_607" data-name="Group 607" transform="translate(70.614 105.378)">
                        <g id="prefix__Group_602" data-name="Group 602" transform="translate(8.339)">
                            <path id="prefix__Path_3033" d="M366.548 476.844l2.022-.143a3.557 3.557 0 0 1 .939-2.462 5.076 5.076 0 0 1 3.739-1.2 5.693 5.693 0 0 1 4.033 1.189 2.437 2.437 0 0 1 .738 1.7l2.024.115a4.288 4.288 0 0 0-1.257-3.122c-1.186-1.213-3.048-1.829-5.537-1.829a7 7 0 0 0-5.238 1.838 5.438 5.438 0 0 0-1.463 3.914z" class="prefix__cls-3" data-name="Path 3033" transform="translate(-366.542 -471.093)"/>
                        </g>
                        <g id="prefix__Group_605" data-name="Group 605" transform="translate(0 3.935)">
                            <path id="prefix__Rectangle_158" d="M0 0H30.183V19.42H0z" class="prefix__cls-7" data-name="Rectangle 158" transform="rotate(180 15.091 11.793)"/>
                            <g id="prefix__Group_604" data-name="Group 604">
                                <g id="prefix__Group_603" data-name="Group 603">
                                    <path id="prefix__Path_3034" d="M371.423 493.632c0 1.185.563 1.32 1.259 1.32s1.259-.135 1.259-1.32v-4.12a78.145 78.145 0 0 0 13.676-2.449v15.319c0 1.369-.529 2.478-1.333 2.478h-27.516c-.8 0-1.333-1.109-1.333-2.478v-15.269a90.5 90.5 0 0 0 13.988 2.369z" class="prefix__cls-4" data-name="Path 3034" transform="translate(-357.435 -476.374)"/>
                                    <path id="prefix__Path_3035" d="M358.768 475.39h27.516c.8 0 1.333 1.109 1.333 2.477v7.433a46.756 46.756 0 0 1-13.676 2.325v-1.005c0-1.185-.563-1.319-1.259-1.319s-1.259.135-1.259 1.319v1a48.186 48.186 0 0 1-13.988-2.321v-7.431c0-1.368.529-2.478 1.333-2.478z" class="prefix__cls-3" data-name="Path 3035" transform="translate(-357.435 -475.39)"/>
                                </g>
                            </g>
                        </g>
                        <g id="prefix__Group_606" data-name="Group 606" transform="translate(13.594 16.716)">
                            <path id="prefix__Path_3036" d="M372.281 492.124v-1.276a.546.546 0 0 1 .546-.546h2.184a.547.547 0 0 1 .546.546v1.276a.547.547 0 0 1-.546.546h-2.184a.546.546 0 0 1-.546-.546zm.546-1.666a.39.39 0 0 0-.39.39v1.276a.39.39 0 0 0 .39.39h2.184a.39.39 0 0 0 .39-.39v-1.276a.39.39 0 0 0-.39-.39z" class="prefix__cls-3" data-name="Path 3036" transform="translate(-372.281 -489.429)"/>
                            <path id="prefix__Path_3037" d="M373.916 491.261a.136.136 0 0 0 .14.131.136.136 0 0 0 .141-.131v-1.781a.136.136 0 0 0-.141-.131.136.136 0 0 0-.14.131z" class="prefix__cls-3" data-name="Path 3037" transform="translate(-372.419 -489.349)"/>
                        </g>
                    </g>
                    <g id="prefix__Group_608" data-name="Group 608" transform="translate(0 71.248)">
                        <path id="prefix__Path_3038" d="M291.535 435.835c-.312.248-1.464 1-4.26 1.233-2.508.209-7.85-.884-6.831 1.594 2.4 1.3 5.066 3.107 5.066 3.107 1.531.642 4.242-.025 5.854-.76l4.679-2.856s.4-2.631.443-2.752l-1.072-.437a12.893 12.893 0 0 1-3.879.871z" class="prefix__cls-8" data-name="Path 3038" transform="translate(-280.317 -433.916)"/>
                        <path id="prefix__Path_3039" d="M291.24 436.842a1.985 1.985 0 0 1-.278.3c.333.135.654.285.968.445 1.314.036 2.626.112 3.939.161-.081-.757-.192-1.821-.187-1.9l-8.534-2.032s-.69.9.87 1.866a8.72 8.72 0 0 0 3.222 1.16z" class="prefix__cls-8" data-name="Path 3039" transform="translate(-280.88 -433.819)"/>
                    </g>
                    <path id="prefix__Path_3040" d="M372.944 462.315l-2.837 6.237s.61 3.427 1.865 4.764a1.337 1.337 0 0 0 1.485.3c1.181-.489 3.908-1.668 4.359-2.317a1.28 1.28 0 0 0 .139-1.111l-.826-2.747-.1-6.4z" class="prefix__cls-8" data-name="Path 3040" transform="translate(-287.889 -364.867)"/>
                    <g id="prefix__Group_610" data-name="Group 610" transform="translate(60.432)">
                        <path id="prefix__Path_3041" d="M354.957 380.081l-.094 8.356 7.445-.4.47-12.954z" class="prefix__cls-6" data-name="Path 3041" transform="translate(-347.036 -357.618)"/>
                        <g id="prefix__Group_609" data-name="Group 609" transform="translate(2.937 4.495)">
                            <path id="prefix__Path_3042" d="M353.265 379.659a4.493 4.493 0 0 1-2.509-.6c-3-4.363.417-16.126.417-16.126l4.8-2.019 6.093 3.8.347 7.882a6.4 6.4 0 0 1-2.72 5.437 12.49 12.49 0 0 1-6.428 1.626z" class="prefix__cls-6" data-name="Path 3042" transform="translate(-349.523 -360.918)"/>
                        </g>
                        <path id="prefix__Path_3043" d="M353.723 375.121c-1.541.814-3.479 1.228-4.306.263" class="prefix__cls-9" data-name="Path 3043" transform="translate(-346.577 -357.621)"/>
                        <ellipse id="prefix__Ellipse_155" cx=".501" cy=".459" data-name="Ellipse 155" rx=".501" ry=".459" transform="translate(4.749 11.939)"/>
                        <path id="prefix__Path_3044" d="M360.1 368.772c-.334-1.325.571-4.38-.776-4.159-.984.161-4.355.3-5.489.3-2.7 0-7.52-1.058-7.52-5.171a3.742 3.742 0 0 1 2.526-3.625c1.24-.517 2.64.971 3.908 1.414 2.977 1.04 9.119 1.883 10.692 1.557a3.637 3.637 0 0 1 3.79 2.539c.3 2.385-1.294 6.02-2.476 8.316a12.621 12.621 0 0 1-2.7 3.532z" class="prefix__cls-3" data-name="Path 3044" transform="translate(-346.315 -356.009)"/>
                        <path id="prefix__Path_3045" d="M364.865 370.241a2.035 2.035 0 0 0-2.519.225c-.788.656-.939 1.619-.336 2.151a2.034 2.034 0 0 0 2.518-.224c.788-.657.939-1.62.337-2.152z" class="prefix__cls-6" data-name="Path 3045" transform="translate(-347.608 -357.181)"/>
                    </g>
                    <path id="prefix__Path_3046" d="M353.785 386.8a21.454 21.454 0 0 1 8.738 1.79 21.018 21.018 0 0 1 11.77 14.543c2.368 10.059 6.339 33.923-2.765 54.843a45.346 45.346 0 0 1-6.094 0l-.975-49.316.69 35.227h-28.234v-22.714s-.732 5.131-7.556 9.868-34.19 5.2-34.19 5.2V430.9s24.2-8.328 27.853-11.1 11.552-22.764 11.552-22.764a18.04 18.04 0 0 1 12.35-9.584 34.016 34.016 0 0 1 6.861-.652z" class="prefix__cls-10" data-name="Path 3046" transform="translate(-281.569 -358.606)"/>
                    <g id="prefix__Group_611" data-name="Group 611" transform="translate(78.862 51.182)">
                        <path id="prefix__Path_3047" d="M367.107 445.872l-.665-33.945.731-.021.672 33.967z" class="prefix__cls-3" data-name="Path 3047" transform="translate(-366.442 -411.905)"/>
                    </g>
                    <path id="prefix__Path_3048" d="M362.4 384.2l.459 2.745-8.556-.016.56-2.729z" class="prefix__cls-10" data-name="Path 3048" transform="translate(-286.556 -358.387)"/>
                </g>
                <g id="prefix__Group_619" data-name="Group 619" transform="translate(0 15.489)">
                    <path id="prefix__Path_3049" d="M241.371 408.57s.261 31.2 8.4 30.829 13.49-25 13.49-25l-3.3-.967-7.894 14.9s1.184-4.856-.82-13.793-9.876-5.969-9.876-5.969z" class="prefix__cls-8" data-name="Path 3049" transform="translate(-219.85 -375.891)"/>
                    <g id="prefix__Group_613" data-name="Group 613" transform="translate(14.66 29.627)">
                        <path id="prefix__Path_3050" d="M242.3 405.28l-.371.561c.091.06 9.061 6.088 9.061 15.931v40.116h-16.427l.523-30.89c-.223.176-.45.348-.682.513l-.526 31.051h17.787v-40.79c0-10.2-9.27-16.432-9.365-16.492z" class="prefix__cls-3" data-name="Path 3050" transform="translate(-233.878 -405.28)"/>
                    </g>
                    <g id="prefix__Group_614" data-name="Group 614" transform="translate(12.934 78.902)">
                        <rect id="prefix__Rectangle_159" width="21.461" height="16.013" data-name="Rectangle 159" rx="8.006" style="fill:#dbdbdb"/>
                        <path id="prefix__Path_3051" d="M253.453 466.766v-4.879a2.8 2.8 0 0 0-2.794-2.794h-15.872a2.8 2.8 0 0 0-2.794 2.794v4.879z" class="prefix__cls-7" data-name="Path 3051" transform="translate(-231.993 -459.094)"/>
                        <path id="prefix__Path_3052" d="M252.659 475.106c-1.339 0-2.434-.574-2.434-1.912v-12.188c0-1.339 1.1-1.912 2.434-1.912a2.418 2.418 0 0 1 2.433 1.912v11.667a2.163 2.163 0 0 1-2.433 2.433z" class="prefix__cls-3" data-name="Path 3052" transform="translate(-233.53 -459.094)"/>
                        <path id="prefix__Path_3053" d="M240.89 469.87a.741.741 0 0 1-.738-.739v-3.722a.741.741 0 0 1 .738-.738.741.741 0 0 1 .739.738v3.722a.741.741 0 0 1-.739.739z" data-name="Path 3053" transform="translate(-232.681 -459.564)" style="fill:#4e4d4d"/>
                    </g>
                    <path id="prefix__Path_3054" d="M261.379 413.624l-1.46-5.94s1.1-2.907 2.423-3.873a1.2 1.2 0 0 1 1.353-.018c.955.625 3.154 2.11 3.442 2.753a1.141 1.141 0 0 1-.061 1l-1.177 2.274-1.078 4.2z" class="prefix__cls-8" data-name="Path 3054" transform="translate(-221.414 -375.511)"/>
                    <g id="prefix__Group_617" data-name="Group 617">
                        <path id="prefix__Path_3055" d="M232.538 400.077c5.747 0 7.093.841 7.093.841s7.368 9.134 9.934 15.041a8.456 8.456 0 0 1-.038 6.919c-4.525 9.753-3.949 28.531-3.949 28.531H228.79c.744-13.997-13.701-48.676 3.748-51.332z" class="prefix__cls-10" data-name="Path 3055" transform="translate(-218.374 -375.215)"/>
                        <path id="prefix__Path_3056" d="M248.967 492.722l-2.986-36.586h-7.1l-8.6 10.211a70.789 70.789 0 0 0-.652 26.376z" class="prefix__cls-3" data-name="Path 3056" transform="translate(-218.778 -379.942)"/>
                        <g id="prefix__Group_616" data-name="Group 616" transform="translate(8.382)">
                            <path id="prefix__Path_3057" d="M241.4 395.176l.015 11.012-6.61-7.205.712-10.25z" class="prefix__cls-6" data-name="Path 3057" transform="translate(-227.678 -374.258)"/>
                            <path id="prefix__Path_3058" d="M241.845 377.752c-4.579.623-6.857 6.492-6.857 6.492l.051 17.371-7.939-6.865a61.9 61.9 0 0 1 1.382-16.376c1.7-5.377 8.551-6.793 13.362-4.17 2.34 1.276 3.73 3.779 4.555 6.266a19.8 19.8 0 0 1 .472 10.37l-2.723 12.746-3.39-3.36a13.858 13.858 0 0 1-.016-6.384c1.746-6.396 4.177-16.507 1.103-16.09z" class="prefix__cls-3" data-name="Path 3058" transform="translate(-227.022 -372.925)"/>
                            <path id="prefix__Path_3059" d="M234.22 385.524a1.619 1.619 0 0 1 2.146.211 1.394 1.394 0 0 1 .287 2.008 1.617 1.617 0 0 1-2.145-.21 1.4 1.4 0 0 1-.288-2.009z" class="prefix__cls-6" data-name="Path 3059" transform="translate(-227.602 -373.96)"/>
                            <g id="prefix__Group_615" data-name="Group 615" transform="translate(7.834 3.565)">
                                <path id="prefix__Path_3060" d="M243.375 394.319a3.568 3.568 0 0 0 2.138-.557c2.557-4.075-.355-15.059-.355-15.059l-4.087-1.885-5.193 3.549-.3 7.361a6.183 6.183 0 0 0 2.318 5.077 9.922 9.922 0 0 0 5.479 1.514z" class="prefix__cls-6" data-name="Path 3060" transform="translate(-235.578 -376.818)"/>
                            </g>
                            <path id="prefix__Path_3061" d="M243.241 377.366c.979 3.283-7.72 7.093-7.72 7.093l-2.186-4.1 3.993-4.9 5.049.807a2.907 2.907 0 0 1 .864 1.1z" class="prefix__cls-3" data-name="Path 3061" transform="translate(-227.554 -373.139)"/>
                            <path id="prefix__Path_3062" d="M244.212 378.233c.182 1.295 2.2 2.866 2.2 2.866l.19-1.548-.461-1.088-1.037-.576s-1.074-.949-.892.346z" class="prefix__cls-3" data-name="Path 3062" transform="translate(-228.47 -373.315)"/>
                            <circle id="prefix__Ellipse_156" cx=".346" cy=".346" r=".346" data-name="Ellipse 156" transform="translate(12.971 12.035)"/>
                            <circle id="prefix__Ellipse_157" cx=".346" cy=".346" r=".346" data-name="Ellipse 157" transform="translate(16.48 12.035)"/>
                            <path id="prefix__Path_3063" d="M245.335 390.9c0 .562-.907 1.01-2.032 1.01s-2.031-.459-2.031-1.01" class="prefix__cls-9" data-name="Path 3063" transform="translate(-228.223 -374.44)"/>
                        </g>
                        <path id="prefix__Path_3064" d="M237.536 492.722c3.006-15.054 5.421-28.979 5.827-36.586h-15.08s-12.864 5.391-10 36.586z" class="prefix__cls-3" data-name="Path 3064" transform="translate(-217.867 -379.942)"/>
                    </g>
                    <g id="prefix__Group_618" data-name="Group 618" transform="translate(57.519 55.03)">
                        <path id="prefix__Path_3065" d="M284.414 435.612a5.79 5.79 0 0 0 3.382.167c1.888-.31 5.6-2.178 5.348-.037-1.505 1.473-3.1 3.4-3.1 3.4-1 .795-3.126.782-4.46.508l-4.019-1.364s-.827-1.994-.882-2.081l.7-.546a9.258 9.258 0 0 0 3.031-.047z" class="prefix__cls-6" data-name="Path 3065" transform="translate(-280.684 -433.167)"/>
                        <path id="prefix__Path_3066" d="M285.372 436.174a1.627 1.627 0 0 0 .266.184c-.218.168-.424.348-.623.533-.96.276-1.909.583-2.865.871-.093-.612-.226-1.47-.246-1.528l5.868-3.21s.69.577-.263 1.633a6.345 6.345 0 0 1-2.137 1.517z" class="prefix__cls-6" data-name="Path 3066" transform="translate(-280.787 -433.023)"/>
                    </g>
                    <path id="prefix__Path_3067" d="M227.25 406.768c6.011-6.2 17.475 9.132 21.59 13.649a8.689 8.689 0 0 0 2.7 2l27.489 10.7-1.728 2.841-30.311-6.494a11.811 11.811 0 0 1-3.34-1.492c-5.724-3.714-22.387-15.03-16.4-21.204z" class="prefix__cls-6" data-name="Path 3067" transform="translate(-218.551 -375.656)"/>
                </g>
            </g>
            <g id="prefix__Group_622" data-name="Group 622" transform="translate(227.812 271.79)">
                <path id="prefix__Path_3068" d="M277.811 275.724c-19.833 0-35.912 13.834-35.912 30.9 0 9.818 5.323 18.565 13.62 24.225l-12.228 24.748 34.521-18.073c19.834 0 35.912-13.834 35.912-30.9s-16.078-30.9-35.913-30.9z" class="prefix__cls-3" data-name="Path 3068" transform="translate(-241.899 -275.724)"/>
                <g id="prefix__Group_621" data-name="Group 621" transform="translate(10.631 26.514)">
                    <circle id="prefix__Ellipse_158" cx="4.542" cy="4.542" r="4.542" class="prefix__cls-13" data-name="Ellipse 158"/>
                    <circle id="prefix__Ellipse_159" cx="4.542" cy="4.542" r="4.542" class="prefix__cls-13" data-name="Ellipse 159" transform="translate(19.996)"/>
                    <circle id="prefix__Ellipse_160" cx="4.542" cy="4.542" r="4.542" class="prefix__cls-13" data-name="Ellipse 160" transform="translate(40.36)"/>
                </g>
            </g>
            <g id="prefix__Group_624" data-name="Group 624" transform="translate(268.187 309.793)">
                <path id="prefix__Path_3069" d="M311.586 317.227c14.135 0 25.594 9.859 25.594 22.02 0 7-3.794 13.231-9.706 17.265l8.714 17.637-24.6-12.881c-14.135 0-25.594-9.859-25.594-22.021s11.457-22.02 25.592-22.02z" class="prefix__cls-7" data-name="Path 3069" transform="translate(-285.992 -317.227)"/>
                <g id="prefix__Group_623" data-name="Group 623" transform="translate(8.451 18.575)">
                    <circle id="prefix__Ellipse_161" cx="3.245" cy="3.245" r="3.245" class="prefix__cls-13" data-name="Ellipse 161"/>
                    <circle id="prefix__Ellipse_162" cx="3.245" cy="3.245" r="3.245" class="prefix__cls-13" data-name="Ellipse 162" transform="translate(14.283)"/>
                    <circle id="prefix__Ellipse_163" cx="3.245" cy="3.245" r="3.245" class="prefix__cls-13" data-name="Ellipse 163" transform="translate(28.829)"/>
                </g>
            </g>
        </g>
    </g>
</svg>
