<svg xmlns="http://www.w3.org/2000/svg" width="295.557" height="344.532" viewBox="0 0 295.557 344.532">
    <defs>
        <style>
            .prefix__cls-2{fill:#dfc822}.prefix__cls-3{fill:#1d1d1b}.prefix__cls-4{fill:#f0da3b}.prefix__cls-6{fill:#dda37c}.prefix__cls-7{fill:#f4bc8f}.prefix__cls-8{fill:#eb9d68}.prefix__cls-9{fill:#878787}.prefix__cls-10{fill:#f5bc8e}
        </style>
    </defs>
    <g id="prefix___2" data-name="2" transform="translate(0 -2322.806)">
        <ellipse id="prefix__Ellipse_193" cx="147.778" cy="30.524" data-name="Ellipse 193" rx="147.778" ry="30.524" transform="translate(0 2606.291)" style="fill:#c6c6c6;opacity:.5"/>
        <g id="prefix__Illustration" transform="translate(-142.509 2059.317)">
            <g id="prefix__Group_557" data-name="Group 557" transform="translate(163.83 340.323)">
                <ellipse id="prefix__Ellipse_148" cx="110.796" cy="94.855" class="prefix__cls-2" data-name="Ellipse 148" rx="110.796" ry="94.855" transform="translate(25.335 13.961)"/>
                <path id="prefix__Path_2842" d="M319.5 367.239c3.317-26.423 20.474-32.34 20.474-32.34l8 41.811s-31.791 16.953-28.474-9.471z" class="prefix__cls-2" data-name="Path 2842" transform="translate(-148.213 -334.899)"/>
                <path id="prefix__Path_2843" d="M372.944 407.5h29.239c9.347 10.278 8.372 25.241 6.119 35.516a15.276 15.276 0 0 1-14.38 11.93l-27.662 1.038z" class="prefix__cls-2" data-name="Path 2843" transform="translate(-144.643 -329.384)"/>
                <path id="prefix__Path_2844" d="M231.378 505.657v23.277a4.311 4.311 0 0 0 4.311 4.311h20.116a4.311 4.311 0 0 0 4.311-4.311v-25.576z" class="prefix__cls-2" data-name="Path 2844" transform="translate(-154.889 -322.103)"/>
                <path id="prefix__Path_2845" d="M316.564 505.657v23.277a4.31 4.31 0 0 0 4.31 4.311h20.117a4.311 4.311 0 0 0 4.31-4.311v-25.576z" class="prefix__cls-2" data-name="Path 2845" transform="translate(-148.418 -322.103)"/>
                <g id="prefix__Group_556" data-name="Group 556" transform="translate(0 49.844)">
                    <path id="prefix__Path_2846" d="M162.693 383.823a16.627 16.627 0 0 0 16.023 16.541c4.485 6.987 13.765 9.2 21.426 6.876a18.524 18.524 0 0 0 9.789-6.76c1.986-2.845 2.889-6.863.211-9.544-.395-.395-.433.33-.183.58 3.693 3.7-.811 9.367-3.89 11.741a20 20 0 0 1-9.046 3.848c-6.321 1.006-13.146-.956-17.226-6.076q-.26-.326-.495-.668a16.025 16.025 0 0 0 3.436-.436c3.512-.838 7.448-3.115 8.392-6.879a6.392 6.392 0 0 0-3.85-7.255c-3.778-1.722-7.736.176-9.536 3.758a10.659 10.659 0 0 0 .491 10 15.459 15.459 0 0 1-14.952-15.349c-.004-.311-.595-.869-.59-.377zm16.115 15.747a9.712 9.712 0 0 1 .053-10.413 6.749 6.749 0 0 1 9.127-2.278c4.311 2.556 2.766 7.5-.589 10.01a14.614 14.614 0 0 1-8.591 2.68z" class="prefix__cls-2" data-name="Path 2846" transform="translate(-160.106 -381.041)"/>
                    <path id="prefix__Path_2847" d="M194.322 410.9c-6.677 0-13.044-2.861-16.821-7.839a19.308 19.308 0 0 1-17.212-19.022 2.712 2.712 0 0 1 2.668-2.809h.031a3.245 3.245 0 0 1 3.063 3.127 12.9 12.9 0 0 0 8.461 12.045 12.483 12.483 0 0 1 1.1-7.825c2.526-5.028 8.08-7.156 12.92-4.952a9.011 9.011 0 0 1 5.286 10.239c-1.111 4.427-5.148 7.155-8.97 8.392a16.459 16.459 0 0 0 11.949 2.483 17.358 17.358 0 0 0 7.872-3.342c1.971-1.519 4.135-4.222 4.265-6.235a1.938 1.938 0 0 0-.625-1.629 3.266 3.266 0 0 1-.811-3.066 2.714 2.714 0 0 1 1.927-1.952 2.813 2.813 0 0 1 2.726.782c3.681 3.684 2.692 9.11.08 12.852a21.183 21.183 0 0 1-11.159 7.755 23.314 23.314 0 0 1-6.75.996zm-9.5-22.195a4.561 4.561 0 0 0-3.64 2.094 6.766 6.766 0 0 0-.606 6.269 11.4 11.4 0 0 0 5.457-2.068 5 5 0 0 0 2.182-3.795 2.284 2.284 0 0 0-1.364-1.918 3.951 3.951 0 0 0-2.031-.587zm27.151 1.168zm-46.508-5.894z" class="prefix__cls-2" data-name="Path 2847" transform="translate(-160.289 -381.224)"/>
                </g>
            </g>
            <circle id="prefix__Ellipse_149" cx="4.196" cy="4.196" r="4.196" class="prefix__cls-3" data-name="Ellipse 149" transform="translate(366.595 419.833)"/>
            <path id="prefix__Path_2848" d="M197.208 472.209a207 207 0 0 0 22.865 9.225c6.782.51 13.591.655 20.395.5a221.465 221.465 0 0 0 44.24-7.506 122.835 122.835 0 0 0 19.091-8.288 166.237 166.237 0 0 0 22.811-19.863 130.391 130.391 0 0 0 13.65-18.853 89.951 89.951 0 0 0 4.13-11.29 77.56 77.56 0 0 0 .727-8.49 81.047 81.047 0 0 0-1.629-9.111 103.5 103.5 0 0 0-6.536-13.811 40.484 40.484 0 0 1-8.563-18.654l-.486-10.352a31.147 31.147 0 0 1 .332-3.394 127.927 127.927 0 0 0-33.6-4.447c-61.192 0-110.8 42.468-110.8 94.856a82.168 82.168 0 0 0 3.412 23.437q4.871 3.186 9.961 6.041z" class="prefix__cls-4" data-name="Path 2848" transform="translate(5.329 6.41)"/>
            <path id="prefix__Path_2849" d="M314.328 356.949c-35.717-6.019-59.765 3.245-59.765 3.245l2.111 4.6s27.575-9.844 57.481-2.531z" data-name="Path 2849" transform="translate(10.702 6.945)" style="fill:#fced97"/>
            <g id="prefix__Group_570" data-name="Group 570" transform="translate(153.923 386.74)">
                <g id="prefix__Group_569" data-name="Group 569">
                    <g id="prefix__Group_558" data-name="Group 558">
                        <path id="prefix__Path_2850" d="M154.928 569.769l67.539-191.73h-3.846l-67.54 191.73z" class="prefix__cls-3" data-name="Path 2850" transform="translate(-151.082 -378.039)"/>
                    </g>
                    <g id="prefix__Group_559" data-name="Group 559" transform="translate(34.922)">
                        <path id="prefix__Path_2851" d="M187.385 569.769l67.539-191.73h-3.846l-67.54 191.73z" class="prefix__cls-3" data-name="Path 2851" transform="translate(-183.538 -378.039)"/>
                    </g>
                    <g id="prefix__Group_560" data-name="Group 560" transform="translate(50.042 49.772)">
                        <path id="prefix__Path_2852" d="M197.591 424.315v2.858l36.187-.018.618-2.859z" class="prefix__cls-3" data-name="Path 2852" transform="translate(-197.591 -424.296)"/>
                    </g>
                    <g id="prefix__Group_561" data-name="Group 561" transform="translate(57.523 31.194)">
                        <path id="prefix__Path_2853" d="M204.544 407.049v2.859l36.186-.018.619-2.859z" class="prefix__cls-3" data-name="Path 2853" transform="translate(-204.544 -407.03)"/>
                    </g>
                    <g id="prefix__Group_562" data-name="Group 562" transform="translate(63.709 12.617)">
                        <path id="prefix__Path_2854" d="M210.293 389.783v2.859l36.186-.018.618-2.859z" class="prefix__cls-3" data-name="Path 2854" transform="translate(-210.293 -389.764)"/>
                    </g>
                    <g id="prefix__Group_563" data-name="Group 563" transform="translate(43.451 68.588)">
                        <path id="prefix__Path_2855" d="M191.465 441.8v2.858l36.186-.018.618-2.859z" class="prefix__cls-3" data-name="Path 2855" transform="translate(-191.465 -441.785)"/>
                    </g>
                    <g id="prefix__Group_564" data-name="Group 564" transform="translate(37.265 87.404)">
                        <path id="prefix__Path_2856" d="M185.716 459.29v2.859l36.187-.018.618-2.859z" class="prefix__cls-3" data-name="Path 2856" transform="translate(-185.716 -459.272)"/>
                    </g>
                    <g id="prefix__Group_565" data-name="Group 565" transform="translate(29.404 106.953)">
                        <path id="prefix__Path_2857" d="M179.872 477.459l-1.462 2.859 36.19-.018.618-2.859z" class="prefix__cls-3" data-name="Path 2857" transform="translate(-178.409 -477.441)"/>
                    </g>
                    <g id="prefix__Group_566" data-name="Group 566" transform="translate(22.619 126.502)">
                        <path id="prefix__Path_2858" d="M173.566 495.628l-1.462 2.859 36.186-.018.619-2.859z" class="prefix__cls-3" data-name="Path 2858" transform="translate(-172.104 -495.61)"/>
                    </g>
                    <g id="prefix__Group_567" data-name="Group 567" transform="translate(16.266 145.616)">
                        <path id="prefix__Path_2859" d="M167.661 513.392l-1.462 2.859 36.186-.019.618-2.859z" class="prefix__cls-3" data-name="Path 2859" transform="translate(-166.199 -513.374)"/>
                    </g>
                    <g id="prefix__Group_568" data-name="Group 568" transform="translate(11.001 165.146)">
                        <path id="prefix__Path_2860" d="M162.768 531.544l-1.462 2.859 36.187-.018.618-2.859z" class="prefix__cls-3" data-name="Path 2860" transform="translate(-161.306 -531.526)"/>
                    </g>
                </g>
            </g>
            <g id="prefix__Group_575" data-name="Group 575" transform="translate(261.153 302.302)">
                <circle id="prefix__Ellipse_150" cx="29.999" cy="29.999" r="29.999" class="prefix__cls-4" data-name="Ellipse 150" transform="rotate(-4.055 59.927 2.122)"/>
                <g id="prefix__Group_574" data-name="Group 574" transform="translate(.851 .851)">
                    <g id="prefix__Group_573" data-name="Group 573">
                        <path id="prefix__Path_2862" d="M282.726 362.741a31.194 31.194 0 1 1 31.193-31.194 31.23 31.23 0 0 1-31.193 31.194zm0-60a28.8 28.8 0 1 0 28.8 28.8 28.835 28.835 0 0 0-28.8-28.797z" class="prefix__cls-2" data-name="Path 2862" transform="translate(-251.532 -300.353)"/>
                    </g>
                </g>
                <path id="prefix__Path_3343" d="M-253.063-160.349a1.68 1.68 0 0 0-1.675-1.675h-12.982a1.68 1.68 0 0 0-1.676 1.675 1.68 1.68 0 0 0 1.676 1.675h3.72a3.8 3.8 0 0 1 3.517 2.178h-7.236a1.68 1.68 0 0 0-1.676 1.675 1.68 1.68 0 0 0 1.676 1.675h7.236a5.225 5.225 0 0 1-.754 1.055 3.933 3.933 0 0 1-2.747 1.123h-3.72a1.7 1.7 0 0 0-1.675 1.725 1.731 1.731 0 0 0 .52 1.207l9.281 8.794a1.668 1.668 0 0 0 2.362-.017 1.669 1.669 0 0 0-.017-2.361l-.051-.051-6.248-5.913a7.156 7.156 0 0 0 4.64-2.111 7.08 7.08 0 0 0 1.927-3.451h2.211a1.68 1.68 0 0 0 1.675-1.675 1.68 1.68 0 0 0-1.675-1.675h-2.228a6.985 6.985 0 0 0-.938-2.178h3.166a1.683 1.683 0 0 0 1.692-1.675z" class="prefix__cls-2" data-name="Path 3343" transform="translate(293.283 182.586)"/>
            </g>
            <g id="prefix__Group_581" data-name="Group 581" transform="translate(218.757 263.489)">
                <g id="prefix__Group_577" data-name="Group 577" transform="translate(23.558 30.296)">
                    <path id="prefix__Path_2863" d="M247.1 305.57l-2.781-9.673a3.311 3.311 0 0 1-1.046.132 3.063 3.063 0 0 1-2.762-2.793 2.816 2.816 0 0 1-1.047-1.59l-6.229 2.93s2.87 10.728 6.937 14.353 17.228 13.647 17.228 13.647l2.464-.977z" class="prefix__cls-6" data-name="Path 2863" transform="translate(-233.234 -291.646)"/>
                    <g id="prefix__Group_576" data-name="Group 576" transform="translate(24.165 29.103)">
                        <path id="prefix__Path_2864" d="M258.887 319.966a5.1 5.1 0 0 0 2.365 1.565c1.491.606 4.961.958 3.867 2.276-1.714.334-3.686.931-3.686.931a5.639 5.639 0 0 1-3.433-1.581l-2.311-2.636s.256-1.683.254-1.764l.737-.062a8.282 8.282 0 0 0 2.207 1.271z" class="prefix__cls-6" data-name="Path 2864" transform="translate(-255.693 -318.694)"/>
                        <path id="prefix__Path_2865" d="M259.165 320.757a1.291 1.291 0 0 0 .113.237c-.229.018-.454.048-.677.086-.808-.228-1.624-.433-2.435-.652.194-.448.465-1.075.476-1.123l5.6.387s.25.681-.888.974a5.579 5.579 0 0 1-2.189.091z" class="prefix__cls-6" data-name="Path 2865" transform="translate(-255.657 -318.648)"/>
                    </g>
                </g>
                <g id="prefix__Group_578" data-name="Group 578" transform="translate(19.871)">
                    <path id="prefix__Path_2866" d="M237.182 278.991l-1.876 4.159-5.5-2.569 4.748-6.833z" class="prefix__cls-7" data-name="Path 2866" transform="translate(-229.806 -262.71)"/>
                    <path id="prefix__Path_2867" d="M243.68 268.862s-1.21 10.77-3.664 11.812-5.344-2.6-5.344-2.6l-2.754-6.38 8.74-3.764z" class="prefix__cls-7" data-name="Path 2867" transform="translate(-229.646 -263.152)"/>
                    <path id="prefix__Path_2868" d="M247.67 267.062s-1.868 3.737-7.265 2.063c-1.522.032-2.342 1.563-2.771 2.923-.5 1.576-.665.369-1.921 1.444l-2.2 3.149s-5.045-9.481 1.758-12.341 12.399 2.762 12.399 2.762z" class="prefix__cls-3" data-name="Path 2868" transform="translate(-229.661 -263.489)"/>
                    <path id="prefix__Path_2869" d="M235.839 271.263a1.355 1.355 0 0 1 1.433.883c.274.626.077 1.245-.44 1.383a1.355 1.355 0 0 1-1.433-.884c-.275-.626-.078-1.245.44-1.382z" class="prefix__cls-7" data-name="Path 2869" transform="translate(-229.391 -262.901)"/>
                    <path id="prefix__Path_2870" d="M238.508 275.579c.933.606 2.141.98 2.723.413" class="prefix__cls-8" data-name="Path 2870" transform="translate(-229.145 -262.571)"/>
                    <ellipse id="prefix__Ellipse_151" cx=".293" cy=".32" data-name="Ellipse 151" rx=".293" ry=".32" transform="rotate(-64.997 12.371 -3.142)"/>
                    <ellipse id="prefix__Ellipse_152" cx=".293" cy=".301" data-name="Ellipse 152" rx=".293" ry=".301" transform="rotate(-64.98 14.005 -4.892)"/>
                </g>
                <path id="prefix__Path_2871" d="M228.419 279.734c-13.571 8.042-8.4 41.26-8.4 41.26h20.636s.238-8.687.511-17.864c.207-6.95.862-14.18-1-18.131-2.599-5.446-8.378-7.262-11.747-5.265z" class="prefix__cls-3" data-name="Path 2871" transform="translate(-210.753 -262.315)"/>
                <path id="prefix__Path_2872" d="M234.343 300.011s3.075 10.671 7.211 14.217 16.028 13.105 16.028 13.105l3.907-.818-13.072-15.779-4.733-15.341z" class="prefix__cls-7" data-name="Path 2872" transform="translate(-209.591 -261.066)"/>
                <path id="prefix__Path_2873" d="M233.539 301.836l11.348-4.616-5.682-12.65-7.486 3.9z" class="prefix__cls-3" data-name="Path 2873" transform="translate(-209.791 -261.888)"/>
                <g id="prefix__Group_579" data-name="Group 579" transform="translate(0 127.638)">
                    <path id="prefix__Path_2874" d="M216.065 385.214s2.282 2.116 7.487 3.442c1.145.292 2.381-.1 2.381 1.793h-6.316l-5.253-.908v.908h-2.836s-.791-4.64.866-5.235z" class="prefix__cls-3" data-name="Path 2874" transform="translate(-211.339 -381.881)"/>
                    <path id="prefix__Path_2875" d="M215.432 382.116l.558 3.333a3.212 3.212 0 0 1-3.476.116l-.195-.116.283-3.333z" class="prefix__cls-7" data-name="Path 2875" transform="translate(-211.264 -382.116)"/>
                </g>
                <path id="prefix__Path_2876" d="M220.573 318.025s-2.027 6.944-2.436 23.908a24.065 24.065 0 0 1-2.508 9.863c-5.931 12.278-3.248 36.024-3.248 36.024h4.1l16.38-58.344-5.765-11.451z" class="prefix__cls-9" data-name="Path 2876" transform="translate(-211.306 -259.347)"/>
                <g id="prefix__Group_580" data-name="Group 580" transform="translate(22.284 129.644)">
                    <path id="prefix__Path_2877" d="M236.775 387.078s2.282 2.117 7.487 3.443c1.146.292 2.381-.1 2.381 1.791h-6.316l-5.252-.908v.908h-2.837s-.79-4.64.867-5.235z" class="prefix__cls-3" data-name="Path 2877" transform="translate(-232.049 -383.746)"/>
                    <path id="prefix__Path_2878" d="M236.142 383.981l.558 3.332a3.209 3.209 0 0 1-3.475.117l-.195-.117.282-3.332z" class="prefix__cls-7" data-name="Path 2878" transform="translate(-231.975 -383.981)"/>
                </g>
                <path id="prefix__Path_2879" d="M255.941 325.152l3.1 4.577c1.4 1.759 5 1.04 7.243-.095a.507.507 0 0 0 .06-.863 70.493 70.493 0 0 0-7.151-4.673z" class="prefix__cls-7" data-name="Path 2879" transform="translate(-207.951 -258.885)"/>
                <path id="prefix__Path_2880" d="M240.415 318.025l-2.028 71.969h-4.317s-6.078-20.015-4.749-33.824a22.348 22.348 0 0 0-1.639-11.01c-6.411-14.857-5.4-27.135-5.4-27.135z" class="prefix__cls-9" data-name="Path 2880" transform="translate(-210.512 -259.347)"/>
            </g>
            <g id="prefix__Group_588" data-name="Group 588" transform="translate(357.948 448.392)">
                <path id="prefix__Path_2881" d="M351.727 462.608l-6.791 12.792 7.483-.361.526-12.843z" class="prefix__cls-10" data-name="Path 2881" transform="translate(-340.381 -433.298)"/>
                <path id="prefix__Path_2882" d="M361.786 457.311l-6.274-.009-2.6 40.548h11.242z" data-name="Path 2882" transform="translate(-339.775 -433.67)" style="fill:#fff"/>
                <g id="prefix__Group_583" data-name="Group 583" transform="translate(20.11 141.122)">
                    <path id="prefix__Path_2883" d="M372.811 567.937a3.281 3.281 0 0 1 1.265 2.773c-.284 1.552-.686 5.192-.686 5.192h-1.59l.048-3.394c0-.222-3.418 3.394-4 3.394h-8.435s-.561-2.289 4.393-3.025 9.005-4.94 9.005-4.94z" class="prefix__cls-3" data-name="Path 2883" transform="translate(-359.393 -566.389)"/>
                    <g id="prefix__Group_582" data-name="Group 582" transform="translate(3.121)">
                        <path id="prefix__Path_2884" d="M368.935 566.5l-1.144 2.976a3.823 3.823 0 0 1-1.558 1.978 14.962 14.962 0 0 1-3.939 1.788c2.293 1.957 5.94-.086 8.028-1.532a5.108 5.108 0 0 0 2.04-2.955l.478-2.255z" class="prefix__cls-10" data-name="Path 2884" transform="translate(-362.294 -566.498)"/>
                    </g>
                </g>
                <g id="prefix__Group_585" data-name="Group 585" transform="translate(4.04 141.122)">
                    <path id="prefix__Path_2885" d="M357.875 567.937a3.284 3.284 0 0 1 1.266 2.773c-.284 1.552-.686 5.192-.686 5.192h-1.595l.05-3.394c-.005-.222-3.419 3.394-4 3.394h-8.437s-.561-2.289 4.393-3.025 9.009-4.94 9.009-4.94z" class="prefix__cls-3" data-name="Path 2885" transform="translate(-344.457 -566.389)"/>
                    <g id="prefix__Group_584" data-name="Group 584" transform="translate(3.122)">
                        <path id="prefix__Path_2886" d="M354 566.5l-1.144 2.976a3.824 3.824 0 0 1-1.558 1.978 14.965 14.965 0 0 1-3.938 1.788c2.292 1.957 5.94-.086 8.027-1.532a5.108 5.108 0 0 0 2.04-2.955l.478-2.255z" class="prefix__cls-10" data-name="Path 2886" transform="translate(-347.359 -566.498)"/>
                    </g>
                </g>
                <path id="prefix__Path_2887" d="M366.872 494.988s1.054 6.061-5.007 35.848c4.906 15.525-2.951 41.5-2.951 41.5h-5.726l-3.9-77.348z" class="prefix__cls-3" data-name="Path 2887" transform="translate(-340.05 -430.807)"/>
                <path id="prefix__Path_2888" d="M356.589 457.311l-2.035 49.2-6.742-2.886a72.36 72.36 0 0 0 2.749-22.066c1.032-9.278-4.233-4.391 2.216-22.254 2.402-2.005 3.812-1.994 3.812-1.994z" class="prefix__cls-9" data-name="Path 2888" transform="translate(-340.163 -433.669)"/>
                <path id="prefix__Path_2889" d="M355.151 453.083l.79 4.148a2.64 2.64 0 0 0 4 1.743l2.767-1.734-4.941-11.166z" class="prefix__cls-10" data-name="Path 2889" transform="translate(-339.605 -434.523)"/>
                <path id="prefix__Path_2890" d="M371.994 494.988s7.5 6.061 1.443 35.848c4.906 15.525.578 41.5.578 41.5h-5.141l-14.463-77.348z" class="prefix__cls-3" data-name="Path 2890" transform="translate(-339.661 -430.807)"/>
                <path id="prefix__Path_2891" d="M361.307 453.436s6.333 3.559 8.3 6.738c1.875 3.029 2.524 9.924 2.705 16.061.247 8.428 4.318 30.568 4.318 30.568h-16.977l-.424-48.2z" class="prefix__cls-9" data-name="Path 2891" transform="translate(-339.295 -433.964)"/>
                <path id="prefix__Path_2892" d="M349.738 441.456c3.841-.974 7.534 2.964 7.534 2.964l2.889 15.559 4.444-6.848s.253-9.3-4.041-15.465c-3.075-3.731-8.978-2.66-11.963.968a9.168 9.168 0 0 0-1.614 6.444c.188 3.009 1.042 20.288 1.042 20.288l8.8-6.517a40.929 40.929 0 0 0-1.052-4.952c-1.452-5.497-8.617-11.787-6.039-12.441z" class="prefix__cls-3" data-name="Path 2892" transform="translate(-340.228 -435.338)"/>
                <path id="prefix__Path_2893" d="M357.741 443.562a1.388 1.388 0 0 0-1.639.855 1.2 1.2 0 0 0 .415 1.689 1.389 1.389 0 0 0 1.64-.855 1.2 1.2 0 0 0-.416-1.689z" class="prefix__cls-10" data-name="Path 2893" transform="translate(-339.546 -434.719)"/>
                <g id="prefix__Group_586" data-name="Group 586" transform="translate(7.649 4.634)">
                    <path id="prefix__Path_2894" d="M354.237 454.3a3.059 3.059 0 0 1-1.878.243c-3.341-2.42-4.547-12.09-4.547-12.09l2.646-2.809 5.267 1.158 2.6 5.759a5.3 5.3 0 0 1-.215 4.781 8.5 8.5 0 0 1-3.873 2.958z" class="prefix__cls-10" data-name="Path 2894" transform="translate(-347.812 -439.645)"/>
                </g>
                <path id="prefix__Path_2895" d="M348.725 441.079c.273 2.924 8.413 3.164 8.413 3.164l.424-3.96-4.745-2.612-3.756 2.259a2.489 2.489 0 0 0-.336 1.149z" class="prefix__cls-3" data-name="Path 2895" transform="translate(-340.094 -435.161)"/>
                <path id="prefix__Path_2896" d="M348.993 441.4c.271 1.088-.832 2.985-.832 2.985l-.648-1.17.018-1.013.639-.791s.553-1.101.823-.011z" class="prefix__cls-3" data-name="Path 2896" transform="translate(-340.185 -434.915)"/>
                <path id="prefix__Path_2897" d="M368.659 459.7c8.216.959 4.335 22.153 2.57 30.855a3.684 3.684 0 0 1-4.708 2.791c-7.149-2.254-17.592-11.616-17.592-11.616l1.656-2.085 13.872 3.24s-5.323-24.296 4.202-23.185z" class="prefix__cls-10" data-name="Path 2897" transform="translate(-340.078 -433.491)"/>
                <path id="prefix__Path_2898" d="M352.848 473.657l2.682 16.605a.791.791 0 0 1-.781.917h-10.62a.79.79 0 0 1-.781-.667l-2.635-16.6a.791.791 0 0 1 .781-.916h10.574a.792.792 0 0 1 .78.661z" class="prefix__cls-3" data-name="Path 2898" transform="translate(-340.703 -432.478)"/>
                <g id="prefix__Group_587" data-name="Group 587" transform="translate(.313 43.238)">
                    <path id="prefix__Path_2899" d="M341.037 480.817a7.291 7.291 0 0 1 .185-2.157c.254-1.571.187-4.031 1.792-2.8a8.069 8.069 0 0 1 1.691 3.923 4.7 4.7 0 0 1-1.011 3.508l-1.1 2.4a6.945 6.945 0 0 1-1.557-4.874z" data-name="Path 2899" transform="translate(-340.994 -475.524)" style="stroke:#eb9d68;stroke-miterlimit:10;stroke-width:.42px;fill:#eb9d68"/>
                </g>
                <path id="prefix__Path_2900" d="M347.607 479.046a.811.811 0 1 1-.811-.811.811.811 0 0 1 .811.811z" data-name="Path 2900" transform="translate(-340.301 -432.08)" style="fill:#ebd615"/>
                <path id="prefix__Path_2901" d="M351.205 450.328c.492 1.3 2.231.14 3.356-.671" class="prefix__cls-8" data-name="Path 2901" transform="translate(-339.905 -434.251)"/>
                <ellipse id="prefix__Ellipse_153" cx=".398" cy=".364" data-name="Ellipse 153" rx=".398" ry=".364" transform="rotate(-14.76 51.054 -46.63)"/>
                <ellipse id="prefix__Ellipse_154" cx=".374" cy=".364" data-name="Ellipse 154" rx=".374" ry=".364" transform="rotate(-14.698 51.937 -34.248)"/>
            </g>
        </g>
    </g>
</svg>
