<svg xmlns="http://www.w3.org/2000/svg" width="109.42" height="88.537" viewBox="0 0 109.42 88.537">
    <defs>
        <style>
            .prefix__cls-2{fill:#fafafa}.prefix__cls-4{fill:#1d1d1b}
        </style>
    </defs>
    <g id="prefix___5-year-warranty" data-name="5-year-warranty" style="opacity:.9">
        <ellipse id="prefix__Ellipse_188" cx="43.784" cy="41.978" class="prefix__cls-2" data-name="Ellipse 188" rx="43.784" ry="41.978" transform="translate(10.926 2.227)"/>
        <path id="prefix__Path_3344" d="M29.479 0c16.281 0 29.48 14.2 29.48 31.719S45.76 63.438 29.479 63.438 0 49.237 0 31.719 13.2 0 29.479 0z" data-name="Path 3344" transform="translate(23.125 14.211)" style="fill:#dfc822"/>
        <path id="prefix__Path_3285" d="M113.144 203.038H25.078A1.076 1.076 0 0 1 23.966 202v-16.481a1.076 1.076 0 0 1 1.112-1.037h88.066a1.076 1.076 0 0 1 1.112 1.037V202a1.076 1.076 0 0 1-1.112 1.038z" class="prefix__cls-2" data-name="Path 3285" transform="translate(-14.968 -115.227)"/>
        <path id="prefix__Path_3286" d="M4.333 193.43l2.173 5.656-2.173 5.657h7.946V193.43z" class="prefix__cls-2" data-name="Path 3286" transform="translate(-2.714 -120.84)"/>
        <path id="prefix__Path_3287" d="M239.98 204.743l-2.173-5.657 2.173-5.656h-7.946v11.313z" class="prefix__cls-2" data-name="Path 3287" transform="translate(-132.179 -120.84)"/>
        <g id="prefix__Group_713" data-name="Group 713">
            <path id="prefix__Path_3290" d="M107.574 99l2.064-5.221a1.625 1.625 0 0 0-.188-1.54 1.729 1.729 0 0 0-1.413-.722h-6.7v-.997a2.776 2.776 0 0 0-2.812-2.732h-5.092c18.019-28.862-3.478-66.119-38.39-66.119-34.894 0-56.421 37.237-38.391 66.119h-5.094a2.776 2.776 0 0 0-2.812 2.732v.993h-6.7a1.729 1.729 0 0 0-1.413.722 1.628 1.628 0 0 0-.188 1.54L2.51 99l-2.064 5.219a1.625 1.625 0 0 0 .188 1.54 1.729 1.729 0 0 0 1.413.722h6.7v.993a2.776 2.776 0 0 0 2.812 2.732h86.968a2.777 2.777 0 0 0 2.812-2.732v-.993h6.7a1.729 1.729 0 0 0 1.413-.722 1.628 1.628 0 0 0 .188-1.54zm-98.828 4.151H4.541l1.406-3.556a1.624 1.624 0 0 0 0-1.194l-1.406-3.557h4.205zM55.042 25c33.24 0 52.82 36.271 34.314 62.788h-7.039C102.065 65.205 85.47 30.45 55.042 30.45c-30.492 0-46.97 34.815-27.275 57.338h-7.038C2.227 61.279 21.8 25 55.042 25zm22.584 62.789H32.458C11.731 68.2 26.019 33.781 55.042 33.781S98.349 68.2 77.626 87.789zm20.284 5.39v13.7H12.175v-15.76H97.91zm6.227 6.416l1.406 3.556h-4.2v-8.307h4.2l-1.406 3.556a1.624 1.624 0 0 0 0 1.194z" class="prefix__cls-4" data-name="Path 3290" transform="translate(-.332 -21.67)"/>
            <path id="prefix__Path_3299" d="M75.284 130.292h-.133a.637.637 0 0 0-.573.358l-1.088 2.232-1.09-2.232a.637.637 0 0 0-.573-.358H71.7a.637.637 0 0 0-.564.934l1.656 3.151v1.838a.637.637 0 0 0 .637.637h.136a.637.637 0 0 0 .637-.637v-1.838l1.649-3.152a.638.638 0 0 0-.567-.933z" class="prefix__cls-4" data-name="Path 3299" transform="translate(-28.304 -80.244)"/>
            <path id="prefix__Path_3300" d="M103.747 131.526a.637.637 0 0 0 0-1.275H101.2a.637.637 0 0 0-.637.637v5.294a.637.637 0 0 0 .637.637h2.549a.637.637 0 1 0 0-1.275h-1.776v-1.4h1.521a.637.637 0 0 0 .637-.637.637.637 0 0 0-.637-.637h-1.521v-1.342h1.776z" class="prefix__cls-4" data-name="Path 3300" transform="translate(-51.165 -80.212)"/>
            <path id="prefix__Path_3301" d="M128.352 130.872a.637.637 0 0 0-.6-.42h-.446a.637.637 0 0 0-.6.42l-1.91 5.252a.637.637 0 0 0 .6.855h.137a.637.637 0 0 0 .6-.421l.324-.9h2.136l.324.9a.637.637 0 0 0 .6.421h.138a.637.637 0 0 0 .6-.854zm-1.444 3.522l.618-1.727.618 1.727z" class="prefix__cls-4" data-name="Path 3301" transform="translate(-69.843 -80.369)"/>
            <path id="prefix__Path_3302" d="M162.244 132.353a2.093 2.093 0 0 0-2.375-2.06h-1.593a.637.637 0 0 0-.637.637v5.285a.637.637 0 0 0 .637.637h.136a.637.637 0 0 0 .637-.637v-1.784h.433l1.226 2.105a.637.637 0 0 0 .551.317h.181a.637.637 0 0 0 .547-.965l-.987-1.652a1.964 1.964 0 0 0 1.244-1.883zm-2.375.82h-.82v-1.606h.82c.832 0 .939.42.939.786 0 .552-.308.82-.939.82z" class="prefix__cls-4" data-name="Path 3302" transform="translate(-95.323 -80.244)"/>
            <path id="prefix__Path_3304" d="M90.839 92.358l-.364-2.12a.364.364 0 0 1 .1-.322l1.54-1.5a.364.364 0 0 0-.2-.621l-2.129-.309a.364.364 0 0 1-.274-.2l-.952-1.929a.364.364 0 0 0-.653 0l-.952 1.929a.365.365 0 0 1-.274.2l-2.129.309a.364.364 0 0 0-.2.621l1.54 1.5a.365.365 0 0 1 .1.322l-.364 2.12a.364.364 0 0 0 .529.384l1.9-1a.365.365 0 0 1 .339 0l1.9 1a.364.364 0 0 0 .543-.384z" class="prefix__cls-4" data-name="Path 3304" transform="translate(-44.153 -51.199)"/>
            <path id="prefix__Path_3305" d="M152.533 91.74l1.9 1a.364.364 0 0 0 .529-.384l-.364-2.12a.364.364 0 0 1 .1-.322l1.54-1.5a.364.364 0 0 0-.2-.621l-2.129-.309a.364.364 0 0 1-.274-.2l-.952-1.929a.364.364 0 0 0-.653 0l-.952 1.929a.365.365 0 0 1-.274.2l-2.129.309a.364.364 0 0 0-.2.621l1.54 1.5a.365.365 0 0 1 .1.322l-.364 2.12a.364.364 0 0 0 .529.384l1.9-1a.365.365 0 0 1 .353 0z" class="prefix__cls-4" data-name="Path 3305" transform="translate(-84.99 -51.198)"/>
            <path id="prefix__Path_3306" d="M132.418 61.111a16.421 16.421 0 0 1 2.366.278 1.619 1.619 0 0 0 .609-3.18 19.718 19.718 0 0 0-2.834-.332 1.619 1.619 0 0 0-.141 3.235z" class="prefix__cls-4" data-name="Path 3306" transform="translate(-74.743 -41.637)"/>
            <path id="prefix__Path_3307" d="M152.229 66.709a23.229 23.229 0 0 1 6.459 5.092 1.619 1.619 0 0 0 2.513-2.043 26.1 26.1 0 0 0-7.456-5.911 1.619 1.619 0 0 0-1.516 2.862z" class="prefix__cls-4" data-name="Path 3307" transform="translate(-86.25 -44.974)"/>
            <text id="prefix__No_Brokerage" data-name="No Brokerage" transform="translate(16.1 72.399)" style="font-family:ArialRoundedMTBold,Arial Rounded MT Bold;font-size:8px;fill:#1d1d1b">
                <tspan x="5.349" y="8">NO BROKERAGE</tspan>
            </text>
            <text id="prefix___1" data-name="1" transform="translate(51.1 26.399)" style="font-size:19px;font-family:ArialRoundedMTBold,Arial Rounded MT Bold;fill:#1d1d1b">
                <tspan x="-.549" y="18">1</tspan>
            </text>
        </g>
    </g>
</svg>
