<svg xmlns="http://www.w3.org/2000/svg" width="739.118" height="413.5" viewBox="0 0 739.118 413.5">
    <defs>
        <style>
            .cls-1{fill:#ccc;opacity:.1}
        </style>
    </defs>
    <path id="Cloud" d="M49.833 507.274a96.481 96.481 0 0 1 40.175 8.7 59.204 59.204 0 0 1-.061-2.535 67.435 67.435 0 0 1 97.948-60.139 42.809 42.809 0 0 1 66.713-52.414 100.89 100.89 0 1 1 193.2 55.808 56.28 56.28 0 0 1 89.5 52.383c.834-.328 1.67-.648 2.518-.948a29.768 29.768 0 0 1 10.937-3 78.49 78.49 0 0 1 93.635 73.2 39.969 39.969 0 0 1 21.836 1.714 39.262 39.262 0 0 1 25.878 36.909v.377a39.788 39.788 0 0 1-50.378 38.355 55.386 55.386 0 0 1-100.44 12.7 48.981 48.981 0 0 1-70.133-14.208 25.29 25.29 0 0 1-37.509 4.537 55.386 55.386 0 0 1-75.632 36.451 55.366 55.366 0 0 1-91.678 10.024 84.53 84.53 0 0 1-135.727-13.136 25.3 25.3 0 0 1-30.451-5.189 96.847 96.847 0 1 1-50.331-179.589z" class="cls-1" transform="translate(47.009 -319.92)"/>
</svg>
