<svg xmlns="http://www.w3.org/2000/svg" width="295.378" height="318.629" viewBox="0 0 295.378 318.629">
    <defs>
        <style>
            .prefix__cls-1{fill:#878787}.prefix__cls-2{fill:#fff}.prefix__cls-3{fill:#1d1d1b}.prefix__cls-4{fill:#dfc822}.prefix__cls-7{fill:#efefef}.prefix__cls-8{fill:#f7b58e}.prefix__cls-10{fill:#eb9d68}
        </style>
    </defs>
    <g id="prefix__Group_712" data-name="Group 712" transform="translate(-192.819 -866.331)">
        <g id="prefix__Group_691" data-name="Group 691" transform="translate(192.819 866.331)">
            <path id="prefix__Rectangle_163" d="M0 0H260.316V308.071H0z" class="prefix__cls-1" data-name="Rectangle 163"/>
            <g id="prefix__Group_689" data-name="Group 689" transform="translate(169.544 53.963)">
                <path id="prefix__Path_3219" d="M306.219 904.105l-3.728 60.6 63.028-.028-.093-60.57z" class="prefix__cls-2" data-name="Path 3219" transform="translate(-302.492 -904.105)"/>
                <g id="prefix__Group_688" data-name="Group 688" transform="translate(6.454 4.306)">
                    <path id="prefix__Path_3220" d="M355.487 958.537c.05-.658.1-1.317.1-1.988.107-15.135-10.581-26.817-23.611-26.51-12.754.3-23.529 12.033-24.332 26.588-.035.644-.029 1.277-.021 1.91z" class="prefix__cls-3" data-name="Path 3220" transform="translate(-307.621 -901.716)"/>
                    <path id="prefix__Path_3221" d="M343.526 920.631c.133-7.624-5.741-13.434-13.039-13.089-7.211.34-13.264 6.579-13.6 14.046-.345 7.585 5.317 13.677 12.732 13.5 7.505-.188 13.771-6.708 13.907-14.457z" class="prefix__cls-3" data-name="Path 3221" transform="translate(-305.233 -907.527)"/>
                </g>
            </g>
            <path id="prefix__Rectangle_164" d="M0 0H95.608V3.915H0z" class="prefix__cls-2" data-name="Rectangle 164" transform="translate(22.274 100.633)"/>
            <path id="prefix__Rectangle_165" d="M0 0H95.608V3.915H0z" class="prefix__cls-2" data-name="Rectangle 165" transform="translate(22.274 112.363)"/>
            <path id="prefix__Rectangle_166" d="M0 0H111.284V3.915H0z" class="prefix__cls-2" data-name="Rectangle 166" transform="translate(21.339 127.026)"/>
            <path id="prefix__Rectangle_167" d="M0 0H84.585V3.915H0z" class="prefix__cls-2" data-name="Rectangle 167" transform="translate(21.339 138.757)"/>
            <path id="prefix__Rectangle_168" d="M0 0H81.273V67.028H0z" class="prefix__cls-4" data-name="Rectangle 168" transform="translate(158.069 203.495)"/>
            <path id="prefix__Path_3345" d="M0 0h121v31.882H0z" class="prefix__cls-4" data-name="Path 3345" transform="translate(19.413 55.83)"/>
            <path id="prefix__Rectangle_170" d="M0 0H121.001V84.254H0z" data-name="Rectangle 170" transform="translate(20.813 201.518)" style="fill:#c6c6c6"/>
            <path id="prefix__Rectangle_171" d="M0 0H121.001V23.037H0z" class="prefix__cls-2" data-name="Rectangle 171" transform="translate(20.857 159.273)"/>
            <path id="prefix__Rectangle_172" d="M0 0H261.782V27.285H0z" class="prefix__cls-3" data-name="Rectangle 172"/>
            <path id="prefix__Rectangle_173" d="M0 0H87.336V14.783H0z" class="prefix__cls-2" data-name="Rectangle 173" transform="translate(11.354 7.543)"/>
            <path id="prefix__Path_3222" d="M354.036 873.586a7.833 7.833 0 1 0 7.832-7.832 7.832 7.832 0 0 0-7.832 7.832z" class="prefix__cls-4" data-name="Path 3222" transform="translate(-119.637 -860.046)"/>
            <g id="prefix__Group_690" data-name="Group 690" transform="translate(165.912 142.307)">
                <path id="prefix__Rectangle_174" d="M0 0H63.508V3.915H0z" class="prefix__cls-2" data-name="Rectangle 174" transform="translate(.622)"/>
                <path id="prefix__Rectangle_175" d="M0 0H63.508V3.915H0z" class="prefix__cls-2" data-name="Rectangle 175" transform="translate(.622 11.73)"/>
                <path id="prefix__Rectangle_176" d="M0 0H73.921V3.915H0z" class="prefix__cls-2" data-name="Rectangle 176" transform="translate(0 26.393)"/>
                <path id="prefix__Rectangle_177" d="M0 0H56.186V3.915H0z" class="prefix__cls-2" data-name="Rectangle 177" transform="translate(0 38.124)"/>
            </g>
        </g>
        <g id="prefix__Group_695" data-name="Group 695" transform="translate(288.122 984.533)">
            <path id="prefix__Path_3223" d="M260.533 1069.76c-3.752 26.837.355 54.64.355 54.4s2.991 0 2.991 0 4.146-32.621 5.119-43.51 0-11.615 0-11.615-4.713-26.112-8.465.725z" data-name="Path 3223" transform="translate(-239.495 -928.695)" style="fill:#e8a787"/>
            <path id="prefix__Path_3224" d="M262.1 1015.48l-9.177 5.85-3.872-8.066 11.857-13.589z" class="prefix__cls-7" data-name="Path 3224" transform="translate(-242.051 -943.664)"/>
            <g id="prefix__Group_693" data-name="Group 693" transform="translate(50.076)">
                <path id="prefix__Path_3225" d="M301.7 970.144L290.461 999.5l-7.175-5.339 16.031-27.025z" class="prefix__cls-8" data-name="Path 3225" transform="translate(-283.287 -952.067)"/>
                <g id="prefix__Group_692" data-name="Group 692" transform="translate(16.03)">
                    <path id="prefix__Path_3226" d="M299.058 963.271a4.637 4.637 0 0 0-1.655 2.862l-1.377 4.1.437.771 1.943 2.236a2.946 2.946 0 0 1 .766-1.532l3.056-3.423s5.014-5.847.335-7.83c2.746-5.432.78-5.292.78-5.292l-2.459 4.654z" class="prefix__cls-8" data-name="Path 3226" transform="translate(-296.027 -955.16)"/>
                    <path id="prefix__Path_3227" d="M299.684 963.552s-1.012-.954-.111-3.22-.463-2.108-.463-2.108-3.751 8.834-2.547 9.839 3.121-4.511 3.121-4.511z" class="prefix__cls-8" data-name="Path 3227" transform="translate(-295.95 -954.369)"/>
                </g>
            </g>
            <path id="prefix__Path_3228" d="M276.224 1000.336l3.363.262 11.431-13.323 6.173 7.027a186.467 186.467 0 0 1-13.951 21.763c-.471 2.251-2.927 24.9-2.927 24.9h-19.818s3.157-16.619-2.42-25.868 18.149-14.761 18.149-14.761z" class="prefix__cls-7" data-name="Path 3228" transform="translate(-239.941 -946.867)"/>
            <path id="prefix__Path_3229" d="M267.486 1069.76c-3.752 26.837.355 54.64.355 54.4s2.991 0 2.991 0 4.146-32.621 5.119-43.51 0-11.615 0-11.615-4.713-26.112-8.465.725z" class="prefix__cls-8" data-name="Path 3229" transform="translate(-237.699 -928.695)"/>
            <g id="prefix__Group_694" data-name="Group 694" transform="translate(25.587 32.742)">
                <path id="prefix__Path_3230" d="M275.241 981.182l-11.417 4 1.126 8.522c.016.121.048.236.07.355.219.039.439.08.657.133.036.009.07.021.106.031s.069.011.1.02a7.818 7.818 0 0 1 5.337 5.344 13.455 13.455 0 0 0 4.941-.064 4.963 4.963 0 0 0 2.6-1.119c2.408-5.257-3.52-17.222-3.52-17.222z" class="prefix__cls-8" data-name="Path 3230" transform="translate(-263.824 -981.182)"/>
            </g>
            <path id="prefix__Path_3231" d="M277.485 989.1a7.517 7.517 0 0 0-.234 6.562c1.553 3.285 1.416 6.972.382 9-.7 1.379-2.547 2.757-4.182 3.775a6.457 6.457 0 0 0-3.031 4.886c-.254 2.773-.517 6.175-2.891 6.993-6.89 2.373-9.417 2.144-10.335-3.6a11.663 11.663 0 0 1 .594-5.626 10.064 10.064 0 0 0-.213-7.541 13.139 13.139 0 0 1-1.3-4.5c0-1.3 1.193-3.131 2.444-4.693a9.648 9.648 0 0 0 2.028-6.917c-.221-2.485.126-5.662 2.649-7.814 4.708-4.017 15.158 2.3 15.158 2.3s1.001 3.05-1.069 7.175z" class="prefix__cls-3" data-name="Path 3231" transform="translate(-240.187 -949.187)"/>
            <path id="prefix__Path_3232" d="M250.493 1010.476l-4.408 4.562c-2.928 3.031-3.834 7.251-.316 9.57l14.4 11.439-1.324 2.479a6.043 6.043 0 0 0 .527 6.515l1.522 1.994 3.37-11.566-10.442-13.038a2.5 2.5 0 0 1 .54-3.89z" class="prefix__cls-8" data-name="Path 3232" transform="translate(-243.488 -940.875)"/>
            <path id="prefix__Path_3233" d="M280.787 1029.945a48.358 48.358 0 0 1 2.9 15.161c0 4.191-3.63 35.8-3.63 35.8h-18.865c1.278-23.344-5.8-26.205-5.8-36.3 0-7.118 5.574-14.663 5.574-14.663z" class="prefix__cls-3" data-name="Path 3233" transform="translate(-240.414 -935.847)"/>
            <path id="prefix__Path_3234" d="M260.774 1107.716s-1.65 1.3-1.348 2.951.731 5.524.731 5.524h1.7l-.053-3.61c.005-.237 3.639 3.61 4.254 3.61h8.976s.6-2.435-4.674-3.217-9.586-5.258-9.586-5.258z" class="prefix__cls-3" data-name="Path 3234" transform="translate(-239.382 -915.764)"/>
            <path id="prefix__Path_3235" d="M268.393 1107.716s-1.65 1.3-1.348 2.951.731 5.524.731 5.524h1.7l-.052-3.61c0-.237 3.638 3.61 4.253 3.61h8.976s.6-2.435-4.674-3.217-9.586-5.258-9.586-5.258z" class="prefix__cls-3" data-name="Path 3235" transform="translate(-237.414 -915.764)"/>
            <ellipse id="prefix__Ellipse_184" cx=".334" cy=".306" data-name="Ellipse 184" rx=".334" ry=".306" transform="rotate(-32.978 88.867 -44.158)"/>
            <path id="prefix__Path_3237" d="M275.965 991.558c.293.556.015.468-.965.556" class="prefix__cls-10" data-name="Path 3237" transform="translate(-235.351 -945.76)"/>
        </g>
        <g id="prefix__Group_705" data-name="Group 705" transform="translate(226.989 1008.638)">
            <g id="prefix__Group_698" data-name="Group 698" transform="translate(31.18 166.144)">
                <path id="prefix__Path_3238" d="M221 1109.9l13.34-.015c1.772.185 3.751.688 4.083 2.225a8.949 8.949 0 0 1 .192 2.032c-.472.555-18.161-.074-18.161-.074l-.077-.063c-1.87-2.258.623-4.105.623-4.105z" class="prefix__cls-3" data-name="Path 3238" transform="translate(-219.683 -1105.453)"/>
                <path id="prefix__Path_3239" d="M238.46 1113.28l-18.161-.074.157.707h18.03z" data-name="Path 3239" transform="translate(-219.524 -1104.595)" style="fill:#3f3f3f"/>
                <g id="prefix__Group_696" data-name="Group 696" transform="translate(6.263 4.428)">
                    <path id="prefix__Path_3240" d="M225 1109.882l1.2.008-.374 1.635h-1.166z" class="prefix__cls-2" data-name="Path 3240" transform="translate(-224.66 -1109.882)"/>
                </g>
                <g id="prefix__Group_697" data-name="Group 697" transform="translate(8.838 4.428)">
                    <path id="prefix__Path_3241" d="M227.045 1109.882l1.2.008-.374 1.635h-1.165z" class="prefix__cls-2" data-name="Path 3241" transform="translate(-226.707 -1109.882)"/>
                </g>
                <path id="prefix__Path_3242" d="M220 1106.362l.916 4.444a4.325 4.325 0 0 0 3.576.084l.2-.089.643-4.439z" class="prefix__cls-8" data-name="Path 3242" transform="translate(-219.6 -1106.362)"/>
            </g>
            <g id="prefix__Group_701" data-name="Group 701" transform="translate(0 166.144)">
                <path id="prefix__Path_3243" d="M196.223 1109.9l13.34-.015c1.772.185 3.751.688 4.083 2.225a8.95 8.95 0 0 1 .193 2.032c-.472.555-18.161-.074-18.161-.074l-.078-.068c-1.875-2.253.623-4.1.623-4.1z" class="prefix__cls-3" data-name="Path 3243" transform="translate(-194.903 -1105.453)"/>
                <path id="prefix__Path_3244" d="M213.679 1113.28l-18.161-.074.157.707h18.03z" data-name="Path 3244" transform="translate(-194.744 -1104.595)" style="fill:#010202"/>
                <g id="prefix__Group_699" data-name="Group 699" transform="translate(6.263 4.428)">
                    <path id="prefix__Path_3245" d="M200.218 1109.882l1.2.008-.374 1.635h-1.164z" class="prefix__cls-2" data-name="Path 3245" transform="translate(-199.88 -1109.882)"/>
                </g>
                <g id="prefix__Group_700" data-name="Group 700" transform="translate(8.839 4.428)">
                    <path id="prefix__Path_3246" d="M202.265 1109.882l1.2.008-.374 1.635h-1.165z" class="prefix__cls-2" data-name="Path 3246" transform="translate(-201.927 -1109.882)"/>
                </g>
                <path id="prefix__Path_3247" d="M196.531 1106.362l-.579 4.444a4.325 4.325 0 0 0 3.576.084l.2-.089 2.136-4.439z" class="prefix__cls-8" data-name="Path 3247" transform="translate(-194.632 -1106.362)"/>
            </g>
            <g id="prefix__Group_702" data-name="Group 702" transform="translate(10.821 16.71)">
                <path id="prefix__Path_3248" d="M214.489 987.6l-10.989 7.161 3.391 8.682c.048.123.112.237.166.356.242-.015.483-.029.726-.029h.235a8.477 8.477 0 0 1 7 4.244 14.61 14.61 0 0 0 5.185-1.346 5.379 5.379 0 0 0 2.443-1.85c1.183-6.158-8.157-17.218-8.157-17.218z" class="prefix__cls-8" data-name="Path 3248" transform="translate(-203.503 -987.598)"/>
            </g>
            <path id="prefix__Path_3249" d="M223.62 989.844s1.345 12.751-1.363 20.87c1.258 1.092 5.875 6.041 7.327-.374s-1.631-22.743-1.631-22.743z" class="prefix__cls-8" data-name="Path 3249" transform="translate(-187.839 -970.888)"/>
            <g id="prefix__Group_704" data-name="Group 704" transform="translate(26.605 .167)">
                <g id="prefix__Group_703" data-name="Group 703" transform="translate(0 17.886)">
                    <path id="prefix__Path_3250" d="M218.632 988.665l-2.585 1.663.922 1.93 2.773-1.223z" class="prefix__cls-3" data-name="Path 3250" transform="translate(-216.047 -988.665)"/>
                    <path id="prefix__Path_3251" d="M217.11 990.693c.259.59.277 1.152.04 1.257s-.637-.291-.9-.881-.278-1.153-.042-1.256.643.287.902.88z" class="prefix__cls-3" data-name="Path 3251" transform="translate(-216.047 -988.373)"/>
                </g>
                <path id="prefix__Path_3252" d="M249.371 982.932c0-.025.008-.048.01-.073a25.9 25.9 0 0 0-2.5-4.486 22.613 22.613 0 0 1-2.4-3.923l-26.692 17.469 1.729 3.263 29.857-11.033a8.355 8.355 0 0 1-.004-1.217z" class="prefix__cls-3" data-name="Path 3252" transform="translate(-215.598 -974.45)"/>
            </g>
            <path id="prefix__Path_3253" d="M210.5 1004.105l-.96 5.995h8.493l.611-7.346z" class="prefix__cls-8" data-name="Path 3253" transform="translate(-191.121 -966.974)"/>
            <path id="prefix__Path_3254" d="M228.4 1024.705s10.033-3.195 13.176-7.49-2.177-27.806-2.177-27.806l.688-4.232a3.939 3.939 0 0 0-3.853-4.57l-2.68-.024a1.534 1.534 0 0 0-1.416 2.157l3.526 7.932s2.645 17.807-1.059 19.158a41.716 41.716 0 0 1-9.422 1.954z" class="prefix__cls-8" data-name="Path 3254" transform="translate(-187.083 -972.699)"/>
            <path id="prefix__Path_3255" d="M215.372 1008.731l-2.579-5.724 1.676-1.052a3.157 3.157 0 0 0 1.309-3.689l-1.838-5.394s5.228-.639 5.071-5.51c0-2.508-3.451-2.521-3.451-2.521a5.019 5.019 0 0 1-4.233 2.508c-1.375-.172-5.147.333-7.694 4.776-1.712 2.988-.961 7.669.53 11.182 1.335 3.148 4.745 4.906 8.124 5.424z" class="prefix__cls-3" data-name="Path 3255" transform="translate(-192.902 -971.6)"/>
            <path id="prefix__Path_3256" d="M207.117 1042.039a188.827 188.827 0 0 0 3.172 25.43 22.719 22.719 0 0 1-.783 11.694c-5.99 17.8-14.388 44.557-14.388 44.557h7.47s16.927-31.626 21.288-47.315 5.108-20.669 5.108-20.669l-5.19-13.7z" class="prefix__cls-3" data-name="Path 3256" transform="translate(-194.847 -956.829)"/>
            <path id="prefix__Path_3257" d="M209.623 997.346a2.43 2.43 0 0 0 1.389 2.665c1.073.571 2.193.3 2.5-.6a2.431 2.431 0 0 0-1.389-2.666c-1.072-.57-2.193-.302-2.5.601z" class="prefix__cls-8" data-name="Path 3257" transform="translate(-191.121 -968.603)"/>
            <path id="prefix__Path_3258" d="M229.014 1051.583h-24.36v-31.251a13.26 13.26 0 0 1 12.026-13.2l16.94-2.05s1.992 3.049 7.542 10.133a57.187 57.187 0 0 1-14.391 6.021z" class="prefix__cls-4" data-name="Path 3258" transform="translate(-192.384 -966.374)"/>
            <path id="prefix__Path_3259" d="M204.654 1042.039s3.441 12.452 16.134 26.408a16.321 16.321 0 0 1 4.739 12.689l-2.618 42.584h7.577s9.235-35.362 7.244-52.793-8.716-28.888-8.716-28.888z" class="prefix__cls-3" data-name="Path 3259" transform="translate(-192.384 -956.829)"/>
            <path id="prefix__Path_3260" d="M239.9 980.07c1.31 2.718 3.088 4.576 3.97 4.151s.536-2.974-.774-5.692-3.088-4.576-3.97-4.15-.538 2.973.774 5.691z" class="prefix__cls-4" data-name="Path 3260" transform="translate(-183.609 -974.318)"/>
            <path id="prefix__Path_3261" d="M222.5 986.03l.227.108a3.4 3.4 0 0 0 2.542.16l.15-.05a4.537 4.537 0 0 0 2.889-2.929.842.842 0 0 0-.975-1.078l-1.687.355a2.538 2.538 0 0 0-1.6 1.091z" class="prefix__cls-8" data-name="Path 3261" transform="translate(-187.775 -972.277)"/>
            <path id="prefix__Path_3262" d="M218.469 996.565c.244 1.709-1.666 1.624-3.1 1.754" class="prefix__cls-10" data-name="Path 3262" transform="translate(-189.617 -968.572)"/>
            <ellipse id="prefix__Ellipse_185" cx=".334" cy=".306" data-name="Ellipse 185" rx=".334" ry=".306" transform="rotate(-32.978 50.294 -29.86)"/>
        </g>
        <g id="prefix__Group_711" data-name="Group 711" transform="translate(431.521 1015.577)">
            <path id="prefix__Path_3263" d="M363.889 995.944a5.5 5.5 0 0 1 .237 3.921l-.715 5.086-.875.588-3.253 1.344a3.492 3.492 0 0 0 0-2.037l-1.428-5.261s-2.221-8.879 3.807-8.5c-.031-7.232 1.984-6.038 1.984-6.038l.138 6.252z" class="prefix__cls-8" data-name="Path 3263" transform="translate(-357.456 -978.505)"/>
            <path id="prefix__Path_3264" d="M378.626 1009.537s-4.215 16.084-7.809 16.372-7.333-25.481-7.333-25.481l-4.887.591s-1.9 37.054 9.064 37.728 12.411-7.521 12.411-7.521z" class="prefix__cls-3" data-name="Path 3264" transform="translate(-357.194 -974.513)"/>
            <path id="prefix__Path_3265" d="M374.948 1053.511h28.68v-43.56c-8.195-12.5-18.407-9.1-18.407-9.1s-9.285.167-10.732 8.685c.001 6.164.459 43.975.459 43.975z" class="prefix__cls-1" data-name="Path 3265" transform="translate(-353.058 -974.513)"/>
            <g id="prefix__Group_706" data-name="Group 706" transform="translate(28.388 20.554)">
                <path id="prefix__Path_3266" d="M387.146 996.168l.425 6.158-.2.192a5.342 5.342 0 0 1-7.255.1l-.1-4.634z" class="prefix__cls-8" data-name="Path 3266" transform="translate(-380.018 -996.168)"/>
            </g>
            <g id="prefix__Group_707" data-name="Group 707" transform="translate(19.322)">
                <path id="prefix__Path_3267" d="M390.53 985.942l-.52 10.179a1.574 1.574 0 0 0-1.413 2 1.9 1.9 0 0 0-.17.75 11.682 11.682 0 0 1-9.071 2.113c-6.441-1.234-2.556-13.684-2.556-13.684z" class="prefix__cls-8" data-name="Path 3267" transform="translate(-372.082 -978.254)"/>
                <path id="prefix__Path_3268" d="M394.5 995.166a6.231 6.231 0 0 1 1.632-2.82c3.646-3.156.384-5.457-.774-6.2-1.28-.823-1.028-3.144-2.685-4.442-2.531-1.98-4.97.072-6.591-.228s-2.626-2.456-4.983-1.315-2.1 2.992-2.852 3.774-2.143-1.377-4.44 1.087c-3.5 3.75 3.36 5.353 3.36 5.353a12.445 12.445 0 0 0 8.721-.4 1.631 1.631 0 0 1 1.923.472c1.185 1.621 1.2 10.114 1.2 10.114l1.657-1.378s3.611-.598 3.832-4.017z" class="prefix__cls-3" data-name="Path 3268" transform="translate(-372.812 -979.832)"/>
                <path id="prefix__Path_3269" d="M387.594 993.123a1.563 1.563 0 1 1-.854-2.038 1.562 1.562 0 0 1 .854 2.038z" class="prefix__cls-8" data-name="Path 3269" transform="translate(-369.772 -976.957)"/>
                <circle id="prefix__Ellipse_186" cx=".33" cy=".33" r=".33" data-name="Ellipse 186" transform="translate(9.537 14.728)"/>
                <circle id="prefix__Ellipse_187" cx=".33" cy=".33" r=".33" data-name="Ellipse 187" transform="translate(6.196 14.728)"/>
                <path id="prefix__Path_3270" d="M381.652 994.884c0 .525-.863.963-1.935.963s-1.934-.427-1.934-.963" class="prefix__cls-10" data-name="Path 3270" transform="translate(-371.529 -975.945)"/>
            </g>
            <g id="prefix__Group_708" data-name="Group 708" transform="translate(15.668 156.254)">
                <path id="prefix__Path_3271" d="M382.631 1107.9s-1.617 2.237-9.237 4.177c-1.677.428-3.485.72-3.485 3.487h7.52l7.69-1.33v1.33h4.153s1.158-6.793-1.268-7.664z" class="prefix__cls-3" data-name="Path 3271" transform="translate(-369.909 -1103.015)"/>
                <path id="prefix__Path_3272" d="M379.706 1104.017l.4 4.879a4.7 4.7 0 0 0 5.088.17l.286-.17v-4.879z" class="prefix__cls-8" data-name="Path 3272" transform="translate(-367.379 -1104.017)"/>
            </g>
            <g id="prefix__Group_709" data-name="Group 709" transform="translate(37.035 156.254)">
                <path id="prefix__Path_3273" d="M399.612 1107.9s-1.617 2.237-9.237 4.177c-1.677.428-3.485.72-3.485 3.487h7.521l7.69-1.33v1.33h4.155s1.156-6.793-1.27-7.664z" class="prefix__cls-3" data-name="Path 3273" transform="translate(-386.89 -1103.015)"/>
                <path id="prefix__Path_3274" d="M396.687 1104.017l.4 4.879a4.7 4.7 0 0 0 5.088.17l.286-.17v-4.879z" class="prefix__cls-8" data-name="Path 3274" transform="translate(-384.36 -1104.017)"/>
            </g>
            <path id="prefix__Path_3275" d="M403.427 1008s8.6 19.84-2.372 29.975-25.859 8.41-25.859 8.41v-5.715s13.459-1.138 17.773-10.135-1.725-16.785-1.725-16.785" class="prefix__cls-1" data-name="Path 3275" transform="translate(-352.875 -972.559)"/>
            <path id="prefix__Path_3276" d="M378.352 1039.519l-6.865.145c-2.788-.155-4.643-4.317-5.106-7.412a.629.629 0 0 1 .832-.68c2.329.809 8.322 2.931 9.872 3.893z" class="prefix__cls-8" data-name="Path 3276" transform="translate(-355.153 -966.48)"/>
            <path id="prefix__Path_3277" d="M375.441 1042.617c-8.555 24.153 4.815 77.633 4.815 77.633h7.62s-3.595-75.837 6.325-77.633z" class="prefix__cls-3" data-name="Path 3277" transform="translate(-353.55 -963.619)"/>
            <path id="prefix__Path_3278" d="M394.644 1021.137a15.464 15.464 0 0 1-1.531 6c-4.313 9-18.474 10.189-18.474 10.189v5.772s15.591 1.614 26.56-8.521c3.977-3.675 5.375-8.624 5.55-13.442z" class="prefix__cls-3" data-name="Path 3278" transform="translate(-353.019 -969.166)"/>
            <g id="prefix__Group_710" data-name="Group 710" transform="translate(38.362 40.709)">
                <path id="prefix__Path_3279" d="M391.141 1024.319c.3-.136.6-.267.9-.41a18.421 18.421 0 0 0-3.421-11.723l-.677.535a17.4 17.4 0 0 1 3.198 11.598z" class="prefix__cls-3" data-name="Path 3279" transform="translate(-387.945 -1012.186)"/>
            </g>
            <path id="prefix__Path_3280" d="M361.569 995.426s1.582-.476 1.829-3.362 1.611-1.994 1.611-1.994-.708 11.381-2.524 11.81-.916-6.454-.916-6.454z" class="prefix__cls-8" data-name="Path 3280" transform="translate(-356.452 -977.222)"/>
            <path id="prefix__Path_3281" d="M381.6 1042.617c-2.329 29.615 16.581 77.633 16.581 77.633h9.057s-6.155-30.7-6.281-59.521a154.236 154.236 0 0 1 .89-18.112z" class="prefix__cls-3" data-name="Path 3281" transform="translate(-351.273 -963.619)"/>
        </g>
    </g>
</svg>
