<svg xmlns="http://www.w3.org/2000/svg" width="109.593" height="70.129" viewBox="0 0 109.593 70.129">
    <defs>
        <style>
            .prefix__cls-1{fill:#dfc822}.prefix__cls-2{fill:#1d1d1b}
        </style>
    </defs>
    <g id="prefix__People" transform="translate(-170 -905)">
        <g id="prefix__Group_723" data-name="Group 723" transform="translate(170 905)">
            <path id="prefix__Path_3329" d="M352.469 1427.39l4.767 4.609 1.047 12.337h8.529s.047-17.6 0-18.255-5.6-4.94-5.6-4.94z" class="prefix__cls-1" data-name="Path 3329" transform="translate(-350.014 -1374.448)"/>
            <path id="prefix__Path_3330" d="M498.539 1381.744l6.386 5.9v19.088h14.482v-24.988l-7.721-8.033-11.068 5.023z" class="prefix__cls-1" data-name="Path 3330" transform="translate(-464.818 -1337.171)"/>
            <path id="prefix__Path_3331" d="M762.826 1396.371l11.321 5.974-3.575 4.574-1.41 17.559h-12.185v-22.133z" class="prefix__cls-1" data-name="Path 3331" transform="translate(-667.937 -1354.98)"/>
            <g id="prefix__group">
                <g id="prefix__Group_718" data-name="Group 718" transform="translate(30.885)">
                    <g id="prefix__Group_717" data-name="Group 717">
                        <path id="prefix__Path_3326" d="M187.085 131.691l-9.329-4.146a1.828 1.828 0 0 1-1.085-1.669v-2.562a13.6 13.6 0 0 0 5.148-10.651v-3.606a3.327 3.327 0 0 0 1.716-2.907v-.35a13.632 13.632 0 0 0-13.616-13.616h-3.432a13.632 13.632 0 0 0-13.616 13.616v3.175a3.367 3.367 0 0 0 1.281 2.7 3.132 3.132 0 0 0 .435.281v.709a13.6 13.6 0 0 0 5.147 10.65v2.562a1.828 1.828 0 0 1-1.085 1.669l-9.329 4.146a8.476 8.476 0 0 0-5.029 7.739v21.277a1.605 1.605 0 0 0 3.211 0V139.43a5.247 5.247 0 0 1 .033-.552l4.3 4.3a3.52 3.52 0 0 1 1.037 2.5v15.026a1.605 1.605 0 1 0 3.211 0v-15.023a6.708 6.708 0 0 0-1.978-4.775l-5.125-5.125a5.244 5.244 0 0 1 1.646-1.156l9.171-4.076 6.8 6.8v23.357a1.605 1.605 0 1 0 3.211 0V137.35l6.8-6.8 9.171 4.076a5.241 5.241 0 0 1 1.646 1.157l-5.125 5.125a6.708 6.708 0 0 0-1.978 4.775v15.026a1.605 1.605 0 1 0 3.211 0v-15.028a3.519 3.519 0 0 1 1.038-2.5l4.3-4.3a5.236 5.236 0 0 1 .033.552v21.277a1.605 1.605 0 1 0 3.211 0v-21.28a8.477 8.477 0 0 0-5.03-7.739zm-18.885 2.724l-5.968-5.968a5.028 5.028 0 0 0 .71-2.571v-.653a13.6 13.6 0 0 0 10.516 0v.653a5.027 5.027 0 0 0 .71 2.571zm0-11.346a10.417 10.417 0 0 1-10.4-10.405v-.722a9.491 9.491 0 0 0 2.916-1.893 1.605 1.605 0 0 0-2.178-2.359 5.766 5.766 0 0 1-2.384 1.423.26.26 0 0 1-.043.008.326.326 0 0 1-.027-.145V105.8a10.417 10.417 0 0 1 10.406-10.406h3.432a10.417 10.417 0 0 1 10.402 10.406v.35a.1.1 0 0 1-.072.105c-9.613 1.9-14.435-1.68-16.062-3.306a1.605 1.605 0 0 0-2.27 2.27c4.985 4.985 12.26 5.075 16.688 4.543v2.9a10.417 10.417 0 0 1-10.408 10.407z" class="prefix__cls-2" data-name="Path 3326" transform="translate(-144.292 -92.184)"/>
                    </g>
                </g>
                <g id="prefix__Group_720" data-name="Group 720" transform="translate(0 8.579)">
                    <g id="prefix__Group_719" data-name="Group 719">
                        <path id="prefix__Path_3327" d="M28.948 154.461v-3.432a11.9 11.9 0 0 0-5.456-10 6.753 6.753 0 1 0-12.89 0 11.9 11.9 0 0 0-5.455 10v3.432a11.894 11.894 0 0 0 5.147 9.791v3.53a1.816 1.816 0 0 1-1.009 1.634l-5.553 2.776A6.717 6.717 0 0 0 0 178.232v13.977a1.605 1.605 0 0 0 3.211 0v-13.283l2.615 2.615a3.52 3.52 0 0 1 1.037 2.5v8.163a1.605 1.605 0 0 0 3.211 0v-8.163a6.709 6.709 0 0 0-1.974-4.77l-3.64-3.64c-.018-.018-.036-.033-.054-.049a3.581 3.581 0 0 1 .767-.518l5.553-2.776a5.113 5.113 0 0 0 .8-.5l3.925 3.925v16.494a1.605 1.605 0 0 0 3.211 0v-16.491l3.925-3.925a5.092 5.092 0 0 0 .8.5l1.531.766a1.605 1.605 0 1 0 1.436-2.871l-1.531-.766a1.816 1.816 0 0 1-1.01-1.633v-3.53a11.894 11.894 0 0 0 5.135-9.796zm-11.9-18.985a3.546 3.546 0 0 1 3.542 3.542 3.6 3.6 0 0 1-.056.633 11.9 11.9 0 0 0-6.967 0 3.52 3.52 0 0 1 3.481-4.173zm0 6.863a8.7 8.7 0 0 1 8.69 8.69v.582A10.078 10.078 0 0 1 14.9 148.35a1.605 1.605 0 0 0-2.419-.172 10.5 10.5 0 0 1-4.117 2.628 8.7 8.7 0 0 1 8.684-8.467zm0 30.441l-3.71-3.71a5.083 5.083 0 0 0 .168-1.288v-1.96a11.922 11.922 0 0 0 7.084 0v1.96a5.082 5.082 0 0 0 .168 1.288zm0-9.63a8.7 8.7 0 0 1-8.69-8.69v-.333a12.872 12.872 0 0 0 5.159-2.57 14.485 14.485 0 0 0 2.977 2.167 12.769 12.769 0 0 0 6.135 1.584 13.45 13.45 0 0 0 3.095-.371 8.7 8.7 0 0 1-8.676 8.213z" class="prefix__cls-2" data-name="Path 3327" transform="translate(0 -132.265)"/>
                    </g>
                </g>
                <g id="prefix__Group_722" data-name="Group 722" transform="translate(77.213 12.011)">
                    <g id="prefix__Group_721" data-name="Group 721">
                        <path id="prefix__Path_3328" d="M389.373 181.361l-8.984-4.492a1.816 1.816 0 0 1-1.009-1.633v-2.275a10.161 10.161 0 0 0 3.432-7.615v-1.827h.11a1.605 1.605 0 0 0 1.605-1.605v-3.432a10.2 10.2 0 0 0-10.185-10.182h-3.432a10.2 10.2 0 0 0-10.185 10.185v3.432a1.605 1.605 0 0 0 1.605 1.605h.11v1.829a10.161 10.161 0 0 0 3.432 7.615v2.275a1.816 1.816 0 0 1-1.01 1.633 1.605 1.605 0 1 0 1.436 2.872 5.113 5.113 0 0 0 .8-.5l3.925 3.925v21.639a1.605 1.605 0 1 0 3.211 0v-21.641l3.925-3.925a5.09 5.09 0 0 0 .8.5l8.694 4.347-2.637 2.637a6.709 6.709 0 0 0-1.978 4.775v13.31a1.605 1.605 0 1 0 3.211 0V191.5a3.519 3.519 0 0 1 1.038-2.5l2.5-2.5a3.577 3.577 0 0 1 .117.9v17.41a1.605 1.605 0 1 0 3.211 0V187.4a6.716 6.716 0 0 0-3.742-6.039zm-25.437-21.383v-1.5a6.982 6.982 0 0 1 6.974-6.974h3.432a6.982 6.982 0 0 1 6.974 6.974v1.783a24.553 24.553 0 0 1-11.231-3.119 1.605 1.605 0 0 0-2.026.2 10.515 10.515 0 0 1-4.122 2.637zm8.69 20.255l-3.71-3.71a5.084 5.084 0 0 0 .168-1.288v-.342a10.176 10.176 0 0 0 7.084 0v.342a5.075 5.075 0 0 0 .168 1.288zm0-7.914a6.982 6.982 0 0 1-6.974-6.974v-2.588a13.585 13.585 0 0 0 3.767-2.3 28.52 28.52 0 0 0 10.18 2.894v1.993a6.982 6.982 0 0 1-6.973 6.976z" class="prefix__cls-2" data-name="Path 3328" transform="translate(-360.726 -148.298)"/>
                    </g>
                </g>
            </g>
        </g>
    </g>
</svg>
