<svg xmlns="http://www.w3.org/2000/svg" xmlns:xlink="http://www.w3.org/1999/xlink" width="263.979" height="157.457" viewBox="0 0 263.979 157.457">
  <defs>
    <clipPath id="clip-path">
      <rect id="Rectangle_120" data-name="Rectangle 120" width="54.92" height="121.27" rx="11.09" fill="#eaeaea"/>
    </clipPath>
    <clipPath id="clip-path-2">
      <rect id="Rectangle_84" data-name="Rectangle 84" width="62" height="60" transform="translate(-0.401 0.253)"/>
    </clipPath>
  </defs>
  <g id="Illustrations" transform="translate(-534.294 -204.381)">
    <g id="screen_1" data-name="screen 1" transform="translate(609.012 204.381)">
      <rect id="Rectangle_118" data-name="Rectangle 118" width="62.119" height="127.675" rx="10" fill="#4e4d4d"/>
      <g id="Group_352" data-name="Group 352" transform="translate(3.599 3.202)">
        <path id="Path_3283" data-name="Path 3283" d="M11.808,0h31.3A11.808,11.808,0,0,1,54.92,11.808v97.654A11.808,11.808,0,0,1,43.112,121.27h-31.3A11.808,11.808,0,0,1,0,109.462V11.808A11.808,11.808,0,0,1,11.808,0Z" fill="#eaeaea"/>
        <g id="Group_351" data-name="Group 351" clip-path="url(#clip-path)">
          <path id="Path_2483" data-name="Path 2483" d="M681.73,213.526l75.845,27.944,21.027-65.5-75.845-27.943Z" transform="translate(-697.909 -176.926)" fill="#ebd619"/>
        </g>
      </g>
      <rect id="Rectangle_121" data-name="Rectangle 121" width="30.771" height="7.196" rx="3.598" transform="translate(15.674 0.131)" fill="#4e4d4d"/>
    </g>
    <path id="Path_2506" data-name="Path 2506" d="M563.066,509.53s-48.05.05-19.96,7.786,37.359,3.616,30.571,10.552,36.312-2.113,74.034-.4,22.056,3.223,63.706,1.242,40.6-5.8,32.772-7.4-1.752-7.753,8.929-8.388,30.3-11.677-46.955-7.356S563.066,509.53,563.066,509.53Z" transform="translate(0 -175.612)" fill="#eaeaea"/>
    <g id="Group_436" data-name="Group 436" transform="translate(622.302 257.697)">
      <g id="Group_385" data-name="Group 385" transform="translate(0 16.646)">
        <g id="Group_368" data-name="Group 368" transform="translate(16.772 3.402)">
          <path id="Path_2507" data-name="Path 2507" d="M785.1,392.025a1.87,1.87,0,0,1,.08,1.333l-.243,1.73-.3.2-1.106.457a1.193,1.193,0,0,0,0-.693l-.486-1.79s-.756-3.02,1.295-2.891c-.011-2.46.675-2.054.675-2.054l.047,2.127Z" transform="translate(-782.907 -386.093)" fill="#f7b58e"/>
          <path id="Path_2508" data-name="Path 2508" d="M790.794,407.088s-1.433,5.471-2.656,5.569-2.494-8.667-2.494-8.667l-1.663.2s-.646,12.6,3.083,12.834,4.222-2.558,4.222-2.558Z" transform="translate(-783.504 -395.174)" fill="#999"/>
          <path id="Path_2509" data-name="Path 2509" d="M800.361,422.047h9.756V407.229c-2.787-4.253-6.262-3.1-6.262-3.1s-3.158.057-3.651,2.954C800.205,409.185,800.361,422.047,800.361,422.047Z" transform="translate(-792.915 -395.174)" fill="#999"/>
          <g id="Group_363" data-name="Group 363" transform="translate(9.656 6.992)">
            <path id="Path_2510" data-name="Path 2510" d="M808.244,399.662l.144,2.1-.069.066a1.817,1.817,0,0,1-2.468.035h0l-.033-1.576Z" transform="translate(-805.819 -399.662)" fill="#f5bc8e"/>
          </g>
          <g id="Group_364" data-name="Group 364" transform="translate(6.572)">
            <path id="Path_2511" data-name="Path 2511" d="M806.438,389.277l-.177,3.463a.534.534,0,0,0-.48.68.649.649,0,0,0-.058.255,3.972,3.972,0,0,1-3.086.719c-2.191-.419-.869-4.656-.869-4.656Z" transform="translate(-800.163 -386.662)" fill="#f5bc8e"/>
            <circle id="Ellipse_130" data-name="Ellipse 130" cx="0.11" cy="0.11" r="0.11" transform="translate(3.383 4.817)"/>
            <circle id="Ellipse_131" data-name="Ellipse 131" cx="0.11" cy="0.11" r="0.11" transform="translate(2.264 4.817)"/>
            <path id="Path_2512" data-name="Path 2512" d="M805.215,397.849c0,.175-.29.322-.648.322s-.648-.143-.648-.322" transform="translate(-801.636 -391.621)" fill="#eb9d68"/>
            <path id="Path_2513" data-name="Path 2513" d="M805.879,388.289a2.122,2.122,0,0,1,.555-.959c1.241-1.073.131-1.856-.263-2.109-.435-.28-.35-1.07-.914-1.511-.861-.674-1.69.024-2.242-.078s-.894-.835-1.7-.447-.714,1.018-.97,1.283-.729-.468-1.511.37c-1.189,1.275,1.143,1.821,1.143,1.821a4.234,4.234,0,0,0,2.967-.135.554.554,0,0,1,.654.16c.4.552.409,3.44.409,3.44l.563-.469a1.567,1.567,0,0,0,1.309-1.366Z" transform="translate(-798.502 -383.073)" fill="#333"/>
            <path id="Path_2514" data-name="Path 2514" d="M811.48,395.115a.532.532,0,1,1-.291-.693.532.532,0,0,1,.291.693Z" transform="translate(-805.418 -389.615)" fill="#f5bc8e"/>
          </g>
          <g id="Group_365" data-name="Group 365" transform="translate(5.33 53.153)">
            <path id="Path_2515" data-name="Path 2515" d="M799.881,513.127s-.55.761-3.142,1.421c-.571.145-1.186.244-1.186,1.186h2.558l2.616-.452v.452h1.413s.394-2.311-.432-2.607Z" transform="translate(-795.553 -511.467)" fill="#4e4d4d"/>
            <path id="Path_2516" data-name="Path 2516" d="M805.5,509.189l.134,1.66h0a1.6,1.6,0,0,0,1.731.058l.1-.058v-1.66Z" transform="translate(-801.31 -509.189)" fill="#f5bc8e"/>
          </g>
          <g id="Group_366" data-name="Group 366" transform="translate(12.598 53.153)">
            <path id="Path_2517" data-name="Path 2517" d="M817.126,513.127s-.55.761-3.142,1.421c-.571.145-1.186.244-1.186,1.186h2.559l2.616-.452v.452h1.413s.394-2.311-.432-2.607Z" transform="translate(-812.798 -511.467)" fill="#010202"/>
            <path id="Path_2518" data-name="Path 2518" d="M822.748,509.189l.135,1.66h0a1.6,1.6,0,0,0,1.731.058l.1-.058v-1.66Z" transform="translate(-818.555 -509.189)" fill="#f5bc8e"/>
          </g>
          <path id="Path_2519" data-name="Path 2519" d="M810.526,411.675s2.924,6.749-.807,10.2a12.068,12.068,0,0,1-8.8,2.861v-1.944s4.578-.387,6.045-3.448a5.745,5.745,0,0,0-.587-5.709" transform="translate(-793.33 -399.62)" fill="#999"/>
          <path id="Path_2520" data-name="Path 2520" d="M796.038,438.3l-2.336.049c-.948-.053-1.579-1.469-1.737-2.522a.214.214,0,0,1,.283-.231,29.72,29.72,0,0,1,3.359,1.324Z" transform="translate(-788.147 -413.451)" fill="#f7b58e"/>
          <path id="Path_2521" data-name="Path 2521" d="M799.24,446.834c-2.91,8.216,1.638,26.408,1.638,26.408h2.592s-1.223-25.8,2.152-26.408Z" transform="translate(-791.794 -419.961)" fill="#4e4d4d"/>
          <path id="Path_2522" data-name="Path 2522" d="M807.162,425.019a5.262,5.262,0,0,1-.521,2.042c-1.467,3.061-6.284,3.466-6.284,3.466v1.963s5.3.549,9.035-2.9a6.322,6.322,0,0,0,1.888-4.573Z" transform="translate(-793.003 -407.34)" fill="#999"/>
          <g id="Group_367" data-name="Group 367" transform="translate(13.05 13.848)">
            <path id="Path_2523" data-name="Path 2523" d="M814.957,420.056c.1-.046.205-.091.306-.139a6.267,6.267,0,0,0-1.164-3.988l-.23.182A5.921,5.921,0,0,1,814.957,420.056Z" transform="translate(-813.87 -415.929)" fill="#8e8e8e"/>
          </g>
          <path id="Path_2524" data-name="Path 2524" d="M786.933,395.2s.538-.162.622-1.144.548-.678.548-.678-.241,3.872-.859,4.017S786.933,395.2,786.933,395.2Z" transform="translate(-785.192 -389.011)" fill="#f7b58e"/>
          <path id="Path_2525" data-name="Path 2525" d="M807.289,446.834c-.792,10.074,5.64,26.408,5.64,26.408h3.081A122.243,122.243,0,0,1,813.874,453a52.338,52.338,0,0,1,.3-6.161Z" transform="translate(-796.974 -419.961)" fill="#010202"/>
        </g>
        <g id="Group_381" data-name="Group 381" transform="translate(23.273)">
          <g id="Group_369" data-name="Group 369" transform="translate(11.82 57.394)">
            <path id="Path_2526" data-name="Path 2526" d="M830.1,514.162a6.882,6.882,0,0,1-2.825,1.3c-.432.11-.9-.037-.9.676h2.383l1.982-.343v.343h1.07s.3-1.75-.327-1.975Z" transform="translate(-826.376 -512.905)" fill="#010202"/>
            <path id="Path_2527" data-name="Path 2527" d="M835.33,511.179l-.121,1.257h0a1.211,1.211,0,0,0,1.311.044l.074-.044.445-1.257Z" transform="translate(-831.486 -511.179)" fill="#4e4d4d"/>
          </g>
          <g id="Group_370" data-name="Group 370" transform="translate(21.343 57.394)">
            <path id="Path_2528" data-name="Path 2528" d="M852.7,514.162a6.885,6.885,0,0,1-2.825,1.3c-.432.11-.9-.037-.9.676h2.383l1.982-.343v.343h1.07s.3-1.75-.327-1.975Z" transform="translate(-848.972 -512.905)" fill="#4e4d4d"/>
            <path id="Path_2529" data-name="Path 2529" d="M857.926,511.179l-.12,1.257h0a1.211,1.211,0,0,0,1.311.044l.073-.044.445-1.257Z" transform="translate(-854.083 -511.179)" fill="#f5bc8e"/>
          </g>
          <path id="Path_2530" data-name="Path 2530" d="M839.13,436.509h-2.742l-.963,31.771h1.852l5.442-25.858Z" transform="translate(-819.791 -410.586)" fill="#010202"/>
          <path id="Path_2531" data-name="Path 2531" d="M842.1,436.509l6.407,31.771h2.039l-.836-31.771Z" transform="translate(-823.656 -410.586)" fill="#4e4d4d"/>
          <g id="Group_376" data-name="Group 376" transform="translate(21.393 31.16)">
            <g id="Group_371" data-name="Group 371" transform="translate(2.62)">
              <path id="Path_2532" data-name="Path 2532" d="M855.31,450.684l.614-.043a1.083,1.083,0,0,1,.286-.749,1.543,1.543,0,0,1,1.136-.365,1.73,1.73,0,0,1,1.226.362.736.736,0,0,1,.224.517l.615.035a1.3,1.3,0,0,0-.382-.949,2.27,2.27,0,0,0-1.683-.556,2.125,2.125,0,0,0-1.592.559,1.654,1.654,0,0,0-.444,1.189Z" transform="translate(-855.309 -448.935)" fill="#1a1a1a"/>
            </g>
            <g id="Group_374" data-name="Group 374" transform="translate(0 1.196)">
              <rect id="Rectangle_122" data-name="Rectangle 122" width="9.175" height="5.903" transform="translate(9.175 7.17) rotate(180)" fill="#ebd619"/>
              <g id="Group_373" data-name="Group 373">
                <g id="Group_372" data-name="Group 372">
                  <path id="Path_2533" data-name="Path 2533" d="M853.343,461.479c0,.36.171.4.383.4s.383-.041.383-.4v-1.253a23.8,23.8,0,0,0,4.157-.744v4.656c0,.416-.161.753-.405.753H849.5c-.244,0-.405-.337-.405-.753V459.5a27.5,27.5,0,0,0,4.252.72Z" transform="translate(-849.091 -456.233)" fill="#dbdbdb"/>
                  <path id="Path_2534" data-name="Path 2534" d="M850.941,459.917a17.653,17.653,0,0,0,1.423,2.4,26.121,26.121,0,0,0,2.2,2.591H849.5c-.244,0-.405-.337-.405-.753v-4.641C849.952,459.718,850.451,459.83,850.941,459.917Z" transform="translate(-849.091 -456.254)" fill="#b7b7b7"/>
                  <path id="Path_2535" data-name="Path 2535" d="M849.5,451.773h8.364c.244,0,.405.337.405.753v2.259a14.214,14.214,0,0,1-4.157.706v-.306c0-.36-.171-.4-.383-.4s-.383.041-.383.4v.3a14.667,14.667,0,0,1-4.252-.706V452.52C849.091,452.11,849.252,451.773,849.5,451.773Z" transform="translate(-849.091 -451.773)" fill="#1a1a1a"/>
                </g>
              </g>
            </g>
            <g id="Group_375" data-name="Group 375" transform="translate(4.132 5.082)">
              <path id="Path_2536" data-name="Path 2536" d="M858.9,462.175v-.388a.166.166,0,0,1,.166-.166h.664a.166.166,0,0,1,.166.166v.388a.166.166,0,0,1-.166.166h-.664A.166.166,0,0,1,858.9,462.175Zm.166-.506a.119.119,0,0,0-.119.118v.388a.119.119,0,0,0,.119.119h.664a.119.119,0,0,0,.118-.119v-.388a.118.118,0,0,0-.118-.118Z" transform="translate(-858.896 -461.357)" fill="#1a1a1a"/>
              <path id="Path_2537" data-name="Path 2537" d="M859.976,461.573a.041.041,0,0,0,.043.04h0a.041.041,0,0,0,.043-.04v-.542a.041.041,0,0,0-.043-.04h0a.041.041,0,0,0-.043.04Z" transform="translate(-859.521 -460.992)" fill="#1a1a1a"/>
            </g>
          </g>
          <g id="Group_377" data-name="Group 377" transform="translate(0 20.616)">
            <path id="Path_2538" data-name="Path 2538" d="M801.741,424.938a2.418,2.418,0,0,1-1.3.375c-.762.064-2.386-.268-2.077.485.73.394,1.54.944,1.54.944a2.68,2.68,0,0,0,1.779-.231l1.422-.869s.122-.8.135-.836l-.326-.133a3.915,3.915,0,0,1-1.178.265Z" transform="translate(-798.331 -424.355)" fill="#f5bc8e"/>
            <path id="Path_2539" data-name="Path 2539" d="M804.032,424.836a.6.6,0,0,1-.085.091c.1.041.2.086.295.135.4.011.8.034,1.2.049-.025-.23-.059-.553-.057-.577l-2.594-.618s-.21.273.264.567a2.655,2.655,0,0,0,.977.353Z" transform="translate(-800.883 -423.917)" fill="#f5bc8e"/>
          </g>
          <path id="Path_2540" data-name="Path 2540" d="M857.953,444.749l-.862,1.9a3.7,3.7,0,0,0,.567,1.448.406.406,0,0,0,.451.091,5.11,5.11,0,0,0,1.325-.7.39.39,0,0,0,.043-.338l-.251-.835-.031-1.946Z" transform="translate(-832.326 -415.128)" fill="#f5bc8e"/>
          <g id="Group_379" data-name="Group 379" transform="translate(18.143)">
            <path id="Path_2541" data-name="Path 2541" d="M847.052,389.115l-.029,2.54,2.263-.122.143-3.938Z" transform="translate(-844.644 -382.287)" fill="#f5bc8e"/>
            <g id="Group_378" data-name="Group 378" transform="translate(0.893 1.366)">
              <path id="Path_2542" data-name="Path 2542" d="M844.635,383.938a1.363,1.363,0,0,1-.762-.181c-.912-1.326.127-4.9.127-4.9l1.457-.614,1.852,1.155.1,2.4a1.945,1.945,0,0,1-.827,1.653h0a3.792,3.792,0,0,1-1.952.487Z" transform="translate(-843.497 -378.242)" fill="#f5bc8e"/>
            </g>
            <path id="Path_2543" data-name="Path 2543" d="M845.569,378.88c-.1-.4.174-1.331-.236-1.264-.3.049-1.324.091-1.669.091-.821,0-2.286-.321-2.286-1.572a1.137,1.137,0,0,1,.768-1.1c.377-.157.8.295,1.188.43a10.237,10.237,0,0,0,3.25.473,1.105,1.105,0,0,1,1.152.772,5.347,5.347,0,0,1-.752,2.527,3.85,3.85,0,0,1-.82,1.074h0Z" transform="translate(-841.378 -375)" fill="#333"/>
            <path id="Path_2544" data-name="Path 2544" d="M852.48,384.277a.619.619,0,0,0-.765.068c-.24.2-.286.492-.1.654a.619.619,0,0,0,.765-.068C852.617,384.731,852.663,384.439,852.48,384.277Z" transform="translate(-847.234 -380.307)" fill="#f5bc8e"/>
          </g>
          <path id="Path_2545" data-name="Path 2545" d="M844.77,387.782c-.467.247-1.055.372-1.307.079" transform="translate(-824.442 -382.395)" fill="#eb9d68"/>
          <ellipse id="Ellipse_132" data-name="Ellipse 132" cx="0.152" cy="0.139" rx="0.152" ry="0.139" transform="translate(19.6 3.7)"/>
          <path id="Path_2546" data-name="Path 2546" d="M826.159,395.337a6.517,6.517,0,0,1,2.656.544,6.388,6.388,0,0,1,3.578,4.42c.72,3.058,1.927,10.312-.84,16.67a13.758,13.758,0,0,1-1.852,0l-.3-14.99.209,10.708h-8.58v-6.906a4.988,4.988,0,0,1-2.3,3c-2.074,1.44-9.854.483-9.854.483v-1.623s6.817-1.433,7.928-2.276,3.512-6.92,3.512-6.92a5.483,5.483,0,0,1,3.754-2.914,10.339,10.339,0,0,1,2.089-.2Z" transform="translate(-804.434 -386.766)" fill="#efefef"/>
          <g id="Group_380" data-name="Group 380" transform="translate(24.858 15.658)">
            <path id="Path_2547" data-name="Path 2547" d="M857.514,422.477l-.2-10.318.222-.006.2,10.325Z" transform="translate(-857.312 -412.152)" fill="#afd8c8"/>
          </g>
          <path id="Path_2548" data-name="Path 2548" d="M849.115,393.62l.14.834h-2.6l.17-.829Z" transform="translate(-826.288 -385.773)" fill="#efefef"/>
        </g>
        <g id="Group_384" data-name="Group 384" transform="translate(0 4.243)">
          <g id="Group_382" data-name="Group 382" transform="translate(0 38.736)">
            <path id="Path_2549" data-name="Path 2549" d="M743.784,512.654a1.111,1.111,0,0,0-.589.846c0,.534-.084,1.77-.084,1.77l.53.1.188-1.132c.015-.074.952,1.2,1.589,1.834l2.345.045s.324-.728-1.28-1.272a6.181,6.181,0,0,1-2.7-2.191Z" transform="translate(-743.111 -497.618)" fill="#010202"/>
            <path id="Path_2550" data-name="Path 2550" d="M746.613,482.652a10.163,10.163,0,0,1,.138-1.431,8.822,8.822,0,0,1,1.171-2.943c.575-.213,1.125-.479,1.713-.712a15.462,15.462,0,0,1,2.077-.589c-.029.079-.059.158-.089.238-3.434,9.061-5.354,13.176-5.654,14.15a1.122,1.122,0,0,0-.072.451,3.361,3.361,0,0,0,1.645,2.432c-1.462.364-2.836-2.235-2.836-2.235S746.541,485.77,746.613,482.652Z" transform="translate(-744.035 -476.977)" fill="#e8b18b"/>
          </g>
          <path id="Path_2551" data-name="Path 2551" d="M762.506,401.591l-.156,2.463-2.4-.5.289-3.347Z" transform="translate(-752.85 -393.828)" fill="#f5bc8e"/>
          <path id="Path_2552" data-name="Path 2552" d="M763.094,395.053a1.414,1.414,0,0,0,.847-.22c1.014-1.615-.141-5.969-.141-5.969l-3.678.66-.117,2.918a2.45,2.45,0,0,0,.919,2.012h0a3.931,3.931,0,0,0,2.17.6Z" transform="translate(-752.884 -387.263)" fill="#f5bc8e"/>
          <path id="Path_2553" data-name="Path 2553" d="M761.137,514.692a1.072,1.072,0,0,0-.413.9c.093.507.224,1.7.224,1.7h.521l-.016-1.108c0-.072,1.116,1.108,1.3,1.108h2.754s.183-.747-1.434-.987a5.966,5.966,0,0,1-2.936-1.608Z" transform="translate(-753.294 -460.06)" fill="#010202"/>
          <g id="Group_383" data-name="Group 383" transform="translate(5.889 38.186)">
            <path id="Path_2554" data-name="Path 2554" d="M757.642,482.763a10.09,10.09,0,0,1-.367-1.39,15.163,15.163,0,0,1-.107-3.914c.465-.4,1.075-.092,1.545-.514a15.486,15.486,0,0,1,1.744-1.273v.254c-.079,9.69-.453,14.216-.4,15.233a3.355,3.355,0,0,0,2.091,2.578c-1.245.848-3.112-1.62-3.112-1.62S758.655,485.713,757.642,482.763Z" transform="translate(-757.085 -475.672)" fill="#f5bc8e"/>
          </g>
          <path id="Path_2555" data-name="Path 2555" d="M756.362,406.2l2.31,3.775a2.953,2.953,0,0,1,.212,1.924l-1.467,6.442a5.666,5.666,0,0,0-.14,1.138l-.351,16.888H749.55a52.307,52.307,0,0,0,1.4-7.636c.468-4.3-.9-6.175-.52-8.058A9.269,9.269,0,0,1,752.25,417a3.573,3.573,0,0,0,.765-2.152c.078-3.194-3.267-12.013-.074-9.867S756.362,406.2,756.362,406.2Z" transform="translate(-746.836 -396.394)" fill="#4e4d4d"/>
          <path id="Path_2556" data-name="Path 2556" d="M762.948,431l.173.619a3.477,3.477,0,0,0,.5.935c.813,1.356,3.553,4.678,3.553,4.678l2.214,1.256s-.045.32-.548.228a2.278,2.278,0,0,1-.867-.365s-.092.364.365,1.1c.341.547,1.436,1.478.685,1.644a12.657,12.657,0,0,1-1.525-.844,1.474,1.474,0,0,1-.74-1.043l-.2-1.172-4.7-3.844a3.557,3.557,0,0,1-1.125-1.634l-.016-.047Z" transform="translate(-753.294 -411.641)" fill="#f5bc8e"/>
          <path id="Path_2557" data-name="Path 2557" d="M794.758,420a2.077,2.077,0,0,0,1.148-.4c.586-.358,1.567-1.481,1.774-.735-.3.694-.571,1.551-.571,1.551a2.264,2.264,0,0,1-1.415.772l-1.521.09s-.544-.551-.575-.572l.159-.276a3.316,3.316,0,0,0,1-.43Z" transform="translate(-772.32 -404.473)" fill="#f5bc8e"/>
          <path id="Path_2558" data-name="Path 2558" d="M756.379,388.4a3.747,3.747,0,0,0,1.985.459,2.521,2.521,0,0,0,1.944-1.281,1.283,1.283,0,0,0-.543-1.781,1.339,1.339,0,0,0-1.632.12.616.616,0,0,1-.817.022,3.779,3.779,0,0,0-2.49-.873c-1.279,0-1.244,1.241-1.049,2.142a1.3,1.3,0,0,1-.573,1.379c-.759.47-1.726,1.237-1.527,2a4.548,4.548,0,0,0,.85,1.6,1.133,1.133,0,0,1,.011,1.382,3.142,3.142,0,0,0-.861,2.181,7.67,7.67,0,0,0,.989,1.989,1.233,1.233,0,0,1,0,1.335,1.644,1.644,0,0,0-.259,1.242,2.863,2.863,0,0,0,.467,1,.8.8,0,0,0,1.374-.106c.838-1.691,2.3-5.153,1.792-7.793-.257-1.324-.607-3.66-.607-3.66S755.055,387.837,756.379,388.4Z" transform="translate(-748.05 -385.067)"/>
          <path id="Path_2559" data-name="Path 2559" d="M767.41,423.893l2.816,1.459a1.543,1.543,0,0,0,1.14.112l7.745-2.446v-.977l-7.548.916L769.2,421.7Z" transform="translate(-757.169 -406.261)" fill="#f5bc8e"/>
          <path id="Path_2560" data-name="Path 2560" d="M759.316,394.439a.642.642,0,0,1,.851.083.553.553,0,0,1,.114.8.642.642,0,0,1-.851-.083.553.553,0,0,1-.114-.8Z" transform="translate(-752.414 -390.416)" fill="#f5bc8e"/>
          <path id="Path_2561" data-name="Path 2561" d="M766.017,419.631l.78-4.816,3.344,3.844-.917,2.99L766.038,420C766.133,419.633,766.038,420,766.017,419.631Z" transform="translate(-756.363 -402.277)" fill="#4e4d4d"/>
          <path id="Path_2562" data-name="Path 2562" d="M795.68,420.3a.563.563,0,0,0,.113.025q-.074.129-.135.261c-.281.222-.556.453-.835.677-.114-.191-.274-.458-.289-.475l1.518-1.861s.307.1.133.578a2.274,2.274,0,0,1-.5.8Z" transform="translate(-772.861 -404.658)" fill="#f5bc8e"/>
        </g>
        <circle id="Ellipse_133" data-name="Ellipse 133" cx="0.11" cy="0.11" r="0.11" transform="translate(9.428 8.921)"/>
        <circle id="Ellipse_134" data-name="Ellipse 134" cx="0.11" cy="0.11" r="0.11" transform="translate(10.547 8.921)"/>
        <path id="Path_2563" data-name="Path 2563" d="M766.834,399.513c0,.18-.289.322-.648.322s-.648-.147-.648-.322" transform="translate(-756.086 -389.182)" fill="#eb9d68"/>
      </g>
      <g id="Group_392" data-name="Group 392" transform="translate(69.271)">
        <g id="Group_386" data-name="Group 386" transform="translate(15.729 83.69)">
          <path id="Path_2564" data-name="Path 2564" d="M951.066,539.1a11.592,11.592,0,0,1-4.76,2.189c-.728.186-1.514-.062-1.514,1.14h4.016l3.34-.577v.577h1.8s.5-2.95-.551-3.328Z" transform="translate(-944.792 -536.984)" fill="#010202"/>
          <path id="Path_2565" data-name="Path 2565" d="M960.034,534.075l-.355,2.119h0a2.04,2.04,0,0,0,2.21.074l.124-.074.524-2.119Z" transform="translate(-953.405 -534.075)" fill="#f5bc8e"/>
        </g>
        <path id="Path_2566" data-name="Path 2566" d="M949.149,414.822s2.2,9.3-2.694,21.813a12.013,12.013,0,0,0-.517,7.032c2.324,10.231,1.186,21.681,1.186,21.681l-3.075-.026-11.51-44.509Z" transform="translate(-921.974 -381.392)" fill="#010202"/>
        <g id="Group_388" data-name="Group 388" transform="translate(8.168)">
          <path id="Path_2567" data-name="Path 2567" d="M938.818,354.182l1.26,3.665,3.1-2.073-1.879-4.336Z" transform="translate(-933.775 -344.722)" fill="#f5bc8e"/>
          <g id="Group_387" data-name="Group 387" transform="translate(1.535 1.353)">
            <path id="Path_2568" data-name="Path 2568" d="M932.842,347.378a2.057,2.057,0,0,1-1.178-.076c-1.689-1.738-1.052-7.308-1.052-7.308l2.008-1.28,3.041,1.246.763,3.53a2.925,2.925,0,0,1-.809,2.662h0A5.715,5.715,0,0,1,932.842,347.378Z" transform="translate(-930.494 -338.714)" fill="#f5bc8e"/>
          </g>
          <path id="Path_2569" data-name="Path 2569" d="M932.966,339.258a1.206,1.206,0,0,0-1.492-.658,9.625,9.625,0,0,1-1.463.389c-1.219.208-2.815-.011-3.131-1.867s2.072-1.608,2.072-1.608a13.025,13.025,0,0,1,5.237.962c.979.5,1.492,2.815,1.136,3.942a5.774,5.774,0,0,1-.946,1.8h0Z" transform="translate(-926.852 -335.503)" fill="#333"/>
          <path id="Path_2570" data-name="Path 2570" d="M943.686,346.324a.931.931,0,0,0-1.119.295c-.3.357-.3.8.013,1a.931.931,0,0,0,1.119-.3C944,346.963,944,346.518,943.686,346.324Z" transform="translate(-935.813 -341.712)" fill="#f5bc8e"/>
        </g>
        <path id="Path_2571" data-name="Path 2571" d="M934.593,352.866c-.636.454-1.472.755-1.9.375" transform="translate(-922.065 -345.548)" fill="#eb9d68"/>
        <ellipse id="Ellipse_135" data-name="Ellipse 135" cx="0.225" cy="0.206" rx="0.225" ry="0.206" transform="translate(11.891 5.42) rotate(-14.717)"/>
        <ellipse id="Ellipse_136" data-name="Ellipse 136" cx="0.212" cy="0.206" rx="0.212" ry="0.206" transform="matrix(0.967, -0.254, 0.254, 0.967, 10.115, 5.42)"/>
        <path id="Path_2572" data-name="Path 2572" d="M935.629,360.711c-9.581,3.614-5.562,25.978-5.562,25.978l17.368.387S949.644,359.218,935.629,360.711Z" transform="translate(-920.061 -350.053)" fill="#999"/>
        <path id="Path_2573" data-name="Path 2573" d="M936.826,377.97s-4.064,14.214-7.787,14.3-13.081-13.818-13.081-13.818l2.263-1.4,7.75,6.726c1.374-4.211,3.337-10.033,3.337-10.033Z" transform="translate(-912.382 -357.629)" fill="#999"/>
        <g id="Group_389" data-name="Group 389" transform="translate(5.614 16.89)">
          <path id="Path_2574" data-name="Path 2574" d="M920.793,378.254l8.057,6.879.078-.24c1.021-3.131,2.383-7.2,3-9.041-.084-.063-.165-.129-.25-.19l.255.176.01-.029c-.094-.075-.185-.153-.276-.229-.577,1.715-1.938,5.773-2.982,8.97l-7.669-6.434Z" transform="translate(-920.793 -375.579)" fill="#848484"/>
          <path id="Path_2575" data-name="Path 2575" d="M938.841,389.188c-1.328,4.008-4.245,11.786-6.9,11.848-2.549.052-7.787-6.861-10.736-10.9-.11.142-.111.107-.223.243,2.91,3.983,7.937,10.622,10.7,10.975a1.773,1.773,0,0,0,.265.014c2.881-.067,5.86-7.974,7.208-12.058Q939,389.254,938.841,389.188Z" transform="translate(-920.903 -383.452)" fill="#848484"/>
        </g>
        <path id="Path_2576" data-name="Path 2576" d="M939.5,359.3l3.248-1.249,1.128,1.207-4.647,1.27Z" transform="translate(-925.845 -348.55)" fill="#fff"/>
        <g id="Group_390" data-name="Group 390" transform="translate(4.37 83.69)">
          <path id="Path_2577" data-name="Path 2577" d="M924.115,539.1a11.591,11.591,0,0,1-4.76,2.189c-.728.186-1.514-.062-1.514,1.14h4.016l3.34-.577v.577H927s.5-2.95-.551-3.328Z" transform="translate(-917.841 -536.984)" fill="#4e4d4d"/>
          <path id="Path_2578" data-name="Path 2578" d="M933.083,534.075l-.355,2.119h0a2.04,2.04,0,0,0,2.21.074l.124-.074.524-2.119Z" transform="translate(-926.454 -534.075)" fill="#f5bc8e"/>
        </g>
        <path id="Path_2579" data-name="Path 2579" d="M948.758,420.554s0,9.562-7.64,20.608A12.017,12.017,0,0,0,939,447.886a72.689,72.689,0,0,1-3.677,20.639h-3.142l-.961-47.181Z" transform="translate(-921.209 -384.708)" fill="#4e4d4d"/>
        <g id="Group_391" data-name="Group 391" transform="translate(0 11.195)">
          <rect id="Rectangle_123" data-name="Rectangle 123" width="0.67" height="8.535" transform="translate(0 0.326) rotate(-29.115)" fill="#ebd615"/>
        </g>
        <path id="Path_2580" data-name="Path 2580" d="M912.849,374.938l-1.229-1A5.992,5.992,0,0,1,910.169,370l.054-2.077h0c.426.219.689.955.9,1.385l1.548,2.576,1.974,1.938Z" transform="translate(-909.032 -354.263)" fill="#f7b58e"/>
        <path id="Path_2581" data-name="Path 2581" d="M914.969,373.827c.255-.224,1.388,1.018,1.454.507a8.468,8.468,0,0,0-.748-2.73,5.526,5.526,0,0,1-.727-1.949s-.494,0-.467.78c.013.388.3.94.333,1.519A4,4,0,0,0,914.969,373.827Z" transform="translate(-911.526 -355.261)" fill="#f7b58e"/>
      </g>
      <g id="Group_405" data-name="Group 405" transform="translate(48.905 3.856)">
        <path id="Path_2602" data-name="Path 2602" d="M893.074,383.659l3.841,7.234-4.232-.2-.3-7.263Z" transform="translate(-878.377 -367.085)" fill="#f5bc8e"/>
        <path id="Path_2603" data-name="Path 2603" d="M877.871,376.367l3.548-.005,1.47,22.929h-6.357Z" transform="translate(-869.205 -362.998)" fill="#fff"/>
        <g id="Group_400" data-name="Group 400" transform="translate(1.418 79.803)">
          <path id="Path_2604" data-name="Path 2604" d="M863.247,536.08a1.856,1.856,0,0,0-.716,1.567c.161.878.388,2.936.388,2.936h.9l-.028-1.919c0-.126,1.934,1.919,2.26,1.919h4.771s.317-1.294-2.484-1.71a10.332,10.332,0,0,1-5.091-2.793Z" transform="translate(-862.511 -535.204)" fill="#ebd619"/>
          <g id="Group_399" data-name="Group 399" transform="translate(0.595)">
            <path id="Path_2605" data-name="Path 2605" d="M866.131,534l.647,1.683a2.161,2.161,0,0,0,.881,1.118,8.473,8.473,0,0,0,2.227,1.011c-1.3,1.107-3.359-.049-4.539-.866a2.888,2.888,0,0,1-1.153-1.671L863.923,534Z" transform="translate(-863.923 -534.002)" fill="#f5bc8e"/>
          </g>
        </g>
        <g id="Group_402" data-name="Group 402" transform="translate(10.505 79.803)">
          <path id="Path_2606" data-name="Path 2606" d="M884.809,536.08a1.857,1.857,0,0,0-.716,1.567c.161.878.388,2.936.388,2.936h.9l-.028-1.919c0-.126,1.934,1.919,2.261,1.919h4.77s.317-1.294-2.484-1.71a10.332,10.332,0,0,1-5.091-2.793Z" transform="translate(-884.073 -535.204)" fill="#e0c81b"/>
          <g id="Group_401" data-name="Group 401" transform="translate(0.595)">
            <path id="Path_2607" data-name="Path 2607" d="M887.694,534l.646,1.683a2.161,2.161,0,0,0,.881,1.118,8.472,8.472,0,0,0,2.227,1.011c-1.3,1.107-3.359-.049-4.54-.866a2.889,2.889,0,0,1-1.153-1.671l-.27-1.275Z" transform="translate(-885.486 -534.002)" fill="#f5bc8e"/>
          </g>
        </g>
        <path id="Path_2608" data-name="Path 2608" d="M873.2,430.766s-.6,3.427,2.831,20.272c-2.774,8.779,1.669,23.467,1.669,23.467h3.239l2.205-43.739Z" transform="translate(-867.254 -394.473)" fill="#010202"/>
        <path id="Path_2609" data-name="Path 2609" d="M887.2,376.374l1.151,27.82,3.812-1.632a40.936,40.936,0,0,1-1.555-12.478c-.583-5.247,2.394-2.483-1.253-12.584a3.9,3.9,0,0,0-2.155-1.126Z" transform="translate(-875.379 -363.005)" fill="#ebd615"/>
        <path id="Path_2610" data-name="Path 2610" d="M882.522,364.114l-.447,2.346a1.493,1.493,0,0,1-2.259.985l-1.564-.981,2.793-6.315Z" transform="translate(-870.2 -353.619)" fill="#f5bc8e"/>
        <path id="Path_2611" data-name="Path 2611" d="M862.9,430.766s-4.243,3.427-.816,20.272c-2.775,8.779-.326,23.467-.326,23.467h2.907l8.178-43.739Z" transform="translate(-860.076 -394.473)" fill="#4e4d4d"/>
        <path id="Path_2612" data-name="Path 2612" d="M867.814,370.78s-3.582,2.013-4.7,3.81c-1.061,1.713-1.428,5.612-1.53,9.082-.14,4.765-2.441,17.285-2.441,17.285h9.6l.239-27.255Z" transform="translate(-859.148 -359.769)" fill="#ebd615"/>
        <path id="Path_2613" data-name="Path 2613" d="M884.939,348.113c-2.172-.551-4.26,1.676-4.26,1.676l-1.634,8.8-2.512-3.872s-.143-5.262,2.285-8.745c1.739-2.11,5.077-1.5,6.765.547a5.186,5.186,0,0,1,.912,3.644c-.107,1.7-.589,11.473-.589,11.473l-4.974-3.685a23.13,23.13,0,0,1,.6-2.8C882.346,352.039,886.4,348.482,884.939,348.113Z" transform="translate(-869.205 -344.653)" fill="#333"/>
        <path id="Path_2614" data-name="Path 2614" d="M884.376,356.466a.785.785,0,0,1,.927.483.677.677,0,0,1-.235.955.785.785,0,0,1-.927-.483.676.676,0,0,1,.235-.955Z" transform="translate(-873.552 -351.465)" fill="#f5bc8e"/>
        <g id="Group_403" data-name="Group 403" transform="translate(10.58 2.62)">
          <path id="Path_2615" data-name="Path 2615" d="M886.826,359.158a1.732,1.732,0,0,0,1.062.137c1.888-1.368,2.571-6.836,2.571-6.836l-1.5-1.589-2.979.655-1.467,3.257a3,3,0,0,0,.122,2.7h0A4.81,4.81,0,0,0,886.826,359.158Z" transform="translate(-884.252 -350.87)" fill="#f5bc8e"/>
        </g>
        <path id="Path_2616" data-name="Path 2616" d="M890.8,349.947c-.155,1.654-4.758,1.789-4.758,1.789l-.24-2.239,2.683-1.477,2.124,1.278a1.41,1.41,0,0,1,.191.649Z" transform="translate(-874.57 -346.601)" fill="#333"/>
        <path id="Path_2617" data-name="Path 2617" d="M897.391,352.98a3.159,3.159,0,0,0,.47,1.688l.366-.662-.01-.573-.362-.447S897.544,352.365,897.391,352.98Z" transform="translate(-881.259 -349.313)" fill="#333"/>
        <path id="Path_2618" data-name="Path 2618" d="M866.979,379.791c-4.646.542-2.451,12.527-1.453,17.448a2.083,2.083,0,0,0,2.662,1.578c4.042-1.275,9.948-6.569,9.948-6.569l-.936-1.179-7.845,1.832S872.365,379.163,866.979,379.791Z" transform="translate(-862.029 -364.97)" fill="#f5bc8e"/>
        <path id="Path_2619" data-name="Path 2619" d="M890.856,399.389l-1.517,9.39a.447.447,0,0,0,.442.518h6.006a.447.447,0,0,0,.442-.377l1.49-9.39a.447.447,0,0,0-.442-.517H891.3a.447.447,0,0,0-.444.376Z" transform="translate(-876.612 -376.102)" fill="#010202"/>
        <g id="Group_404" data-name="Group 404" transform="translate(18.793 24.45)">
          <path id="Path_2620" data-name="Path 2620" d="M905.857,405.66a4.109,4.109,0,0,0-.1-1.22c-.143-.888-.1-2.28-1.013-1.586a4.566,4.566,0,0,0-.957,2.219,2.654,2.654,0,0,0,.572,1.983l.624,1.359a3.928,3.928,0,0,0,.874-2.755Z" transform="translate(-903.739 -402.667)" fill="#eb9d68" stroke="#eb9d68" stroke-miterlimit="10" stroke-width="0.42"/>
        </g>
        <path id="Path_2621" data-name="Path 2621" d="M899.44,407.04a.458.458,0,1,0,.458-.458A.458.458,0,0,0,899.44,407.04Z" transform="translate(-882.459 -380.481)" fill="#ebd615"/>
        <path id="Path_2622" data-name="Path 2622" d="M891.476,365.7c-.278.735-1.262.079-1.9-.38" transform="translate(-876.753 -356.612)" fill="#eb9d68"/>
        <ellipse id="Ellipse_137" data-name="Ellipse 137" cx="0.206" cy="0.225" rx="0.206" ry="0.225" transform="translate(12.923 6.747) rotate(-75.283)"/>
        <ellipse id="Ellipse_138" data-name="Ellipse 138" cx="0.206" cy="0.212" rx="0.206" ry="0.212" transform="matrix(0.254, -0.967, 0.967, 0.254, 14.725, 7.109)"/>
      </g>
    </g>
    <path id="Path_2682" data-name="Path 2682" d="M1159.415,581.94c-.025.518-.539.177-.893.055" transform="translate(-361.142 -220.38)" fill="#eb9d68"/>
    <circle id="Ellipse_139" data-name="Ellipse 139" cx="0.093" cy="0.093" r="0.093" transform="translate(797.877 359.929)"/>
    <g id="Group_442" data-name="Group 442" transform="translate(600.565 266.581)">
      <g id="Group_440" data-name="Group 440">
        <path id="Path_2683" data-name="Path 2683" d="M701.976,398.682l-5.424,14.53,1.139.442s4.238-6.524,8.48-14.018C710.154,392.6,701.976,398.682,701.976,398.682Z" transform="translate(-694.438 -379.526)" fill="#f7b58e"/>
        <path id="Path_2684" data-name="Path 2684" d="M709.421,393.17s2.767-6.443,6.517-6.443-.347.477,4.427,0c3.263-.326,6.152,5.338,6.152,5.338l-3.651,1.958-.392,8.789h-8.788l-.5-8.484Z" transform="translate(-701.883 -374.014)" fill="#ffee57"/>
        <path id="Path_2685" data-name="Path 2685" d="M724.883,380.016v2.608l.021.016a3.1,3.1,0,0,0,3.551.1l.177-.117-.581-3Z" transform="translate(-710.829 -369.911)" fill="#f5bc8e"/>
        <path id="Path_2686" data-name="Path 2686" d="M720.672,362.84s-.218,5.873,3.154,5.873S727.2,362.3,727.2,362.3l-2.937-2.937Z" transform="translate(-708.391 -358.188)" fill="#f5bc8e"/>
        <ellipse id="Ellipse_140" data-name="Ellipse 140" cx="0.146" cy="0.164" rx="0.146" ry="0.164" transform="translate(14.018 5.297)"/>
        <path id="Path_2687" data-name="Path 2687" d="M717.533,359.383a10.444,10.444,0,0,1-2.616,2.914,1.859,1.859,0,0,0-.844,1.976c.212.976,1.371,1.809,1.22,2.728a6.21,6.21,0,0,0,1.338,4.263c2.565,3.835.14,10.091-3.451,10.091-4.045,0-3.519-4.753-3.22-5.6a2.436,2.436,0,0,0-.654-2.624,2.568,2.568,0,0,1-1.017-1.778,8.535,8.535,0,0,1,1.4-3.323,14.8,14.8,0,0,0,1.589-4.776c.709-6.666,5.411-6.684,5.624-6.666a4.87,4.87,0,0,1,4.454,4.51c.046,2.712.882,8.262,1.617,9.276-2.4,1.051-5.536-.652-4.64-4.46.175-.745,1.632-2.818,1.567-3.48a3.236,3.236,0,0,0-2.367-3.051Z" transform="translate(-701.228 -356.581)" fill="#333"/>
        <g id="Group_437" data-name="Group 437" transform="translate(21.22 72.786)">
          <path id="Path_2688" data-name="Path 2688" d="M743.946,529.281l.6,1.571a2.018,2.018,0,0,0,.822,1.044,8.106,8.106,0,0,0,2.079.9c-1.21,1.033-3.136,0-4.237-.766a2.694,2.694,0,0,1-1.076-1.559l-.252-1.19Z" transform="translate(-741.886 -529.281)" fill="#f5bc8e"/>
        </g>
        <path id="Path_2689" data-name="Path 2689" d="M741.254,531.22a1.732,1.732,0,0,0-.668,1.463c.15.82.362,2.74.362,2.74h.841l-.026-1.791c0-.117,1.8,1.791,2.109,1.791h4.453s.3-1.208-2.319-1.6a9.643,9.643,0,0,1-4.752-2.6Z" transform="translate(-719.903 -457.617)" fill="#1a1a1a"/>
        <path id="Path_2690" data-name="Path 2690" d="M727.043,366.815a8.582,8.582,0,0,1-1.388.754,7.171,7.171,0,0,1-1.579,1.673,8.175,8.175,0,0,1,.392,2.767c-.008.2-.027.4-.052.6a2.353,2.353,0,0,0,1.381.42c2.31,0,3.037-3.011,3.266-4.908a6.555,6.555,0,0,1-2.02-1.306Z" transform="translate(-710.362 -362.502)" fill="#f5bc8e"/>
        <path id="Path_2691" data-name="Path 2691" d="M727.68,374.394c0,.327-.481.593-1.075.593s-1.075-.264-1.075-.593" transform="translate(-711.203 -366.887)" fill="#eb9d68"/>
        <ellipse id="Ellipse_141" data-name="Ellipse 141" cx="0.179" cy="0.164" rx="0.179" ry="0.164" transform="translate(16.449 5.297)"/>
        <path id="Path_2692" data-name="Path 2692" d="M733.93,370.934a.766.766,0,0,1,.1-1.016.661.661,0,0,1,.952-.134.767.767,0,0,1-.1,1.016.661.661,0,0,1-.952.134Z" transform="translate(-715.976 -364.133)" fill="#f5bc8e"/>
        <path id="Path_2693" data-name="Path 2693" d="M726.265,448.84c3.247-16.8-2.019-23.929-2.019-23.929h-8.815s-4.736,6.852-2.02,23.929c0,0-1.627,7.832-.651,20.058h2.061l2.514-17.992,2.5-16.236,2.5,16.236,2.514,17.992h2.06C727.893,456.672,726.265,448.84,726.265,448.84Z" transform="translate(-703.635 -396.113)" fill="#333"/>
        <path id="Path_2694" data-name="Path 2694" d="M741.01,399.412s4.4,8.354,2.549,9.55-9.086-3.193-9.086-3.193l.385-1.2,4.012.147-1.51-3.35Z" transform="translate(-716.377 -381.361)" fill="#f5bc8e"/>
        <path id="Path_2695" data-name="Path 2695" d="M712.249,531.448l-.483,2.616a3.085,3.085,0,0,0,.385,2.154c.361.6.843,1.21,1.3,1.21.515,0,1.093-.661,1.491-1.224a1.982,1.982,0,0,0,.317-1.575l-.756-3.409Z" transform="translate(-703.209 -457.617)" fill="#1a1a1a"/>
        <g id="Group_438" data-name="Group 438" transform="translate(18.683 23.224)" opacity="0.3">
          <path id="Path_2696" data-name="Path 2696" d="M744.153,413.569c-2.949-1.866-8.211-1.532-8.266-1.529l-.021-.326c.233-.014,5.422-.345,8.461,1.579Z" transform="translate(-735.866 -411.684)" fill="#eb9d68" stroke="#eb9d68" stroke-miterlimit="10" stroke-width="0.42"/>
        </g>
        <g id="Group_439" data-name="Group 439" transform="translate(0 33.073)">
          <path id="Path_2697" data-name="Path 2697" d="M694.4,436.877a2.74,2.74,0,0,0-.946,1.294c-.369.827-.6,2.78-1.378,2.124-.19-.979-.537-2.111-.537-2.111a2.984,2.984,0,0,1,.961-1.9l1.586-1.234s1,.192,1.052.193l.121.174a6.055,6.055,0,0,0-.859,1.46Z" transform="translate(-691.536 -435.054)" fill="#f7b58e"/>
          <path id="Path_2698" data-name="Path 2698" d="M696.884,437.428a.753.753,0,0,0-.142.057c-.01-.13-.027-.258-.048-.385.14-.451.266-.907.4-1.359.266.122.639.293.668.3L697.5,439.2s-.407.123-.577-.529a3,3,0,0,1-.039-1.243Z" transform="translate(-694.52 -435.452)" fill="#f7b58e"/>
        </g>
        <path id="Path_2699" data-name="Path 2699" d="M712.794,529.281l-.284,3.441a.976.976,0,0,0,.523.958,2.054,2.054,0,0,0,1.755.013.971.971,0,0,0,.519-1.007l-.452-3.405Z" transform="translate(-703.669 -456.495)" fill="#f5bc8e"/>
      </g>
      <path id="Path_2700" data-name="Path 2700" d="M726.562,402.712l-.392-5.345a.434.434,0,0,0-.433-.4h-2.526a.435.435,0,0,0-.434.469l.415,5.345a.434.434,0,0,0,.433.4h2.5a.435.435,0,0,0,.437-.469Z" transform="translate(-709.61 -379.944)" fill="#fff"/>
      <g id="Group_441" data-name="Group 441" transform="translate(13.97 20.11)">
        <path id="Path_2701" data-name="Path 2701" d="M728.477,406.761a2.9,2.9,0,0,1-1.5-.791c-.734-.615-1.855-2.365-2.294-1.379.273,1.018.468,2.255.468,2.255a3.157,3.157,0,0,0,1.791,1.356l2.078.438s.864-.648.91-.671l-.163-.414a4.633,4.633,0,0,1-1.29-.794Z" transform="translate(-724.684 -404.296)" fill="#f7b58e"/>
        <path id="Path_2702" data-name="Path 2702" d="M731.613,407.647a.788.788,0,0,1-.161.011c.051.128.094.258.132.389.343.363.673.738,1.012,1.105.2-.239.472-.575.5-.6l-1.709-2.879s-.444.073-.3.77A3.169,3.169,0,0,0,731.613,407.647Z" transform="translate(-728.368 -405.096)" fill="#f7b58e"/>
      </g>
      <path id="Path_2703" data-name="Path 2703" d="M725.793,400.772a.4.4,0,1,0,.4-.4A.4.4,0,0,0,725.793,400.772Z" transform="translate(-711.355 -381.916)" fill="#010202"/>
      <path id="Path_2704" data-name="Path 2704" d="M697.491,423.2s1.489-1.028,2.042-.783.118,1.28.118,1.28Z" transform="translate(-694.981 -394.65)" fill="#f39f85"/>
    </g>
    <g id="Group_449" data-name="Group 449" transform="translate(586.17 261.702)">
      <g id="Group_444" data-name="Group 444" transform="translate(8.795)">
        <path id="Path_2705" data-name="Path 2705" d="M682.451,361.887l-.7,3.33-3.5-.967,2.289-4.779Z" transform="translate(-678.249 -353.374)" fill="#f7b58e"/>
        <g id="Group_443" data-name="Group 443" transform="translate(2.264 1.874)">
          <path id="Path_2706" data-name="Path 2706" d="M686.434,357.019a1.82,1.82,0,0,0,1.041.079c1.7-1.315,1.827-6.276,1.827-6.276l-1.6-1.37-2.82.716-1.1,3a2.592,2.592,0,0,0,.38,2.434h0A5.058,5.058,0,0,0,686.434,357.019Z" transform="translate(-683.622 -349.452)" fill="#f7b58e"/>
        </g>
        <path id="Path_2707" data-name="Path 2707" d="M683.713,349.438c.292-.47.6-1.671,1.1-1.419.359.183,1.644.652,2.081.792,1.044.333,3.034.518,3.54-1.069a2.149,2.149,0,0,0-2.223-2.584c-1.277.035-3.083.434-3.652.118a1.647,1.647,0,0,0-2.431.615,9.123,9.123,0,0,0-.069,3.515,5.126,5.126,0,0,0,.607,1.7h0Z" transform="translate(-680.372 -345.004)" fill="#010202"/>
        <path id="Path_2708" data-name="Path 2708" d="M683.21,354.935a.824.824,0,0,1,.945.4c.223.35.163.741-.135.872a.824.824,0,0,1-.944-.4C682.852,355.456,682.912,355.066,683.21,354.935Z" transform="translate(-680.963 -350.725)" fill="#f7b58e"/>
        <circle id="Ellipse_142" data-name="Ellipse 142" cx="0.144" cy="0.144" r="0.144" transform="translate(6.203 5.663) rotate(-75.287)"/>
        <circle id="Ellipse_143" data-name="Ellipse 143" cx="0.144" cy="0.144" r="0.144" transform="translate(4.791 5.293) rotate(-75.287)"/>
        <path id="Path_2709" data-name="Path 2709" d="M690.108,361.29c-.08.3-.646.426-1.266.263s-1.056-.541-.974-.851" transform="translate(-683.808 -354.086)" fill="#eb9d68"/>
      </g>
      <path id="Path_2710" data-name="Path 2710" d="M670.957,369.033c-6.515-.365-7.067,5.431-7.614,11.729a118.79,118.79,0,0,0-.143,15.116h15.162s0-6.715-.162-13.431C678.047,375.933,677.847,369.418,670.957,369.033Z" transform="translate(-660.644 -358.896)" fill="#999"/>
      <path id="Path_2711" data-name="Path 2711" d="M701.2,402.96c2.658-.939,1.036-10.083,1.036-10.083l-1.571-.015S698.538,403.9,701.2,402.96Z" transform="translate(-681.956 -372.692)" fill="#eb9d68" stroke="#eb9d68" stroke-miterlimit="10" stroke-width="0.42"/>
      <path id="Path_2712" data-name="Path 2712" d="M697.022,380.857l-1.856,1.115s-7.832-12.67-3.96-9.334a22.7,22.7,0,0,1,5.816,8.219Z" transform="translate(-676.328 -360.668)" fill="#4e4d4d"/>
      <g id="Group_445" data-name="Group 445" transform="translate(8.246 77.229)">
        <path id="Path_2713" data-name="Path 2713" d="M680.182,532.689s.008,1.816,3.654,2.905c.748.224.5.445.645.76h-4.2l-1.643-1.847-.511.439-1.185-1.164s.553-1.685,1.455-1.7Z" transform="translate(-676.946 -530.466)" fill="#010202"/>
        <path id="Path_2714" data-name="Path 2714" d="M682.861,528.9l-.682,1.572h0a1.644,1.644,0,0,1-1.7-.518l-.075-.089.551-1.616Z" transform="translate(-678.944 -528.247)" fill="#f7b58e"/>
      </g>
      <path id="Path_2715" data-name="Path 2715" d="M658.4,381.336s2.487-11.568,8.365-11.3-2.555,12.131-2.555,12.131Z" transform="translate(-657.971 -359.484)" fill="#4e4d4d"/>
      <path id="Path_2716" data-name="Path 2716" d="M695.667,391.851c3.684-2.976-3.553-18.527-3.553-18.527l-1.754.176S690.495,394.121,695.667,391.851Z" transform="translate(-676.461 -361.388)" fill="#f5bc8e"/>
      <path id="Path_2717" data-name="Path 2717" d="M682.451,368.027l-.223-1.14-3.01-.6-.969,1.2Z" transform="translate(-669.454 -357.318)" fill="#4e4d4d"/>
      <path id="Path_2718" data-name="Path 2718" d="M690.766,366.832l.223-2.965s-1.479-2.269-2.879-1.66a3.571,3.571,0,0,0,.19,1.874l.712,2.927Z" transform="translate(-675.113 -354.897)" fill="#f7b58e"/>
      <path id="Path_2719" data-name="Path 2719" d="M686.865,432.75s2.113,13.25,1.616,19.379-7.213,22.142-7.213,22.142l-2.924-.851s-.222-10.712,2.649-17.745a6.544,6.544,0,0,0,0-4.827,81.045,81.045,0,0,1-3.277-10.163l.224-7.936Z" transform="translate(-669.147 -395.769)" fill="#010202"/>
      <g id="Group_446" data-name="Group 446" transform="translate(12.776 7.064)">
        <path id="Path_2720" data-name="Path 2720" d="M690.33,366.513l.051-.005.206-2.8c-.192-.286-1.425-2.028-2.567-1.591a3.633,3.633,0,0,0,.212,1.733l.008.034a1.75,1.75,0,0,0-.3-.051,3.434,3.434,0,0,1-.152-1.878l.021-.053.052-.023c1.458-.646,2.927,1.616,2.989,1.712l.026.04-.231,3.131-.17.017a1.968,1.968,0,0,0-.14-.266Z" transform="translate(-687.696 -361.766)" fill="#eb9d68" stroke="#eb9d68" stroke-miterlimit="10" stroke-width="0.42"/>
      </g>
      <g id="Group_447" data-name="Group 447" transform="translate(3.08 78.502)">
        <path id="Path_2721" data-name="Path 2721" d="M667.4,535.8a10.462,10.462,0,0,0,4.293,1.974c.657.167,1.365-.056,1.365,1.027h-3.621l-3.012-.521v.521H664.8s-.453-2.66.5-3Z" transform="translate(-664.688 -533.888)" fill="#1a1a1a"/>
        <path id="Path_2722" data-name="Path 2722" d="M667.907,531.266l.32,1.911h0a1.839,1.839,0,0,1-1.993.067l-.112-.067.162-1.911Z" transform="translate(-665.518 -531.266)" fill="#f7b58e"/>
      </g>
      <path id="Path_2723" data-name="Path 2723" d="M673.463,432.75l-7.034,42.087h-2.815s-2.424-11.338-.552-20.493a13.818,13.818,0,0,0,.125-4.828c-1.783-11.822-.423-16.766-.423-16.766Z" transform="translate(-660.208 -395.769)" fill="#4e4d4d"/>
      <g id="Group_448" data-name="Group 448" transform="translate(16.225 27.26)">
        <path id="Path_2724" data-name="Path 2724" d="M713.473,409.684H700.418a.33.33,0,0,0-.3.186l-4.21,8.669a.33.33,0,0,0,.3.474h13.057a.329.329,0,0,0,.3-.186l4.207-8.669a.33.33,0,0,0-.3-.474Z" transform="translate(-695.879 -409.684)" fill="#010202"/>
        <path id="Path_2725" data-name="Path 2725" d="M718.549,416.992a.553.553,0,1,0,.553-.553A.553.553,0,0,0,718.549,416.992Z" transform="translate(-708.994 -413.592)" fill="#ededed"/>
      </g>
      <path id="Path_2726" data-name="Path 2726" d="M663.621,397.686l-.709,4.8,11.611,5.787-1.267,1.258s-13.037-2.347-14.879-4.069-.567-8.61-.567-8.61Z" transform="translate(-657.381 -375.002)" fill="#f5bc8e"/>
      <path id="Path_2727" data-name="Path 2727" d="M693.369,424.618l2.735,1.757c1.1.505,2.075-.285,2.868-1.4a1.029,1.029,0,0,0-.858-1.627c-.984.014-2.177.215-2.77.256Z" transform="translate(-678.202 -390.329)" fill="#f5bc8e"/>
    </g>
    <g id="Group_458" data-name="Group 458" transform="translate(570.518 265.039)">
      <g id="Group_452" data-name="Group 452" transform="translate(8.812 2.473)">
        <g id="Group_451" data-name="Group 451">
          <path id="Path_2728" data-name="Path 2728" d="M644.837,371.781l-1.4,3.133-2.283-2.057,1.61-4.564Z" transform="translate(-641.151 -364.288)" fill="#f4bc8f"/>
          <g id="Group_450" data-name="Group 450" transform="translate(1.555)">
            <path id="Path_2729" data-name="Path 2729" d="M647.782,366.482a1.557,1.557,0,0,0,.959-.088c1.388-1.572.912-6.2.912-6.2l-1.625-1.4-2.484,1.16L644.9,362.5a4.07,4.07,0,0,0,.638,2.949h0a4.32,4.32,0,0,0,2.248,1.034Z" transform="translate(-644.841 -358.79)" fill="#f4bc8f"/>
          </g>
        </g>
      </g>
      <path id="Path_2730" data-name="Path 2730" d="M653.782,371.912c-.314.679-.989.2-1.54-.094" transform="translate(-638.756 -363.855)" fill="#eb9d68"/>
      <ellipse id="Ellipse_144" data-name="Ellipse 144" cx="0.179" cy="0.164" rx="0.179" ry="0.164" transform="translate(14.268 5.691)"/>
      <path id="Path_2731" data-name="Path 2731" d="M649.989,405.144a3.591,3.591,0,0,0,1.684,1.2c1.123.386,9.482-1.368,9.482-1.368l1.679.176a4.266,4.266,0,0,0,2.659-.138l2.458-.95-14.422-.3-5.52-6.856Z" transform="translate(-636.307 -378.37)" fill="#f4bc8f"/>
      <path id="Path_2732" data-name="Path 2732" d="M634.055,379.123s-3.332,4.268-4.11,7.074-1.059,10.542-1.059,10.542H635.9s2.014-3.649,3.576-6.96a3.786,3.786,0,0,0,.044-3.146c-1.145-2.593-2.863-6.159-2.863-6.159Z" transform="translate(-625.243 -368.081)" fill="#ffee57"/>
      <g id="Group_454" data-name="Group 454" transform="translate(9.961 75.35)">
        <g id="Group_453" data-name="Group 453" transform="translate(0.512)">
          <path id="Path_2733" data-name="Path 2733" d="M646.992,531.707l.556,1.447a1.858,1.858,0,0,0,.757.961,7.261,7.261,0,0,0,1.915.87c-1.115.952-2.888-.042-3.9-.745a2.485,2.485,0,0,1-.992-1.437l-.232-1.1Z" transform="translate(-645.093 -531.707)" fill="#f4bc8f"/>
        </g>
        <path id="Path_2734" data-name="Path 2734" d="M644.512,533.493s-.754.447-.616,1.017.334,1.9.334,1.9H645l-.024-1.245a21.5,21.5,0,0,0,1.943,1.245h4.1s.273-.84-2.136-1.109A9.794,9.794,0,0,1,644.512,533.493Z" transform="translate(-643.879 -532.74)" fill="#e0c81b"/>
      </g>
      <g id="Group_456" data-name="Group 456" transform="translate(1.988 75.35)">
        <g id="Group_455" data-name="Group 455" transform="translate(0.512)">
          <path id="Path_2735" data-name="Path 2735" d="M628.074,531.707l.556,1.447a1.858,1.858,0,0,0,.757.961,7.257,7.257,0,0,0,1.915.87c-1.115.952-2.888-.042-3.9-.745a2.484,2.484,0,0,1-.992-1.437l-.232-1.1Z" transform="translate(-626.175 -531.707)" fill="#f4bc8f"/>
        </g>
        <path id="Path_2736" data-name="Path 2736" d="M625.594,533.493a1.6,1.6,0,0,0-.616,1.348c.138.755.334,2.524.334,2.524h.775l-.024-1.65c0-.108,1.662,1.65,1.943,1.65h4.1s.273-1.113-2.136-1.47a8.884,8.884,0,0,1-4.376-2.4Z" transform="translate(-624.961 -532.74)" fill="#ebd619"/>
      </g>
      <path id="Path_2737" data-name="Path 2737" d="M638.635,421.044s3.48,5.216.5,26.007c.468,7.858,1.341,20.792,1.341,20.792H638.5s-5.475-13.776-3.638-20.638c.437-6.8-1.248-26.285-1.248-26.285Z" transform="translate(-627.981 -392.263)"/>
      <path id="Path_2738" data-name="Path 2738" d="M623.886,420.921s-3.642,2.93-3.642,7.279c0,3.413,1.645,10.482,2.588,15.108a10.735,10.735,0,0,1-.477,5.063c-1.926,6.711.415,19.471.415,19.471h1.964s.108-6.563,2.8-21.277c3.086-16.9,3.369-25.646,3.369-25.646Z" transform="translate(-620.244 -392.263)" fill="#4e4d4d"/>
      <g id="Group_457" data-name="Group 457" transform="translate(20.582 15.605)">
        <path id="Path_2739" data-name="Path 2739" d="M680.536,400.039H669.08V399.2h10.947l4.864-9.247.745.392Z" transform="translate(-669.08 -389.95)" fill="#fff"/>
      </g>
      <path id="Path_2740" data-name="Path 2740" d="M633.617,394.057s3.659,8.517,5.417,8.517,11.494-4.164,11.494-4.164l-.259-1.454-9.94,1.684a43.593,43.593,0,0,1-1.492-5.041,2.774,2.774,0,0,0-2.144-2.141C634.343,391.016,633.617,394.057,633.617,394.057Z" transform="translate(-627.981 -375.192)" fill="#f4bc8f"/>
      <path id="Path_2741" data-name="Path 2741" d="M632.227,358.773s1.085.656,4.406-1.473c.509.133-.3-4.654-4.6-3.248-3.008.984-2.864,3.9-2.725,5.507.15,1.74-.756,2.889-1.953,4.161-1,1.068-.988,3.031-1.657,4.087-.823,1.3-1.7,1.224-2.347,2.543a4.165,4.165,0,0,0,.138,4.307c.52.7,1.731,2.4,3.648,1.8,1.076-.34,1.366-2.218,1.413-3.8a4.794,4.794,0,0,1,1.827-3.6,6.8,6.8,0,0,0,2.465-3.128C633.436,363.621,632.227,358.773,632.227,358.773Z" transform="translate(-621.735 -353.426)"/>
      <path id="Path_2742" data-name="Path 2742" d="M643.943,365.712a.705.705,0,0,1,.908.242.608.608,0,0,1-.018.885.705.705,0,0,1-.908-.242.608.608,0,0,1,.018-.885Z" transform="translate(-633.841 -360.273)" fill="#f4bc8f"/>
      <path id="Path_2743" data-name="Path 2743" d="M677.927,404.312a.477.477,0,0,0-.284-.492l-1.87-.812a2.048,2.048,0,0,0-1.462-.065l-1.853.615-.251.01-.2,1.725c.37-.136.587-.22.587-.22l1.173-.426s2.558,2.168,3.472.2c.274,1.95.829,1.734.829,1.734Z" transform="translate(-650.192 -381.801)" fill="#f4bc8f"/>
      <path id="Path_2744" data-name="Path 2744" d="M641.14,356.593c.368,1.332,2.262,1.972,4.23,1.428s3.036-2.021,2.9-3.4c-.183-1.806-2.261-1.972-4.23-1.428S640.773,355.261,641.14,356.593Z" transform="translate(-632.297 -352.923)"/>
    </g>
    <g id="Logo" transform="translate(609.873 204.333)">
      <g id="Group_94" data-name="Group 94" clip-path="url(#clip-path-2)">
        <path id="Path_1903" data-name="Path 1903" d="M304.6,364.549c0-.281.076-.349.349-.349h.106c.281,0,.349.076.349.349v5.124c0,.342.144.486.486.486h2.338c.258,0,.319.061.319.319v.114c0,.258-.061.319-.319.319h-2.513c-.782,0-1.116-.342-1.116-1.116Z" transform="translate(-280.943 -336.751)"/>
      </g>
      <g id="Group_95" data-name="Group 95" clip-path="url(#clip-path-2)">
        <path id="Path_1904" data-name="Path 1904" d="M370.7,369.581c0,.342.144.486.486.486h2.748c.258,0,.319.061.319.319v.114c0,.258-.061.319-.319.319h-2.923c-.782,0-1.116-.342-1.116-1.116v-4.486c0-.774.334-1.116,1.116-1.116h2.923c.258,0,.319.061.319.319v.114c0,.258-.061.319-.319.319H371.19c-.342,0-.486.144-.486.486v1.6h2.816c.258,0,.319.061.319.319v.114c0,.258-.061.319-.319.319H370.7Z" transform="translate(-341.286 -336.659)"/>
      </g>
      <g id="Group_96" data-name="Group 96" clip-path="url(#clip-path-2)">
        <path id="Path_1905" data-name="Path 1905" d="M442.5,369.368c.076.266.023.342-.258.342h-.106c-.281,0-.372-.076-.448-.342l-.486-1.738h-3.09l-.478,1.738c-.076.266-.167.342-.448.342h-.114c-.281,0-.334-.076-.258-.342l1.382-4.949c.319-1.139.569-1.518,1.458-1.518s1.139.38,1.45,1.518Zm-4.183-2.467h2.7l-.714-2.573c-.152-.569-.289-.706-.63-.706s-.486.137-.638.706Z" transform="translate(-403.096 -335.55)"/>
      </g>
      <g id="Group_97" data-name="Group 97" clip-path="url(#clip-path-2)">
        <path id="Path_1906" data-name="Path 1906" d="M529.142,364.2c1.693,0,2.239.8,2.239,2.126s-.554,2.126-2.239,2.126H527.3v2.11c0,.281-.076.349-.349.349h-.106c-.281,0-.349-.076-.349-.349v-5.246c0-.774.334-1.116,1.116-1.116Zm-1.351.752c-.342,0-.486.144-.486.486v2.27h1.837c1.146,0,1.435-.456,1.435-1.382s-.3-1.374-1.435-1.374Z" transform="translate(-485.998 -336.751)"/>
      </g>
      <g id="Group_98" data-name="Group 98" clip-path="url(#clip-path-2)">
        <path id="Path_1907" data-name="Path 1907" d="M608.442,364.2c1.693,0,2.239.8,2.239,2.126s-.554,2.126-2.239,2.126H606.6v2.11c0,.281-.076.349-.349.349h-.106c-.281,0-.349-.076-.349-.349v-5.246c0-.774.334-1.116,1.116-1.116Zm-1.351.752c-.342,0-.486.144-.486.486v2.27h1.837c1.146,0,1.435-.456,1.435-1.382s-.3-1.374-1.435-1.374Z" transform="translate(-559.279 -336.751)"/>
      </g>
      <g id="Group_99" data-name="Group 99" clip-path="url(#clip-path-2)">
        <path id="Path_1908" data-name="Path 1908" d="M303.1,469.344V468h.6a.342.342,0,0,1,.38.342.316.316,0,0,1-.235.311.337.337,0,0,1,.266.334.353.353,0,0,1-.387.364H303.1Zm.8-.979a.215.215,0,0,0-.235-.22h-.4v.433h.4a.21.21,0,0,0,.235-.213m.023.6a.231.231,0,0,0-.251-.235h-.418v.463h.418a.222.222,0,0,0,.251-.228" transform="translate(-279.557 -432.672)" fill="#616161"/>
      </g>
      <g id="Group_100" data-name="Group 100" clip-path="url(#clip-path-2)">
        <path id="Path_1909" data-name="Path 1909" d="M330.931,469.251v-.569l-.531-.782h.2l.418.63.418-.63h.2l-.524.782v.569Z" transform="translate(-304.785 -432.579)" fill="#616161"/>
      </g>
      <g id="Group_101" data-name="Group 101" clip-path="url(#clip-path-2)">
        <path id="Path_1910" data-name="Path 1910" d="M381.3,468.877l.1-.129a.567.567,0,0,0,.425.2c.243,0,.319-.129.319-.235,0-.349-.8-.152-.8-.638,0-.22.2-.372.463-.372a.628.628,0,0,1,.478.19l-.1.121a.5.5,0,0,0-.387-.159c-.159,0-.273.084-.273.213,0,.3.8.129.8.63,0,.2-.137.395-.493.395a.7.7,0,0,1-.531-.213" transform="translate(-351.821 -432.394)" fill="#616161"/>
      </g>
      <g id="Group_102" data-name="Group 102" clip-path="url(#clip-path-2)">
        <path id="Path_1911" data-name="Path 1911" d="M412.157,469.251v-.622h-.789v.622H411.2V467.9h.167v.585h.789V467.9h.167v1.351Z" transform="translate(-379.451 -432.579)" fill="#616161"/>
      </g>
      <g id="Group_103" data-name="Group 103" clip-path="url(#clip-path-2)">
        <path id="Path_1912" data-name="Path 1912" d="M442.7,469.344l-.121-.3h-.668l-.121.3h-.19l.547-1.344h.2l.539,1.344Zm-.455-1.177-.288.729h.569Z" transform="translate(-407.543 -432.672)" fill="#616161"/>
      </g>
      <g id="Group_104" data-name="Group 104" clip-path="url(#clip-path-2)">
        <path id="Path_1913" data-name="Path 1913" d="M474.982,469.344l-.342-.531h-.273v.531H474.2V468h.539a.4.4,0,0,1,.425.4.38.38,0,0,1-.349.395l.364.547Zm.008-.941a.255.255,0,0,0-.273-.258h-.357v.516h.357a.251.251,0,0,0,.273-.258" transform="translate(-437.669 -432.672)" fill="#616161"/>
      </g>
      <g id="Group_105" data-name="Group 105" clip-path="url(#clip-path-2)">
        <path id="Path_1914" data-name="Path 1914" d="M503.7,469.251V467.9h.881v.152h-.714v.433h.7v.152h-.7v.463h.714v.152Z" transform="translate(-464.929 -432.579)" fill="#616161"/>
      </g>
      <g id="Group_106" data-name="Group 106" clip-path="url(#clip-path-2)">
        <path id="Path_1915" data-name="Path 1915" d="M532.912,469.251l-.509-.607-.137.152v.456H532.1V467.9h.167v.7l.592-.7h.213l-.562.638.615.714Z" transform="translate(-491.173 -432.579)" fill="#616161"/>
      </g>
      <g id="Group_107" data-name="Group 107" clip-path="url(#clip-path-2)">
        <path id="Path_1916" data-name="Path 1916" d="M562.257,469.251v-.622h-.789v.622H561.3V467.9h.167v.585h.789V467.9h.167v1.351Z" transform="translate(-518.157 -432.579)" fill="#616161"/>
      </g>
      <g id="Group_108" data-name="Group 108" clip-path="url(#clip-path-2)">
        <path id="Path_1917" data-name="Path 1917" d="M592.8,469.344l-.121-.3h-.668l-.122.3h-.19l.547-1.344h.2l.539,1.344Zm-.455-1.177-.288.729h.569Z" transform="translate(-546.249 -432.672)" fill="#616161"/>
      </g>
      <g id="Group_109" data-name="Group 109" clip-path="url(#clip-path-2)">
        <path id="Path_1918" data-name="Path 1918" d="M625.256,469.251l-.789-1.078v1.078H624.3V467.9h.175l.774,1.055V467.9h.167v1.351Z" transform="translate(-576.374 -432.579)" fill="#616161"/>
      </g>
      <g id="Group_110" data-name="Group 110" clip-path="url(#clip-path-2)">
        <path id="Path_1919" data-name="Path 1919" d="M304.212,319.608a.615.615,0,1,1,0,1.23h-.425v.44c0,.129-.03.167-.167.167h-.053c-.129,0-.167-.03-.167-.167v-1.336c0-.235.1-.342.342-.342h.471Zm-.334.349c-.061,0-.084.023-.084.083v.44h.425c.182,0,.243-.091.243-.258s-.061-.266-.243-.266Z" transform="translate(-279.834 -295.537)"/>
      </g>
      <g id="Group_111" data-name="Group 111" clip-path="url(#clip-path-2)">
        <path id="Path_1920" data-name="Path 1920" d="M334.655,320.846l.372.554c.076.106.053.137-.076.137h-.106a.262.262,0,0,1-.258-.137l-.342-.524h-.258v.5c0,.129-.03.167-.167.167h-.053c-.129,0-.167-.03-.167-.167V320.04c0-.235.1-.342.342-.342h.463c.448,0,.622.235.622.584a.5.5,0,0,1-.372.562m-.585-.8c-.061,0-.083.023-.083.083v.38h.425c.182,0,.243-.091.243-.235s-.061-.235-.243-.235h-.342Z" transform="translate(-307.742 -295.63)"/>
      </g>
      <g id="Group_112" data-name="Group 112" clip-path="url(#clip-path-2)">
        <path id="Path_1921" data-name="Path 1921" d="M364,320.546v-.395c0-.433.159-.752.782-.752s.782.319.782.752v.395c0,.433-.159.752-.782.752s-.782-.319-.782-.752m1.177-.395c0-.258-.061-.395-.395-.395s-.395.137-.395.395v.395c0,.258.061.395.395.395s.395-.137.395-.395Z" transform="translate(-335.834 -295.352)"/>
      </g>
      <g id="Group_113" data-name="Group 113" clip-path="url(#clip-path-2)">
        <path id="Path_1922" data-name="Path 1922" d="M393.737,321.036a1.184,1.184,0,0,1-.364.964c-.091.083-.152.076-.22-.03l-.015-.023c-.076-.106-.053-.144.03-.243a.894.894,0,0,0,.2-.638v-1.2c0-.129.03-.167.167-.167h.053c.129,0,.167.03.167.167v1.169Z" transform="translate(-362.717 -295.63)"/>
      </g>
      <g id="Group_114" data-name="Group 114" clip-path="url(#clip-path-2)">
        <path id="Path_1923" data-name="Path 1923" d="M414.88,321c0,.061.023.084.083.084h.683c.129,0,.167.03.167.167v.023c0,.129-.03.167-.167.167h-.8c-.235,0-.342-.1-.342-.342v-1.161c0-.235.1-.342.342-.342h.812c.129,0,.167.03.167.167v.023c0,.129-.03.167-.167.167h-.683c-.061,0-.083.023-.083.083v.281h.66c.129,0,.167.03.167.167v.023c0,.129-.03.167-.167.167h-.66V321Z" transform="translate(-382.501 -295.537)"/>
      </g>
      <g id="Group_115" data-name="Group 115" clip-path="url(#clip-path-2)">
        <path id="Path_1924" data-name="Path 1924" d="M443.287,320.584c0,.2.076.357.425.357a.963.963,0,0,0,.3-.046c.129-.03.159,0,.159.129v.023c0,.129-.03.159-.152.2a.863.863,0,0,1-.326.046c-.516,0-.8-.2-.8-.706v-.455c0-.448.258-.736.8-.736a.943.943,0,0,1,.319.046c.121.045.159.076.159.2v.023c0,.129-.038.167-.167.129a.96.96,0,0,0-.311-.046c-.3,0-.41.121-.41.387v.44Z" transform="translate(-408.745 -295.352)"/>
      </g>
      <g id="Group_116" data-name="Group 116" clip-path="url(#clip-path-2)">
        <path id="Path_1925" data-name="Path 1925" d="M468.908,319.767c0-.129.03-.167.167-.167h1.139c.129,0,.167.03.167.167v.023c0,.129-.03.167-.167.167h-.38v1.321c0,.129-.03.167-.167.167h-.053c-.129,0-.167-.03-.167-.167v-1.321h-.38c-.129,0-.167-.03-.167-.167v-.023Z" transform="translate(-432.771 -295.537)"/>
      </g>
      <g id="Group_117" data-name="Group 117" clip-path="url(#clip-path-2)">
        <path id="Path_1926" data-name="Path 1926" d="M198.257,350.313a.133.133,0,0,0,.106.015.136.136,0,0,0,.091-.068,1.116,1.116,0,0,1,.068-.1c.008-.008.015-.015.015-.023.015-.023.03-.046.061-.046h0q.034,0,.068.068a.431.431,0,0,0,.38.22.441.441,0,0,0,.44-.44v-.023c0-.03,0-.068.03-.084a.083.083,0,0,1,.083.008c.03.015.068.03.1.046a.149.149,0,0,0,.114.008.138.138,0,0,0,.083-.076.147.147,0,0,0-.061-.2,1.23,1.23,0,0,0-.911-.121,1.273,1.273,0,0,0-.714.607.145.145,0,0,0,.046.2m.8-.569a.2.2,0,1,1-.2.2.193.193,0,0,1,.2-.2" transform="translate(-182.609 -323.13)"/>
      </g>
      <g id="Group_118" data-name="Group 118" clip-path="url(#clip-path-2)">
        <path id="Path_1927" data-name="Path 1927" d="M231.438,326.634a.943.943,0,0,0-.273-.66.913.913,0,0,0-.653-.273.83.83,0,0,0-.4.1.15.15,0,0,0-.068.2.138.138,0,0,0,.084.076.149.149,0,0,0,.114-.008.591.591,0,0,1,.281-.068.659.659,0,0,1,.448.182.625.625,0,0,1,.182.448.144.144,0,0,0,.144.144.138.138,0,0,0,.144-.137" transform="translate(-212.033 -301.174)"/>
      </g>
      <g id="Group_119" data-name="Group 119" clip-path="url(#clip-path-2)">
        <path id="Path_1928" data-name="Path 1928" d="M226.183,355.948a.145.145,0,0,0-.015.2.122.122,0,0,0,.1.046.142.142,0,0,0,.106-.038.607.607,0,0,0,.1-.1,1.756,1.756,0,0,0,.463-.994.152.152,0,0,0-.129-.167h-.015a.146.146,0,0,0-.091.03.13.13,0,0,0-.053.1,1.426,1.426,0,0,1-.387.827.223.223,0,0,1-.076.091" transform="translate(-208.432 -328.157)"/>
      </g>
      <g id="Group_120" data-name="Group 120" clip-path="url(#clip-path-2)">
        <path id="Path_1929" data-name="Path 1929" d="M235.871,360.07a.123.123,0,0,0,.053-.03c.046-.038.091-.084.137-.129a2.038,2.038,0,0,0,.554-1.351.173.173,0,0,0-.023-.083.177.177,0,0,0-.121-.076h0a.144.144,0,0,0-.1.038.138.138,0,0,0-.046.106,1.746,1.746,0,0,1-.471,1.161,1.4,1.4,0,0,1-.106.106.163.163,0,0,0-.038.19.127.127,0,0,0,.159.068" transform="translate(-217.27 -331.392)"/>
      </g>
      <g id="Group_121" data-name="Group 121" clip-path="url(#clip-path-2)">
        <path id="Path_1930" data-name="Path 1930" d="M140.647,321.048a.149.149,0,0,0,.152-.129,3.452,3.452,0,0,0-.493-2.528c-.121-.144-.106-.2.008-.319l.213-.243a.144.144,0,0,0-.008-.2l-.926-.911c-.114-.091-.076-.175-.03-.266l.008-.015a1.6,1.6,0,0,0,.167-.858,1.78,1.78,0,0,0-1.829-1.587,1.746,1.746,0,0,0-1.017.387.319.319,0,0,1-.387.076,1.1,1.1,0,0,1-.121-.038,4.39,4.39,0,0,0-1.359-.152,4.8,4.8,0,0,0-1.746.486,2.032,2.032,0,0,1-.554.159.689.689,0,0,1-.311-.023c-.084-.03-.167-.068-.258-.106a.873.873,0,0,0-.774-.114.658.658,0,0,0-.342.562,2.384,2.384,0,0,0,.364,1.42c.083.137.175.273.281.417.053.106.061.159-.046.266l-.744.759a.141.141,0,0,0-.023.19h0l.015.015c.243.372.387.6.471.729.061.076.083.121.008.251-.038.061-.076.122-.114.19-.061.114-.121.137-.258.122a2.107,2.107,0,0,0-.38,0h-.03a3.811,3.811,0,0,0-.66.038.148.148,0,0,0-.129.167.159.159,0,0,0,.053.1.136.136,0,0,0,.106.03,5.97,5.97,0,0,1,.63-.038c.1,0,.2,0,.3.008a.114.114,0,0,1,.053.008.149.149,0,0,1,.106.03c.023.023.023.061.015.144a1.141,1.141,0,0,0-.015.152v.076a.186.186,0,0,1-.046.137.175.175,0,0,1-.129.038c-.068,0-.137.008-.2.008-.182.015-.364.03-.547.061a.141.141,0,0,0-.121.167.139.139,0,0,0,.061.1.174.174,0,0,0,.106.03c.175-.023.349-.046.516-.053.083-.008.167-.008.251-.008h.053c.091,0,.121.008.2.144a.712.712,0,0,0,.091.137,1.217,1.217,0,0,0,.44.357,1.976,1.976,0,0,1,.372.243,1.486,1.486,0,0,1,.273,1.42,1.837,1.837,0,0,0,.152,1.359,1.246,1.246,0,0,0,.319.311c.159.106.152.152.114.266-.008.015-.008.023-.015.038a2.452,2.452,0,0,1-.44.789,2.491,2.491,0,0,1-.972.729.145.145,0,0,0-.076.19.165.165,0,0,0,.076.083.148.148,0,0,0,.114,0,2.788,2.788,0,0,0,1.086-.812,2.952,2.952,0,0,0,.486-.865.372.372,0,0,1,.023-.053c.03-.091.061-.144.258-.106a4.317,4.317,0,0,0,.516.083,8.912,8.912,0,0,0,1.177.046,4.641,4.641,0,0,0,.956-.106,1.432,1.432,0,0,0,1.139-.956,4.507,4.507,0,0,0,.182-1.6c0-.1.015-.144.046-.175a.176.176,0,0,1,.144-.008l.774.258h.015a.246.246,0,0,0,.326-.175l.311-1.093c.053-.167.068-.175.22-.19h.023l.418-.015c.1,0,.152,0,.19.03s.038.083.038.175a3.167,3.167,0,0,1-.585,2.1,3.43,3.43,0,0,1-1.222,1.086.149.149,0,0,0-.061.2.138.138,0,0,0,.083.076.149.149,0,0,0,.114-.008,3.737,3.737,0,0,0,1.328-1.177c.061-.091.121-.19.182-.288.03-.061.068-.084.106-.076.023.008.061.03.061.144a3.175,3.175,0,0,1-.584,2.11,3.43,3.43,0,0,1-1.222,1.086.149.149,0,0,0-.061.2.138.138,0,0,0,.083.076.149.149,0,0,0,.114-.008,3.737,3.737,0,0,0,1.328-1.177,2.293,2.293,0,0,0,.159-.25c.046-.068.083-.106.114-.106h.015c.038.008.053.061.053.175v1.313a.144.144,0,0,0,.144.144.156.156,0,0,0,.152-.144V321.3c.008-.167.015-.213.2-.228Zm-8.942-4.464c-.091-.144-.076-.167.023-.258l.015-.015a.946.946,0,0,1,.44-.228.84.84,0,0,1,.827.311.757.757,0,0,1,.1.676c-.03.076-.053.114-.091.121h-.008c-.03,0-.061-.03-.106-.076l-.008-.008a.823.823,0,0,0-.3-.235h0a.828.828,0,0,0-.592-.053.166.166,0,0,1-.2-.091c-.03-.053-.061-.1-.091-.144m.744.63a.175.175,0,1,1-.175-.175.172.172,0,0,1,.175.175m-.159,4.061a.986.986,0,0,1-.387-.083.948.948,0,0,1-.562-.957,1.6,1.6,0,0,1,.319-.85.3.3,0,0,0,.038-.38l-.418-.638c-.053-.091-.1-.167.008-.243l.585-.592c.061-.061.091-.046.144,0a.412.412,0,0,0,.273.106.4.4,0,0,0,.357-.22l.008-.008c.015-.023.03-.053.061-.053h0a.049.049,0,0,1,.046.038c.008.015.023.038.03.053a.128.128,0,0,1-.023.167l-.038.046-.068.091a2.587,2.587,0,0,0-.622,1.275q-.069.57.736.957a1.909,1.909,0,0,0,.4.106.132.132,0,0,1,.121.167,1.125,1.125,0,0,1-.228.668,1.1,1.1,0,0,1-.774.349m6.733-.486a.146.146,0,0,0-.137.106l-.008.023h0l-.3,1.04a.193.193,0,0,0-.015.053c-.053.159-.076.2-.273.144l-.668-.22c-.114-.023-.175-.091-.2-.235l-.03-.235a.159.159,0,0,0-.053-.1.136.136,0,0,0-.106-.03.153.153,0,0,0-.129.167l.015.114a7.793,7.793,0,0,1,.061,1.207,3.635,3.635,0,0,1-.159,1.116,1.161,1.161,0,0,1-.926.767,4.659,4.659,0,0,1-.9.1h-.19a8.217,8.217,0,0,1-.949-.053,1.217,1.217,0,0,1-1.382-1.662,2.4,2.4,0,0,0-.053-1.253c-.083-.22-.061-.273.114-.349a2.82,2.82,0,0,1,.463-.121,2.23,2.23,0,0,1,1.086.2,1.717,1.717,0,0,0,1.025.076,1.6,1.6,0,0,0,1.184-.994c.03-.091.1-.091.175-.1a5.719,5.719,0,0,1,1.078.068.136.136,0,0,0,.106-.03.169.169,0,0,0,.061-.1.142.142,0,0,0-.121-.167,6.2,6.2,0,0,0-1.063-.068.137.137,0,0,1-.106-.03.108.108,0,0,1-.015-.1,1.64,1.64,0,0,0-.008-.273c-.008-.121.03-.137.1-.152h.015a6.052,6.052,0,0,1,1.435-.008.136.136,0,0,0,.106-.03.13.13,0,0,0,.053-.1.152.152,0,0,0-.129-.167,6.3,6.3,0,0,0-2.657.258.143.143,0,0,0-.015.266.149.149,0,0,0,.114.008c.175-.053.357-.106.539-.144.053-.008.1-.015.129.015a.123.123,0,0,1,.038.084,1.557,1.557,0,0,1,0,.266c-.015.106-.053.129-.144.144-.243.03-.486.068-.721.121a.153.153,0,0,0-.114.175.135.135,0,0,0,.068.091.107.107,0,0,0,.106.015c.175-.038.357-.076.531-.1a.1.1,0,0,1,.1.023c.017.023.008.091-.046.167a1.368,1.368,0,0,1-.463.418,1.548,1.548,0,0,1-1.678-.175,1.024,1.024,0,0,1-.342-.607.686.686,0,0,1-.015-.22v0c.008-.106.015-.137.121-.159a2.007,2.007,0,0,0,.676-.288,1.182,1.182,0,0,0,.326-.349.415.415,0,0,0,.076-.3.147.147,0,0,0-.091-.068.187.187,0,0,0-.068-.008h-2.11a.182.182,0,0,1-.144-.053.218.218,0,0,1,0-.2,2.583,2.583,0,0,1,.4-.744c.068-.084.137-.167.2-.251.091-.114.19-.228.281-.364a1.085,1.085,0,0,0,0-1.237,1.145,1.145,0,0,0-1.116-.425,1.222,1.222,0,0,0-.471.2c-.091.076-.144.1-.19.083s-.061-.068-.083-.144H131.4a2.158,2.158,0,0,1-.061-.645.38.38,0,0,1,.182-.334c.129-.068.387.046.607.152a1.292,1.292,0,0,0,.2.083.9.9,0,0,0,.433.038,2.221,2.221,0,0,0,.425-.1c.121-.046.251-.1.364-.144.084-.038.175-.076.258-.106a4.068,4.068,0,0,1,1.245-.288,4.436,4.436,0,0,1,1.571.228l.023.008c.114.038.175.053.319-.076a1.458,1.458,0,0,1,2.49.881,1.354,1.354,0,0,1-.281.926.151.151,0,0,0,.015.2l.888.873c.076.076.137.137.015.288l-.228.266a.145.145,0,0,0,.015.2,2.642,2.642,0,0,1,.668,2.179c-.008.228-.083.235-.228.235Z" transform="translate(-119.404 -290.351)"/>
      </g>
      <g id="Group_122" data-name="Group 122" clip-path="url(#clip-path-2)">
        <path id="Path_1931" data-name="Path 1931" d="M196.309,334.525a.147.147,0,0,0-.053-.2,1.793,1.793,0,0,0-.789-.228h-.061a1.743,1.743,0,0,0-.736.167,2.109,2.109,0,0,0-.387.25.145.145,0,0,0-.015.2.159.159,0,0,0,.1.053.142.142,0,0,0,.106-.038,1.8,1.8,0,0,1,.319-.213,1.446,1.446,0,0,1,.668-.137,1.415,1.415,0,0,1,.653.19.147.147,0,0,0,.114.015.153.153,0,0,0,.083-.068" transform="translate(-178.954 -308.936)"/>
      </g>
      <text id="Discount_Broking_Platform" data-name="Discount Broking Platform" transform="translate(31.278 41.253)" fill="#1a1818" font-size="3" font-family="Poppins-SemiBold, Poppins SemiBold" font-weight="600"><tspan x="-19.821" y="0">Discount Broking Platform</tspan></text>
    </g>
  </g>
</svg>
