<svg xmlns="http://www.w3.org/2000/svg" width="144.473" height="45.994" viewBox="0 0 144.473 45.994">
    <defs>
        <style>
            .cls-1{fill:#616161}
        </style>
    </defs>
    <g id="Logo" transform="translate(-34.704 -83.957)">
        <g id="Group_724" data-name="Group 724">
            <path id="Path_1903" d="M304.6 365.43c0-.989.267-1.23 1.23-1.23h.374c.989 0 1.23.267 1.23 1.23v18.049c0 1.2.508 1.711 1.711 1.711h8.236c.909 0 1.123.214 1.123 1.123v.4c0 .909-.214 1.123-1.123 1.123h-8.851c-2.754 0-3.931-1.2-3.931-3.931z" data-name="Path 1903" transform="translate(-223.153 -266.817)"/>
        </g>
        <g id="Group_725" data-name="Group 725">
            <path id="Path_1904" d="M372.734 383.405c0 1.2.508 1.711 1.711 1.711h9.679c.909 0 1.123.214 1.123 1.123v.4c0 .909-.214 1.123-1.123 1.123h-10.293c-2.754 0-3.931-1.2-3.931-3.931v-15.8c0-2.727 1.177-3.931 3.931-3.931h10.294c.909 0 1.123.214 1.123 1.123v.4c0 .909-.214 1.123-1.123 1.123h-9.679c-1.2 0-1.711.508-1.711 1.711v5.643h9.92c.909 0 1.123.214 1.123 1.123v.4c0 .909-.214 1.123-1.123 1.123h-9.92z" data-name="Path 1904" transform="translate(-270.993 -266.744)"/>
        </g>
        <g id="Group_726" data-name="Group 726">
            <path id="Path_1905" d="M456.925 385.682c.267.936.08 1.2-.909 1.2h-.374c-.989 0-1.31-.267-1.578-1.2l-1.711-6.123H441.47l-1.685 6.123c-.267.936-.588 1.2-1.578 1.2h-.4c-.989 0-1.177-.267-.909-1.2l4.866-17.434c1.123-4.011 2.005-5.348 5.134-5.348 3.1 0 4.011 1.337 5.107 5.348zm-14.733-8.69h9.492l-2.513-9.064c-.535-2.005-1.016-2.487-2.219-2.487-1.23 0-1.711.481-2.246 2.487z" data-name="Path 1905" transform="translate(-319.995 -265.865)"/>
        </g>
        <g id="Group_727" data-name="Group 727">
            <path id="Path_1906" d="M535.805 364.2c5.963 0 7.888 2.834 7.888 7.487s-1.952 7.487-7.888 7.487h-6.471v7.433c0 .989-.267 1.23-1.23 1.23h-.374c-.989 0-1.23-.267-1.23-1.23v-18.476c0-2.727 1.177-3.931 3.931-3.931h5.375zm-4.76 2.647c-1.2 0-1.711.508-1.711 1.711v7.995h6.471c4.038 0 5.054-1.6 5.054-4.866 0-3.209-1.043-4.84-5.054-4.84z" data-name="Path 1906" transform="translate(-385.72 -266.817)"/>
        </g>
        <g id="Group_728" data-name="Group 728">
            <path id="Path_1907" d="M615.105 364.2c5.963 0 7.888 2.834 7.888 7.487s-1.952 7.487-7.888 7.487h-6.471v7.433c0 .989-.267 1.23-1.23 1.23h-.374c-.989 0-1.23-.267-1.23-1.23v-18.476c0-2.727 1.177-3.931 3.931-3.931h5.375zm-4.76 2.647c-1.2 0-1.711.508-1.711 1.711v7.995h6.471c4.038 0 5.054-1.6 5.054-4.866 0-3.209-1.043-4.84-5.054-4.84z" data-name="Path 1907" transform="translate(-443.816 -266.817)"/>
        </g>
        <g id="Group_729" data-name="Group 729">
            <path id="Path_1908" d="M303.1 472.733V468h2.112a1.2 1.2 0 0 1 1.337 1.2 1.112 1.112 0 0 1-.829 1.1 1.188 1.188 0 0 1 .936 1.177 1.244 1.244 0 0 1-1.364 1.283H303.1zm2.834-3.449a.759.759 0 0 0-.829-.775h-1.417v1.524h1.417a.74.74 0 0 0 .829-.749m.08 2.112a.814.814 0 0 0-.882-.829h-1.471v1.633h1.471a.782.782 0 0 0 .882-.8" class="cls-1" data-name="Path 1908" transform="translate(-222.055 -342.862)"/>
        </g>
        <g id="Group_730" data-name="Group 730">
            <path id="Path_1909" d="M332.272 472.66v-2.005L330.4 467.9h.7l1.471 2.219 1.471-2.219h.7l-1.845 2.754v2.005z" class="cls-1" data-name="Path 1909" transform="translate(-242.055 -342.789)"/>
        </g>
        <g id="Group_731" data-name="Group 731">
            <path id="Path_1910" d="M381.3 471.845l.348-.455a2 2 0 0 0 1.5.7c.856 0 1.123-.455 1.123-.829 0-1.23-2.808-.535-2.808-2.246 0-.775.7-1.31 1.631-1.31a2.212 2.212 0 0 1 1.685.668l-.348.428a1.759 1.759 0 0 0-1.364-.562c-.562 0-.963.294-.963.749 0 1.07 2.808.455 2.808 2.219 0 .7-.481 1.39-1.738 1.39a2.478 2.478 0 0 1-1.872-.749" class="cls-1" data-name="Path 1910" transform="translate(-279.345 -342.642)"/>
        </g>
        <g id="Group_732" data-name="Group 732">
            <path id="Path_1911" d="M414.569 472.66v-2.193h-2.781v2.193h-.588v-4.76h.588v2.059h2.781V467.9h.588v4.76z" class="cls-1" data-name="Path 1911" transform="translate(-301.25 -342.789)"/>
        </g>
        <g id="Group_733" data-name="Group 733">
            <path id="Path_1912" d="M445.477 472.733l-.428-1.07H442.7l-.428 1.07h-.672l1.925-4.733h.722l1.9 4.733zm-1.6-4.145l-1.016 2.567h2.005z" class="cls-1" data-name="Path 1912" transform="translate(-323.521 -342.862)"/>
        </g>
        <g id="Group_734" data-name="Group 734">
            <path id="Path_1913" d="M476.954 472.733l-1.2-1.872h-.963v1.872h-.591V468h1.9a1.4 1.4 0 0 1 1.5 1.417 1.338 1.338 0 0 1-1.23 1.39l1.283 1.925zm.027-3.316a.9.9 0 0 0-.963-.909h-1.257v1.818h1.257a.885.885 0 0 0 .963-.909" class="cls-1" data-name="Path 1913" transform="translate(-347.404 -342.862)"/>
        </g>
        <g id="Group_735" data-name="Group 735">
            <path id="Path_1914" d="M503.7 472.66v-4.76h3.1v.535h-2.513v1.524h2.46v.535h-2.46v1.631h2.513v.535z" class="cls-1" data-name="Path 1914" transform="translate(-369.016 -342.789)"/>
        </g>
        <g id="Group_736" data-name="Group 736">
            <path id="Path_1915" d="M534.961 472.66l-1.792-2.139-.481.535v1.6h-.588V467.9h.588v2.46l2.086-2.46h.749l-1.979 2.246 2.166 2.513z" class="cls-1" data-name="Path 1915" transform="translate(-389.822 -342.789)"/>
        </g>
        <g id="Group_737" data-name="Group 737">
            <path id="Path_1916" d="M564.669 472.66v-2.193h-2.781v2.193h-.588v-4.76h.588v2.059h2.781V467.9h.588v4.76z" class="cls-1" data-name="Path 1916" transform="translate(-411.215 -342.789)"/>
        </g>
        <g id="Group_738" data-name="Group 738">
            <path id="Path_1917" d="M595.577 472.733l-.428-1.07H592.8l-.428 1.07h-.672l1.925-4.733h.722l1.9 4.733zm-1.6-4.145l-1.016 2.567h2.005z" class="cls-1" data-name="Path 1917" transform="translate(-433.486 -342.862)"/>
        </g>
        <g id="Group_739" data-name="Group 739">
            <path id="Path_1918" d="M627.669 472.66l-2.781-3.8v3.8h-.588v-4.76h.615l2.727 3.717V467.9h.588v4.76z" class="cls-1" data-name="Path 1918" transform="translate(-457.369 -342.789)"/>
        </g>
        <g id="Group_740" data-name="Group 740">
            <path id="Path_1919" d="M306.261 319.627a2.166 2.166 0 1 1 0 4.332h-1.5v1.551c0 .455-.107.588-.588.588h-.187c-.455 0-.588-.107-.588-.588v-4.71c0-.829.348-1.2 1.2-1.2h1.658zm-1.177 1.23c-.214 0-.294.08-.294.294v1.549h1.5c.642 0 .856-.321.856-.909 0-.615-.214-.936-.856-.936z" data-name="Path 1919" transform="translate(-222.274 -234.143)"/>
        </g>
        <g id="Group_741" data-name="Group 741">
            <path id="Path_1920" d="M337.317 323.738l1.31 1.952c.267.374.187.481-.267.481h-.374a.921.921 0 0 1-.909-.481l-1.2-1.845h-.909v1.765c0 .455-.107.588-.588.588h-.187c-.455 0-.588-.107-.588-.588v-4.71c0-.829.348-1.2 1.2-1.2h1.631c1.578 0 2.193.829 2.193 2.059a1.748 1.748 0 0 1-1.31 1.979m-2.059-2.808c-.214 0-.294.08-.294.294v1.337h1.5c.642 0 .856-.321.856-.829 0-.535-.214-.829-.856-.829h-1.2z" data-name="Path 1920" transform="translate(-244.399 -234.216)"/>
        </g>
        <g id="Group_742" data-name="Group 742">
            <path id="Path_1921" d="M364 323.438v-1.39c0-1.524.562-2.647 2.754-2.647s2.754 1.123 2.754 2.647v1.39c0 1.524-.561 2.647-2.754 2.647S364 324.962 364 323.438m4.145-1.39c0-.909-.214-1.39-1.39-1.39-1.2 0-1.39.481-1.39 1.39v1.39c0 .909.214 1.39 1.39 1.39 1.2 0 1.39-.481 1.39-1.39z" data-name="Path 1921" transform="translate(-266.671 -233.996)"/>
        </g>
        <g id="Group_743" data-name="Group 743">
            <path id="Path_1922" d="M395.366 324.406a4.168 4.168 0 0 1-1.283 3.4c-.321.294-.535.267-.775-.107l-.053-.08c-.267-.374-.187-.508.107-.856a3.15 3.15 0 0 0 .7-2.246v-4.225c0-.455.107-.588.588-.588h.187c.455 0 .588.107.588.588v4.118z" data-name="Path 1922" transform="translate(-287.983 -234.216)"/>
        </g>
        <g id="Group_744" data-name="Group 744">
            <path id="Path_1923" d="M415.837 324.547c0 .214.08.294.294.294h2.407c.455 0 .588.107.588.588v.08c0 .455-.107.588-.588.588H415.7c-.829 0-1.2-.348-1.2-1.2V320.8c0-.829.348-1.2 1.2-1.2h2.861c.455 0 .588.107.588.588v.08c0 .455-.107.588-.588.588h-2.406c-.214 0-.294.08-.294.294v.989h2.326c.455 0 .588.107.588.588v.08c0 .455-.107.588-.588.588h-2.326v1.15z" data-name="Path 1923" transform="translate(-303.667 -234.143)"/>
        </g>
        <g id="Group_745" data-name="Group 745">
            <path id="Path_1924" d="M444.264 323.571c0 .7.267 1.257 1.5 1.257a3.393 3.393 0 0 0 1.07-.16c.455-.107.562 0 .562.455v.08c0 .455-.107.562-.535.722a3.042 3.042 0 0 1-1.15.16c-1.818 0-2.808-.7-2.808-2.487v-1.6c0-1.578.909-2.594 2.834-2.594a3.322 3.322 0 0 1 1.123.16c.428.16.562.267.562.722v.08c0 .455-.134.588-.588.455a3.387 3.387 0 0 0-1.1-.16c-1.043 0-1.444.428-1.444 1.364v1.551z" data-name="Path 1924" transform="translate(-324.474 -233.996)"/>
        </g>
        <g id="Group_746" data-name="Group 746">
            <path id="Path_1925" d="M468.927 320.188c0-.455.107-.588.588-.588h4.011c.455 0 .588.107.588.588v.08c0 .455-.107.588-.588.588h-1.337v4.653c0 .455-.107.588-.588.588h-.187c-.455 0-.588-.107-.588-.588v-4.653h-1.337c-.455 0-.588-.107-.588-.588v-.08z" data-name="Path 1925" transform="translate(-343.521 -234.143)"/>
        </g>
        <g id="Group_747" data-name="Group 747">
            <path id="Path_1926" d="M198.432 352.465a.47.47 0 0 0 .374.053.477.477 0 0 0 .321-.241 3.912 3.912 0 0 1 .241-.348c.027-.027.053-.053.053-.08.053-.08.107-.16.214-.16q.12 0 .241.241a1.518 1.518 0 0 0 1.337.775 1.552 1.552 0 0 0 1.551-1.551v-.08c0-.107 0-.241.107-.294a.293.293 0 0 1 .294.027c.107.053.241.107.348.16a.525.525 0 0 0 .4.027.486.486 0 0 0 .294-.267.518.518 0 0 0-.214-.7 4.334 4.334 0 0 0-3.209-.428 4.486 4.486 0 0 0-2.513 2.139.512.512 0 0 0 .16.722m2.808-2.005a.7.7 0 0 1 .7.722.714.714 0 0 1-.7.722.7.7 0 0 1-.7-.722.681.681 0 0 1 .7-.722" data-name="Path 1926" transform="translate(-145.195 -256.018)"/>
        </g>
        <g id="Group_748" data-name="Group 748">
            <path id="Path_1927" d="M234.994 328.989a3.323 3.323 0 0 0-.963-2.326 3.215 3.215 0 0 0-2.3-.963 2.926 2.926 0 0 0-1.417.348.528.528 0 0 0-.241.7.486.486 0 0 0 .294.267.525.525 0 0 0 .4-.027 2.082 2.082 0 0 1 .989-.241 2.319 2.319 0 0 1 1.578.642 2.2 2.2 0 0 1 .642 1.578.508.508 0 0 0 .508.508.485.485 0 0 0 .508-.481" data-name="Path 1927" transform="translate(-168.522 -238.612)"/>
        </g>
        <g id="Group_749" data-name="Group 749">
            <path id="Path_1928" d="M226.311 358.59a.51.51 0 0 0-.053.722.431.431 0 0 0 .348.16.5.5 0 0 0 .374-.134 2.138 2.138 0 0 0 .348-.348 6.184 6.184 0 0 0 1.631-3.5.535.535 0 0 0-.455-.588h-.053a.514.514 0 0 0-.321.107.457.457 0 0 0-.187.348 5.022 5.022 0 0 1-1.364 2.915.786.786 0 0 1-.267.321" data-name="Path 1928" transform="translate(-165.667 -260.004)"/>
        </g>
        <g id="Group_750" data-name="Group 750">
            <path id="Path_1929" d="M236.312 364.283a.431.431 0 0 0 .187-.107 7.45 7.45 0 0 0 .481-.455 7.178 7.178 0 0 0 1.952-4.759.609.609 0 0 0-.08-.294.624.624 0 0 0-.428-.267.508.508 0 0 0-.348.134.485.485 0 0 0-.16.374 6.151 6.151 0 0 1-1.657 4.091 4.945 4.945 0 0 1-.374.374.574.574 0 0 0-.134.668.446.446 0 0 0 .562.241" data-name="Path 1929" transform="translate(-172.674 -262.568)"/>
        </g>
        <g id="Group_751" data-name="Group 751">
            <path id="Path_1930" d="M168.03 338.858a.524.524 0 0 0 .535-.455c.428-3.85-.16-6.845-1.738-8.9-.428-.508-.374-.7.027-1.123l.749-.856a.508.508 0 0 0-.027-.722l-3.262-3.209c-.4-.321-.267-.615-.107-.936l.027-.053a5.633 5.633 0 0 0 .588-3.021 6.269 6.269 0 0 0-6.444-5.588 6.152 6.152 0 0 0-3.583 1.364 1.124 1.124 0 0 1-1.364.267 3.808 3.808 0 0 1-.428-.134 15.463 15.463 0 0 0-4.786-.535 16.9 16.9 0 0 0-6.15 1.711 7.166 7.166 0 0 1-1.952.561 2.421 2.421 0 0 1-1.1-.08c-.294-.107-.588-.241-.909-.374-.909-.428-1.845-.856-2.727-.4a2.319 2.319 0 0 0-1.2 1.979 8.4 8.4 0 0 0 1.283 5c.294.481.615.963.989 1.471.187.374.214.562-.16.936l-2.62 2.674a.5.5 0 0 0-.08.668l.053.053c.856 1.31 1.364 2.112 1.658 2.567.214.267.294.428.027.882-.134.214-.267.428-.4.668-.214.4-.428.481-.909.428a7.437 7.437 0 0 0-1.337 0h-.107a13.43 13.43 0 0 0-2.326.134.52.52 0 0 0-.455.588.559.559 0 0 0 .187.348.479.479 0 0 0 .374.107 21.018 21.018 0 0 1 2.219-.134c.348 0 .7 0 1.043.027a.4.4 0 0 1 .187.027.523.523 0 0 1 .374.107c.08.08.08.214.053.508a4.019 4.019 0 0 0-.053.535v.267a.654.654 0 0 1-.16.481.618.618 0 0 1-.455.134c-.241 0-.481.027-.7.027a23.31 23.31 0 0 0-1.925.214.5.5 0 0 0-.428.588.488.488 0 0 0 .214.348.614.614 0 0 0 .374.107c.615-.08 1.23-.16 1.818-.187.294-.027.588-.027.882-.027h.187c.321 0 .428.027.7.508a2.512 2.512 0 0 0 .321.481 4.287 4.287 0 0 0 1.551 1.257 6.95 6.95 0 0 1 1.31.856c1.5 1.337 1.2 3.369.963 5-.348 2.326-.187 3.717.535 4.786a4.387 4.387 0 0 0 1.123 1.1c.562.374.535.535.4.936-.027.053-.027.08-.053.134a8.635 8.635 0 0 1-1.551 2.781 8.775 8.775 0 0 1-3.423 2.567.509.509 0 0 0-.267.668.58.58 0 0 0 .267.294.521.521 0 0 0 .4 0 9.817 9.817 0 0 0 3.824-2.861 10.393 10.393 0 0 0 1.711-3.048 1.3 1.3 0 0 1 .08-.187c.107-.321.214-.508.909-.374a15.236 15.236 0 0 0 1.818.294 31.38 31.38 0 0 0 4.145.16 16.333 16.333 0 0 0 3.369-.374 5.046 5.046 0 0 0 4.011-3.369 15.873 15.873 0 0 0 .642-5.642c0-.348.053-.508.16-.615a.621.621 0 0 1 .508-.027l2.727.909h.053a.865.865 0 0 0 1.15-.615l1.1-3.85c.187-.588.241-.615.775-.668h.08l1.471-.053c.348 0 .535 0 .668.107.107.107.134.294.134.615 0 2.995-.294 4.866-2.059 7.407a12.08 12.08 0 0 1-4.3 3.824.526.526 0 0 0-.214.7.486.486 0 0 0 .294.267.524.524 0 0 0 .4-.027 13.165 13.165 0 0 0 4.679-4.145c.214-.321.428-.668.642-1.016.107-.214.241-.294.374-.267.08.027.214.107.214.508 0 3.021-.294 4.893-2.059 7.433a12.081 12.081 0 0 1-4.3 3.824.526.526 0 0 0-.214.7.486.486 0 0 0 .294.267.525.525 0 0 0 .4-.027 13.165 13.165 0 0 0 4.679-4.145 8.086 8.086 0 0 0 .562-.882c.16-.241.294-.374.4-.374h.053c.134.027.187.214.187.615v4.626a.508.508 0 0 0 .508.508.551.551 0 0 0 .535-.508v-19.271c.027-.588.053-.749.7-.8zm-31.5-15.722c-.321-.508-.267-.588.08-.909l.053-.053a3.331 3.331 0 0 1 1.551-.8 2.959 2.959 0 0 1 2.915 1.1 2.666 2.666 0 0 1 .348 2.38c-.107.267-.187.4-.321.428h-.027c-.107 0-.214-.107-.374-.267l-.027-.027a2.9 2.9 0 0 0-1.07-.829 2.917 2.917 0 0 0-2.086-.187.583.583 0 0 1-.722-.321 8.342 8.342 0 0 0-.321-.508m2.62 2.219a.615.615 0 1 1-.615-.615.605.605 0 0 1 .615.615m-.562 14.305a3.475 3.475 0 0 1-1.364-.294 3.34 3.34 0 0 1-1.975-3.373 5.618 5.618 0 0 1 1.123-3 1.071 1.071 0 0 0 .134-1.337c-.4-.615-1.016-1.551-1.471-2.246-.187-.321-.348-.588.027-.856l2.059-2.086c.214-.214.321-.16.508 0a1.451 1.451 0 0 0 .963.374 1.394 1.394 0 0 0 1.257-.775l.027-.027c.053-.08.107-.187.214-.187a.173.173 0 0 1 .16.134c.027.053.08.134.107.187a.449.449 0 0 1-.08.588l-.134.16-.241.321a9.114 9.114 0 0 0-2.193 4.492c-.16 1.337.7 2.46 2.594 3.369a6.71 6.71 0 0 0 1.39.374.465.465 0 0 1 .428.588 3.962 3.962 0 0 1-.8 2.353 3.885 3.885 0 0 1-2.727 1.23m23.717-1.711a.514.514 0 0 0-.481.374l-.027.08-1.043 3.663a.68.68 0 0 0-.053.187c-.187.562-.267.722-.963.508l-2.353-.775c-.4-.08-.615-.321-.722-.829l-.107-.829a.559.559 0 0 0-.187-.348.479.479 0 0 0-.374-.107.539.539 0 0 0-.455.588l.053.4a27.439 27.439 0 0 1 .214 4.251 12.8 12.8 0 0 1-.562 3.931 4.088 4.088 0 0 1-3.262 2.7 16.416 16.416 0 0 1-3.155.348h-.668a28.969 28.969 0 0 1-3.342-.187c-2.38-.241-3.8-.829-4.492-1.818-.7-1.043-.588-2.567-.374-4.038a8.447 8.447 0 0 0-.187-4.412c-.294-.775-.214-.963.4-1.23a9.939 9.939 0 0 1 1.631-.428 7.853 7.853 0 0 1 3.824.722 6.05 6.05 0 0 0 3.61.267 5.639 5.639 0 0 0 4.171-3.5c.107-.321.348-.321.615-.348a20.133 20.133 0 0 1 3.8.241.479.479 0 0 0 .374-.107.594.594 0 0 0 .214-.348.5.5 0 0 0-.428-.588 21.836 21.836 0 0 0-3.743-.241.484.484 0 0 1-.374-.107.382.382 0 0 1-.053-.348 5.792 5.792 0 0 0-.027-.963c-.027-.428.107-.481.348-.535h.053a21.3 21.3 0 0 1 5.054-.027.479.479 0 0 0 .374-.107.457.457 0 0 0 .187-.348.535.535 0 0 0-.455-.588 22.186 22.186 0 0 0-9.359.909.5.5 0 0 0-.053.936.524.524 0 0 0 .4.027 22.076 22.076 0 0 1 1.9-.508c.187-.027.348-.053.455.053a.435.435 0 0 1 .134.294 5.47 5.47 0 0 1 0 .936c-.053.374-.187.455-.508.508-.856.107-1.711.241-2.54.428a.538.538 0 0 0-.4.615.477.477 0 0 0 .241.321.376.376 0 0 0 .374.053 23.202 23.202 0 0 1 1.872-.348c.16-.027.294 0 .348.08.08.107.027.321-.16.588a4.82 4.82 0 0 1-1.631 1.471 5.453 5.453 0 0 1-5.909-.615 3.606 3.606 0 0 1-1.2-2.139 2.417 2.417 0 0 1-.053-.775v-.027c.027-.374.053-.481.428-.561a7.069 7.069 0 0 0 2.38-1.016 4.16 4.16 0 0 0 1.15-1.23c.107-.16.4-.7.267-1.043a.517.517 0 0 0-.321-.241.664.664 0 0 0-.241-.027h-7.433a.642.642 0 0 1-.508-.187.767.767 0 0 1 0-.722 9.1 9.1 0 0 1 1.417-2.62c.241-.294.481-.588.7-.882.321-.4.668-.8.989-1.283a3.822 3.822 0 0 0 0-4.358 4.033 4.033 0 0 0-3.931-1.5 4.306 4.306 0 0 0-1.658.7c-.321.267-.508.348-.668.294s-.214-.241-.294-.508h-.053a7.6 7.6 0 0 1-.214-2.273 1.339 1.339 0 0 1 .642-1.177c.455-.241 1.364.16 2.139.535a4.562 4.562 0 0 0 .722.294 3.174 3.174 0 0 0 1.524.134 7.847 7.847 0 0 0 1.5-.348c.428-.16.882-.348 1.283-.508.294-.134.615-.267.909-.374a14.334 14.334 0 0 1 4.385-1.016 15.628 15.628 0 0 1 5.535.8l.08.027c.4.134.615.187 1.123-.267a5.137 5.137 0 0 1 8.77 3.1 4.768 4.768 0 0 1-.989 3.262.53.53 0 0 0 .053.7l3.128 3.075c.267.267.481.481.053 1.016l-.8.936a.51.51 0 0 0 .053.722c1.765 1.631 2.54 4.225 2.353 7.674-.027.8-.294.829-.8.829z" data-name="Path 1930" transform="translate(-95.086 -230.031)"/>
        </g>
        <g id="Group_752" data-name="Group 752">
            <path id="Path_1931" d="M201.55 335.6a.517.517 0 0 0-.187-.7 6.315 6.315 0 0 0-2.781-.8h-.214a6.138 6.138 0 0 0-2.594.588 7.419 7.419 0 0 0-1.364.882.51.51 0 0 0-.053.722.559.559 0 0 0 .348.187.5.5 0 0 0 .374-.134 6.316 6.316 0 0 1 1.123-.749 5.1 5.1 0 0 1 2.353-.481 4.983 4.983 0 0 1 2.3.668.519.519 0 0 0 .4.053.538.538 0 0 0 .294-.241" data-name="Path 1931" transform="translate(-142.296 -244.765)"/>
        </g>
    </g>
</svg>
