<svg xmlns="http://www.w3.org/2000/svg" width="96.305" height="30.66" viewBox="0 0 96.305 30.66">
    <defs>
        <style>
            .prefix__cls-1{fill:#616161}
        </style>
    </defs>
    <g id="prefix__Logo" transform="translate(-34.705 -83.957)">
        <path id="prefix__Path_1903" d="M304.6 365.02c0-.659.178-.82.82-.82h.25c.659 0 .82.178.82.82v12.031c0 .8.339 1.141 1.141 1.141h5.49c.606 0 .749.143.749.749v.267c0 .606-.143.749-.749.749h-5.9c-1.836 0-2.62-.8-2.62-2.62z" data-name="Path 1903" transform="translate(-238.737 -271.293)"/>
        <path id="prefix__Path_1904" d="M371.789 376.969c0 .8.339 1.141 1.141 1.141h6.452c.606 0 .749.143.749.749v.267c0 .606-.143.749-.749.749h-6.862c-1.836 0-2.62-.8-2.62-2.62V366.72c0-1.818.784-2.62 2.62-2.62h6.862c.606 0 .749.143.749.749v.267c0 .606-.143.749-.749.749h-6.452c-.8 0-1.141.339-1.141 1.141v3.761h6.611c.606 0 .749.143.749.749v.267c0 .606-.143.749-.749.749h-6.613z" data-name="Path 1904" transform="translate(-292.398 -271.211)"/>
        <path id="prefix__Path_1905" d="M450.211 378.086c.178.624.053.8-.606.8h-.25c-.659 0-.873-.178-1.052-.8l-1.14-4.086h-7.254l-1.123 4.082c-.178.624-.392.8-1.052.8h-.267c-.66 0-.784-.178-.606-.8l3.244-11.621c.749-2.674 1.337-3.565 3.422-3.565 2.068 0 2.674.891 3.4 3.565zm-9.821-5.793h6.328l-1.675-6.042c-.356-1.337-.677-1.658-1.479-1.658-.82 0-1.141.321-1.5 1.658z" data-name="Path 1905" transform="translate(-347.364 -270.225)"/>
        <path id="prefix__Path_1906" d="M532.7 364.2c3.975 0 5.258 1.889 5.258 4.991s-1.3 4.991-5.258 4.991h-4.313v4.955c0 .659-.178.82-.82.82h-.25c-.659 0-.82-.178-.82-.82V366.82c0-1.818.784-2.62 2.62-2.62h3.583zm-3.173 1.765c-.8 0-1.141.339-1.141 1.141v5.329h4.314c2.691 0 3.369-1.069 3.369-3.244 0-2.139-.7-3.226-3.369-3.226z" data-name="Path 1906" transform="translate(-421.086 -271.293)"/>
        <path id="prefix__Path_1907" d="M612 364.2c3.975 0 5.258 1.889 5.258 4.991s-1.3 4.991-5.258 4.991h-4.313v4.955c0 .659-.178.82-.82.82h-.25c-.659 0-.82-.178-.82-.82V366.82c0-1.818.784-2.62 2.62-2.62H612zm-3.173 1.765c-.8 0-1.141.339-1.141 1.141v5.329H612c2.691 0 3.369-1.069 3.369-3.244 0-2.139-.7-3.226-3.369-3.226z" data-name="Path 1907" transform="translate(-486.251 -271.293)"/>
        <path id="prefix__Path_1908" d="M303.1 471.155V468h1.408a.8.8 0 01.891.8.741.741 0 01-.553.731.792.792 0 01.624.784.829.829 0 01-.909.856H303.1zm1.889-2.3a.506.506 0 00-.553-.517h-.945v1.016h.945a.493.493 0 00.553-.5m.053 1.408a.543.543 0 00-.588-.553h-.98v1.091h.98a.521.521 0 00.588-.535" class="prefix__cls-1" data-name="Path 1908" transform="translate(-237.505 -356.592)"/>
        <path id="prefix__Path_1909" d="M331.648 471.073v-1.337L330.4 467.9h.463l.98 1.479.98-1.479h.463l-1.23 1.836v1.337z" class="prefix__cls-1" data-name="Path 1909" transform="translate(-259.939 -356.51)"/>
        <path id="prefix__Path_1910" d="M381.3 470.463l.232-.3a1.331 1.331 0 001 .463c.57 0 .749-.3.749-.553 0-.82-1.872-.356-1.872-1.5 0-.517.463-.873 1.087-.873a1.474 1.474 0 011.123.446l-.232.285a1.173 1.173 0 00-.909-.374c-.374 0-.642.2-.642.5 0 .713 1.872.3 1.872 1.479 0 .463-.321.927-1.159.927a1.652 1.652 0 01-1.248-.5" class="prefix__cls-1" data-name="Path 1910" transform="translate(-301.766 -356.346)"/>
        <path id="prefix__Path_1911" d="M413.446 471.073v-1.462h-1.854v1.462h-.392V467.9h.392v1.372h1.854V467.9h.392v3.173z" class="prefix__cls-1" data-name="Path 1911" transform="translate(-326.337 -356.51)"/>
        <path id="prefix__Path_1912" d="M444.185 471.155l-.285-.713h-1.569l-.285.713h-.446l1.283-3.155h.481l1.266 3.155zm-1.069-2.763l-.677 1.711h1.337z" class="prefix__cls-1" data-name="Path 1912" transform="translate(-351.318 -356.592)"/>
        <path id="prefix__Path_1913" d="M476.036 471.155l-.8-1.248h-.642v1.248h-.394V468h1.266a.932.932 0 011 .945.892.892 0 01-.82.927l.856 1.283zm.018-2.21a.6.6 0 00-.642-.606h-.838v1.212h.838a.59.59 0 00.642-.606" class="prefix__cls-1" data-name="Path 1913" transform="translate(-378.108 -356.592)"/>
        <path id="prefix__Path_1914" d="M503.7 471.073V467.9h2.068v.356h-1.675v1.016h1.64v.356h-1.64v1.087h1.675v.356z" class="prefix__cls-1" data-name="Path 1914" transform="translate(-402.35 -356.51)"/>
        <path id="prefix__Path_1915" d="M534.007 471.073l-1.194-1.426-.321.356v1.069h-.392V467.9h.392v1.64l1.39-1.64h.5l-1.319 1.5 1.444 1.675z" class="prefix__cls-1" data-name="Path 1915" transform="translate(-425.688 -356.51)"/>
        <path id="prefix__Path_1916" d="M563.546 471.073v-1.462h-1.854v1.462h-.392V467.9h.392v1.372h1.854V467.9h.392v3.173z" class="prefix__cls-1" data-name="Path 1916" transform="translate(-449.683 -356.51)"/>
        <path id="prefix__Path_1917" d="M594.285 471.155l-.285-.713h-1.569l-.285.713h-.446l1.283-3.155h.481l1.265 3.155zm-1.069-2.763l-.677 1.711h1.337z" class="prefix__cls-1" data-name="Path 1917" transform="translate(-474.665 -356.592)"/>
        <path id="prefix__Path_1918" d="M626.546 471.073l-1.854-2.531v2.531h-.392V467.9h.41l1.818 2.478V467.9h.392v3.173z" class="prefix__cls-1" data-name="Path 1918" transform="translate(-501.454 -356.51)"/>
        <path id="prefix__Path_1919" d="M305.307 319.618a1.444 1.444 0 110 2.887h-1v1.034c0 .3-.071.392-.392.392h-.125c-.3 0-.392-.071-.392-.392V320.4c0-.553.232-.8.8-.8h1.105zm-.784.82c-.143 0-.2.053-.2.2v1.034h1c.428 0 .57-.214.57-.606 0-.41-.143-.624-.57-.624z" data-name="Path 1919" transform="translate(-237.751 -234.643)"/>
        <path id="prefix__Path_1920" d="M336.078 322.391l.873 1.3c.178.25.125.321-.178.321h-.25a.614.614 0 01-.606-.321l-.8-1.23h-.606v1.176c0 .3-.071.392-.392.392h-.125c-.3 0-.392-.071-.392-.392V320.5c0-.553.232-.8.8-.8h1.087c1.052 0 1.462.553 1.462 1.372a1.165 1.165 0 01-.873 1.319m-1.372-1.872c-.143 0-.2.053-.2.2v.891h1c.428 0 .57-.214.57-.553 0-.356-.143-.553-.57-.553h-.8z" data-name="Path 1920" transform="translate(-262.568 -234.725)"/>
        <path id="prefix__Path_1921" d="M364 322.091v-.927c0-1.016.374-1.765 1.836-1.765s1.836.749 1.836 1.765v.927c0 1.016-.374 1.765-1.836 1.765s-1.836-.749-1.836-1.765m2.763-.927c0-.606-.143-.927-.927-.927-.8 0-.927.321-.927.927v.927c0 .606.143.927.927.927.8 0 .927-.321.927-.927z" data-name="Path 1921" transform="translate(-287.55 -234.479)"/>
        <path id="prefix__Path_1922" d="M394.608 322.837a2.779 2.779 0 01-.856 2.264c-.214.2-.357.178-.517-.071l-.036-.053c-.178-.25-.125-.339.071-.57a2.1 2.1 0 00.463-1.5v-2.816c0-.3.071-.392.392-.392h.125c.3 0 .392.071.392.392v2.745z" data-name="Path 1922" transform="translate(-311.456 -234.725)"/>
        <path id="prefix__Path_1923" d="M415.391 322.9c0 .143.053.2.2.2h1.6c.3 0 .392.071.392.392v.053c0 .3-.071.392-.392.392H415.3c-.553 0-.8-.232-.8-.8V320.4c0-.553.232-.8.8-.8h1.907c.3 0 .392.071.392.392v.053c0 .3-.071.392-.392.392h-1.6c-.143 0-.2.053-.2.2v.659h1.551c.3 0 .392.071.392.392v.053c0 .3-.071.392-.392.392h-1.551v.766z" data-name="Path 1923" transform="translate(-329.049 -234.643)"/>
        <path id="prefix__Path_1924" d="M443.809 322.181c0 .463.178.838 1 .838a2.262 2.262 0 00.713-.107c.3-.071.374 0 .374.3v.053c0 .3-.071.374-.356.481a2.028 2.028 0 01-.766.107c-1.212 0-1.871-.463-1.871-1.658v-1.069c0-1.052.606-1.729 1.889-1.729a2.215 2.215 0 01.749.107c.285.107.374.178.374.481v.053c0 .3-.089.392-.392.3a2.258 2.258 0 00-.731-.107c-.7 0-.962.285-.962.909v1.034z" data-name="Path 1924" transform="translate(-352.387 -234.479)"/>
        <path id="prefix__Path_1925" d="M468.918 319.992c0-.3.071-.392.392-.392h2.674c.3 0 .392.071.392.392v.053c0 .3-.071.392-.392.392h-.891v3.1c0 .3-.071.392-.392.392h-.125c-.3 0-.392-.071-.392-.392v-3.1h-.891c-.3 0-.392-.071-.392-.392v-.053z" data-name="Path 1925" transform="translate(-373.752 -234.643)"/>
        <path id="prefix__Path_1926" d="M198.35 351.463a.313.313 0 00.25.036.318.318 0 00.214-.16 2.608 2.608 0 01.16-.232c.018-.018.036-.036.036-.053.036-.053.071-.107.143-.107q.08 0 .16.16a1.012 1.012 0 00.891.517 1.035 1.035 0 001.034-1.034v-.053c0-.071 0-.16.071-.2a.2.2 0 01.2.018c.071.036.16.071.232.107a.35.35 0 00.267.018.324.324 0 00.2-.178.346.346 0 00-.143-.463 2.889 2.889 0 00-2.139-.285 2.99 2.99 0 00-1.675 1.426.341.341 0 00.107.481m1.872-1.337a.464.464 0 01.463.481.476.476 0 01-.463.481.464.464 0 01-.463-.481.454.454 0 01.463-.481" data-name="Path 1926" transform="translate(-151.292 -259.18)"/>
        <path id="prefix__Path_1927" d="M233.339 327.892a2.215 2.215 0 00-.642-1.551 2.143 2.143 0 00-1.533-.642 1.951 1.951 0 00-.945.232.352.352 0 00-.16.463.324.324 0 00.2.178.35.35 0 00.267-.018 1.388 1.388 0 01.659-.16 1.546 1.546 0 011.052.428 1.468 1.468 0 01.428 1.052.338.338 0 00.339.339.323.323 0 00.339-.321" data-name="Path 1927" transform="translate(-177.458 -239.656)"/>
        <path id="prefix__Path_1928" d="M226.251 357.36a.34.34 0 00-.036.481.287.287 0 00.232.107.334.334 0 00.25-.089 1.426 1.426 0 00.232-.232 4.122 4.122 0 001.087-2.335.356.356 0 00-.3-.392h-.036a.343.343 0 00-.214.071.3.3 0 00-.125.232 3.347 3.347 0 01-.909 1.943.524.524 0 01-.178.214" data-name="Path 1928" transform="translate(-174.255 -263.651)"/>
        <path id="prefix__Path_1929" d="M236.107 362.321a.288.288 0 00.125-.071c.107-.089.214-.2.321-.3a4.785 4.785 0 001.3-3.173.406.406 0 00-.053-.2.416.416 0 00-.285-.178.339.339 0 00-.232.089.324.324 0 00-.107.25 4.1 4.1 0 01-1.105 2.727 3.293 3.293 0 01-.25.25.383.383 0 00-.089.446.3.3 0 00.374.16" data-name="Path 1929" transform="translate(-182.115 -266.527)"/>
        <path id="prefix__Path_1930" d="M155.281 330.566a.349.349 0 00.356-.3c.285-2.567-.107-4.563-1.159-5.935-.285-.339-.25-.463.018-.749l.5-.57a.339.339 0 00-.018-.481l-2.175-2.139c-.267-.214-.178-.41-.071-.624l.018-.036a3.755 3.755 0 00.392-2.014 4.179 4.179 0 00-4.3-3.725 4.1 4.1 0 00-2.388.909.749.749 0 01-.909.178 2.539 2.539 0 01-.285-.089 10.308 10.308 0 00-3.19-.356 11.267 11.267 0 00-4.1 1.141 4.777 4.777 0 01-1.3.374 1.614 1.614 0 01-.731-.053c-.2-.071-.392-.16-.606-.25a2.048 2.048 0 00-1.818-.267 1.546 1.546 0 00-.8 1.319 5.6 5.6 0 00.856 3.333c.2.321.41.642.659.98.125.25.143.374-.107.624l-1.747 1.782a.33.33 0 00-.053.446l.036.036c.57.873.909 1.408 1.105 1.711.143.178.2.285.018.588-.089.143-.178.285-.267.446-.143.267-.285.321-.606.285a4.963 4.963 0 00-.891 0h-.071a8.953 8.953 0 00-1.551.089.346.346 0 00-.3.392.373.373 0 00.125.232.319.319 0 00.25.071 14.009 14.009 0 011.479-.089c.232 0 .463 0 .7.018a.264.264 0 01.125.018.349.349 0 01.25.071c.053.053.053.143.036.339a2.679 2.679 0 00-.036.356v.178a.436.436 0 01-.107.321.412.412 0 01-.3.089c-.16 0-.321.018-.463.018-.428.036-.856.071-1.283.143a.331.331 0 00-.285.392.326.326 0 00.143.232.409.409 0 00.25.071c.41-.053.82-.107 1.212-.125.2-.018.392-.018.588-.018h.125c.214 0 .285.018.463.339a1.676 1.676 0 00.214.321 2.858 2.858 0 001.034.838 4.636 4.636 0 01.873.57c1 .891.8 2.246.642 3.333a4.313 4.313 0 00.356 3.191 2.925 2.925 0 00.749.731c.374.25.356.356.267.624-.018.036-.018.053-.036.089a5.756 5.756 0 01-1.034 1.854 5.849 5.849 0 01-2.281 1.711.34.34 0 00-.178.446.386.386 0 00.178.2.348.348 0 00.267 0 6.544 6.544 0 002.549-1.907 6.928 6.928 0 001.141-2.032.869.869 0 01.053-.125c.071-.214.143-.339.606-.25a10.157 10.157 0 001.212.2 20.921 20.921 0 002.763.107 10.888 10.888 0 002.246-.25 3.363 3.363 0 002.674-2.246 10.581 10.581 0 00.428-3.761c0-.232.036-.339.107-.41a.414.414 0 01.339-.018l1.818.606h.036a.577.577 0 00.766-.41l.731-2.567c.125-.392.16-.41.517-.446h.053l.98-.036c.232 0 .356 0 .446.071.071.071.089.2.089.41a7.435 7.435 0 01-1.372 4.937 8.053 8.053 0 01-2.87 2.549.351.351 0 00-.143.463.324.324 0 00.2.178.35.35 0 00.267-.018 8.776 8.776 0 003.119-2.763c.143-.214.285-.446.428-.677.071-.143.16-.2.25-.178.053.018.143.071.143.339a7.456 7.456 0 01-1.372 4.955 8.053 8.053 0 01-2.87 2.549.351.351 0 00-.143.463.324.324 0 00.2.178.35.35 0 00.267-.018 8.776 8.776 0 003.119-2.763 5.383 5.383 0 00.374-.588c.107-.16.2-.25.267-.25h.036c.089.018.125.143.125.41v3.084a.338.338 0 00.339.339.367.367 0 00.356-.339v-12.842c.018-.392.036-.5.463-.535zm-21-10.481c-.214-.339-.178-.392.053-.606l.036-.036a2.221 2.221 0 011.034-.535 1.973 1.973 0 011.943.731 1.777 1.777 0 01.232 1.586c-.071.178-.125.267-.214.285h-.018c-.071 0-.143-.071-.25-.178l-.018-.018a1.932 1.932 0 00-.713-.553 1.944 1.944 0 00-1.39-.125.389.389 0 01-.481-.214c-.071-.125-.143-.232-.214-.339m1.747 1.479a.41.41 0 11-.41-.41.4.4 0 01.41.41m-.374 9.536a2.316 2.316 0 01-.909-.2 2.226 2.226 0 01-1.319-2.246 3.745 3.745 0 01.749-2 .714.714 0 00.089-.891c-.267-.41-.677-1.034-.98-1.5-.125-.214-.232-.392.018-.57l1.372-1.39c.143-.143.214-.107.339 0a.967.967 0 00.642.25.93.93 0 00.838-.517l.018-.018c.036-.053.071-.125.143-.125a.115.115 0 01.107.089c.018.036.053.089.071.125a.3.3 0 01-.053.392l-.089.107-.16.214a6.076 6.076 0 00-1.462 2.994c-.107.891.463 1.64 1.729 2.246a4.471 4.471 0 00.927.25.31.31 0 01.285.392 2.641 2.641 0 01-.535 1.569 2.59 2.59 0 01-1.818.82m15.81-1.141a.342.342 0 00-.321.25l-.018.053-.7 2.442a.453.453 0 00-.036.125c-.125.374-.178.481-.642.339l-1.569-.517c-.267-.053-.41-.214-.481-.553l-.071-.553a.373.373 0 00-.125-.232.319.319 0 00-.25-.071.359.359 0 00-.3.392l.036.267a18.291 18.291 0 01.143 2.834 8.535 8.535 0 01-.374 2.62 2.725 2.725 0 01-2.175 1.8 10.94 10.94 0 01-2.1.232h-.446a19.313 19.313 0 01-2.228-.125c-1.586-.16-2.531-.553-2.994-1.212a3.971 3.971 0 01-.25-2.691 5.63 5.63 0 00-.125-2.941c-.2-.517-.143-.642.267-.82a6.624 6.624 0 011.087-.285 5.235 5.235 0 012.549.481 4.032 4.032 0 002.406.178 3.759 3.759 0 002.781-2.335c.071-.214.232-.214.41-.232a13.42 13.42 0 012.531.16.319.319 0 00.25-.071.4.4 0 00.143-.232.334.334 0 00-.285-.392 14.558 14.558 0 00-2.5-.16.323.323 0 01-.25-.071.254.254 0 01-.036-.232 3.861 3.861 0 00-.018-.642c-.018-.285.071-.321.232-.356h.036a14.2 14.2 0 013.369-.018.319.319 0 00.25-.071.3.3 0 00.125-.232.356.356 0 00-.3-.392 14.789 14.789 0 00-6.238.606.335.335 0 00-.036.624.35.35 0 00.267.018c.41-.125.838-.25 1.266-.339.125-.018.232-.036.3.036a.29.29 0 01.089.2 3.646 3.646 0 010 .624c-.036.25-.125.3-.339.339-.57.071-1.141.16-1.693.285a.359.359 0 00-.267.41.318.318 0 00.16.214.25.25 0 00.25.036c.41-.089.838-.178 1.248-.232.107-.018.2 0 .232.053.053.071.018.214-.107.392a3.213 3.213 0 01-1.087.98 3.635 3.635 0 01-3.939-.41 2.4 2.4 0 01-.8-1.426 1.611 1.611 0 01-.036-.517v-.018c.018-.25.036-.321.285-.374a4.711 4.711 0 001.586-.677 2.773 2.773 0 00.766-.82c.071-.107.267-.463.178-.7a.344.344 0 00-.214-.16.443.443 0 00-.16-.018h-4.955a.428.428 0 01-.339-.125.511.511 0 010-.481 6.066 6.066 0 01.945-1.747c.16-.2.321-.392.463-.588.214-.267.446-.535.66-.856a2.548 2.548 0 000-2.905 2.688 2.688 0 00-2.62-1 2.87 2.87 0 00-1.105.463c-.214.178-.339.232-.446.2s-.143-.16-.2-.339h-.036a5.064 5.064 0 01-.143-1.515.893.893 0 01.428-.784c.3-.16.909.107 1.426.356a3.039 3.039 0 00.481.2 2.116 2.116 0 001.016.089 5.232 5.232 0 001-.232c.285-.107.588-.232.856-.339.2-.089.41-.178.606-.25a9.555 9.555 0 012.923-.677 10.417 10.417 0 013.69.535l.053.018c.267.089.41.125.749-.178a3.424 3.424 0 015.846 2.068 3.179 3.179 0 01-.66 2.175.353.353 0 00.036.463l2.085 2.05c.178.178.321.321.036.677l-.535.624a.34.34 0 00.036.481c1.176 1.087 1.693 2.816 1.569 5.115-.018.535-.2.553-.535.553z" data-name="Path 1930" transform="translate(-95.086 -230.031)"/>
        <path id="prefix__Path_1931" d="M199.11 335.1a.345.345 0 00-.125-.463 4.209 4.209 0 00-1.854-.535h-.143a4.091 4.091 0 00-1.729.392 4.946 4.946 0 00-.909.588.34.34 0 00-.036.481.373.373 0 00.232.125.334.334 0 00.25-.089 4.21 4.21 0 01.749-.5 3.4 3.4 0 011.569-.321 3.322 3.322 0 011.533.446.346.346 0 00.267.036.359.359 0 00.2-.16" data-name="Path 1931" transform="translate(-148.041 -246.558)"/>
    </g>
</svg>
