<svg xmlns="http://www.w3.org/2000/svg" width="123.495" height="120.237" viewBox="0 0 123.495 120.237">
    <defs>
        <style>
            .prefix__cls-4{fill:#c6c6c6}.prefix__cls-2{fill:#878787}.prefix__cls-3{fill:#1d1d1b}.prefix__cls-6{fill:#f4bc8f}.prefix__cls-7{fill:#dfc822}.prefix__cls-8{fill:#f7b58e}.prefix__cls-9{fill:#eb9d68}.prefix__cls-10{fill:#efefef}.prefix__cls-13{fill:#fff}
        </style>
    </defs>
    <g id="prefix___3" data-name="3" transform="translate(-817 -1878.578)">
        <path id="prefix__Path_3347" d="M61.747 0c34.1 0 61.747 5.71 61.747 12.754S95.849 25.508 61.747 25.508 0 19.8 0 12.754 27.645 0 61.747 0z" data-name="Path 3347" transform="translate(817 1973.307)" style="opacity:.5;fill:#c6c6c6"/>
        <g id="prefix__Illustrations" transform="translate(820.296 1878.578)">
            <g id="prefix__Group_598" data-name="Group 598" transform="translate(0 16.351)">
                <path id="prefix__Path_2915" d="M264.285 536.566c-.914-2.428-1.283-9.17-1.283-9.17H242.01c-.774 5.517-.429 5.82-1.161 8.782-.8 3.247-9.254 4.186-9.9 4.356-.007.019-.189.208-.2.226 1.334.322 22.936 1.54 43.085-.192-1.955-.096-8.582-1.433-9.549-4.002z" class="prefix__cls-2" data-name="Path 2915" transform="translate(-192.381 -447.458)"/>
                <path id="prefix__Rectangle_156" d="M7.187 0h102.285a7.188 7.188 0 0 1 7.188 7.188v66.036a7.187 7.187 0 0 1-7.187 7.187H7.187A7.187 7.187 0 0 1 0 73.225V7.187A7.187 7.187 0 0 1 7.187 0z" class="prefix__cls-2" data-name="Rectangle 156"/>
                <path id="prefix__Path_2916" d="M130.555 514.5a.661.661 0 0 0-.009.091v3.942c0 .759 1.231 1.375 2.749 1.375h111.093c1.519 0 2.75-.616 2.75-1.375v-3.943a.659.659 0 0 0-.01-.091z" class="prefix__cls-2" data-name="Path 2916" transform="translate(-130.512 -439.495)"/>
                <g id="prefix__Group_597" data-name="Group 597" transform="translate(38.015 93.004)">
                    <path id="prefix__Path_2917" d="M229.876 562.054s-.285 1.079.388 1.326c16.307.828 30.867 1.156 43.074-.205a1.07 1.07 0 0 0 .086-1.326 298.006 298.006 0 0 1-43.548.205z" class="prefix__cls-3" data-name="Path 2917" transform="translate(-229.816 -561.733)"/>
                    <path id="prefix__Path_2918" d="M230.138 561.546s-.577.428.1.674c21.661 1.51 42.55.451 43.161.036.27-.209.428-.415.086-.71a278 278 0 0 1-43.347 0z" class="prefix__cls-3" data-name="Path 2918" transform="translate(-229.873 -561.546)"/>
                </g>
                <path id="prefix__Rectangle_157" d="M0 0H108.527V61.963H0z" class="prefix__cls-4" data-name="Rectangle 157" transform="translate(3.902 6.057)"/>
            </g>
            <g id="prefix__Group_599" data-name="Group 599" transform="translate(9.834 24.863)" style="opacity:.5">
                <path id="prefix__Path_2919" d="M311.9 452.241c-.032.076-2.934 4.685-1.073 4.685 1.026 0 2.073-4.544 1.073-4.685z" class="prefix__cls-2" data-name="Path 2919" transform="translate(-251.267 -409.568)"/>
                <path id="prefix__Path_2920" d="M358.671 437.094c0 3.35 2.848.021 2.848-1.465a1.057 1.057 0 0 1-.563-.637c-.029 0-2.285 2.229-2.285 2.102z" class="prefix__cls-2" data-name="Path 2920" transform="translate(-281.191 -398.919)"/>
                <path id="prefix__Path_2921" d="M369.2 441.657c.012.002.013.002 0 0z" class="prefix__cls-2" data-name="Path 2921" transform="translate(-287.693 -403.034)"/>
                <path id="prefix__Path_2922" d="M366.026 443.307c.518 0-.222-1 .208-1a2.956 2.956 0 0 1 .2.72c.135-.461.343-.93.522-1.463-.032-.005-.162-.028-.318-.06-.769.736-1.633 1.803-.612 1.803z" class="prefix__cls-2" data-name="Path 2922" transform="translate(-285.444 -402.938)"/>
                <path id="prefix__Path_2923" d="M367.076 440.853c-.833 0-.2.158.244.248.085-.081.168-.159.247-.23-.152.003-.32-.018-.491-.018z" class="prefix__cls-2" data-name="Path 2923" transform="translate(-286.13 -402.537)"/>
                <path id="prefix__Path_2924" d="M369.59 439.712a3.712 3.712 0 0 0-.574.454.532.532 0 0 0 .574-.454z" class="prefix__cls-2" data-name="Path 2924" transform="translate(-287.578 -401.833)"/>
                <path id="prefix__Path_2925" d="M358.672 447.238c1.035 0-2.3-1.467-2.552-.613.68 0 1.936.613 2.552.613z" class="prefix__cls-2" data-name="Path 2925" transform="translate(-279.616 -405.936)"/>
                <path id="prefix__Path_2926" d="M367.656 448.571c.357-.132-.911-.614 0 0z" class="prefix__cls-2" data-name="Path 2926" transform="translate(-286.531 -407.115)"/>
                <path id="prefix__Path_2927" d="M365.416 448.566c0 .256 0 .229 0 0z" class="prefix__cls-2" data-name="Path 2927" transform="translate(-285.355 -407.299)"/>
                <path id="prefix__Path_2928" d="M366.885 449.425c0 .753 0-.068 0 0z" class="prefix__cls-2" data-name="Path 2928" transform="translate(-286.262 -407.827)"/>
                <path id="prefix__Path_2929" d="M364.076 448.537c-.055.349.053 0 0 0z" class="prefix__cls-2" data-name="Path 2929" transform="translate(-284.518 -407.282)"/>
                <path id="prefix__Path_2930" d="M369.781 449.041q1.183-.454-.04-.177c-.81.969-.109.177.04.177z" class="prefix__cls-2" data-name="Path 2930" transform="translate(-287.789 -407.418)"/>
                <path id="prefix__Path_2931" d="M375.492 441.967c-.334.679-.589-.151-.276.6.417 1.509 3.572 1.429 4.995 2.278a13.7 13.7 0 0 0-1.044-1.653c-2.084-1.25-1.37-.886-3.211-.886.07 0-1.321-1.83-1.321-.7 0 .454.665.316.857.361z" class="prefix__cls-2" data-name="Path 2931" transform="translate(-291.047 -402.777)"/>
                <path id="prefix__Path_2932" d="M387.412 478.478c.079-.456-.21-.081 0 0z" class="prefix__cls-2" data-name="Path 2932" transform="translate(-298.888 -425.63)"/>
                <path id="prefix__Path_2933" d="M378.911 474.186a.244.244 0 0 0 .345 0c-.139-.086-.156-.106-.345 0z" class="prefix__cls-2" data-name="Path 2933" transform="translate(-293.687 -423.073)"/>
                <path id="prefix__Path_2934" d="M370.149 450.726c-.447.285-.035 2.433-.69 2.433-1.062 0-1.515-1.836-2.345-2.243.288 1.859-4.458 1.791-5.193 3.837a17.322 17.322 0 0 0 .415 4.285c1.308.924 2.074-.59 3.265-.577a9.4 9.4 0 0 1 2.527.932 2.358 2.358 0 0 0 .632-.827c0 .09-.29.968-.187.968a.417.417 0 0 0 .266-.376c.849 1.012 1.6 2.612 3.389.99 0-2.026 1.179-2.248.709-4.462-1.119-1.344-2.625-3.186-2.788-4.96z" class="prefix__cls-2" data-name="Path 2934" transform="translate(-283.172 -408.633)"/>
                <path id="prefix__Path_2935" d="M405.434 472.791a18.475 18.475 0 0 1 .681 2.786c.364 0 .907-1.558.847-1.558-.654 0-1.153-.533-1.528-1.228z" class="prefix__cls-2" data-name="Path 2935" transform="translate(-310.063 -422.256)"/>
                <path id="prefix__Path_2936" d="M368.464 433.7c.245 0 .595.235.861.235.119 0 .028-.419.08-.5a2.818 2.818 0 0 1 .159.263c.021-.257.179-1.182-.245-1.189-.041.135-1.145 1.191-.855 1.191z" class="prefix__cls-2" data-name="Path 2936" transform="translate(-287.207 -397.383)"/>
                <path id="prefix__Path_2937" d="M371.411 435.612v.038c.014.005.012-.011 0-.038z" class="prefix__cls-2" data-name="Path 2937" transform="translate(-289.055 -399.302)"/>
                <path id="prefix__Path_2938" d="M367.591 426.758a3.7 3.7 0 0 1-.554-1.895q-.162.239-.278-.089a8.217 8.217 0 0 0-.17 1.2c-.003.158.691.609 1.002.784z" class="prefix__cls-2" data-name="Path 2938" transform="translate(-286.08 -392.61)"/>
                <path id="prefix__Path_2939" d="M367.142 418.36q-.585.511-.2 1.039a.889.889 0 0 0 .2-1.039z" class="prefix__cls-2" data-name="Path 2939" transform="translate(-286.204 -388.65)"/>
                <path id="prefix__Path_2940" d="M356.29 442.814c-.322-.788.252.857 0 0z" class="prefix__cls-2" data-name="Path 2940" transform="translate(-279.659 -403.612)"/>
                <path id="prefix__Path_2942" d="M351.513 442.643v.052z" class="prefix__cls-2" data-name="Path 2942" transform="translate(-276.772 -403.643)"/>
                <path id="prefix__Path_2943" d="M351.5 442.476l.006.064z" class="prefix__cls-2" data-name="Path 2943" transform="translate(-276.762 -403.54)"/>
                <path id="prefix__Path_2944" d="M351.469 442.172l.011.116z" class="prefix__cls-2" data-name="Path 2944" transform="translate(-276.744 -403.352)"/>
                <path id="prefix__Path_2945" d="M351.464 442.119v-.033z" class="prefix__cls-2" data-name="Path 2945" transform="translate(-276.74 -403.299)"/>
                <path id="prefix__Path_2946" d="M350.454 440.209c.075.2.417.316 0 0z" class="prefix__cls-2" data-name="Path 2946" transform="translate(-276.118 -402.14)"/>
                <path id="prefix__Path_2947" d="M376.95 404.3a8.336 8.336 0 0 0-1.262.618 2.139 2.139 0 0 1 1.026.561c-.209.49 3.011-3.068 1.5-3.068-.019.068 0 .108.049.118-.42.413-.985 1.771-1.313 1.771z" class="prefix__cls-2" data-name="Path 2947" transform="translate(-291.697 -378.802)"/>
                <path id="prefix__Path_2948" d="M381.844 398.941c-.211.886.6.577 1.429-.082q-.2-.125-.06-.3-.605.144-.975-.566c-.186.333-.238.872-.394.948z" class="prefix__cls-2" data-name="Path 2948" transform="translate(-295.477 -376.078)"/>
                <path id="prefix__Path_2949" d="M385.537 399.126c.407-.724-.205.357 0 0z" class="prefix__cls-2" data-name="Path 2949" transform="translate(-297.751 -376.617)"/>
                <path id="prefix__Path_2951" d="M383.37 388.41c-.462-1.8-.266 3.153-.315 3.153.375 0 .14-.466.463-.153-.397-1.01.182-1.594-.148-3z" class="prefix__cls-2" data-name="Path 2951" transform="translate(-296.245 -369.915)"/>
                <path id="prefix__Path_2952" d="M318.455 358.793l-.015-.038c.015.019.027.032 0 0-1.4-3.464 3.238-2.216 3.238-4 0-.53-4.669 1.564-4.748 3.542a1.9 1.9 0 0 0 1.525.496z" class="prefix__cls-2" data-name="Path 2952" transform="translate(-255.419 -349.329)"/>
                <path id="prefix__Path_2953" d="M289.526 368.77c-.125.055-.034.059 0 0z" class="prefix__cls-2" data-name="Path 2953" transform="translate(-238.461 -358.033)"/>
                <path id="prefix__Path_2954" d="M288.487 386.7c-.006 0-.014-.007-.022-.018a.021.021 0 0 0 .022.018z" class="prefix__cls-2" data-name="Path 2954" transform="translate(-237.846 -369.095)"/>
                <path id="prefix__Path_2955" d="M286.462 383.8s.004 0 0 0z" class="prefix__cls-2" data-name="Path 2955" transform="translate(-236.609 -367.313)"/>
                <path id="prefix__Path_2956" d="M295.387 406.915c-.023-.04-.088-.134-.185-.267-.038.068-.002.152.185.267z" class="prefix__cls-2" data-name="Path 2956" transform="translate(-241.997 -381.419)"/>
                <path id="prefix__Path_2957" d="M314.572 404.932h-.056c.018.028.036.032.056 0z" class="prefix__cls-2" data-name="Path 2957" transform="translate(-253.93 -380.358)"/>
                <path id="prefix__Path_2959" d="M322.414 359.267a3.882 3.882 0 0 0-3.437-.379c-1.754-.03-3.808-1.594-5.43-1.747-2.517-.237-3.037.251-5.418-.059.96.124-6.677-2.237-6.824-1.024.071-.655 2.069-.8 1.807-1.659-1.169-3.828-10.021 3.493-10.973 2.034.01-.073-.642 2.916-.235 2.916-.837 0-.078-3.207-.819-2.916-.833.326-1.946 2.57-.76 2.781-2.843-.505-3.122.82-6.185.82-.3 0-.259-1.086-.389-1-.965.662-.934 2.021-2.271 2.532a1.348 1.348 0 0 1-.69-1.123c.057 0 2.209.44 1.911-.52-.519-1.673-3.494-.793-3.113-2.005-.78-.478-.764.269-1.439.188.217-.888-2.314 1-2.561.65-.047.055-.3.237-.315.306.049.064.046.109.029.14a3.139 3.139 0 0 1 .5-.152c-.321 1.618-2.683 2.536-2.946 3.6-.169.687-.008 3.423 1.261 1.24.12.205.589 1.975.736 2.166-.108-.36 3.45-6.086 3.45-5 0 .946-1.485.756-1.142 2 .375 1.357 1.85-.28 2.148.7-.679.544-5.959 5.4-5.222 1.209-.113.182-4.137 5.175-4.137 4.3 0 1.485.559.707.137 2.066.059-.189-3.1 1.811-.818 2.48 2.542.745 1.242-2.1 3.094-2.5 2.053-.447 2.666 2.172 3.252 2.172.744 0-.395-1.015.691-.767.081-.71-1.7-1.163-1.7-2.16 0-.5 2.163 2.233 2.83 3.145.085-.15.539-.2.568-.2a2.511 2.511 0 0 1-.53-.836c0-.344 1.1-.072 1.6-.318a1.007 1.007 0 0 0-.412.519c-.546 1.445 1.781 1.423 2.591 1.051a6.27 6.27 0 0 1-.458 2.221c-1.054-2.487-6.675 2.376-6.418-2.3-1.3.277-3.839.1-4.837.8-1.752 1.23-3.707 6.1-2.965 8.087 1.009 2.7 2.807 1.806 4.4 2.538 2.477 1.137 2.814.252 3.611 3.719.944 4.1.408 14.88 5.8 7.354a20.2 20.2 0 0 0 2.1-5.289c.321-1.256-.277-1.977.275-3.437.5-1.31 3.436-2.867 2.682-4.673a2.459 2.459 0 0 1-2.691-.7l.4-.508c.325.477.6.8.73.823 2.228.467 4.668-3.055 3.038-4.665-.667.6-1.055.765-1.285.688l1.169-1.486a43.413 43.413 0 0 0 4.008 2 .319.319 0 0 1-.374.224c1.1 1.328.279.07 1.043-.011 0 .638.641 5.007 1.4 4.9.53 0 1.352-3.367 2.163-3.915 2.97-2.007 1.123 1.317 2.733 1.317 1.423 0 .7 2.93 1.411 4.225a6.634 6.634 0 0 0-1.321-.8c.331.542 2.926 3.8 2.926 3.7a3.435 3.435 0 0 0-1.024-2.366 1.28 1.28 0 0 0 .453.076.207.207 0 0 1 .2-.058 19.927 19.927 0 0 1-1.411-3.4c-.049.129-.081.228-.116.331.034-.1.066-.2.116-.331-.072-.379-.034-.632.2-.632.179 0 2.187 1.849 1.655 1.25 0-3.249.836-2.506 2.138-4.421.855-1.257 1.724-1.331 2.168-3.287.342-1.507-1.033-.46.374-2.149-.309-.51-1.379.487-1.379-.531 0 .1.966-.873 1.005-.873q.407.286 0 .708c1.352 0 1.419.275 1.419 1.76.9-2.574 3.231-4.307 4.111-7.786.265-1.047-1.966.362-1.023-1.305 1.165-2.06 2.253-1.087 3.793-1.712.523-.212 3.748-1.444 3.779-1.354.394 1.164-4.344 2.9-1.981 5.132.425-.763 1.291-3.178 1.858-3.586.756-.544 4.01-.859 4.435-1.929.821-2.064.593-.782 2.919-1.71a7.591 7.591 0 0 0-2.068-1.289zm-35.981 11.168c-.43.409-1.426-.3-.986.66.168.35.955 1.066.955 1.276 0 .077-.082.876-.116 1.467l-.059.071c-.9.257-1.173-.255-1.432-.87h.025c-.237-.415-.253-5.949 1.613-2.604zm-7.272 1.866a.4.4 0 0 0 .08-.072c-.148-.262-.216-2.254.66-2.254.6 0 .588 1.833 1.457.519-1.015 0 .186-.591.5-.733-.075.336.094 2.462.824 2.32-1.075.386-2.66-.221-3.52.219z" class="prefix__cls-2" data-name="Path 2959" transform="translate(-224.235 -348.469)"/>
                <path id="prefix__Path_2960" d="M351.62 430.795l-.012.031z" class="prefix__cls-2" data-name="Path 2960" transform="translate(-276.83 -396.328)"/>
                <path id="prefix__Path_2961" d="M296.709 406.138s.002 0 0 0z" class="prefix__cls-2" data-name="Path 2961" transform="translate(-242.936 -381.104)"/>
                <path id="prefix__Path_2962" d="M361.718 359.056c-.04.027-.182.18 0 0z" class="prefix__cls-2" data-name="Path 2962" transform="translate(-283.016 -352.036)"/>
                <path id="prefix__Path_2963" d="M353.319 350.217c0-.7-1.7-.862-1.7.354-.004.476 1.7-.371 1.7-.354z" class="prefix__cls-2" data-name="Path 2963" transform="translate(-276.835 -346.242)"/>
                <path id="prefix__Path_2964" d="M347.081 346.762c-1.357.509.5.985 1.212.308a1.445 1.445 0 0 0-1.025-.354c.316-.191.07-.35.306-.461-.987-.88-.71-.077-1.627.236a2.125 2.125 0 0 0 1.134.271z" class="prefix__cls-2" data-name="Path 2964" transform="translate(-273.336 -343.885)"/>
                <path id="prefix__Path_2965" d="M312.028 346.807c.505 0-.2.473.324.473a2.634 2.634 0 0 0 .706-.234c-.047.045-.155.162 0 0 .163-.077.292-.163.3-.239-.431-.169-2.898 0-1.33 0z" class="prefix__cls-2" data-name="Path 2965" transform="translate(-252.075 -344.427)"/>
                <path id="prefix__Path_2966" d="M322.834 346.784c-.121-.246.395-.487-.344-.472-.001.188-.572 1.028.344.472z" class="prefix__cls-2" data-name="Path 2966" transform="translate(-258.744 -344.167)"/>
                <path id="prefix__Path_2967" d="M319.45 345.682c.195 0-.081-.521.05-.736-.313.179-.864.557-.808.523-.455.423.731.213.758.213z" class="prefix__cls-2" data-name="Path 2967" transform="translate(-256.444 -343.324)"/>
                <path id="prefix__Path_2968" d="M287.2 349.491c.419 0 .575.692 1.369.437a3.465 3.465 0 0 1-.778.413 1.674 1.674 0 0 0 .817.213 1.112 1.112 0 0 1-.689.083 1.262 1.262 0 0 0 .768.743c.168-.2.691-1.57.975-1.57.637.609-.16 1.245 1.212.7-.408-.707-2.708-2.075-2.4-1.04-.19-.088-.514-.231-.649-.272-.546-.543-.705.293-.625.293z" class="prefix__cls-2" data-name="Path 2968" transform="translate(-237.054 -345.835)"/>
                <path id="prefix__Path_2969" d="M293.736 349.661l-.115.018c.092.036.123.021.115-.018z" class="prefix__cls-2" data-name="Path 2969" transform="translate(-241.029 -346.235)"/>
                <path id="prefix__Path_2970" d="M292.9 348.317c1.085-.139.329.806 1.807-.372-.356-.858-2.718-.306-2.413-.036.016-.25.575.261.606.408z" class="prefix__cls-2" data-name="Path 2970" transform="translate(-240.191 -344.891)"/>
                <path id="prefix__Path_2971" d="M286.879 351.139c-.065-.246-.192-.3-.315-.479 0 0 0-.013.009-.029a.057.057 0 0 0-.011.026l-.007-.01c-.147.112.136.436.324.492z" class="prefix__cls-2" data-name="Path 2971" transform="translate(-236.642 -346.835)"/>
                <path id="prefix__Path_2972" d="M286.592 350.632c0 .007.028.036 0 0z" class="prefix__cls-2" data-name="Path 2972" transform="translate(-236.689 -346.835)"/>
                <path id="prefix__Path_2973" d="M272.526 386.857a1.494 1.494 0 0 0-.9 1.487c.004 1.176 2.236-1.487.9-1.487z" class="prefix__cls-2" data-name="Path 2973" transform="translate(-227.452 -369.2)"/>
                <path id="prefix__Path_2974" d="M277.578 383.894s.002.006 0 0z" class="prefix__cls-2" data-name="Path 2974" transform="translate(-231.124 -367.371)"/>
                <path id="prefix__Path_2975" d="M274.616 383.505a1.385 1.385 0 0 1 .332 1.39v-.057c-.083.05-.042.172-.016.113a4.62 4.62 0 0 0-.132 1.079c0 .007.378.188.547.079-.154.168-.589.666-.607.688 3.037-.318 1.174-1.61.946-3.541a2.351 2.351 0 0 1-.654-.4c-.344.234-.683.584-.416.649z" class="prefix__cls-2" data-name="Path 2975" transform="translate(-229.236 -366.734)"/>
                <path id="prefix__Path_2976" d="M264.4 372.771a3.346 3.346 0 0 0-2.641-.7q.046.2-.2.07c.026.177 1.315.46.029.46.301.361 2.045 1.79 2.812.17z" class="prefix__cls-2" data-name="Path 2976" transform="translate(-221.236 -360.073)"/>
                <path id="prefix__Path_2977" d="M219.834 421.817c-.672-.337-2.234-1.945-2.926-.542a3.446 3.446 0 0 1 .489.06c.86.145 2.426.504 2.437.482z" class="prefix__cls-2" data-name="Path 2977" transform="translate(-193.666 -390.101)"/>
                <path id="prefix__Path_2980" d="M226.283 424.336q-.421-.415-.217-.212c-1.391-.834-.681.176-1.458.176 0 .331 1.305.138 1.675.036z" class="prefix__cls-2" data-name="Path 2980" transform="translate(-198.42 -392.005)"/>
                <path id="prefix__Path_2981" d="M222.448 445.732c-.252 2.223-1 4.931-.936 6.02a17.776 17.776 0 0 0 .545 2.217 1.639 1.639 0 0 1 .518-.083h.878c-.041-1.6.817-3.633.817-4.156 0-.363 1.872-1.226 1.872-2.679 0 .774 8.934-9.516 6.384-10.461a10.7 10.7 0 0 0-3.832-.943c.744 0-3.139-4.851-3.655-4.38-.755-.132-1.55-.358-2.256-.448a4.94 4.94 0 0 0-.271 1.007c-.447 0 .14-1.124-.064-1.124-.79 0-1.25 1.051-1.688 1.437-.014.018-.09-.019-.209-.1.562.757-.8 4.483-.748 4.831.533 3.879 3.16 4.32 2.645 8.862z" class="prefix__cls-2" data-name="Path 2981" transform="translate(-195.453 -396.272)"/>
                <path id="prefix__Path_2982" d="M231.089 400.552s-.004 0 0 0z" class="prefix__cls-2" data-name="Path 2982" transform="translate(-202.419 -377.653)"/>
                <path id="prefix__Path_2983" d="M221.334 433.889c.061.047.116.086.163.119a.314.314 0 0 0-.163-.119z" class="prefix__cls-2" data-name="Path 2983" transform="translate(-196.399 -398.238)"/>
                <path id="prefix__Path_2984" d="M178.8 386.184c-1.217 0-2.558 2.532-3.034-.519-.362-2.318 1.274-1.679 2.315-2.3q.165-.447-.158-.378c1.892-.792 1.664 1.853 2.552 1.853.078 0 1.1-4.49 1.3-5.136-.043-.243.127.591.148.591-.036 0 .58-1.287.966-1.452-.433-.375.045-.1.709-.3q.032-.173-.108 0c-.318 0 1.153-1.522 1.724-1.522q-.922.27-.389.763c.011-.059 1.188-.784 1.188-.8 0-.309-.789-1.1-.789-1.475a1.078 1.078 0 0 0-1.438.236 1.3 1.3 0 0 1 1.257-.779c.034.125.66.632.772.4a4.373 4.373 0 0 0-.677-.408c.795-.052 1.671.081 1.986-.624.946-2.116-.58-.311-.866-.962.755-.5-.342-2.135-1.251-3.234a4.4 4.4 0 0 1-.788.944c-1.5 0-.945-3.139-3-1.478.106-.086-.272 5.135-.575 4.842-.528-.507-3.438-2.747-3.521-2.886-.632-1.059.463-2.923.051-3.208 1.654.673.8-.956.712-1.167.257.048 2.585-.1 2.33-1-.779-2.745-1.447.419-1.732.1-.213-.235.159-1.054-.371-1.054q-.188.261-.394.508c0-.313-.823-2.053-1.281-2.067-.725-.021-.1 2.078.375 1.795a5.364 5.364 0 0 1-.522.826c.091-.029-3.725-1.162-3.725-.554.132.2.305.216.52.061-.216.231-.571.706-.263.706-1.825 0-2.685-1.351-4.7-1.712-1.349-.241-2.918.62-4.492.224v1.241c-.211-1.064-.934-1.584-3.1-1.8-1.665-.162-2.4-.178-4.064 1.389.086 0 1.4 1.3 1.4 1.3-1.234.373.05-1.014-1.7.247.407.987 1.056.4 1.9.52-2.1 1.476-.769 3.566 1.4 2.975a14.343 14.343 0 0 0-2.513 2.172c1.254.427 3.571-2.57 4.089-3.294a.58.58 0 0 1-.161.364c1.3-.542 5.767 1.869 5.767 2.4 0 .02.621 1.359 1.131 2.49-.243-.184-.49-.316-.628-.236.129.068.548.345.5.532.149.112.284.229.4.318.2.441.343.785.377.9.369 1.207 1.817 9.162 3.932 9.162.153 0-1.639-2.979-1.439-3.293 2.846 3.4 6.607 8.109 10.07 8.109a.359.359 0 0 1 .107.015c-.906-.678-3.076-2.839-2.299-4.345zm4.593-9.337a.409.409 0 0 0-.035.054v-.006a.548.548 0 0 0 .042-.048zm-.035.054a.4.4 0 0 0-.026.059.366.366 0 0 1 .028-.06zm-1.235.314c.056-.065.1-.119.122-.137.082-.07-.703.808-.12.137zm-1.245.586c2.325-.881-.618.275 0 0zm-.01.4a1.167 1.167 0 0 1-.175.107l.016-.011-.028.016a1.908 1.908 0 0 1 .19-.113zm-.2-.981c0-.19-.6.206-.775.475-.126-.328-.2-.852-.536-.852-.652 0-.3 1.712-.661 1.712-.8 0 .614-1.818-.216-1.24a.942.942 0 0 1 .8-.59c-1.037-.083-2.193-.113-1.225-.885-.088 0-.561-.155-.941-.262 1.151-.008 3.56.464 3.56 1.645zm-4.168-1.772zm-10.549-3.862a1.243 1.243 0 0 0 .2.421.57.57 0 0 1-.194-.417zm8.837 11.609l-.028-.024zm-1.744-.844a.83.83 0 0 1 .628.477.83.83 0 0 0-.622-.473zm1.51.722a.523.523 0 0 0-.093-.009.5.5 0 0 1 .099.013zm.159.063l-.023-.013zm-.077-.039l-.034-.011a.355.355 0 0 1 .04.014zm.179.126a.947.947 0 0 1 .188.319 1.1 1.1 0 0 0-.182-.315z" class="prefix__cls-2" data-name="Path 2984" transform="translate(-156.161 -354.892)"/>
                <path id="prefix__Path_2985" d="M156.934 369.386s0-.003 0 0z" class="prefix__cls-2" data-name="Path 2985" transform="translate(-156.638 -358.411)"/>
                <path id="prefix__Path_2986" d="M216.608 397.778c.092.007.183.015.272.024a1.072 1.072 0 0 0-.272-.024z" class="prefix__cls-2" data-name="Path 2986" transform="translate(-193.481 -375.943)"/>
                <path id="prefix__Path_2987" d="M167.569 381.144c0-.212.2-.374.351-.557a.55.55 0 0 0-.351.557z" class="prefix__cls-2" data-name="Path 2987" transform="translate(-163.204 -365.329)"/>
                <path id="prefix__Path_2988" d="M179.832 384.35c.074-.621-.35.213 0 0z" class="prefix__cls-2" data-name="Path 2988" transform="translate(-170.689 -367.508)"/>
                <path id="prefix__Path_2989" d="M187.322 360.976c.228.456.875.13 1.442-.293a2.007 2.007 0 0 0-.013.234c0 .93.9.231 1.774.827a3.25 3.25 0 0 0-1.281.295c.791 1.628 4.271.083 4.285.083.352 0-1.224-2.562-1.015-2.562-.562 0-.859 1.166-.695 1.355a6.082 6.082 0 0 0-2.208-.975.845.845 0 0 0 .124-.142c0-.564-2.141-.82-2.542-.626.076.971-.293 1.113.129 1.804z" class="prefix__cls-2" data-name="Path 2989" transform="translate(-175.273 -352.067)"/>
                <path id="prefix__Path_2990" d="M192.419 355.857c0 .385 3.448.9 3.448-.295a11.606 11.606 0 0 0-1.054-.827c-.308.3-.26.791-.01.791a16.076 16.076 0 0 1-1.8-.352 1.578 1.578 0 0 0-.584.683zm.857-.424c-.033 0-.09-.015-.152-.028a1.281 1.281 0 0 1 .152.028z" class="prefix__cls-2" data-name="Path 2990" transform="translate(-178.547 -349.369)"/>
                <path id="prefix__Path_2991" d="M188.874 354.7c.61 0 1.7-.121 1.7-.921.005-.457-2.734.921-1.7.921z" class="prefix__cls-2" data-name="Path 2991" transform="translate(-176.214 -348.722)"/>
                <path id="prefix__Path_2992" d="M195.988 351.6c-.287.243 1.839-.413.276-.413-.438.001-1.058.413-.276.413z" class="prefix__cls-2" data-name="Path 2992" transform="translate(-180.519 -347.178)"/>
                <path id="prefix__Path_2993" d="M196.361 352.681q.71-.052.246-.259c-1.04 0-.539.421-.246.259z" class="prefix__cls-2" data-name="Path 2993" transform="translate(-180.745 -347.94)"/>
                <path id="prefix__Path_2994" d="M205.25 361.228c0-1.341-1.221-.283-1.449.024 1.408 1.684 1.46-.021 1.449-.024z" class="prefix__cls-2" data-name="Path 2994" transform="translate(-185.574 -352.968)"/>
                <path id="prefix__Path_2995" d="M204.671 356.088a1.064 1.064 0 0 0 .709 0c-.054-.451-.025-1.526-.936-1.051q.462.031.345.425h-.149a1.693 1.693 0 0 1 .346.217c-.111.13-.315.197-.315.409z" class="prefix__cls-2" data-name="Path 2995" transform="translate(-185.971 -349.481)"/>
                <path id="prefix__Path_2996" d="M204.19 356.1a.438.438 0 0 0 .293.089 1.147 1.147 0 0 0-.293-.089z" class="prefix__cls-2" data-name="Path 2996" transform="translate(-185.814 -350.208)"/>
                <path id="prefix__Path_2997" d="M203.155 355.579c-.117-.122.068-.32-.642-.32.209.32.38.276.642.32z" class="prefix__cls-2" data-name="Path 2997" transform="translate(-184.779 -349.692)"/>
                <path id="prefix__Path_2998" d="M207.209 367.5q-.525-1.115-.887-.224c-.449.131.56.457.887.224z" class="prefix__cls-2" data-name="Path 2998" transform="translate(-187.061 -356.866)"/>
                <path id="prefix__Path_2999" d="M209.264 359.675c-.725 0-.344.992-.344 1.416.369-.201 2.374-1.416.344-1.416z" class="prefix__cls-2" data-name="Path 2999" transform="translate(-188.673 -352.418)"/>
                <path id="prefix__Path_3000" d="M201.741 357.661c.641-.09.109-.563 0 0z" class="prefix__cls-2" data-name="Path 3000" transform="translate(-184.302 -351.007)"/>
                <path id="prefix__Path_3001" d="M203.386 351.382c0-1.052-1.722-.732-1.656-.732-.13.616 1.656.55 1.656.732z" class="prefix__cls-2" data-name="Path 3001" transform="translate(-184.291 -346.818)"/>
                <path id="prefix__Path_3002" d="M212.92 356.347c-.227-.012-.093-.084 0-.141-.158-.349-3.919-.481-4.69-.905a14.936 14.936 0 0 0 2.03 1.26c.448.067 2.608.506 2.66-.214z" class="prefix__cls-2" data-name="Path 3002" transform="translate(-188.308 -349.717)"/>
                <path id="prefix__Path_3003" d="M207.87 354.889c0 .057.05.109.138.158-.087-.072-.138-.128-.138-.158z" class="prefix__cls-2" data-name="Path 3003" transform="translate(-188.086 -349.463)"/>
                <path id="prefix__Path_3004" d="M208.888 357.318c0-.817-.838-.194-.838.06.225.208.838.553.838-.06z" class="prefix__cls-2" data-name="Path 3004" transform="translate(-188.197 -350.712)"/>
                <path id="prefix__Path_3005" d="M207.695 351.252c0-.183-1.555-.981-.591.177-.104.043.591.417.591-.177z" class="prefix__cls-2" data-name="Path 3005" transform="translate(-187.419 -346.947)"/>
                <path id="prefix__Path_3006" d="M210.051 344.363a.962.962 0 0 0-.748.235c0 .9 1.685.309 2.19-.1a7.269 7.269 0 0 0-.516.716c.26-.434.87.546.838.508-.132.016-1.035-.517-1.035-.212 0 .076.042.921-.3.921.184 0 3.2.327 3.2-.236 0-.436.578-1.535.611-1.865a7.205 7.205 0 0 1 2.327-1.11.964.964 0 0 0-.061.342.858.858 0 0 0 .74.236c0 1.127-2.139.5-2.139 1.3 0 .7 1.506.369 1.823.39-.127.56-1.343.039-1.409.59.108.048 2.205.48 2.168.437.931 1.084 2.454 3.2 3.477 3.6-.057.44-.612-.119-.867 0a1.553 1.553 0 0 0 1.064.508c-.408 1.528-1.151 5.431 1.942 5.431.168 0 .959-3.01 1.7-3.365.619-.353 3.346-1.307 4.285-2.208a1.41 1.41 0 0 1-1.084-.389q.386-.117.119-.449c.06.044 1.182.853 1.182.449 0-.629-.773-1.015-.986-1.476q.462-.045.671.532c.552 0-.243-.789-.377-.864 1.792-.178.771-.774.771-2.029 0-.427.887.1.887-.354 0-.544-.6-.525-.936-.709a24.628 24.628 0 0 1 2.463-2.751c0-1.441-3.42.943-3.424.944 0-.016 1.121-1.38.419-1.38q-.594.311-1.159.673a4.751 4.751 0 0 1 .37-.591 18.484 18.484 0 0 1-2 0c.4 0 3.058.142 3.149-.614-2.016-.576-5.228-1.292-7.163-.177.344.572-.922.024.364.791-.576-.108-4.53-.383-5.72.733a.722.722 0 0 0-.161-.284 2.9 2.9 0 0 0 1.645-.624c0-2.078-8 .5-8.275.567.211.51.05-.1.787.106-1.572.573.158.011-.414.5.389.595 2.214.157 2.71.071-.476.711-1.408-.067-.711.764-.292-.072-1.232-.189-1.209-.223-.284.059.294.383.483.58a.331.331 0 0 0-.145.1c-.112.126-.766-.732-.9-.88a11.82 11.82 0 0 0-1.586-.764.812.812 0 0 0 .031.192 1.493 1.493 0 0 0-.277.162.27.27 0 0 0 .4.189c-.02.025-1.029.509-.257.509-1.008-.011.463.393 1.043.578z" class="prefix__cls-2" data-name="Path 3006" transform="translate(-188.582 -340.707)"/>
                <path id="prefix__Path_3007" d="M213.974 347.947l.008.01c.046.024.05.024-.008-.01z" class="prefix__cls-2" data-name="Path 3007" transform="translate(-191.855 -345.177)"/>
                <path id="prefix__Path_3008" d="M216.367 372.849a.537.537 0 0 0 .021.059c.012-.04.004-.063-.021-.059z" class="prefix__cls-2" data-name="Path 3008" transform="translate(-193.332 -360.551)"/>
                <path id="prefix__Path_3009" d="M216.45 373.864c-.3-.3-.839-.522-.984-.862-.05.232-.586 1.084-.593 1.217q.487-.2.492.236c.56-.001 1.51-.208 1.085-.591z" class="prefix__cls-2" data-name="Path 3009" transform="translate(-192.41 -360.646)"/>
                <path id="prefix__Path_3010" d="M218.043 377.015c-.129.916.2-.013 0 0z" class="prefix__cls-2" data-name="Path 3010" transform="translate(-194.348 -363.124)"/>
                <path id="prefix__Path_3011" d="M216.29 360.529h.029c.026-.064.009-.054-.029 0z" class="prefix__cls-2" data-name="Path 3011" transform="translate(-193.285 -352.918)"/>
                <path id="prefix__Path_3012" d="M221.161 364.91c0-.453-2.471-2.609-2.68-2.692.236-1.625-4.325-.657-4.377-.494-.244-.14.171-.926.308-1.122-1.993.016-.739 1.564-1.1 1.734.048.4 1.878.79 2.9 1.057-.083.079-.142.182-.07.182a.222.222 0 0 0 .187-.151 1.659 1.659 0 0 1 .542.2c1.884 2.3-.433.706-.433 2.255 0-.3 2.957 1.594 3.33 1.594q.468-.527-.621-.968c.39.017.645.414 1.064.472.209-.706-.71-1.808-.867-1.913.427 0 .768.673 1.181.673-.135-.001.636-.895.636-.827z" class="prefix__cls-2" data-name="Path 3012" transform="translate(-191.407 -352.99)"/>
                <path id="prefix__Path_3013" d="M221.44 376.319c.1.094.128.094.227 0-.118-.071-.128-.154-.227 0z" class="prefix__cls-2" data-name="Path 3013" transform="translate(-196.464 -362.64)"/>
                <path id="prefix__Path_3014" d="M217.14 372.665a.194.194 0 0 0 .2.189c-.073-.106-.073-.254-.2-.189z" class="prefix__cls-2" data-name="Path 3014" transform="translate(-193.809 -360.427)"/>
                <path id="prefix__Path_3015" d="M212.417 345.326c-.011.002-.01.003 0 0z" class="prefix__cls-2" data-name="Path 3015" transform="translate(-190.889 -343.558)"/>
                <path id="prefix__Path_3016" d="M215.47 348.484a.584.584 0 0 1 .116-.01.3.3 0 0 0-.116.01z" class="prefix__cls-2" data-name="Path 3016" transform="translate(-192.778 -345.503)"/>
                <path id="prefix__Path_3017" d="M239.234 366.7c.483-1.253-.183-.025 0 0z" class="prefix__cls-2" data-name="Path 3017" transform="translate(-207.431 -356.406)"/>
                <path id="prefix__Path_3018" d="M235.6 393.285a7.443 7.443 0 0 1 1.656.432 14.778 14.778 0 0 1-.661-1.99 3.943 3.943 0 0 0-.995 1.558z" class="prefix__cls-2" data-name="Path 3018" transform="translate(-205.21 -372.205)"/>
                <path id="prefix__Path_3019" d="M239.934 396.933a.262.262 0 0 0 .018.04c.048 0 .037-.015-.018-.04z" class="prefix__cls-2" data-name="Path 3019" transform="translate(-207.883 -375.421)"/>
                <path id="prefix__Path_3020" d="M181.422 388.918c.191.338.345.976.345.378 0-.383-.184-.447-.345-.378z" class="prefix__cls-2" data-name="Path 3020" transform="translate(-171.757 -370.458)"/>
                <path id="prefix__Path_3021" d="M289.072 406c-.825-.2-.74.487 0 0z" class="prefix__cls-2" data-name="Path 3021" transform="translate(-237.858 -380.997)"/>
                <path id="prefix__Path_3022" d="M285.346 401.709c.5-1.2-.632-.148 0 0z" class="prefix__cls-2" data-name="Path 3022" transform="translate(-235.798 -378.02)"/>
                <path id="prefix__Path_3023" d="M296.949 408.779c-1.288-.454-.321.208 0 0z" class="prefix__cls-2" data-name="Path 3023" transform="translate(-242.682 -382.635)"/>
                <path id="prefix__Path_3024" d="M303.116 408.488c-1.3.266-.083.507 0 0z" class="prefix__cls-2" data-name="Path 3024" transform="translate(-246.523 -382.555)"/>
                <path id="prefix__Path_3025" d="M330.452 360.783c-.543-.524-.509.5 0 0z" class="prefix__cls-2" data-name="Path 3025" transform="translate(-263.525 -353.007)"/>
                <path id="prefix__Path_3026" d="M234.591 397.581c-.623-.431 0 .152 0 0z" class="prefix__cls-2" data-name="Path 3026" transform="translate(-204.413 -375.721)"/>
            </g>
            <g id="prefix__Group_620" data-name="Group 620" transform="translate(33.443 30.717)">
                <g id="prefix__Group_612" data-name="Group 612" transform="translate(23.893)">
                    <g id="prefix__Group_600" data-name="Group 600" transform="translate(16.559 78.894)">
                        <path id="prefix__Path_3027" d="M328.715 566.733a9.46 9.46 0 0 1-3.883 1.785c-.594.152-1.235-.051-1.235.929h3.275l2.724-.471v.471h1.471s.409-2.406-.45-2.714z" class="prefix__cls-3" data-name="Path 3027" transform="translate(-323.597 -565.004)"/>
                        <path id="prefix__Path_3028" d="M337.139 562.215l-.166 1.729a1.664 1.664 0 0 0 1.8.06l.1-.06.611-1.729z" class="prefix__cls-6" data-name="Path 3028" transform="translate(-331.855 -562.215)"/>
                    </g>
                    <g id="prefix__Group_601" data-name="Group 601" transform="translate(29.65 78.894)">
                        <path id="prefix__Path_3029" d="M362.931 566.733a9.459 9.459 0 0 1-3.883 1.785c-.594.152-1.235-.051-1.235.929h3.275l2.724-.471v.471h1.471s.409-2.406-.45-2.714z" class="prefix__cls-3" data-name="Path 3029" transform="translate(-357.813 -565.004)"/>
                        <path id="prefix__Path_3030" d="M371.355 562.215l-.166 1.729a1.664 1.664 0 0 0 1.8.06l.1-.06.611-1.729z" class="prefix__cls-6" data-name="Path 3030" transform="translate(-366.071 -562.215)"/>
                    </g>
                    <path id="prefix__Path_3031" d="M342.392 449.148h-3.768l-1.324 43.673h2.546l7.48-35.545z" class="prefix__cls-3" data-name="Path 3031" transform="translate(-315.498 -413.513)"/>
                    <path id="prefix__Path_3032" d="M347.415 449.148l8.808 43.672h2.8l-1.149-43.672z" class="prefix__cls-3" data-name="Path 3032" transform="translate(-321.743 -413.513)"/>
                    <g id="prefix__Group_607" data-name="Group 607" transform="translate(29.505 44.031)">
                        <g id="prefix__Group_602" data-name="Group 602" transform="translate(3.484)">
                            <path id="prefix__Path_3033" d="M366.545 473.5l.845-.06a1.486 1.486 0 0 1 .392-1.029 2.121 2.121 0 0 1 1.562-.5 2.379 2.379 0 0 1 1.685.5 1.018 1.018 0 0 1 .308.711l.846.048a1.792 1.792 0 0 0-.525-1.3 3.123 3.123 0 0 0-2.314-.764 2.923 2.923 0 0 0-2.189.768 2.272 2.272 0 0 0-.61 1.626z" class="prefix__cls-3" data-name="Path 3033" transform="translate(-366.542 -471.093)"/>
                        </g>
                        <g id="prefix__Group_605" data-name="Group 605" transform="translate(0 1.644)">
                            <path id="prefix__Rectangle_158" d="M0 0H12.611V8.114H0z" class="prefix__cls-7" data-name="Rectangle 158" transform="rotate(180 6.306 4.928)"/>
                            <g id="prefix__Group_604" data-name="Group 604">
                                <g id="prefix__Group_603" data-name="Group 603">
                                    <path id="prefix__Path_3034" d="M363.28 489.807c0 .5.235.551.526.551s.526-.056.526-.551v-1.722a32.655 32.655 0 0 0 5.714-1.023v6.4c0 .572-.221 1.035-.557 1.035h-11.5c-.336 0-.557-.463-.557-1.035v-6.379a37.82 37.82 0 0 0 5.845.99z" class="prefix__cls-4" data-name="Path 3034" transform="translate(-357.435 -482.596)"/>
                                    <path id="prefix__Path_3035" d="M357.992 475.39h11.5c.336 0 .557.463.557 1.035v3.1a19.539 19.539 0 0 1-5.714.971v-.42c0-.5-.235-.551-.526-.551s-.526.056-.526.551v.419a20.135 20.135 0 0 1-5.845-.97v-3.1c-.003-.572.218-1.035.554-1.035z" class="prefix__cls-3" data-name="Path 3035" transform="translate(-357.435 -475.39)"/>
                                </g>
                            </g>
                        </g>
                        <g id="prefix__Group_606" data-name="Group 606" transform="translate(5.68 6.985)">
                            <path id="prefix__Path_3036" d="M372.281 491.064v-.533a.228.228 0 0 1 .228-.228h.912a.228.228 0 0 1 .228.228v.533a.228.228 0 0 1-.228.228h-.912a.228.228 0 0 1-.228-.228zm.228-.7a.163.163 0 0 0-.163.163v.533a.163.163 0 0 0 .163.163h.912a.163.163 0 0 0 .163-.163v-.533a.163.163 0 0 0-.163-.163z" class="prefix__cls-3" data-name="Path 3036" transform="translate(-372.281 -489.938)"/>
                            <path id="prefix__Path_3037" d="M373.916 490.148a.057.057 0 0 0 .059.055.057.057 0 0 0 .059-.055v-.748a.057.057 0 0 0-.059-.055.057.057 0 0 0-.059.055z" class="prefix__cls-3" data-name="Path 3037" transform="translate(-373.29 -489.349)"/>
                        </g>
                    </g>
                    <g id="prefix__Group_608" data-name="Group 608" transform="translate(0 29.77)">
                        <path id="prefix__Path_3038" d="M285 435.328a3.329 3.329 0 0 1-1.78.515c-1.048.087-3.28-.369-2.854.666 1 .542 2.117 1.3 2.117 1.3a3.683 3.683 0 0 0 2.446-.318l1.955-1.193s.168-1.1.185-1.15l-.448-.182a5.389 5.389 0 0 1-1.621.362z" class="prefix__cls-8" data-name="Path 3038" transform="translate(-280.317 -434.526)"/>
                        <path id="prefix__Path_3039" d="M288.769 435.082a.831.831 0 0 1-.116.126c.139.056.273.119.4.186.549.015 1.1.047 1.646.067-.034-.316-.08-.761-.078-.793l-3.566-.849s-.288.375.363.78a3.643 3.643 0 0 0 1.351.483z" class="prefix__cls-8" data-name="Path 3039" transform="translate(-284.44 -433.819)"/>
                    </g>
                    <path id="prefix__Path_3040" d="M371.292 461.572l-1.185 2.606a5.076 5.076 0 0 0 .779 1.991.559.559 0 0 0 .621.125 7.009 7.009 0 0 0 1.822-.968.535.535 0 0 0 .058-.464l-.345-1.148-.042-2.675z" class="prefix__cls-8" data-name="Path 3040" transform="translate(-335.753 -420.855)"/>
                    <g id="prefix__Group_610" data-name="Group 610" transform="translate(25.251)">
                        <path id="prefix__Path_3041" d="M354.9 377.171l-.039 3.492 3.111-.167.2-5.413z" class="prefix__cls-6" data-name="Path 3041" transform="translate(-351.592 -367.785)"/>
                        <g id="prefix__Group_609" data-name="Group 609" transform="translate(1.227 1.878)">
                            <path id="prefix__Path_3042" d="M351.087 368.749a1.877 1.877 0 0 1-1.048-.249c-1.254-1.823.174-6.738.174-6.738l2-.844 2.546 1.588.145 3.293a2.673 2.673 0 0 1-1.137 2.272 5.219 5.219 0 0 1-2.68.678z" class="prefix__cls-6" data-name="Path 3042" transform="translate(-349.523 -360.918)"/>
                        </g>
                        <path id="prefix__Path_3043" d="M351.216 375.121c-.644.34-1.453.513-1.8.11" class="prefix__cls-9" data-name="Path 3043" transform="translate(-348.23 -367.809)"/>
                        <ellipse id="prefix__Ellipse_155" cx=".21" cy=".192" data-name="Ellipse 155" rx=".21" ry=".192" transform="translate(1.984 4.989)"/>
                        <path id="prefix__Path_3044" d="M352.075 361.342c-.14-.554.239-1.83-.324-1.738-.411.067-1.82.125-2.293.125-1.129 0-3.142-.442-3.142-2.161a1.564 1.564 0 0 1 1.056-1.515c.518-.216 1.1.406 1.633.591a14.063 14.063 0 0 0 4.468.65 1.52 1.52 0 0 1 1.584 1.061 7.354 7.354 0 0 1-1.035 3.475 5.274 5.274 0 0 1-1.128 1.476z" class="prefix__cls-3" data-name="Path 3044" transform="translate(-346.315 -356.009)"/>
                        <path id="prefix__Path_3045" d="M362.988 370.042a.85.85 0 0 0-1.052.094c-.329.274-.392.676-.14.9a.85.85 0 0 0 1.052-.094c.329-.275.391-.678.14-.9z" class="prefix__cls-6" data-name="Path 3045" transform="translate(-355.777 -364.585)"/>
                    </g>
                    <path id="prefix__Path_3046" d="M319.661 386.8a8.964 8.964 0 0 1 3.651.748 8.782 8.782 0 0 1 4.918 6.076c.989 4.2 2.649 14.174-1.155 22.915a18.943 18.943 0 0 1-2.546 0l-.407-20.606.288 14.719h-11.8v-9.492s-.306 2.144-3.157 4.123-14.286 2.174-14.286 2.174v-2.227s10.11-3.48 11.638-4.639 4.827-9.512 4.827-9.512a7.538 7.538 0 0 1 5.16-4 14.213 14.213 0 0 1 2.869-.279z" class="prefix__cls-10" data-name="Path 3046" transform="translate(-289.487 -375.022)"/>
                    <g id="prefix__Group_611" data-name="Group 611" transform="translate(32.951 21.386)">
                        <path id="prefix__Path_3047" d="M366.72 426.1l-.278-14.184.305-.009.281 14.193z" class="prefix__cls-3" data-name="Path 3047" transform="translate(-366.442 -411.905)"/>
                    </g>
                    <path id="prefix__Path_3048" d="M357.687 384.2l.192 1.147-3.575-.007.234-1.14z" class="prefix__cls-10" data-name="Path 3048" transform="translate(-325.996 -373.417)"/>
                </g>
                <g id="prefix__Group_619" data-name="Group 619" transform="translate(0 6.472)">
                    <path id="prefix__Path_3049" d="M241.371 408.294s.109 13.037 3.508 12.882 5.636-10.448 5.636-10.448l-1.377-.4-3.3 6.226a13.921 13.921 0 0 0-.342-5.763 3.014 3.014 0 0 0-4.125-2.497z" class="prefix__cls-8" data-name="Path 3049" transform="translate(-232.379 -394.64)"/>
                    <g id="prefix__Group_613" data-name="Group 613" transform="translate(6.126 12.379)">
                        <path id="prefix__Path_3050" d="M237.4 405.28l-.155.234c.038.025 3.786 2.544 3.786 6.656v16.762h-6.865l.218-12.907c-.093.073-.188.145-.285.214l-.22 12.974h7.432v-17.042c-.001-4.262-3.874-6.866-3.911-6.891z" class="prefix__cls-3" data-name="Path 3050" transform="translate(-233.878 -405.28)"/>
                    </g>
                    <g id="prefix__Group_614" data-name="Group 614" transform="translate(5.404 32.968)">
                        <rect id="prefix__Rectangle_159" width="8.967" height="6.691" data-name="Rectangle 159" rx="3.345" style="fill:#dbdbdb"/>
                        <path id="prefix__Path_3051" d="M240.96 462.3v-2.038a1.171 1.171 0 0 0-1.167-1.167h-6.633a1.171 1.171 0 0 0-1.167 1.167v2.038z" class="prefix__cls-7" data-name="Path 3051" transform="translate(-231.993 -459.094)"/>
                        <path id="prefix__Path_3052" d="M251.242 465.784c-.559 0-1.017-.24-1.017-.8v-5.093c0-.559.458-.8 1.017-.8a1.01 1.01 0 0 1 1.017.8v4.875a.9.9 0 0 1-1.017 1.018z" class="prefix__cls-3" data-name="Path 3052" transform="translate(-243.249 -459.094)"/>
                        <path id="prefix__Path_3053" d="M240.46 466.843a.31.31 0 0 1-.308-.309v-1.555a.309.309 0 0 1 .308-.308.31.31 0 0 1 .309.308v1.555a.31.31 0 0 1-.309.309z" data-name="Path 3053" transform="translate(-237.03 -462.537)" style="fill:#4e4d4d"/>
                    </g>
                    <path id="prefix__Path_3054" d="M260.529 407.783l-.61-2.482a4.539 4.539 0 0 1 1.012-1.618.5.5 0 0 1 .565-.008 6.27 6.27 0 0 1 1.438 1.15.477.477 0 0 1-.026.417l-.492.95-.45 1.754z" class="prefix__cls-8" data-name="Path 3054" transform="translate(-243.83 -391.858)"/>
                    <g id="prefix__Group_617" data-name="Group 617">
                        <path id="prefix__Path_3055" d="M227.5 400.077c2.4 0 2.964.351 2.964.351a37.873 37.873 0 0 1 4.151 6.285 3.533 3.533 0 0 1-.016 2.891c-1.891 4.075-1.65 11.921-1.65 11.921h-7.015c.308-5.848-5.728-20.338 1.566-21.448z" class="prefix__cls-10" data-name="Path 3055" transform="translate(-221.579 -389.689)"/>
                        <path id="prefix__Path_3056" d="M237.147 471.423l-1.247-15.287h-2.968l-3.593 4.266a29.578 29.578 0 0 0-.272 11.021z" class="prefix__cls-3" data-name="Path 3056" transform="translate(-224.533 -424.299)"/>
                        <g id="prefix__Group_616" data-name="Group 616" transform="translate(3.502)">
                            <path id="prefix__Path_3057" d="M237.561 391.425l.006 4.6-2.762-3.011.3-4.283z" class="prefix__cls-6" data-name="Path 3057" transform="translate(-231.827 -382.684)"/>
                            <path id="prefix__Path_3058" d="M233.215 374.942c-1.913.26-2.865 2.713-2.865 2.713l.021 7.258-3.317-2.868a25.864 25.864 0 0 1 .577-6.842c.71-2.247 3.573-2.839 5.583-1.742a4.467 4.467 0 0 1 1.9 2.618 8.275 8.275 0 0 1 .2 4.333l-1.138 5.326-1.416-1.4a5.79 5.79 0 0 1-.006-2.667c.73-2.679 1.746-6.904.461-6.729z" class="prefix__cls-3" data-name="Path 3058" transform="translate(-227.022 -372.925)"/>
                            <path id="prefix__Path_3059" d="M234.037 385.338a.676.676 0 0 1 .9.088.582.582 0 0 1 .12.839.676.676 0 0 1-.9-.088.583.583 0 0 1-.12-.839z" class="prefix__cls-6" data-name="Path 3059" transform="translate(-231.272 -380.507)"/>
                            <g id="prefix__Group_615" data-name="Group 615" transform="translate(3.273 1.49)">
                                <path id="prefix__Path_3060" d="M238.836 384.131a1.491 1.491 0 0 0 .893-.233c1.069-1.7-.148-6.292-.148-6.292l-1.708-.788-2.173 1.482-.124 3.076a2.584 2.584 0 0 0 .969 2.122 4.146 4.146 0 0 0 2.291.633z" class="prefix__cls-6" data-name="Path 3060" transform="translate(-235.578 -376.818)"/>
                            </g>
                            <path id="prefix__Path_3061" d="M237.474 376.259c.409 1.372-3.226 2.964-3.226 2.964l-.913-1.712 1.665-2.046 2.11.337a1.214 1.214 0 0 1 .364.457z" class="prefix__cls-3" data-name="Path 3061" transform="translate(-230.92 -374.493)"/>
                            <path id="prefix__Path_3062" d="M244.2 377.837c.076.541.92 1.2.92 1.2l.079-.647-.192-.455-.433-.241s-.45-.394-.374.143z" class="prefix__cls-3" data-name="Path 3062" transform="translate(-237.622 -375.782)"/>
                            <circle id="prefix__Ellipse_156" cx=".145" cy=".145" r=".145" data-name="Ellipse 156" transform="translate(5.42 5.029)"/>
                            <circle id="prefix__Ellipse_157" cx=".145" cy=".145" r=".145" data-name="Ellipse 157" transform="translate(6.886 5.029)"/>
                            <path id="prefix__Path_3063" d="M242.97 390.9c0 .235-.379.422-.849.422s-.849-.192-.849-.422" class="prefix__cls-9" data-name="Path 3063" transform="translate(-235.82 -384.021)"/>
                        </g>
                        <path id="prefix__Path_3064" d="M226.086 471.423a133.677 133.677 0 0 0 2.435-15.287h-6.3s-5.375 2.253-4.178 15.287z" class="prefix__cls-3" data-name="Path 3064" transform="translate(-217.867 -424.299)"/>
                    </g>
                    <g id="prefix__Group_618" data-name="Group 618" transform="translate(24.034 22.994)">
                        <path id="prefix__Path_3065" d="M282.243 435.1a2.419 2.419 0 0 0 1.413.07c.789-.129 2.339-.91 2.235-.015-.629.616-1.3 1.421-1.3 1.421a2.635 2.635 0 0 1-1.864.212l-1.679-.57s-.345-.833-.368-.87l.293-.228a3.868 3.868 0 0 0 1.27-.02z" class="prefix__cls-6" data-name="Path 3065" transform="translate(-280.684 -434.075)"/>
                        <path id="prefix__Path_3066" d="M283.352 434.34a.678.678 0 0 0 .111.077c-.091.07-.177.145-.26.223-.4.115-.8.244-1.2.364-.039-.256-.094-.614-.1-.639l2.452-1.341s.288.241-.11.682a2.651 2.651 0 0 1-.893.634z" class="prefix__cls-6" data-name="Path 3066" transform="translate(-281.437 -433.023)"/>
                    </g>
                    <path id="prefix__Path_3067" d="M226.506 405.921c2.512-2.59 7.3 3.816 9.021 5.7a3.631 3.631 0 0 0 1.13.837l11.486 4.469-.722 1.187-12.665-2.714a4.937 4.937 0 0 1-1.4-.623c-2.39-1.548-9.356-6.277-6.85-8.856z" class="prefix__cls-6" data-name="Path 3067" transform="translate(-222.871 -392.921)"/>
                </g>
            </g>
            <g id="prefix__Group_622" data-name="Group 622" transform="translate(42.637)">
                <path id="prefix__Path_3068" d="M256.9 275.724c-8.287 0-15.005 5.78-15.005 12.91a12.329 12.329 0 0 0 5.691 10.122l-5.109 10.34 14.424-7.552c8.287 0 15.005-5.78 15.005-12.911s-6.714-12.909-15.006-12.909z" class="prefix__cls-3" data-name="Path 3068" transform="translate(-241.899 -275.724)"/>
                <g id="prefix__Group_621" data-name="Group 621" transform="translate(4.442 11.079)">
                    <circle id="prefix__Ellipse_158" cx="1.898" cy="1.898" r="1.898" class="prefix__cls-13" data-name="Ellipse 158"/>
                    <circle id="prefix__Ellipse_159" cx="1.898" cy="1.898" r="1.898" class="prefix__cls-13" data-name="Ellipse 159" transform="translate(8.355)"/>
                    <circle id="prefix__Ellipse_160" cx="1.898" cy="1.898" r="1.898" class="prefix__cls-13" data-name="Ellipse 160" transform="translate(16.864)"/>
                </g>
            </g>
            <g id="prefix__Group_624" data-name="Group 624" transform="translate(59.507 15.879)">
                <path id="prefix__Path_3069" d="M296.686 317.227c5.906 0 10.694 4.119 10.694 9.2a8.787 8.787 0 0 1-4.056 7.214l3.641 7.369-10.28-5.382c-5.906 0-10.694-4.119-10.694-9.2s4.789-9.201 10.695-9.201z" class="prefix__cls-7" data-name="Path 3069" transform="translate(-285.992 -317.227)"/>
                <g id="prefix__Group_623" data-name="Group 623" transform="translate(3.531 7.761)">
                    <circle id="prefix__Ellipse_161" cx="1.356" cy="1.356" r="1.356" class="prefix__cls-13" data-name="Ellipse 161"/>
                    <circle id="prefix__Ellipse_162" cx="1.356" cy="1.356" r="1.356" class="prefix__cls-13" data-name="Ellipse 162" transform="translate(5.968)"/>
                    <circle id="prefix__Ellipse_163" cx="1.356" cy="1.356" r="1.356" class="prefix__cls-13" data-name="Ellipse 163" transform="translate(12.046)"/>
                </g>
            </g>
        </g>
    </g>
</svg>
